<svg height="64" viewBox="0 0 64 64" width="64" xmlns="http://www.w3.org/2000/svg"><g fill="#47848f" fill-rule="evenodd" transform="matrix(3.8181795 0 0 3.8181795 -16.611314 -82.545383)"><path d="m10.455395 25.221775c-2.1904407-.398953-3.9223356.0186-4.6125867 1.214155-.5150808.892146-.3678491 2.074983.3570662 3.339363.061701.107618.1989607.14484.3065781.08314.1076175-.0617.1448401-.19896.083139-.306578-.653012-1.138969-.7800786-2.159803-.3577416-2.891312.5733944-.993148 2.1182147-1.365602 4.14305-.996812.122043.02223.238998-.05869.261226-.180731.02223-.122042-.05869-.238997-.180731-.261225zm-3.1164183 6.090364c.8856922.97331 2.0363542 1.886226 3.3486193 2.643862 3.177443 1.834498 6.560055 2.324837 8.227147 1.188119.102493-.06988.128925-.209625.05904-.312117-.06988-.102491-.209624-.128924-.312116-.05904-1.492027 1.017349-4.705264.551562-7.749457-1.206004-1.2730454-.734993-2.3872642-1.618995-3.2409795-2.557165-.08349-.09175-.2255496-.09845-.3172989-.01496-.091749.08349-.098445.22555-.014955.317299z"/><path d="m18.382943 31.038892c1.434248-1.69434 1.935037-3.398464 1.246208-4.591552-.506854-.877897-1.578358-1.34139-3.002369-1.359909-.12404-.0016-.225901.09763-.227515.221673-.0016.12404.09763.225902.221673.227515 1.280719.01666 2.203841.415965 2.619169 1.135334.572155.991002.125562 2.510702-1.200042 4.076697-.08015.09468-.06837.236411.02632.316559.09468.08015.236411.06837.316559-.02632zm-3.686-5.742324c-1.296796.277845-2.677119.821086-4.002759 1.586445-3.28011 1.893772-5.4198 4.686207-5.1226328 6.710976.018013.122735.1321131.207629.2548488.189616.1227356-.01801.2076298-.132113.1896164-.254848-.2638532-1.797782 1.7643632-4.444736 4.9027806-6.256702 1.285976-.742459 2.622498-1.268462 3.872259-1.536229.121298-.02599.198561-.145388.172572-.266685-.02599-.121298-.145387-.198561-.266685-.172573z"/><path d="m9.3830404 34.997748c.7498916 2.093967 1.9767136 3.383209 3.3562326 3.383209 1.006109 0 1.936958-.685833 2.662828-1.893294.06391-.106319.02954-.244319-.07678-.308233-.106318-.06391-.244318-.02954-.308232.07678-.652338 1.085144-1.453627 1.67552-2.277815 1.67552-1.145932 0-2.240149-1.149891-2.9333082-3.085441-.0418249-.116787-.1704047-.177556-.2871921-.135733-.1167874.041824-.1775572.170404-.1357333.287192zm6.8497106-.409604c.388205-1.240555.596702-2.671648.596702-4.162932 0-3.721177-1.302395-6.928971-3.157484-7.752687-.113376-.05034-.246096.000753-.296439.114133-.05034.113376.000753.246096.114133.296439 1.654515.734655 2.890563 3.779038 2.890563 7.342115 0 1.446788-.201913 2.832691-.5762 4.028772-.03705.118389.02889.244396.147282.281442.11839.03705.244396-.02889.281443-.147282z"/><path d="m20.463085 34.368089c0-.593727-.481312-1.075037-1.075038-1.075037-.593727 0-1.075038.48131-1.075038 1.075037s.481311 1.075039 1.075038 1.075039c.593726 0 1.075038-.481312 1.075038-1.075039zm-.449227 0c0 .345626-.280185.625812-.625811.625812s-.625812-.280186-.625812-.625812.280186-.62581.625812-.62581.625811.280184.625811.62581z"/><path d="m6.0750377 35.443128c.593727 0 1.0750378-.481312 1.0750378-1.075039s-.4813108-1.075037-1.0750378-1.075037-1.0750378.48131-1.0750378 1.075037.4813108 1.075039 1.0750378 1.075039zm0-.449227c-.345626 0-.6258113-.280186-.6258113-.625812s.2801853-.62581.6258113-.62581.6258112.280184.6258112.62581-.2801852.625812-.6258112.625812z"/><path d="m12.739273 23.769118c.593727 0 1.075038-.481311 1.075038-1.075038s-.481311-1.075038-1.075038-1.075038-1.075038.481311-1.075038 1.075038.481311 1.075038 1.075038 1.075038zm0-.449227c-.345626 0-.625811-.280185-.625811-.625811s.280185-.625811.625811-.625811.625811.280185.625811.625811-.280185.625811-.625811.625811z"/><path d="m12.903477 31.185466c-.419897.09073-.83358-.176126-.924484-.596023-.09055-.419898.176126-.833581.596023-.924485.419898-.09073.833581.176126.924485.596024.09073.419897-.176126.83358-.596024.924484z"/></g></svg>