<svg height="64" viewBox="0 0 32 32" width="64" xmlns="http://www.w3.org/2000/svg"><g stroke-width=".043365" transform="matrix(.98024356 0 0 .98024356 -4.614345 -13.407307)"><path d="m34.841486 38.837727-13.230579 7.484747v-5.828217l8.243626-4.535947zm.906314-.819592v-15.650323l-4.839495 2.797023v10.060612zm-28.5296372.819592 13.2305682 7.484747v-5.828217l-8.247961-4.535947zm-.9063236-.819592v-15.650323l4.8395038 2.797023v10.060612zm.5680843-16.665056 13.5688075-7.675553v5.633076l-8.694624 4.783126-.0694.03904zm28.2998015 0-13.568818-7.675553v5.633076l8.694625 4.77879.0694.03903z" fill="#8ed6fb"/><path d="m20.448731 39.42315-8.135212-4.475237v-8.85941l8.135212 4.696398zm1.162176 0 8.135222-4.470901v-8.863746l-8.135222 4.696398zm-8.746667-14.358054 8.165584-4.488247 8.165575 4.488247-8.165575 4.713745z" fill="#1c78c0"/></g></svg>