<svg xmlns="http://www.w3.org/2000/svg" xmlns:xlink="http://www.w3.org/1999/xlink" preserveAspectRatio="xMidYMid" viewBox="0 0 72.313 71.62">
  <defs>
    <style>
      .cls-1 {
        fill: #de4f4f;
        fill-rule: evenodd;
      }
    </style>
  </defs>
  <path d="M71.734,47.361 C70.607,48.586 69.133,47.536 69.133,47.536 L36.188,11.647 L71.994,44.910 C71.994,44.910 72.861,46.135 71.734,47.361 ZM68.050,35.730 L53.118,19.415 L69.466,34.500 C69.466,34.500 69.895,35.074 69.337,35.648 C68.779,36.222 68.050,35.730 68.050,35.730 ZM70.492,57.378 C68.879,59.132 66.769,57.629 66.769,57.629 L19.613,6.259 L70.864,53.870 C70.864,53.870 72.105,55.624 70.492,57.378 ZM65.652,66.023 C64.039,67.778 61.929,66.274 61.929,66.274 L0.005,-0.005 L66.024,62.515 C66.024,62.515 67.265,64.269 65.652,66.023 ZM56.717,70.785 C55.104,72.539 52.994,71.035 52.994,71.035 L5.838,19.666 L57.090,67.276 C57.090,67.276 58.330,69.030 56.717,70.785 ZM45.922,70.915 C44.795,72.141 43.321,71.090 43.321,71.090 L10.376,35.202 L46.182,68.465 C46.182,68.465 47.049,69.690 45.922,70.915 ZM34.838,67.974 C34.281,68.548 33.552,68.056 33.552,68.056 L18.620,51.740 L34.967,66.825 C34.967,66.825 35.396,67.399 34.838,67.974 Z" class="cls-1"/>
</svg>
