<svg version="1.1" viewBox="0 0 400 400" xmlns="http://www.w3.org/2000/svg" xmlns:xlink="http://www.w3.org/1999/xlink" ><g><path d="M129.200 1.948 C 117.015 6.000,96.466 15.352,96.954 16.623 C 102.488 31.046,99.400 54.938,90.172 69.096 C 73.047 95.368,41.453 109.420,16.714 101.767 C 14.836 101.186,1.384 132.814,0.197 140.601 L -0.046 142.200 3.877 144.673 C 29.981 161.130,42.178 186.825,36.416 213.222 C 32.295 232.108,18.979 250.799,2.324 261.079 L -0.077 262.561 0.182 264.180 C 1.444 272.072,14.880 303.715,16.677 303.026 C 21.098 301.329,34.457 299.931,41.412 300.436 C 80.659 303.289,108.963 345.508,96.967 383.304 C 96.524 384.701,117.904 394.420,130.083 398.357 C 135.960 400.257,136.525 400.317,137.089 399.100 C 140.005 392.816,152.706 379.971,162.000 373.909 C 195.226 352.237,236.602 361.809,260.262 396.641 C 261.536 398.516,262.829 400.000,263.188 400.000 C 266.249 400.000,285.670 392.388,296.400 386.983 C 302.694 383.812,302.218 384.654,301.031 378.790 C 295.202 350.005,306.615 324.513,333.200 306.935 C 348.444 296.856,366.681 293.632,382.441 298.230 C 383.962 298.673,400.016 262.345,399.996 258.505 C 399.994 258.045,398.662 256.988,396.170 255.467 C 349.456 226.961,349.456 173.039,396.170 144.533 C 398.662 143.012,399.994 141.955,399.996 141.495 C 400.016 137.566,383.957 101.306,382.414 101.796 C 367.602 106.497,348.279 103.071,333.200 93.070 C 305.763 74.875,295.128 50.625,301.248 20.213 C 302.197 15.499,302.644 16.163,296.400 13.017 C 285.670 7.612,266.249 0.000,263.188 0.000 C 262.829 0.000,261.536 1.484,260.262 3.359 C 236.602 38.191,195.226 47.763,162.000 26.091 C 152.706 20.029,140.005 7.184,137.089 0.900 C 136.510 -0.347,135.831 -0.257,129.200 1.948 M214.865 74.213 C 286.495 82.926,336.881 149.863,325.160 220.736 C 312.468 297.478,234.609 344.459,160.092 320.339 C 72.961 292.137,43.654 185.861,103.925 116.657 C 126.161 91.124,157.115 76.239,193.800 73.438 C 197.522 73.154,209.901 73.610,214.865 74.213 " stroke="none" fill="#b4bccc" fill-rule="evenodd"></path><path id="path1" d="M188.200 114.650 C 132.162 122.449,98.637 181.643,120.745 233.755 C 142.415 284.834,206.639 302.206,251.446 269.109 C 283.052 245.763,294.704 202.662,279.255 166.245 C 264.209 130.780,226.368 109.338,188.200 114.650 M209.678 156.382 C 238.912 162.884,253.760 196.538,238.716 222.200 C 219.737 254.574,172.259 251.072,158.398 216.276 C 145.313 183.427,175.060 148.682,209.678 156.382 " stroke="none" fill="#7c8ca4" fill-rule="evenodd"></path><path id="path2" d="" stroke="none" fill="#a4c0b8" fill-rule="evenodd"></path><path id="path3" d="" stroke="none" fill="#a4c0b8" fill-rule="evenodd"></path><path id="path4" d="" stroke="none" fill="#a4c0b8" fill-rule="evenodd"></path></g></svg>