<svg height="64" viewBox="0 0 32 32" width="64" xmlns="http://www.w3.org/2000/svg"><path d="m14.998929 3.770263a.95111801.95111801 0 1 1 1.902236 0 .95111801.95111801 0 0 1 -1.902236 0m-11.3463972 8.611474a.95111808.95111808 0 1 1 1.9022361 0 .95111808.95111808 0 0 1 -1.9022361 0m22.6924882.044373a.95111801.95111801 0 0 1 1.902236 0 .95111801.95111801 0 0 1 -1.902236 0m-19.9392034 1.303044c.4376121-.194324.6353027-.707218.4409785-1.145749l-.4220053-.954178h1.6595602v7.480415h-3.3481925a11.709952 11.709952 0 0 1 -.3791617-4.470071zm6.9421214.183919v-2.204892h3.951974c.204117 0 1.441367.235944 1.441367 1.16105 0 .768116-.948976 1.043536-1.729334 1.043536zm-5.3954837 11.871533a.95111808.95111808 0 1 1 1.9022361 0 .95111808.95111808 0 0 1 -1.9022361 0m14.0926437.04437a.95111801.95111801 0 0 1 1.902235 0 .95111801.95111801 0 0 1 -1.902235 0m.294088-2.156847c-.468521-.100376-.929391.197691-1.029766.667131l-.477396 2.227843a11.709952 11.709952 0 0 1 -9.765484-.046821l-.47709-2.227843c-.100375-.468826-.561245-.767504-1.0294593-.666822l-1.9668067.42231a11.709952 11.709952 0 0 1 -1.0169129-1.198689h9.5699359c.108332 0 .180554-.01959.180554-.118125v-3.385222c0-.09854-.07222-.118124-.180554-.118124h-2.798881v-2.14583h3.027174c.276339 0 1.477477.07895 1.861535 1.614269.120267.472192.384365 2.008119.564918 2.499897.179941.551453.912559 1.653135 1.693223 1.653135h4.941039a11.709952 11.709952 0 0 1 -1.084543 1.255303zm5.31408-8.937999a11.709952 11.709952 0 0 1 .02479 2.032908h-1.201443c-.120269 0-.168619.07895-.168619.196772v.551759c0 1.298759-.732313 1.581218-1.374041 1.653133-.611127.06885-1.288662-.255835-1.372206-.629794-.360494-2.027705-.961218-2.460727-1.909886-3.208952 1.177269-.747613 2.402276-1.850519 2.402276-3.326771 0-1.594071-1.092807-2.5981314-1.837665-3.0905215-1.045069-.6888547-2.20214-.8268709-2.514283-.8268709h-12.4254323a11.709952 11.709952 0 0 1 6.5513303-3.6973642l1.464624 1.536539c.331116.3467237.879508.3595765 1.225926.028154l1.638751-1.5674475a11.709952 11.709952 0 0 1 8.016565 5.7094619l-1.121877 2.533867c-.193714.43853.004.951424.441283 1.145748zm2.797965.04101-.03825-.391709 1.155542-1.077811c.235023-.219112.147195-.660091-.153319-.772095l-1.477171-.552371-.115676-.381304.921434-1.279786c.187898-.260119.0153-.6753916-.301125-.7274156l-1.557659-.2533877-.187285-.3497837.654581-1.4367756c.134039-.2925577-.115064-.6668233-.437001-.6545823l-1.580912.0550842-.249714-.3029625.363248-1.5399054c.073446-.312755-.243898-.6304063-.556653-.5569609l-1.539599.3629428-.303576-.2497144.055391-1.5809123c.01225-.3200996-.36233-.5701194-.654276-.4373055l-1.436469.6548873-.349785-.1875917-.253998-1.5579616c-.051412-.3158143-.466991-.4884102-.72711-.3011256l-1.280704.9214338-.380692-.1153707-.552371-1.47747597c-.112004-.30112567-.553289-.38773039-.771789-.15392987l-1.077811 1.15645934-.391709-.0382524-.832381-1.34496881c-.168313-.27235969-.619084-.27235969-.786784 0l-.832381 1.34496881-.392015.0382524-1.078118-1.15645934c-.2185-.23380052-.659784-.1471958-.771788.15392987l-.552371 1.47747597-.380998.1153707-1.280399-.9214338c-.260118-.1878982-.6760032-.0146954-.7274149.3011256l-.2539988 1.5579616-.3497837.1875917-1.4364697-.6548873c-.2919456-.1334275-.6665171.1172059-.6542762.4373055l.055084 1.5809123-.3035743.2497144-1.5395992-.3629428c-.312755-.0728334-.6304064.2442059-.556961.5569609l.3626367 1.5399054-.2491024.3029625-1.5809125-.0550842c-.3188755-.0091818-.5701199.3620246-.4373062.6545823l.6548883 1.4367756-.1875918.3497837-1.5576547.2533867c-.3164273.0514119-.4877999.4672966-.3011261.7274156l.9214338 1.279786-.1156765.381304-1.47747676.552371c-.29990208.112004-.38773054.552983-.15331729.772095l1.15584705 1.077811-.0382528.391709-1.34466296.832381c-.27236005.168313-.27236005.619084 0 .786784l1.34466296.832381.038253.391709-1.15584705 1.078117c-.23441345.218501-.14658499.659173.15331709.771789l1.47747676.552371.1156765.381304-.9214338 1.280092c-.1872858.260731-.014995.676311.3014322.727111l1.5573486.253385.1875918.350396-.6548883 1.436164c-.1334257.291946.1184307.667436.4373062.654581l1.5803005-.05539.2497144.303574-.3626367 1.540212c-.073445.312142.244206.629181.556961.555736l1.5395992-.362635.3035743.2491-.055084 1.58122c-.012241.3201.3623306.570426.6542762.437l1.4364697-.654583.3497837.187592.2539988 1.557044c.051412.317039.4672969.48841.7274149.301737l1.279787-.922045.381304.115982.55237 1.476864c.112005.299903.553289.388344.771789.153319l1.078118-1.155848.392014.03917.832382 1.344665c.1677.271134.618471.271746.786784 0l.832381-1.344665.391709-.03917 1.077811 1.155848c.2185.235025.659785.146584.771789-.153319l.552371-1.476864.381304-.115982 1.280092.922045c.260119.186673.675697.01469.727109-.301737l.253998-1.557044.349785-.187592 1.436469.654583c.291946.133426.665906-.116288.654277-.437l-.05508-1.58122.303269-.2491 1.539599.362635c.312755.07344.630101-.243594.556656-.555736l-.362637-1.540212.249102-.303574 1.580913.05539c.318876.01285.571037-.362635.436999-.654581l-.654581-1.436164.187284-.350396 1.557656-.253385c.317039-.0508.489024-.46638.301125-.727111l-.921433-1.280092.115677-.381304 1.477169-.552371c.300515-.112616.388344-.553288.153319-.771789l-1.155541-1.078117.03825-.391709 1.344664-.832381c.27236-.1677.272664-.618471.000223-.786784z"/></svg>