<svg height="64" viewBox="0 0 64 64" width="64" xmlns="http://www.w3.org/2000/svg"><path d="m55.094272 35.560931c-2.237696.0125-4.175364.550047-5.800507 1.350117-.600051-1.187604-1.200103-2.225194-1.300112-3.000262-.112511-.900078-.250023-1.450126-.112511-2.525219.137512-1.075095.762568-2.600227.762568-2.725239-.0125-.112509-.137512-.662557-1.425125-.675058-1.287613-.0125-2.400209.250022-2.525221.58755-.12501.33753-.375032 1.112598-.537546 1.912667-.22502 1.175104-2.575225 5.337966-3.912842 7.525657-.437538-.850074-.812571-1.60014-.887578-2.200191-.112509-.900079-.250021-1.450128-.112509-2.525221.137512-1.075094.762566-2.600227.762566-2.725238-.0125-.11251-.137512-.662557-1.425124-.675059-1.287612-.0125-2.400209.250022-2.52522.587552-.125012.337529-.262523 1.1376-.537547 1.912667-.262524.775068-3.387795 7.725673-4.200366 9.538331-.412536.925081-.775068 1.662645-1.037591 2.162689s-.0125.03751-.0375.08751c-.225019.425037-.350029.662558-.350029.662558v.0125c-.175016.312527-.362532.612554-.45004.612554-.0625 0-.187516-.837573.02499-1.987674.46254-2.412711 1.587638-6.175539 1.575138-6.31305 0-.0625.212518-.725063-.725063-1.062593-.912579-.337529-1.237608.225019-1.312615.225019-.07501 0-.137512.200018-.137512.200018s1.012588-4.23787-1.937669-4.23787c-1.850162 0-4.400384 2.012676-5.662994 3.850336-.80007.437539-2.500218 1.362618-4.300376 2.350206-.68756.375033-1.400121.775067-2.07518 1.137598l-.137512-.150016c-3.575312-3.812832-10.1883897-6.513067-9.9133657-11.638515.100008-1.862663.750067-6.775591 12.7011087-12.72611 9.788354-4.875425 17.626537-3.537808 18.989157-.562548 1.937669 4.25037-4.187866 12.151059-14.363754 13.288658-3.875338.437539-5.913016-1.062592-6.42556-1.625142-.537547-.58755-.612553-.612554-.812571-.500043-.325029.175015-.125011.700061 0 1.012589.300026.787569 1.550135 2.187691 3.67532 2.887751 1.862663.612554 6.413061.950084 11.91354-1.175102 6.163038-2.387708 10.975957-9.013286 9.563334-14.55127-1.437625-5.6379912-10.78844-7.4881522-19.626712-4.3503792-5.262959 1.8751642-10.9634567 4.8004192-15.0638137 8.6382532-4.87542498 4.550398-5.65049298 8.525744-5.32546498 10.175888 1.13759898 5.888014 9.25080698 9.725849 12.50109068 12.563597-.162515.08751-.312527.175015-.450039.250021-1.625143.80007-7.8131817 4.037852-9.3633177 7.463152-1.750152 3.875338.275024 6.66308 1.625142 7.038113 4.175365 1.162602 8.4507377-.925081 10.7634387-4.36288 2.300202-3.4378 2.025177-7.90069.962584-9.938368l-.0375-.07501 1.27511-.750064c.825073-.487543 1.637643-.937583 2.350206-1.325116-.400036 1.087595-.68756 2.375207-.837574 4.250371-.175014 2.200191.725064 5.050441 1.912667 6.175538.525047.487543 1.150101.500044 1.537635.500044 1.37512 0 2.000173-1.1376 2.687734-2.500218.850075-1.662645 1.600139-3.587813 1.600139-3.587813s-.937581 5.212955 1.625143 5.212955c.937581 0 1.875164-1.212606 2.3002-1.837661v.0125s.02501-.03751.07501-.125013c.100007-.150011.150013-.237519.150013-.237519v-.02501c.375033-.650057 1.212607-2.137686 2.462715-4.600401 1.612641-3.175277 3.162776-7.150624 3.162776-7.150624s.150013.975084.612553 2.575224c.275024.950083.875076 1.987674 1.337617 3.000262-.375033.525046-.600053.825072-.600053.825072l.0125.0125c-.300025.400035-.637555.825073-.987586 1.25011-1.275111 1.525132-2.800245 3.262784-3.000263 3.762828-.237519.58755-.187515 1.025089.275024 1.37512.33753.250022.937583.300026 1.575139.250022 1.1501-.07501 1.95017-.362532 2.350204-.537548.625055-.225019 1.337618-.562548 2.025177-1.062591 1.25011-.925082 2.012676-2.237696 1.937669-3.987849-.0375-.962584-.35003-1.912667-.737563-2.812745.112509-.162515.225019-.325029.337529-.500043 1.975172-2.887753 3.500305-6.063029 3.500305-6.063029s.150013.975084.612553 2.575223c.237521.812571.712562 1.70015 1.1376 2.575226-1.850161 1.512632-3.012764 3.262784-3.412798 4.412885-.737565 2.125185-.162515 3.087769.925081 3.312788.487542.100007 1.187604-.125011 1.712649-.35003.650057-.212519 1.437626-.575049 2.162689-1.112597 1.250108-.925081 2.450214-2.212693 2.387708-3.950345-.0375-.800069-.250022-1.587638-.537547-2.337704 1.575138-.650055 3.612815-1.025089 6.200541-.712562 5.562985.650057 6.663081 4.125359 6.450563 5.575487-.212519 1.450126-1.37512 2.250195-1.762655 2.500218-.387532.237521-.512543.325028-.47504.500044.05.262522.22502.250021.562548.200017.462541-.07501 2.925256-1.187603 3.025265-3.862837.150013-3.437799-3.112773-7.188127-8.900778-7.150624zm-42.903744 14.463762c-1.83766 2.012675-4.4253847 2.775242-5.5254817 2.125185-1.187603-.687561-.725062-3.650319 1.537636-5.788005 1.375119-1.300113 3.1627747-2.500218 4.3378767-3.237782.262523-.162514.662558-.400035 1.137599-.687561.07501-.05.125012-.07501.125012-.07501.08751-.05.187517-.11251.287524-.175015.837574 3.050265.03751 5.725499-1.900166 7.838183zm13.438673-9.138298c-.637555 1.562637-1.987673 5.575487-2.800244 5.350467-.700061-.187516-1.125099-3.225281-.137512-6.225544.500044-1.512631 1.562637-3.312788 2.187691-4.01285 1.012588-1.125097 2.112684-1.500131 2.387707-1.03759.325029.600053-1.237607 4.950432-1.637642 5.925517zm11.088468 5.300463c-.275024.137512-.525046.237521-.637556.162513-.08751-.05.11251-.23752.11251-.23752s1.38762-1.48763 1.937669-2.17519c.312527-.400035.68756-.862575 1.087594-1.387621v.150013c0 1.800157-1.72515 3.000262-2.500217 3.487805zm8.550746-1.95017c-.200018-.150014-.175015-.612554.500044-2.062681.262522-.575049.862575-1.537633 1.900165-2.450213.125011.375032.200018.737564.187517 1.075094-.0125 2.250196-1.612641 3.087768-2.587726 3.4378z" fill="#cf649a" stroke-width=".125011"/></svg>