<svg id="svg" version="1.1" viewBox="0 0 400 400" xmlns="http://www.w3.org/2000/svg" xmlns:xlink="http://www.w3.org/1999/xlink" ><g id="svgg"><path id="path0" d="M169.475 56.027 C 166.216 56.196,163.246 56.463,162.875 56.621 C 162.504 56.778,161.480 57.049,160.600 57.223 C 159.720 57.396,157.389 57.912,155.420 58.369 C 153.451 58.826,151.489 59.200,151.059 59.200 C 150.629 59.200,149.360 59.628,148.239 60.151 C 147.117 60.674,145.480 61.323,144.600 61.595 C 142.617 62.207,134.000 66.494,134.000 66.868 C 134.000 67.019,133.280 67.460,132.400 67.848 C 131.520 68.236,130.800 68.697,130.800 68.872 C 130.800 69.047,130.125 69.619,129.300 70.142 C 127.460 71.311,122.268 76.437,120.496 78.835 C 117.143 83.372,116.513 84.291,115.879 85.561 C 115.506 86.310,115.200 87.165,115.200 87.461 C 115.200 87.758,115.061 88.000,114.891 88.000 C 114.463 88.000,113.437 90.161,112.566 92.900 C 112.164 94.165,111.692 95.200,111.517 95.200 C 111.343 95.200,111.200 95.614,111.200 96.120 C 111.200 96.626,111.041 97.211,110.847 97.420 C 110.652 97.629,110.274 98.970,110.005 100.400 C 109.082 105.319,108.828 106.609,108.156 109.800 C 107.341 113.669,106.900 131.810,107.544 135.000 C 107.766 136.100,108.162 137.990,108.425 139.200 C 108.687 140.410,109.050 142.210,109.230 143.200 C 110.173 148.366,110.422 149.491,110.868 150.595 C 111.136 151.258,111.456 151.890,111.579 152.000 C 111.702 152.110,112.157 153.280,112.589 154.600 C 113.021 155.920,113.964 157.990,114.686 159.200 C 115.408 160.410,115.998 161.582,115.999 161.804 C 116.000 162.026,116.405 162.659,116.900 163.210 C 117.395 163.761,118.472 165.209,119.294 166.426 C 121.592 169.833,130.656 178.800,131.802 178.800 C 131.963 178.800,132.690 179.295,133.417 179.900 C 134.751 181.009,137.265 182.833,139.169 184.071 C 139.736 184.440,140.484 184.755,140.830 184.771 C 141.177 184.787,141.883 185.250,142.400 185.800 C 142.917 186.350,143.582 186.800,143.880 186.800 C 144.177 186.800,145.560 187.520,146.953 188.400 C 148.346 189.280,149.694 190.000,149.949 190.000 C 150.380 190.000,151.380 190.447,152.800 191.274 C 153.130 191.466,153.715 191.729,154.100 191.858 C 154.485 191.988,154.800 192.232,154.800 192.401 C 154.800 192.571,155.295 192.803,155.900 192.917 C 157.506 193.220,159.597 194.074,161.247 195.100 C 162.043 195.595,162.991 196.000,163.353 196.000 C 163.715 196.000,164.323 196.164,164.705 196.364 C 166.381 197.243,169.884 198.775,170.800 199.028 C 171.350 199.180,172.278 199.641,172.862 200.052 C 173.446 200.464,174.131 200.800,174.385 200.800 C 174.638 200.800,175.601 201.220,176.523 201.734 C 177.445 202.247,178.700 202.792,179.311 202.944 C 180.336 203.199,183.792 204.740,185.200 205.569 C 185.530 205.764,186.610 206.156,187.600 206.441 C 188.590 206.726,190.071 207.374,190.892 207.880 C 191.713 208.386,192.703 208.803,193.092 208.807 C 193.481 208.810,195.060 209.452,196.600 210.232 C 198.140 211.012,200.384 211.917,201.587 212.243 C 202.790 212.569,203.870 212.976,203.987 213.149 C 204.310 213.624,206.837 214.799,207.561 214.810 C 207.913 214.816,209.638 215.536,211.396 216.410 C 213.153 217.285,214.898 218.000,215.272 218.000 C 215.646 218.000,216.064 218.180,216.200 218.400 C 216.336 218.620,216.710 218.800,217.032 218.800 C 217.353 218.800,218.329 219.250,219.200 219.800 C 220.071 220.350,221.103 220.800,221.494 220.800 C 221.884 220.800,223.688 221.520,225.502 222.400 C 227.316 223.280,228.992 224.000,229.225 224.000 C 229.978 224.000,234.000 226.046,234.000 226.429 C 234.000 226.633,234.328 226.800,234.729 226.800 C 236.549 226.800,248.400 236.681,248.400 238.198 C 248.400 238.446,248.715 238.998,249.100 239.425 C 250.209 240.653,252.000 243.533,252.002 244.091 C 252.003 244.371,252.472 245.500,253.044 246.600 C 253.617 247.700,254.265 249.230,254.484 250.000 C 254.861 251.324,255.008 252.222,255.964 259.000 C 256.467 262.569,256.463 277.506,255.958 280.400 C 255.746 281.610,255.416 283.590,255.223 284.800 C 254.791 287.503,254.085 289.571,253.271 290.511 C 252.933 290.902,252.373 291.832,252.028 292.578 C 250.700 295.444,243.964 301.766,241.273 302.673 C 240.903 302.797,239.520 303.390,238.200 303.991 C 236.880 304.592,235.080 305.270,234.200 305.498 C 230.383 306.489,226.926 307.206,225.980 307.203 C 225.419 307.202,224.735 307.425,224.460 307.700 C 224.067 308.093,212.195 308.243,168.880 308.400 C 108.625 308.619,112.470 308.452,110.636 310.929 C 109.827 312.022,109.800 312.492,109.800 325.529 C 109.800 341.449,109.438 340.125,114.400 342.368 C 115.133 342.699,130.384 342.780,171.600 342.670 C 226.184 342.524,233.705 342.363,239.555 341.221 C 240.740 340.989,242.574 340.800,243.631 340.800 C 244.688 340.800,245.664 340.620,245.800 340.400 C 245.936 340.180,246.498 340.000,247.050 340.000 C 247.601 340.000,248.446 339.787,248.926 339.526 C 249.762 339.073,251.786 338.597,254.800 338.146 C 255.570 338.030,257.100 337.508,258.200 336.985 C 261.096 335.609,263.209 334.800,263.911 334.800 C 264.248 334.800,265.081 334.384,265.762 333.875 C 266.443 333.367,267.630 332.707,268.400 332.410 C 269.170 332.112,270.084 331.628,270.431 331.334 C 270.779 331.040,271.274 330.800,271.531 330.800 C 271.789 330.800,272.000 330.653,272.000 330.474 C 272.000 330.294,272.684 329.763,273.521 329.292 C 274.358 328.822,275.375 328.069,275.783 327.619 C 276.191 327.168,276.721 326.798,276.962 326.796 C 277.203 326.794,279.180 324.949,281.356 322.696 C 286.376 317.498,286.580 317.260,287.355 315.722 C 287.709 315.018,288.449 313.957,288.999 313.363 C 289.550 312.769,290.000 312.046,290.000 311.756 C 290.000 311.301,291.555 308.199,292.383 307.000 C 292.536 306.780,292.888 305.790,293.168 304.800 C 293.447 303.810,293.903 302.460,294.182 301.800 C 294.460 301.140,294.914 300.060,295.191 299.400 C 295.670 298.257,295.894 297.017,296.781 290.600 C 296.994 289.060,297.365 287.170,297.607 286.400 C 298.213 284.467,298.196 263.242,297.587 260.597 C 297.334 259.498,296.967 257.070,296.773 255.200 C 295.937 247.167,295.616 245.228,294.621 242.200 C 294.042 240.440,293.355 237.875,293.093 236.500 C 292.832 235.125,292.479 234.000,292.309 234.000 C 292.139 234.000,292.000 233.819,292.000 233.598 C 292.000 233.377,291.550 232.263,291.000 231.123 C 290.450 229.983,290.000 228.829,290.000 228.558 C 290.000 228.042,288.778 225.547,288.356 225.200 C 288.222 225.090,287.793 224.370,287.404 223.600 C 286.649 222.109,283.219 217.222,281.833 215.664 C 279.836 213.419,275.826 209.833,273.115 207.866 C 271.732 206.863,270.035 205.583,269.345 205.021 C 268.655 204.460,267.963 204.000,267.807 204.000 C 267.651 204.000,267.046 203.661,266.462 203.247 C 265.361 202.466,261.660 200.390,259.169 199.157 C 258.382 198.767,257.505 198.167,257.220 197.824 C 256.935 197.481,256.346 197.200,255.912 197.200 C 255.477 197.200,253.627 196.480,251.800 195.600 C 249.973 194.720,248.270 194.000,248.014 194.000 C 247.397 194.000,243.037 191.883,242.867 191.500 C 242.793 191.335,242.398 191.200,241.988 191.200 C 241.578 191.200,239.852 190.480,238.151 189.600 C 236.451 188.720,234.742 188.000,234.353 188.000 C 233.965 188.000,233.536 187.820,233.400 187.600 C 233.264 187.380,232.881 187.200,232.550 187.200 C 232.218 187.200,231.357 186.750,230.636 186.200 C 229.914 185.650,229.041 185.200,228.695 185.200 C 228.000 185.200,225.361 184.048,223.206 182.805 C 222.440 182.362,221.505 182.000,221.130 182.000 C 220.754 182.000,220.336 181.820,220.200 181.600 C 220.064 181.380,219.690 181.200,219.368 181.200 C 219.047 181.200,218.071 180.750,217.200 180.200 C 216.329 179.650,215.359 179.200,215.045 179.200 C 214.731 179.200,213.091 178.480,211.400 177.600 C 209.709 176.720,208.079 176.000,207.777 176.000 C 207.222 176.000,203.721 174.197,203.020 173.551 C 202.811 173.358,202.271 173.199,201.820 173.198 C 201.369 173.197,199.650 172.517,198.000 171.687 C 196.350 170.857,194.190 169.922,193.200 169.609 C 192.210 169.296,190.843 168.626,190.162 168.120 C 189.481 167.614,188.547 167.200,188.086 167.200 C 187.625 167.200,187.136 167.020,187.000 166.800 C 186.864 166.580,186.445 166.400,186.069 166.400 C 185.693 166.400,184.747 165.966,183.966 165.435 C 183.185 164.904,181.748 164.259,180.773 164.001 C 179.798 163.743,178.023 163.007,176.829 162.366 C 175.635 161.725,174.464 161.200,174.228 161.200 C 173.662 161.200,167.329 157.533,165.826 156.335 C 165.180 155.821,164.100 155.072,163.426 154.671 C 161.435 153.486,154.936 146.577,154.161 144.820 C 153.768 143.929,153.314 143.200,153.152 143.200 C 152.674 143.200,150.800 138.936,150.800 137.848 C 150.800 137.298,150.620 136.736,150.400 136.600 C 150.180 136.464,149.999 135.958,149.998 135.476 C 149.996 134.994,149.726 134.084,149.398 133.454 C 148.921 132.540,148.800 130.543,148.800 123.568 C 148.800 114.711,148.862 114.244,150.449 111.105 C 150.642 110.723,150.800 110.131,150.800 109.789 C 150.800 108.876,152.187 106.316,153.157 105.438 C 153.621 105.019,154.000 104.466,154.000 104.209 C 154.000 103.256,160.883 96.800,161.899 96.800 C 162.221 96.800,162.839 96.350,163.271 95.800 C 163.704 95.250,164.394 94.800,164.805 94.800 C 165.216 94.800,165.664 94.620,165.800 94.400 C 165.936 94.180,166.414 94.000,166.862 94.000 C 167.310 94.000,168.154 93.752,168.738 93.449 C 174.678 90.365,175.091 90.342,230.400 90.052 L 278.600 89.800 280.267 88.843 C 281.355 88.219,282.293 87.227,282.967 85.989 L 284.000 84.092 284.000 73.021 C 284.000 59.477,283.223 56.761,279.119 55.967 C 276.979 55.553,177.589 55.608,169.475 56.027 " stroke="none" fill="#fbfafa" fill-rule="evenodd"></path><path id="path1" d="M384.128 0.995 C 384.175 1.462,384.538 1.825,385.005 1.872 C 385.581 1.932,385.614 1.899,385.125 1.752 C 384.753 1.642,384.358 1.247,384.248 0.875 C 384.101 0.386,384.068 0.419,384.128 0.995 M9.600 3.990 C 9.600 4.242,9.420 4.336,9.200 4.200 C 8.980 4.064,8.800 4.156,8.800 4.404 C 8.800 4.953,10.426 4.761,10.446 4.210 C 10.454 3.995,10.267 3.756,10.030 3.677 C 9.794 3.598,9.600 3.739,9.600 3.990 M4.179 9.166 C 4.303 9.367,4.192 9.603,3.932 9.689 C 3.671 9.776,3.593 10.065,3.757 10.330 C 3.921 10.596,4.223 10.709,4.428 10.583 C 4.941 10.266,4.898 8.800,4.376 8.800 C 4.143 8.800,4.055 8.965,4.179 9.166 M168.600 55.169 C 167.940 55.319,170.280 55.377,173.800 55.297 C 182.060 55.110,183.030 54.893,175.600 54.894 C 172.410 54.894,169.260 55.018,168.600 55.169 M276.800 55.020 C 277.130 55.090,278.109 55.263,278.976 55.406 C 280.079 55.587,280.958 56.105,281.907 57.132 C 283.258 58.596,283.260 58.597,282.542 57.332 C 281.669 55.794,279.694 54.784,277.686 54.846 C 276.869 54.872,276.470 54.950,276.800 55.020 M164.105 55.887 C 164.714 55.979,165.614 55.977,166.105 55.882 C 166.597 55.787,166.100 55.711,165.000 55.714 C 163.900 55.717,163.497 55.795,164.105 55.887 M160.600 56.400 C 160.308 56.873,160.699 56.873,161.800 56.400 C 162.571 56.069,162.569 56.055,161.724 56.028 C 161.242 56.013,160.736 56.180,160.600 56.400 M157.200 57.200 C 156.870 57.413,156.150 57.615,155.600 57.648 C 154.781 57.698,154.748 57.738,155.415 57.871 C 155.863 57.960,156.853 57.763,157.615 57.432 C 158.377 57.102,158.730 56.827,158.400 56.822 C 158.070 56.817,157.530 56.987,157.200 57.200 M284.178 72.800 C 284.178 79.730,284.233 82.565,284.299 79.100 C 284.366 75.635,284.366 69.965,284.299 66.500 C 284.233 63.035,284.178 65.870,284.178 72.800 M139.211 63.020 C 138.447 63.559,137.942 64.000,138.088 64.000 C 138.439 64.000,141.200 62.368,141.200 62.160 C 141.200 61.800,140.525 62.092,139.211 63.020 M134.200 65.835 L 133.000 66.866 134.300 66.006 C 135.015 65.533,135.600 65.068,135.600 64.973 C 135.600 64.673,135.431 64.778,134.200 65.835 M131.220 67.521 C 129.869 68.457,128.359 70.000,128.795 70.000 C 128.992 70.000,129.271 69.808,129.416 69.574 C 129.561 69.339,130.409 68.619,131.300 67.974 C 132.995 66.746,132.923 66.341,131.220 67.521 M123.615 74.100 L 122.679 75.400 123.939 74.225 C 125.275 72.980,125.394 72.800,124.875 72.800 C 124.697 72.800,124.129 73.385,123.615 74.100 M116.944 82.500 C 115.804 83.788,114.797 85.487,114.818 86.086 C 114.827 86.369,115.208 85.880,115.664 85.000 C 116.119 84.120,116.863 82.995,117.316 82.500 C 117.769 82.005,118.049 81.600,117.939 81.600 C 117.829 81.600,117.381 82.005,116.944 82.500 M113.600 88.400 C 113.130 89.060,112.836 89.600,112.946 89.600 C 113.056 89.600,113.530 89.060,114.000 88.400 C 114.470 87.740,114.764 87.200,114.654 87.200 C 114.544 87.200,114.070 87.740,113.600 88.400 M183.000 90.800 L 181.400 91.086 183.400 91.103 C 184.500 91.113,185.850 90.976,186.400 90.800 C 187.731 90.374,185.381 90.374,183.000 90.800 M176.400 91.600 L 175.400 91.920 176.400 91.920 C 176.950 91.920,177.850 91.776,178.400 91.600 L 179.400 91.280 178.400 91.280 C 177.850 91.280,176.950 91.424,176.400 91.600 M172.900 92.276 C 173.285 92.376,173.915 92.376,174.300 92.276 C 174.685 92.175,174.370 92.093,173.600 92.093 C 172.830 92.093,172.515 92.175,172.900 92.276 M109.299 99.590 C 109.024 100.468,108.812 101.595,108.826 102.094 C 108.841 102.592,109.115 102.023,109.436 100.830 C 110.126 98.262,110.018 97.285,109.299 99.590 M157.800 100.585 C 156.260 102.003,155.110 103.171,155.244 103.181 C 155.378 103.192,156.728 102.030,158.244 100.601 C 159.760 99.171,160.910 98.003,160.800 98.004 C 160.690 98.006,159.340 99.167,157.800 100.585 M108.200 105.600 C 108.050 106.073,108.017 106.550,108.127 106.660 C 108.237 106.770,108.450 106.473,108.600 106.000 C 108.750 105.527,108.783 105.050,108.673 104.940 C 108.563 104.830,108.350 105.127,108.200 105.600 M152.827 106.571 C 152.325 107.106,152.009 107.781,152.126 108.071 C 152.289 108.482,152.344 108.471,152.368 108.026 C 152.386 107.710,152.791 107.035,153.270 106.526 C 153.748 106.017,154.049 105.600,153.939 105.600 C 153.829 105.600,153.329 106.037,152.827 106.571 M106.978 111.378 C 106.827 112.181,106.794 112.927,106.904 113.037 C 107.014 113.147,107.227 112.581,107.378 111.778 C 107.528 110.975,107.562 110.228,107.452 110.118 C 107.342 110.008,107.128 110.575,106.978 111.378 M149.449 115.015 C 149.312 115.373,149.220 116.236,149.244 116.933 C 149.282 118.037,149.333 117.971,149.636 116.425 C 149.993 114.605,149.894 113.857,149.449 115.015 M106.559 124.400 C 106.559 127.590,106.621 128.895,106.697 127.300 C 106.773 125.705,106.773 123.095,106.697 121.500 C 106.621 119.905,106.559 121.210,106.559 124.400 M149.286 129.600 C 149.283 130.370,149.424 131.450,149.600 132.000 C 150.050 133.404,150.065 131.937,149.623 129.800 L 149.292 128.200 149.286 129.600 M106.840 135.600 C 106.825 136.150,107.067 137.410,107.379 138.400 C 108.107 140.710,108.132 139.664,107.417 136.800 C 107.111 135.574,106.856 135.043,106.840 135.600 M153.100 142.426 C 153.595 142.990,154.001 143.620,154.002 143.826 C 154.003 144.032,154.468 144.740,155.035 145.400 L 156.066 146.600 155.233 145.338 C 154.775 144.644,154.400 143.911,154.400 143.708 C 154.400 143.505,153.905 142.903,153.300 142.370 L 152.200 141.400 153.100 142.426 M108.806 145.833 C 108.809 146.475,108.984 147.270,109.195 147.600 C 109.455 148.009,109.499 147.690,109.332 146.600 C 109.029 144.623,108.798 144.286,108.806 145.833 M157.574 148.700 C 158.537 149.855,159.402 150.800,159.496 150.800 C 159.768 150.800,157.304 147.782,156.526 147.162 C 156.139 146.853,156.610 147.545,157.574 148.700 M161.400 152.400 C 162.259 153.280,163.052 154.000,163.162 154.000 C 163.272 154.000,162.659 153.280,161.800 152.400 C 160.941 151.520,160.148 150.800,160.038 150.800 C 159.928 150.800,160.541 151.520,161.400 152.400 M110.800 152.078 C 110.800 152.205,111.069 152.824,111.398 153.454 C 111.726 154.084,111.990 154.330,111.985 154.000 C 111.979 153.670,111.710 153.051,111.387 152.624 C 111.064 152.196,110.800 151.951,110.800 152.078 M164.833 154.900 C 164.925 154.955,165.540 155.450,166.200 156.000 L 167.400 157.000 166.430 155.900 C 165.897 155.295,165.282 154.800,165.064 154.800 C 164.845 154.800,164.742 154.845,164.833 154.900 M167.633 156.946 C 168.440 157.651,169.752 158.073,169.251 157.465 C 168.949 157.099,168.424 156.800,168.084 156.800 C 167.745 156.800,167.542 156.866,167.633 156.946 M114.818 160.926 C 114.788 161.483,115.666 162.941,116.859 164.314 C 117.486 165.037,118.000 165.469,118.000 165.276 C 118.000 165.082,117.621 164.581,117.158 164.162 C 116.696 163.744,115.984 162.771,115.576 162.000 C 115.169 161.230,114.827 160.747,114.818 160.926 M180.600 163.412 C 182.604 164.134,182.878 164.130,181.600 163.400 C 181.050 163.086,180.240 162.830,179.800 162.832 C 179.360 162.834,179.720 163.095,180.600 163.412 M189.233 166.930 C 189.325 167.001,190.030 167.466,190.800 167.963 L 192.200 168.866 191.000 167.835 C 190.340 167.268,189.635 166.803,189.433 166.802 C 189.232 166.801,189.142 166.858,189.233 166.930 M194.000 169.400 C 194.550 169.714,195.270 169.971,195.600 169.970 C 195.930 169.969,195.594 169.706,194.854 169.384 C 193.151 168.645,192.694 168.653,194.000 169.400 M124.059 173.111 C 124.565 173.721,125.524 174.652,126.189 175.179 C 126.855 175.706,126.507 175.207,125.415 174.069 C 123.249 171.811,122.607 171.358,124.059 173.111 M129.400 178.000 C 130.231 178.660,131.013 179.200,131.140 179.200 C 131.509 179.200,128.636 176.834,128.245 176.816 C 128.050 176.807,128.569 177.340,129.400 178.000 M221.146 181.416 C 221.886 181.737,222.606 181.994,222.746 181.986 C 223.266 181.957,220.976 180.828,220.400 180.830 C 220.070 180.831,220.406 181.094,221.146 181.416 M135.233 182.100 C 135.325 182.155,135.940 182.650,136.600 183.200 L 137.800 184.200 136.830 183.100 C 136.297 182.495,135.682 182.000,135.464 182.000 C 135.245 182.000,135.142 182.045,135.233 182.100 M224.600 182.965 C 225.260 183.532,225.965 183.997,226.167 183.998 C 226.601 184.000,226.596 183.996,224.800 182.837 L 223.400 181.934 224.600 182.965 M140.813 185.500 C 140.819 185.665,141.314 186.146,141.913 186.568 L 143.000 187.336 142.030 186.268 C 141.011 185.146,140.792 185.007,140.813 185.500 M234.346 187.416 C 235.086 187.737,235.896 187.993,236.146 187.984 C 236.396 187.976,235.994 187.706,235.254 187.384 C 234.514 187.063,233.704 186.807,233.454 186.816 C 233.204 186.824,233.606 187.094,234.346 187.416 M144.969 188.218 C 146.052 188.755,147.004 189.129,147.085 189.049 C 147.254 188.879,143.759 187.190,143.304 187.221 C 143.137 187.233,143.886 187.681,144.969 188.218 M149.200 190.600 C 149.750 190.914,150.470 191.171,150.800 191.170 C 151.130 191.169,150.794 190.906,150.054 190.584 C 148.351 189.845,147.894 189.853,149.200 190.600 M243.376 191.413 C 243.804 191.736,244.333 192.000,244.553 192.000 C 244.773 192.000,244.604 191.736,244.176 191.413 C 243.749 191.090,243.220 190.825,243.000 190.825 C 242.780 190.825,242.949 191.090,243.376 191.413 M152.176 191.813 C 152.604 192.136,153.133 192.400,153.353 192.400 C 153.573 192.400,153.404 192.136,152.976 191.813 C 152.549 191.490,152.020 191.225,151.800 191.225 C 151.580 191.225,151.749 191.490,152.176 191.813 M252.176 195.413 C 252.604 195.736,253.234 195.999,253.576 195.998 C 253.919 195.996,253.684 195.726,253.054 195.398 C 251.604 194.641,251.166 194.649,252.176 195.413 M162.746 196.616 C 163.486 196.937,164.296 197.193,164.546 197.184 C 164.796 197.176,164.394 196.906,163.654 196.584 C 162.914 196.263,162.104 196.007,161.854 196.016 C 161.604 196.024,162.006 196.294,162.746 196.616 M257.800 197.788 C 258.460 198.329,259.180 198.777,259.400 198.784 C 259.620 198.790,259.260 198.353,258.600 197.812 C 257.940 197.271,257.220 196.823,257.000 196.816 C 256.780 196.810,257.140 197.247,257.800 197.788 M260.800 199.221 C 261.842 199.930,263.600 200.828,263.600 200.650 C 263.600 200.428,260.839 198.798,260.477 198.806 C 260.325 198.809,260.470 198.996,260.800 199.221 M169.600 199.374 C 169.600 199.593,172.974 201.201,173.426 201.198 C 173.632 201.196,173.260 200.909,172.600 200.559 C 171.097 199.762,169.600 199.171,169.600 199.374 M174.800 201.559 C 174.800 201.872,177.615 203.318,177.822 203.112 C 177.889 203.044,177.237 202.601,176.372 202.128 C 175.508 201.654,174.800 201.398,174.800 201.559 M268.000 203.576 C 268.771 203.984,269.744 204.696,270.162 205.158 C 270.581 205.621,271.082 206.000,271.276 206.000 C 271.469 206.000,271.037 205.486,270.314 204.859 C 268.941 203.666,267.483 202.788,266.926 202.818 C 266.747 202.827,267.230 203.169,268.000 203.576 M273.213 207.081 C 273.219 207.257,273.669 207.723,274.213 208.119 C 274.756 208.514,275.194 208.694,275.187 208.519 C 275.181 208.343,274.731 207.877,274.187 207.481 C 273.644 207.086,273.206 206.906,273.213 207.081 M195.000 210.285 C 195.440 210.391,195.971 210.640,196.180 210.839 C 196.389 211.037,196.738 211.200,196.956 211.200 C 197.175 211.200,197.004 210.936,196.576 210.613 C 196.149 210.290,195.440 210.041,195.000 210.059 L 194.200 210.093 195.000 210.285 M277.200 210.222 C 277.200 210.344,277.762 211.019,278.450 211.722 L 279.700 213.000 278.602 211.500 C 277.550 210.061,277.200 209.742,277.200 210.222 M198.176 211.778 C 198.604 212.120,199.234 212.386,199.576 212.368 C 200.115 212.341,200.118 212.307,199.600 212.114 C 199.270 211.992,198.640 211.726,198.200 211.524 C 197.413 211.162,197.412 211.166,198.176 211.778 M284.000 217.600 C 284.470 218.260,284.944 218.800,285.054 218.800 C 285.164 218.800,284.870 218.260,284.400 217.600 C 283.930 216.940,283.456 216.400,283.346 216.400 C 283.236 216.400,283.530 216.940,284.000 217.600 M218.600 220.165 C 219.260 220.732,219.965 221.197,220.167 221.198 C 220.601 221.200,220.596 221.196,218.800 220.037 L 217.400 219.134 218.600 220.165 M226.624 223.787 C 227.051 224.110,227.670 224.379,228.000 224.385 C 228.330 224.390,228.084 224.126,227.454 223.798 C 225.995 223.037,225.625 223.032,226.624 223.787 M289.225 225.800 C 289.225 226.020,289.490 226.549,289.813 226.976 C 290.136 227.404,290.400 227.573,290.400 227.353 C 290.400 227.133,290.136 226.604,289.813 226.176 C 289.490 225.749,289.225 225.580,289.225 225.800 M234.433 227.328 C 235.069 227.815,237.600 229.136,237.600 228.981 C 237.600 228.713,235.082 227.203,234.633 227.201 C 234.432 227.201,234.342 227.257,234.433 227.328 M242.000 232.600 C 243.732 234.387,243.943 234.387,242.517 232.600 C 241.903 231.830,241.230 231.200,241.022 231.200 C 240.813 231.200,241.254 231.830,242.000 232.600 M292.000 232.247 C 292.000 232.467,292.264 232.996,292.587 233.424 C 292.910 233.851,293.175 234.020,293.175 233.800 C 293.175 233.580,292.910 233.051,292.587 232.624 C 292.264 232.196,292.000 232.027,292.000 232.247 M244.800 235.150 C 244.800 235.308,245.520 236.141,246.400 237.000 C 247.280 237.859,248.000 238.464,248.000 238.345 C 248.000 238.225,247.280 237.393,246.400 236.495 C 245.520 235.597,244.800 234.992,244.800 235.150 M248.015 239.000 C 248.009 239.220,248.463 239.940,249.023 240.600 C 249.584 241.260,249.866 241.440,249.650 241.000 C 249.070 239.816,248.027 238.540,248.015 239.000 M250.800 243.472 C 250.800 244.031,251.975 246.337,252.390 246.594 C 252.576 246.709,252.363 246.038,251.916 245.102 C 250.999 243.181,250.800 242.891,250.800 243.472 M252.800 247.887 C 252.800 248.143,252.980 248.464,253.200 248.600 C 253.420 248.736,253.621 249.242,253.646 249.724 C 253.682 250.389,253.737 250.433,253.874 249.907 C 253.974 249.527,253.773 248.811,253.428 248.318 C 253.083 247.825,252.800 247.631,252.800 247.887 M296.659 249.400 C 296.799 250.500,296.977 251.475,297.056 251.567 C 297.399 251.964,297.150 248.541,296.797 248.000 C 296.530 247.590,296.486 248.035,296.659 249.400 M254.056 252.200 C 254.056 252.640,254.211 253.360,254.400 253.800 L 254.744 254.600 254.744 253.800 C 254.744 253.360,254.589 252.640,254.400 252.200 L 254.056 251.400 254.056 252.200 M297.275 255.800 C 297.265 256.460,297.411 257.360,297.600 257.800 L 297.944 258.600 297.925 257.800 C 297.914 257.360,297.768 256.460,297.600 255.800 L 297.295 254.600 297.275 255.800 M254.828 256.833 C 254.844 257.365,255.019 258.160,255.219 258.600 C 255.471 259.158,255.507 258.915,255.338 257.800 C 255.055 255.943,254.787 255.436,254.828 256.833 M298.120 261.200 C 298.120 262.410,298.195 262.905,298.287 262.300 C 298.378 261.695,298.378 260.705,298.287 260.100 C 298.195 259.495,298.120 259.990,298.120 261.200 M255.547 270.400 C 255.408 276.010,255.185 281.230,255.050 282.000 C 254.916 282.770,255.078 282.332,255.410 281.027 C 255.881 279.177,255.991 276.623,255.907 269.427 L 255.800 260.200 255.547 270.400 M298.549 273.887 C 298.560 278.555,298.708 282.155,298.878 281.887 C 299.269 281.272,299.222 267.745,298.825 266.400 C 298.662 265.850,298.538 269.219,298.549 273.887 M254.273 284.953 C 254.123 285.345,254.011 285.966,254.025 286.333 C 254.042 286.775,254.181 286.674,254.437 286.034 C 254.649 285.503,254.761 284.882,254.685 284.654 C 254.609 284.427,254.424 284.561,254.273 284.953 M298.101 285.800 C 298.105 286.680,298.187 286.993,298.283 286.495 C 298.379 285.998,298.375 285.278,298.275 284.895 C 298.175 284.513,298.096 284.920,298.101 285.800 M253.304 288.684 C 253.031 289.266,252.882 289.815,252.972 289.905 C 253.212 290.146,254.073 288.418,253.926 287.991 C 253.857 287.790,253.577 288.102,253.304 288.684 M297.450 289.250 C 297.309 289.953,297.269 290.602,297.359 290.692 C 297.450 290.783,297.648 290.291,297.800 289.600 C 297.952 288.909,297.993 288.259,297.891 288.158 C 297.789 288.056,297.591 288.547,297.450 289.250 M296.860 294.067 C 296.827 294.654,296.696 295.464,296.570 295.867 C 296.352 296.560,296.365 296.561,296.795 295.890 C 297.046 295.499,297.177 294.689,297.086 294.090 L 296.920 293.000 296.860 294.067 M247.033 297.437 C 245.511 298.868,244.791 299.725,245.433 299.340 C 246.430 298.742,250.405 294.768,249.957 294.817 C 249.870 294.827,248.555 296.006,247.033 297.437 M237.424 303.413 C 236.996 303.736,236.827 304.000,237.047 304.000 C 237.267 304.000,237.796 303.736,238.224 303.413 C 238.651 303.090,238.820 302.825,238.600 302.825 C 238.380 302.825,237.851 303.090,237.424 303.413 M231.000 305.411 C 228.859 306.117,230.079 306.130,232.600 305.428 C 233.747 305.109,234.174 304.874,233.600 304.878 C 233.050 304.881,231.880 305.121,231.000 305.411 M226.800 306.400 C 226.267 306.745,226.267 306.788,226.800 306.788 C 227.130 306.788,227.670 306.613,228.000 306.400 C 228.533 306.055,228.533 306.012,228.000 306.012 C 227.670 306.012,227.130 306.187,226.800 306.400 M221.800 307.200 C 220.706 307.670,222.533 307.670,224.000 307.200 C 224.975 306.888,224.970 306.879,223.800 306.868 C 223.140 306.862,222.240 307.011,221.800 307.200 M142.300 307.900 C 156.655 307.958,180.145 307.958,194.500 307.900 C 208.855 307.842,197.110 307.794,168.400 307.794 C 139.690 307.794,127.945 307.842,142.300 307.900 M111.900 308.629 C 110.349 309.470,110.525 309.761,112.100 308.959 C 113.608 308.193,113.875 307.994,113.367 308.016 C 113.165 308.025,112.505 308.301,111.900 308.629 M109.285 311.613 C 108.485 312.893,108.607 337.491,109.422 339.254 C 109.764 339.994,109.905 340.150,109.735 339.600 C 109.217 337.920,109.114 312.908,109.622 311.959 C 110.196 310.886,109.918 310.599,109.285 311.613 M289.270 313.653 C 288.758 314.284,288.488 314.794,288.670 314.787 C 289.041 314.773,290.556 312.812,290.339 312.625 C 290.263 312.559,289.781 313.022,289.270 313.653 M281.261 323.455 C 280.525 324.225,279.985 324.916,280.061 324.991 C 280.137 325.065,280.893 324.423,281.741 323.563 C 282.588 322.703,283.128 322.012,282.941 322.027 C 282.753 322.043,281.997 322.685,281.261 323.455 M276.099 327.991 C 275.827 328.425,274.896 329.143,274.030 329.585 C 273.163 330.027,272.348 330.561,272.218 330.771 C 272.088 330.982,272.760 330.719,273.711 330.187 C 275.464 329.207,277.651 327.200,276.966 327.200 C 276.761 327.200,276.370 327.556,276.099 327.991 M266.011 334.220 C 265.247 334.759,264.797 335.199,265.011 335.198 C 265.225 335.197,265.940 334.753,266.600 334.212 C 268.141 332.949,267.805 332.953,266.011 334.220 M257.780 337.561 C 257.571 337.760,257.040 338.009,256.600 338.115 C 255.820 338.303,255.820 338.308,256.624 338.354 C 257.076 338.379,257.796 338.136,258.224 337.813 C 258.651 337.490,258.811 337.220,258.580 337.213 C 258.349 337.206,257.989 337.363,257.780 337.561 M253.800 338.800 C 252.693 339.082,252.677 339.109,253.600 339.147 C 254.150 339.169,254.870 339.013,255.200 338.800 C 255.881 338.360,255.529 338.360,253.800 338.800 M246.800 340.600 C 244.933 341.319,245.739 341.333,248.000 340.621 C 248.990 340.309,249.440 340.055,249.000 340.057 C 248.560 340.059,247.570 340.303,246.800 340.600 M111.000 341.600 C 111.660 342.037,112.380 342.395,112.600 342.396 C 112.820 342.396,112.411 342.038,111.690 341.599 C 109.992 340.563,109.436 340.564,111.000 341.600 M241.400 341.600 C 240.330 341.872,240.308 341.905,241.200 341.905 C 241.750 341.905,242.740 341.768,243.400 341.600 C 244.470 341.328,244.492 341.295,243.600 341.295 C 243.050 341.295,242.060 341.432,241.400 341.600 M234.691 342.289 C 235.401 342.377,236.661 342.379,237.491 342.292 C 238.321 342.205,237.740 342.133,236.200 342.131 C 234.660 342.129,233.981 342.200,234.691 342.289 M228.400 342.800 L 226.200 343.070 228.400 343.095 C 229.610 343.109,231.050 342.976,231.600 342.800 L 232.600 342.480 231.600 342.505 C 231.050 342.519,229.610 342.652,228.400 342.800 M0.875 384.248 C 1.247 384.358,1.642 384.753,1.752 385.125 C 1.899 385.614,1.932 385.581,1.872 385.005 C 1.825 384.538,1.462 384.175,0.995 384.128 C 0.419 384.068,0.386 384.101,0.875 384.248 M396.100 390.012 C 395.605 390.211,395.214 390.605,395.232 390.887 C 395.256 391.289,395.307 391.291,395.465 390.900 C 395.576 390.625,396.012 390.400,396.433 390.400 C 396.855 390.400,397.200 390.220,397.200 390.000 C 397.200 389.780,397.155 389.611,397.100 389.625 C 397.045 389.639,396.595 389.813,396.100 390.012 M390.126 395.900 C 389.989 396.285,389.804 396.735,389.715 396.900 C 389.626 397.065,389.743 397.200,389.976 397.200 C 390.209 397.200,390.400 396.855,390.400 396.433 C 390.400 396.012,390.625 395.576,390.900 395.465 C 391.292 395.307,391.289 395.256,390.887 395.232 C 390.606 395.214,390.263 395.515,390.126 395.900 " stroke="none" fill="#c26856" fill-rule="evenodd"></path><path id="path2" d="M16.894 0.283 C 16.396 0.379,16.096 0.632,16.229 0.846 C 16.794 1.760,15.617 2.330,14.115 1.869 C 12.996 1.526,12.621 1.536,12.496 1.911 C 12.407 2.180,11.999 2.400,11.590 2.400 C 10.590 2.400,10.219 3.100,10.829 3.834 C 11.489 4.631,10.846 5.242,9.670 4.934 C 9.116 4.789,8.837 4.481,8.963 4.153 C 9.132 3.711,9.025 3.702,8.376 4.106 C 7.796 4.467,7.642 4.876,7.806 5.624 C 8.099 6.964,6.884 8.136,5.547 7.804 C 4.864 7.635,4.462 7.792,4.106 8.370 C 3.702 9.024,3.711 9.132,4.153 8.963 C 4.481 8.837,4.789 9.116,4.934 9.670 C 5.242 10.846,4.631 11.489,3.834 10.829 C 3.100 10.219,2.400 10.590,2.400 11.590 C 2.400 11.999,2.180 12.407,1.911 12.496 C 1.536 12.621,1.526 12.996,1.869 14.115 C 2.326 15.602,1.763 16.795,0.866 16.241 C 0.045 15.733,-0.000 25.255,-0.000 200.000 C 0.000 379.806,0.023 384.120,0.980 383.752 C 1.949 383.380,2.366 384.509,1.902 386.249 C 1.404 388.114,2.039 389.178,4.122 389.970 C 5.063 390.328,5.169 390.511,4.816 391.170 C 4.183 392.353,4.286 392.458,5.800 392.174 C 7.188 391.913,7.864 392.743,6.800 393.400 C 6.195 393.774,6.321 394.400,7.000 394.400 C 7.330 394.400,7.600 394.670,7.600 395.000 C 7.600 395.692,8.444 395.796,9.061 395.179 C 9.555 394.685,10.984 396.579,10.593 397.211 C 10.461 397.425,10.633 397.600,10.976 397.600 C 11.319 397.600,11.600 397.800,11.600 398.045 C 11.600 398.347,12.183 398.403,13.400 398.221 C 15.009 397.980,15.200 398.034,15.200 398.729 C 15.200 400.018,11.002 399.989,200.000 399.989 C 389.629 399.989,384.800 400.023,384.800 398.699 C 384.800 397.972,384.979 397.916,386.600 398.138 C 387.678 398.286,388.400 398.227,388.400 397.992 C 388.400 397.777,388.805 397.597,389.300 397.594 C 389.928 397.590,390.043 397.488,389.680 397.258 C 388.619 396.585,389.950 394.725,391.283 395.018 C 392.116 395.201,392.393 395.125,392.311 394.734 C 392.250 394.440,392.475 394.218,392.811 394.241 C 393.551 394.290,394.200 393.617,394.200 392.800 C 394.200 392.470,394.440 392.250,394.734 392.311 C 395.125 392.393,395.201 392.116,395.018 391.283 C 394.725 389.950,396.585 388.619,397.258 389.680 C 397.488 390.043,397.590 389.928,397.594 389.300 C 397.597 388.805,397.777 388.400,397.992 388.400 C 398.227 388.400,398.286 387.678,398.138 386.600 C 397.916 384.979,397.972 384.800,398.699 384.800 C 400.023 384.800,399.989 389.629,399.989 200.000 C 399.989 11.002,400.018 15.200,398.729 15.200 C 398.034 15.200,397.980 15.009,398.221 13.400 C 398.403 12.183,398.347 11.600,398.045 11.600 C 397.800 11.600,397.600 11.319,397.600 10.976 C 397.600 10.633,397.425 10.461,397.211 10.593 C 396.579 10.984,394.685 9.555,395.179 9.061 C 395.796 8.444,395.692 7.600,395.000 7.600 C 394.670 7.600,394.400 7.407,394.400 7.171 C 394.400 6.618,393.382 5.600,392.829 5.600 C 392.593 5.600,392.400 5.330,392.400 5.000 C 392.400 4.290,392.207 4.261,391.170 4.816 C 390.511 5.169,390.328 5.063,389.970 4.122 C 389.178 2.039,388.114 1.404,386.249 1.902 C 384.509 2.366,383.380 1.949,383.752 0.980 C 383.866 0.683,383.458 0.392,382.721 0.244 C 381.354 -0.029,18.318 0.009,16.894 0.283 M281.414 55.446 C 281.956 55.801,282.400 56.350,282.400 56.665 C 282.400 56.980,282.850 57.655,283.400 58.165 L 284.400 59.092 284.400 72.560 C 284.400 84.665,284.330 86.138,283.705 87.114 C 282.442 89.089,280.579 90.400,279.038 90.400 C 278.493 90.400,277.936 90.580,277.800 90.800 C 277.638 91.063,261.607 91.207,231.076 91.221 C 204.222 91.232,183.418 91.401,181.800 91.620 C 180.260 91.828,177.675 92.113,176.055 92.254 C 174.128 92.422,172.496 92.837,171.334 93.455 C 170.357 93.975,169.218 94.400,168.802 94.400 C 168.387 94.400,167.945 94.566,167.819 94.769 C 167.694 94.972,167.063 95.254,166.418 95.396 C 165.773 95.538,164.470 96.270,163.522 97.023 C 162.575 97.776,161.597 98.394,161.348 98.396 C 160.730 98.401,154.400 104.775,154.400 105.392 C 154.400 105.665,153.950 106.226,153.400 106.639 C 152.846 107.055,152.400 107.796,152.400 108.300 C 152.400 108.801,152.246 109.523,152.059 109.905 C 150.161 113.769,149.870 115.549,149.883 123.200 C 149.893 129.075,150.242 133.343,150.814 134.600 C 151.493 136.090,152.388 138.996,152.394 139.727 C 152.397 140.126,152.850 141.043,153.400 141.764 C 153.950 142.486,154.400 143.284,154.400 143.538 C 154.400 143.792,154.568 144.000,154.773 144.000 C 154.978 144.000,155.267 144.380,155.414 144.844 C 155.561 145.309,157.419 147.424,159.541 149.544 C 163.186 153.186,164.177 154.026,165.600 154.681 C 165.930 154.833,166.528 155.372,166.929 155.879 C 167.330 156.385,167.900 156.800,168.197 156.800 C 168.888 156.800,171.194 158.106,171.197 158.500 C 171.199 158.665,171.470 158.800,171.800 158.800 C 172.130 158.800,172.400 158.980,172.400 159.200 C 172.400 159.420,172.744 159.600,173.166 159.600 C 173.993 159.600,178.676 161.875,179.031 162.450 C 179.150 162.642,179.867 162.800,180.624 162.800 C 181.381 162.800,182.000 162.980,182.000 163.200 C 182.000 163.420,182.347 163.600,182.771 163.600 C 183.196 163.600,183.813 163.870,184.143 164.200 C 184.473 164.530,184.936 164.800,185.171 164.800 C 185.407 164.800,185.600 164.980,185.600 165.200 C 185.600 165.420,186.106 165.600,186.724 165.600 C 187.341 165.600,188.196 165.864,188.624 166.187 C 189.051 166.510,189.635 166.780,189.921 166.787 C 190.208 166.794,191.105 167.250,191.914 167.800 C 192.723 168.350,193.676 168.800,194.031 168.800 C 194.804 168.800,197.089 169.897,197.416 170.425 C 197.543 170.631,197.997 170.800,198.424 170.800 C 198.851 170.800,199.200 170.980,199.200 171.200 C 199.200 171.420,199.657 171.600,200.216 171.600 C 201.234 171.600,206.083 173.884,206.333 174.482 C 206.407 174.657,207.082 174.800,207.833 174.800 C 208.585 174.800,209.200 174.980,209.200 175.200 C 209.200 175.420,209.428 175.600,209.707 175.600 C 209.986 175.600,210.877 176.050,211.686 176.600 C 212.495 177.150,213.537 177.600,214.002 177.600 C 214.864 177.600,218.093 179.230,219.231 180.240 C 219.579 180.548,220.256 180.800,220.737 180.800 C 221.536 180.800,222.376 181.128,224.000 182.074 C 224.330 182.266,224.915 182.529,225.300 182.658 C 225.685 182.788,226.000 183.052,226.000 183.247 C 226.000 183.441,226.444 183.600,226.986 183.600 C 227.859 183.600,230.666 184.666,231.200 185.200 C 231.691 185.691,233.978 186.800,234.500 186.800 C 235.094 186.800,236.500 187.483,238.600 188.793 C 239.260 189.205,240.190 189.555,240.668 189.571 C 241.585 189.602,244.107 190.792,244.333 191.300 C 244.407 191.465,244.700 191.600,244.984 191.600 C 245.269 191.600,245.726 191.870,246.000 192.200 C 246.274 192.530,247.005 192.800,247.625 192.800 C 248.245 192.800,248.864 192.980,249.000 193.200 C 249.136 193.420,249.665 193.600,250.175 193.600 C 250.685 193.600,251.326 193.870,251.600 194.200 C 251.874 194.530,252.346 194.800,252.649 194.800 C 252.952 194.800,253.200 194.980,253.200 195.200 C 253.200 195.420,253.706 195.600,254.325 195.600 C 254.944 195.600,256.644 196.320,258.103 197.200 C 259.562 198.080,260.950 198.800,261.187 198.800 C 261.565 198.800,264.665 200.651,265.200 201.196 C 265.548 201.551,266.946 202.360,268.600 203.163 C 269.480 203.590,270.465 204.314,270.788 204.770 C 271.112 205.227,271.568 205.600,271.801 205.600 C 272.208 205.600,273.438 206.474,275.461 208.200 C 275.977 208.640,277.453 209.900,278.740 211.000 C 280.028 212.100,281.465 213.540,281.934 214.200 C 282.402 214.860,283.294 215.940,283.915 216.600 C 284.536 217.260,285.394 218.427,285.822 219.192 C 286.250 219.958,287.005 220.916,287.500 221.321 C 287.995 221.727,288.400 222.495,288.400 223.029 C 288.400 223.563,288.549 224.000,288.732 224.000 C 289.161 224.000,291.600 228.846,291.600 229.700 C 291.600 230.059,291.780 230.464,292.000 230.600 C 292.220 230.736,292.400 231.287,292.400 231.824 C 292.400 232.361,292.556 232.800,292.746 232.800 C 293.255 232.800,294.400 236.031,294.400 237.468 C 294.400 238.150,294.669 239.224,294.998 239.854 C 295.326 240.484,295.596 241.304,295.598 241.676 C 295.599 242.048,295.780 242.464,296.000 242.600 C 296.220 242.736,296.400 243.521,296.400 244.344 C 296.400 245.167,296.569 246.011,296.775 246.220 C 297.177 246.627,297.929 253.104,298.260 258.996 C 298.371 260.974,298.641 262.808,298.860 263.072 C 299.419 263.746,299.453 283.813,298.896 284.488 C 298.664 284.769,298.380 286.170,298.265 287.600 C 297.900 292.157,297.165 296.987,296.776 297.380 C 296.569 297.589,296.400 298.176,296.400 298.685 C 296.400 299.194,296.232 299.923,296.026 300.305 C 295.016 302.178,294.400 303.807,294.400 304.600 C 294.400 305.626,293.337 307.884,292.359 308.935 C 291.984 309.339,291.561 310.284,291.420 311.035 C 291.279 311.786,290.992 312.400,290.782 312.400 C 290.572 312.400,290.400 312.735,290.400 313.144 C 290.400 313.553,289.950 314.226,289.400 314.639 C 288.850 315.052,288.400 315.682,288.400 316.039 C 288.400 316.396,287.777 317.388,287.016 318.244 C 286.255 319.100,284.817 320.748,283.822 321.906 C 282.827 323.065,281.065 324.817,279.906 325.800 C 278.748 326.783,277.119 328.175,276.287 328.894 C 275.454 329.612,274.482 330.263,274.126 330.341 C 273.770 330.419,273.113 330.823,272.666 331.239 C 271.693 332.145,268.980 333.600,268.263 333.600 C 267.981 333.600,267.391 333.915,266.952 334.300 C 265.709 335.389,263.627 336.400,262.627 336.400 C 262.128 336.400,260.927 336.814,259.960 337.320 C 257.712 338.496,254.233 339.600,252.778 339.600 C 252.156 339.600,251.536 339.780,251.400 340.000 C 251.264 340.220,250.533 340.400,249.776 340.400 C 249.019 340.400,248.400 340.548,248.400 340.729 C 248.400 341.334,243.452 342.143,238.810 342.298 C 236.081 342.389,233.988 342.644,233.649 342.926 C 232.672 343.736,114.726 343.821,113.105 343.013 C 112.430 342.676,111.712 342.400,111.510 342.400 C 110.999 342.400,109.921 341.269,109.311 340.094 C 108.925 339.349,108.800 335.704,108.800 325.160 L 108.800 311.212 110.658 309.406 L 112.516 307.600 166.034 307.600 C 201.282 307.600,219.637 307.463,219.800 307.200 C 219.936 306.980,221.186 306.800,222.578 306.800 C 224.045 306.800,225.590 306.549,226.254 306.202 C 226.884 305.874,228.064 305.604,228.876 305.602 C 229.688 305.601,230.464 305.420,230.600 305.200 C 230.736 304.980,231.695 304.800,232.731 304.800 C 234.081 304.800,235.031 304.517,236.086 303.800 C 236.895 303.250,237.792 302.794,238.079 302.787 C 238.365 302.780,238.949 302.510,239.376 302.187 C 239.804 301.864,240.434 301.600,240.776 301.600 C 241.119 301.599,241.923 301.149,242.562 300.600 C 243.201 300.050,243.887 299.600,244.085 299.600 C 244.818 299.600,250.454 293.443,251.312 291.704 C 252.783 288.723,252.977 288.400,253.295 288.400 C 253.463 288.400,253.600 287.624,253.600 286.676 C 253.600 285.729,253.864 284.604,254.187 284.176 C 254.549 283.698,254.779 282.471,254.787 280.980 C 254.794 279.649,254.987 278.373,255.216 278.144 C 256.140 277.220,255.192 257.484,254.056 254.003 C 253.805 253.234,253.600 251.839,253.600 250.903 C 253.600 249.966,253.420 249.200,253.200 249.200 C 252.980 249.200,252.800 248.851,252.800 248.424 C 252.800 247.997,252.631 247.543,252.425 247.416 C 251.927 247.108,250.800 244.823,250.800 244.121 C 250.800 243.816,250.080 242.591,249.200 241.400 C 248.320 240.209,247.600 239.069,247.600 238.868 C 247.600 238.667,246.996 237.984,246.257 237.351 C 245.518 236.718,244.786 235.795,244.630 235.300 C 244.474 234.805,244.041 234.400,243.669 234.400 C 243.296 234.400,242.543 233.847,241.996 233.171 C 241.448 232.495,240.507 231.681,239.905 231.363 C 239.303 231.045,238.223 230.275,237.505 229.653 C 236.787 229.030,235.746 228.410,235.192 228.276 C 234.638 228.141,233.828 227.709,233.392 227.315 C 232.359 226.382,229.785 225.200,228.786 225.200 C 228.354 225.200,228.000 225.020,228.000 224.800 C 228.000 224.580,227.726 224.400,227.392 224.400 C 227.058 224.400,226.071 223.950,225.200 223.400 C 224.329 222.850,223.258 222.400,222.822 222.400 C 222.097 222.400,219.279 221.279,218.800 220.800 C 218.268 220.268,216.755 219.628,215.449 219.383 C 214.652 219.233,214.000 218.951,214.000 218.755 C 214.000 218.560,213.550 218.400,213.000 218.400 C 212.450 218.400,212.000 218.223,212.000 218.008 C 212.000 217.792,211.550 217.502,211.000 217.364 C 210.450 217.226,210.000 216.953,210.000 216.757 C 210.000 216.560,209.475 216.400,208.832 216.400 C 207.696 216.400,205.134 215.302,204.867 214.700 C 204.793 214.535,204.399 214.400,203.990 214.400 C 203.582 214.400,203.136 214.220,203.000 214.000 C 202.864 213.780,202.448 213.599,202.076 213.598 C 201.704 213.596,200.884 213.326,200.254 212.998 C 199.624 212.669,198.901 212.400,198.647 212.400 C 198.393 212.400,197.523 211.950,196.714 211.400 C 195.905 210.850,194.870 210.400,194.416 210.400 C 193.961 210.400,193.277 210.240,192.895 210.044 C 192.513 209.848,191.437 209.353,190.505 208.944 C 189.572 208.535,188.807 208.081,188.805 207.935 C 188.802 207.789,188.035 207.544,187.100 207.390 C 186.165 207.236,185.220 206.967,185.000 206.793 C 183.926 205.944,180.582 204.400,179.817 204.400 C 179.342 204.400,178.604 204.136,178.176 203.813 C 177.749 203.490,177.085 203.220,176.700 203.213 C 176.315 203.206,176.000 203.064,176.000 202.898 C 176.000 202.584,174.534 201.887,172.806 201.379 C 172.259 201.218,170.287 200.302,168.424 199.343 C 166.561 198.384,164.875 197.600,164.679 197.600 C 164.201 197.600,161.831 196.573,159.541 195.374 C 158.519 194.838,157.318 194.400,156.873 194.400 C 155.975 194.400,153.606 193.169,153.603 192.700 C 153.601 192.535,153.351 192.400,153.046 192.400 C 152.741 192.400,151.976 192.131,151.346 191.802 C 150.716 191.474,149.885 191.204,149.500 191.202 C 149.115 191.201,148.800 191.063,148.800 190.895 C 148.800 190.589,147.615 189.867,146.300 189.371 C 145.915 189.226,145.600 188.948,145.600 188.753 C 145.600 188.559,145.245 188.400,144.812 188.400 C 144.378 188.400,142.697 187.500,141.076 186.400 C 139.455 185.300,137.911 184.400,137.645 184.400 C 137.379 184.400,136.745 183.950,136.235 183.400 C 135.725 182.850,135.027 182.400,134.683 182.400 C 134.339 182.400,133.718 181.967,133.302 181.438 C 132.885 180.909,131.937 180.107,131.195 179.655 C 128.227 177.850,118.800 168.722,118.800 167.654 C 118.800 167.451,118.530 167.182,118.200 167.055 C 117.870 166.929,117.600 166.553,117.600 166.220 C 117.600 165.887,116.970 164.966,116.200 164.173 C 115.430 163.380,114.800 162.466,114.800 162.143 C 114.800 161.571,113.273 158.612,112.152 157.011 C 111.849 156.577,111.600 155.818,111.600 155.325 C 111.600 154.832,111.150 153.622,110.600 152.637 C 110.050 151.652,109.600 150.486,109.600 150.047 C 109.600 149.607,109.420 149.136,109.200 149.000 C 108.980 148.864,108.800 147.615,108.800 146.225 C 108.800 144.467,108.617 143.546,108.200 143.200 C 107.834 142.896,107.600 142.020,107.600 140.951 C 107.600 139.988,107.443 139.200,107.250 139.200 C 105.966 139.200,105.966 109.762,107.251 108.969 C 107.443 108.850,107.600 108.128,107.600 107.364 C 107.600 106.599,107.870 105.328,108.200 104.538 C 108.530 103.749,108.800 102.145,108.800 100.975 C 108.800 99.805,108.980 98.736,109.200 98.600 C 109.420 98.464,109.600 97.935,109.600 97.425 C 109.600 96.915,109.870 96.274,110.200 96.000 C 110.530 95.726,110.800 95.175,110.800 94.775 C 110.800 94.375,110.980 93.936,111.200 93.800 C 111.420 93.664,111.600 93.118,111.600 92.587 C 111.600 91.462,113.420 87.447,114.239 86.768 C 114.548 86.512,114.800 86.082,114.800 85.812 C 114.800 85.078,115.857 83.105,116.782 82.111 C 117.232 81.629,117.600 81.001,117.600 80.717 C 117.601 80.433,118.321 79.502,119.200 78.648 C 120.080 77.795,120.800 76.949,120.800 76.769 C 120.800 76.340,127.618 69.600,128.052 69.600 C 128.235 69.600,129.034 68.970,129.827 68.200 C 130.620 67.430,131.536 66.800,131.863 66.800 C 132.190 66.800,132.708 66.575,133.015 66.300 C 134.315 65.134,134.787 64.800,135.134 64.800 C 135.336 64.800,135.726 64.530,136.000 64.200 C 136.274 63.870,136.934 63.600,137.466 63.600 C 137.999 63.600,138.920 63.150,139.513 62.600 C 140.107 62.050,140.898 61.600,141.272 61.600 C 141.647 61.600,142.064 61.420,142.200 61.200 C 142.336 60.980,142.904 60.800,143.462 60.800 C 144.020 60.800,144.954 60.552,145.538 60.249 C 148.591 58.664,152.025 57.600,154.090 57.600 C 155.114 57.600,156.064 57.420,156.200 57.200 C 156.336 56.980,157.112 56.794,157.924 56.787 C 158.736 56.780,159.749 56.510,160.176 56.187 C 160.618 55.853,161.825 55.597,162.976 55.594 C 164.089 55.591,165.270 55.413,165.600 55.200 C 166.772 54.443,280.250 54.684,281.414 55.446 " stroke="none" fill="#ac1c24" fill-rule="evenodd"></path><path id="path3" d="M10.659 3.913 C 10.733 4.030,10.593 4.368,10.348 4.663 C 10.043 5.030,10.037 5.200,10.327 5.200 C 10.951 5.200,11.352 4.381,10.908 4.015 C 10.697 3.842,10.585 3.796,10.659 3.913 M7.632 5.929 C 7.595 6.549,6.832 7.375,5.993 7.704 C 5.495 7.900,5.502 7.942,6.038 7.968 C 6.872 8.010,8.141 6.594,7.873 5.923 C 7.702 5.496,7.657 5.497,7.632 5.929 M4.612 10.380 C 4.465 10.618,4.132 10.694,3.872 10.548 C 3.554 10.369,3.563 10.458,3.900 10.821 C 4.285 11.236,4.509 11.251,4.873 10.887 C 5.134 10.626,5.242 10.308,5.113 10.180 C 4.985 10.052,4.760 10.142,4.612 10.380 M398.046 14.300 C 398.011 14.993,398.207 15.189,398.900 15.154 C 399.538 15.121,399.603 15.055,399.125 14.929 C 398.753 14.831,398.369 14.447,398.271 14.075 C 398.145 13.597,398.079 13.662,398.046 14.300 M165.600 55.200 C 164.867 55.674,166.737 55.674,168.600 55.200 C 169.694 54.922,169.642 54.891,168.000 54.853 C 167.010 54.831,165.930 54.987,165.600 55.200 M280.600 55.474 C 281.260 55.827,281.932 56.315,282.094 56.558 C 282.306 56.877,282.389 56.874,282.394 56.546 C 282.401 56.011,280.655 54.793,279.914 54.816 C 279.631 54.825,279.940 55.121,280.600 55.474 M160.176 56.187 C 159.749 56.510,159.589 56.780,159.820 56.787 C 160.051 56.794,160.411 56.634,160.620 56.431 C 160.829 56.228,161.540 55.985,162.200 55.891 L 163.400 55.720 162.176 55.660 C 161.504 55.627,160.604 55.864,160.176 56.187 M150.600 58.249 L 149.400 58.833 150.600 58.591 C 151.260 58.458,152.520 58.203,153.400 58.024 L 155.000 57.700 153.400 57.683 C 152.520 57.673,151.260 57.928,150.600 58.249 M283.465 58.862 C 283.869 59.666,284.257 60.076,284.327 59.774 C 284.397 59.472,284.066 58.814,283.592 58.312 L 282.730 57.400 283.465 58.862 M147.600 59.177 C 147.270 59.359,146.505 59.738,145.901 60.021 C 145.296 60.303,144.894 60.627,145.007 60.741 C 145.121 60.854,145.426 60.734,145.687 60.473 C 145.947 60.213,146.450 60.000,146.804 60.000 C 147.157 60.000,147.796 59.736,148.224 59.413 C 149.048 58.789,148.608 58.622,147.600 59.177 M135.949 64.265 C 135.458 64.860,135.485 64.887,136.200 64.520 C 136.640 64.293,137.270 64.008,137.600 63.886 C 138.012 63.733,137.933 63.653,137.349 63.632 C 136.881 63.614,136.251 63.899,135.949 64.265 M130.072 67.936 C 129.372 68.560,128.800 69.232,128.800 69.427 C 128.800 69.623,129.205 69.374,129.700 68.873 C 130.195 68.373,130.960 67.707,131.400 67.394 C 131.840 67.082,132.007 66.820,131.772 66.813 C 131.537 66.806,130.772 67.311,130.072 67.936 M126.247 71.088 C 124.324 73.126,124.731 73.242,126.728 71.226 C 127.613 70.332,128.183 69.600,127.994 69.600 C 127.805 69.600,127.019 70.270,126.247 71.088 M122.501 74.685 C 120.540 76.821,120.438 77.396,122.353 75.525 C 123.458 74.444,124.676 72.762,124.314 72.817 C 124.251 72.827,123.435 73.667,122.501 74.685 M118.262 79.531 C 117.898 79.934,117.600 80.482,117.600 80.749 C 117.600 81.016,117.150 81.720,116.600 82.313 C 116.050 82.907,115.600 83.535,115.600 83.710 C 115.600 83.885,116.140 83.413,116.800 82.661 C 117.460 81.909,118.000 81.003,118.000 80.647 C 118.000 80.291,118.161 80.000,118.357 80.000 C 118.554 80.000,118.818 79.730,118.945 79.400 C 119.249 78.608,119.066 78.643,118.262 79.531 M283.496 86.454 C 282.774 87.976,281.993 88.737,280.263 89.605 C 279.637 89.918,279.311 90.237,279.538 90.313 C 280.771 90.724,284.715 86.746,284.303 85.508 C 284.222 85.265,283.859 85.690,283.496 86.454 M113.600 87.600 C 112.442 89.226,112.780 89.564,113.964 87.964 C 114.462 87.289,114.784 86.651,114.679 86.546 C 114.573 86.440,114.088 86.915,113.600 87.600 M112.042 90.700 C 111.760 91.380,111.614 92.266,111.718 92.668 C 111.854 93.193,111.920 93.112,111.954 92.380 C 111.979 91.819,112.200 91.160,112.445 90.915 C 112.690 90.670,112.814 90.243,112.722 89.966 C 112.630 89.689,112.323 90.019,112.042 90.700 M186.400 90.800 C 185.850 90.976,206.134 91.138,231.476 91.160 C 261.806 91.186,277.637 91.063,277.800 90.800 C 278.101 90.313,187.920 90.313,186.400 90.800 M179.141 91.393 C 179.035 91.499,177.970 91.762,176.774 91.979 L 174.600 92.373 177.000 92.144 C 178.320 92.018,180.390 91.781,181.600 91.616 L 183.800 91.318 181.567 91.259 C 180.338 91.226,179.247 91.287,179.141 91.393 M171.600 92.777 C 171.270 92.959,170.505 93.338,169.901 93.621 C 169.296 93.903,168.884 94.217,168.985 94.319 C 169.194 94.528,172.800 92.902,172.800 92.598 C 172.800 92.317,172.300 92.392,171.600 92.777 M164.162 96.043 C 163.743 96.506,162.770 97.208,162.000 97.604 C 161.230 97.999,160.151 98.835,159.601 99.461 L 158.603 100.600 159.823 99.500 C 160.495 98.895,161.218 98.400,161.431 98.400 C 161.644 98.400,162.473 97.860,163.273 97.200 C 164.074 96.541,165.150 95.832,165.664 95.626 C 166.544 95.273,166.550 95.249,165.762 95.225 C 165.301 95.211,164.581 95.579,164.162 96.043 M110.016 96.181 C 109.751 96.500,109.594 97.059,109.667 97.422 C 109.756 97.863,109.955 97.670,110.265 96.841 C 110.782 95.462,110.729 95.321,110.016 96.181 M109.092 98.642 C 108.931 98.802,108.805 99.308,108.812 99.767 C 108.823 100.536,108.856 100.545,109.240 99.885 C 109.688 99.116,109.573 98.160,109.092 98.642 M155.989 102.713 C 154.634 104.353,154.312 104.800,154.487 104.800 C 154.588 104.800,155.245 104.170,155.945 103.400 C 156.646 102.630,157.075 102.000,156.899 102.000 C 156.722 102.000,156.313 102.321,155.989 102.713 M108.037 104.893 C 107.765 105.714,107.621 106.794,107.717 107.293 C 107.864 108.061,107.899 108.028,107.946 107.074 C 107.975 106.454,108.192 105.589,108.426 105.152 C 108.660 104.714,108.780 104.141,108.691 103.878 C 108.603 103.615,108.308 104.072,108.037 104.893 M151.662 109.721 C 151.379 110.425,150.967 111.333,150.746 111.739 C 150.525 112.145,150.440 112.574,150.557 112.691 C 150.674 112.808,150.979 112.385,151.235 111.752 C 151.490 111.118,151.887 110.195,152.117 109.701 C 152.347 109.206,152.454 108.721,152.355 108.622 C 152.257 108.524,151.945 109.018,151.662 109.721 M107.092 109.042 C 106.931 109.202,106.811 109.798,106.825 110.367 L 106.851 111.400 107.237 110.434 C 107.653 109.394,107.567 108.567,107.092 109.042 M149.693 116.277 C 149.050 120.029,149.104 127.066,149.803 130.600 C 150.331 133.275,150.347 133.302,150.163 131.200 C 149.621 125.016,149.555 119.274,150.003 117.397 C 150.266 116.296,150.415 114.946,150.333 114.397 C 150.244 113.799,149.988 114.550,149.693 116.277 M106.250 116.050 C 105.926 117.671,106.000 131.518,106.340 132.723 C 106.483 133.231,106.600 129.406,106.600 124.223 C 106.600 119.040,106.578 114.800,106.550 114.800 C 106.522 114.800,106.388 115.363,106.250 116.050 M150.412 134.420 C 150.452 135.025,152.342 140.103,152.368 139.675 C 152.411 138.961,151.167 135.092,150.742 134.620 C 150.554 134.411,150.405 134.321,150.412 134.420 M106.828 138.100 C 106.813 138.705,106.980 139.200,107.200 139.200 C 107.669 139.200,107.669 138.893,107.200 137.800 C 106.895 137.091,106.853 137.125,106.828 138.100 M107.660 141.251 C 107.624 142.116,107.842 142.903,108.200 143.200 C 108.846 143.736,109.042 143.209,108.431 142.580 C 108.228 142.371,107.985 141.660,107.891 141.000 C 107.732 139.882,107.716 139.899,107.660 141.251 M152.400 141.130 C 152.400 141.312,152.882 141.897,153.471 142.430 L 154.542 143.400 153.644 142.100 C 152.737 140.788,152.400 140.525,152.400 141.130 M155.246 145.300 C 156.774 147.505,158.798 149.693,161.721 152.300 C 164.291 154.592,166.001 155.648,164.800 154.200 C 164.526 153.870,164.119 153.600,163.896 153.600 C 163.272 153.600,155.718 145.802,155.414 144.844 C 155.267 144.380,154.966 144.000,154.746 144.000 C 154.526 144.000,154.751 144.585,155.246 145.300 M108.806 147.876 C 108.803 148.358,108.980 148.864,109.200 149.000 C 109.709 149.315,109.709 148.388,109.200 147.600 C 108.885 147.112,108.811 147.164,108.806 147.876 M109.602 150.424 C 109.601 150.766,109.864 151.396,110.187 151.824 C 110.951 152.834,110.959 152.396,110.202 150.946 C 109.874 150.316,109.604 150.081,109.602 150.424 M111.618 155.224 C 111.608 155.786,111.864 156.596,112.187 157.024 C 112.927 158.001,112.931 157.797,112.212 155.800 C 111.734 154.475,111.632 154.376,111.618 155.224 M166.400 155.800 C 166.917 156.350,167.406 156.800,167.488 156.800 C 167.821 156.800,166.172 154.824,165.830 154.813 C 165.627 154.806,165.883 155.250,166.400 155.800 M168.800 156.991 C 168.800 157.076,169.340 157.530,170.000 158.000 C 170.660 158.470,171.199 158.707,171.197 158.527 C 171.196 158.347,170.656 157.893,169.997 157.519 C 169.339 157.144,168.800 156.907,168.800 156.991 M173.400 159.885 C 173.840 159.991,174.371 160.240,174.580 160.439 C 174.789 160.637,175.149 160.794,175.380 160.787 C 175.611 160.780,175.451 160.510,175.024 160.187 C 174.596 159.864,173.876 159.621,173.424 159.646 C 172.620 159.692,172.620 159.697,173.400 159.885 M176.576 161.413 C 177.004 161.736,177.589 162.000,177.876 162.000 C 178.164 162.000,178.400 162.180,178.400 162.400 C 178.400 162.620,178.591 162.800,178.824 162.800 C 179.529 162.800,178.860 162.089,177.531 161.425 C 175.969 160.647,175.556 160.641,176.576 161.413 M114.812 162.028 C 114.799 162.701,116.846 165.200,117.411 165.200 C 117.597 165.200,117.290 164.705,116.728 164.100 C 116.167 163.495,115.508 162.640,115.266 162.200 C 114.934 161.599,114.821 161.556,114.812 162.028 M183.200 164.139 C 183.750 164.429,184.285 164.596,184.388 164.511 C 184.670 164.280,183.490 163.612,182.800 163.612 C 182.469 163.612,182.649 163.848,183.200 164.139 M117.600 166.100 C 117.600 166.459,117.792 166.871,118.027 167.016 C 118.713 167.440,118.780 167.061,118.167 166.223 C 117.693 165.574,117.600 165.554,117.600 166.100 M187.000 165.885 C 187.440 165.991,187.971 166.240,188.180 166.439 C 188.389 166.637,188.749 166.794,188.980 166.787 C 189.211 166.780,189.051 166.510,188.624 166.187 C 188.196 165.864,187.476 165.621,187.024 165.646 C 186.220 165.692,186.220 165.697,187.000 165.885 M191.000 167.788 C 191.660 168.329,192.467 168.778,192.793 168.786 C 193.119 168.794,192.723 168.350,191.914 167.800 C 190.025 166.517,189.440 166.509,191.000 167.788 M118.800 167.725 C 118.800 168.142,120.352 169.786,120.544 169.571 C 120.627 169.477,120.269 168.954,119.748 168.408 C 119.227 167.863,118.800 167.556,118.800 167.725 M121.378 170.900 C 121.706 171.395,122.656 172.322,123.487 172.960 C 124.823 173.985,124.768 173.880,123.015 172.060 C 120.832 169.794,120.479 169.544,121.378 170.900 M200.400 171.888 C 200.950 171.987,201.571 172.232,201.780 172.434 C 201.989 172.635,202.439 172.794,202.780 172.786 C 203.173 172.777,203.035 172.563,202.400 172.200 C 201.850 171.886,200.950 171.646,200.400 171.669 L 199.400 171.709 200.400 171.888 M203.817 173.228 C 204.110 173.701,206.400 174.787,206.400 174.453 C 206.400 174.295,205.774 173.883,205.009 173.536 C 204.244 173.189,203.708 173.051,203.817 173.228 M125.400 175.029 C 125.840 175.361,126.605 175.984,127.100 176.413 C 127.595 176.843,128.000 177.061,128.000 176.897 C 128.000 176.527,125.359 174.395,124.921 174.413 C 124.745 174.420,124.960 174.697,125.400 175.029 M210.224 176.187 C 210.651 176.510,211.180 176.775,211.400 176.775 C 211.620 176.775,211.451 176.510,211.024 176.187 C 210.596 175.864,210.067 175.600,209.847 175.600 C 209.627 175.600,209.796 175.864,210.224 176.187 M128.609 177.678 C 128.722 177.973,129.666 178.712,130.707 179.319 C 131.748 179.926,132.150 180.066,131.600 179.629 C 128.971 177.540,128.417 177.179,128.609 177.678 M214.000 177.888 C 214.550 177.987,215.171 178.232,215.380 178.434 C 215.589 178.635,215.949 178.794,216.180 178.787 C 216.411 178.780,216.251 178.510,215.824 178.187 C 215.396 177.864,214.586 177.625,214.024 177.654 L 213.000 177.709 214.000 177.888 M216.800 178.960 C 216.800 179.049,217.475 179.502,218.300 179.968 L 219.800 180.816 218.600 179.810 C 217.499 178.887,216.800 178.557,216.800 178.960 M133.458 181.594 C 133.930 182.089,134.522 182.426,134.773 182.342 C 135.024 182.259,134.638 181.853,133.915 181.442 L 132.600 180.693 133.458 181.594 M135.600 182.570 C 135.600 182.985,137.242 184.453,137.564 184.325 C 137.736 184.256,137.365 183.781,136.739 183.270 C 136.112 182.758,135.600 182.443,135.600 182.570 M227.800 184.212 C 229.833 184.944,230.492 184.939,229.200 184.200 C 228.650 183.886,227.750 183.630,227.200 183.632 C 226.407 183.634,226.532 183.755,227.800 184.212 M231.400 185.812 C 232.060 186.353,232.859 186.797,233.176 186.798 C 233.903 186.801,232.447 185.632,231.700 185.613 C 231.425 185.606,231.200 185.420,231.200 185.200 C 231.200 184.980,230.975 184.806,230.700 184.814 C 230.425 184.822,230.740 185.271,231.400 185.812 M141.704 186.800 C 142.933 187.680,144.177 188.392,144.469 188.382 C 144.761 188.373,144.370 188.028,143.600 187.616 C 142.830 187.205,141.803 186.493,141.317 186.034 C 140.831 185.575,140.217 185.200,139.952 185.200 C 139.687 185.200,140.475 185.920,141.704 186.800 M147.200 189.800 C 147.474 190.130,147.878 190.400,148.098 190.400 C 148.321 190.400,148.278 190.135,148.000 189.800 C 147.726 189.470,147.322 189.200,147.102 189.200 C 146.879 189.200,146.922 189.465,147.200 189.800 M240.800 189.888 C 241.350 189.987,241.971 190.232,242.180 190.434 C 242.389 190.635,242.738 190.800,242.956 190.800 C 243.175 190.800,243.004 190.536,242.576 190.213 C 242.149 189.890,241.350 189.644,240.800 189.667 L 239.800 189.709 240.800 189.888 M151.346 191.802 C 152.805 192.563,153.175 192.568,152.176 191.813 C 151.749 191.490,151.130 191.221,150.800 191.215 C 150.470 191.210,150.716 191.474,151.346 191.802 M155.024 193.787 C 155.451 194.110,156.250 194.372,156.800 194.370 C 157.594 194.366,157.471 194.246,156.200 193.788 C 154.187 193.063,154.066 193.063,155.024 193.787 M250.546 194.202 C 251.990 194.956,252.227 194.955,251.600 194.200 C 251.326 193.870,250.719 193.601,250.251 193.602 C 249.513 193.605,249.553 193.685,250.546 194.202 M159.400 195.390 C 160.280 195.932,161.180 196.375,161.400 196.375 C 161.620 196.375,161.080 195.932,160.200 195.390 C 159.320 194.848,158.420 194.404,158.200 194.404 C 157.980 194.404,158.520 194.848,159.400 195.390 M255.146 196.216 C 255.886 196.537,256.696 196.794,256.946 196.786 C 257.736 196.761,255.437 195.628,254.600 195.630 C 254.048 195.631,254.217 195.812,255.146 196.216 M258.600 197.765 C 259.260 198.332,259.965 198.797,260.167 198.798 C 260.601 198.800,260.596 198.796,258.800 197.637 L 257.400 196.734 258.600 197.765 M164.600 197.485 C 165.040 197.591,165.571 197.840,165.780 198.039 C 165.989 198.237,166.338 198.400,166.556 198.400 C 166.775 198.400,166.604 198.136,166.176 197.813 C 165.749 197.490,165.040 197.241,164.600 197.259 L 163.800 197.293 164.600 197.485 M167.200 198.570 C 167.200 198.899,172.095 201.239,172.318 201.016 C 172.462 200.872,170.475 199.822,167.500 198.470 C 167.335 198.395,167.200 198.440,167.200 198.570 M261.200 198.907 C 261.200 199.002,262.100 199.640,263.200 200.324 C 264.300 201.007,265.199 201.439,265.197 201.283 C 265.195 201.128,264.430 200.550,263.497 200.000 C 261.481 198.812,261.200 198.678,261.200 198.907 M173.400 201.485 C 173.840 201.591,174.371 201.840,174.580 202.039 C 175.234 202.660,175.689 202.432,175.057 201.800 C 174.727 201.470,174.039 201.221,173.529 201.246 C 172.712 201.287,172.697 201.316,173.400 201.485 M178.176 203.813 C 178.604 204.136,179.324 204.379,179.776 204.354 C 180.580 204.308,180.580 204.303,179.800 204.115 C 179.360 204.009,178.829 203.760,178.620 203.561 C 178.411 203.363,178.051 203.206,177.820 203.213 C 177.589 203.220,177.749 203.490,178.176 203.813 M269.999 204.598 C 270.514 205.148,271.009 205.525,271.097 205.436 C 271.332 205.201,269.888 203.600,269.441 203.600 C 269.232 203.600,269.483 204.049,269.999 204.598 M181.200 204.591 C 181.200 204.696,181.921 205.130,182.802 205.555 C 183.683 205.981,184.309 206.176,184.194 205.990 C 183.839 205.415,181.200 204.182,181.200 204.591 M185.000 206.800 C 185.136 207.020,185.642 207.197,186.124 207.194 C 186.836 207.189,186.888 207.115,186.400 206.800 C 185.612 206.291,184.685 206.291,185.000 206.800 M273.600 206.919 C 273.600 206.994,274.050 207.447,274.600 207.925 C 275.150 208.403,275.600 208.637,275.600 208.443 C 275.600 208.250,275.150 207.797,274.600 207.437 C 274.050 207.076,273.600 206.843,273.600 206.919 M187.800 207.493 C 188.240 207.603,188.690 207.808,188.800 207.950 C 188.910 208.092,189.720 208.547,190.600 208.963 C 191.480 209.378,192.513 209.871,192.895 210.059 C 194.121 210.661,194.643 210.417,193.454 209.798 C 192.824 209.469,192.146 209.200,191.946 209.200 C 191.747 209.200,190.871 208.750,190.000 208.200 C 189.129 207.650,188.097 207.221,187.708 207.246 C 187.122 207.285,187.137 207.327,187.800 207.493 M278.200 211.018 C 279.520 212.322,281.471 214.292,282.535 215.395 L 284.470 217.400 282.735 215.233 C 280.961 213.018,278.166 210.259,276.649 209.225 C 276.182 208.907,276.880 209.714,278.200 211.018 M197.376 211.813 C 197.804 212.136,198.333 212.400,198.553 212.400 C 198.773 212.400,198.604 212.136,198.176 211.813 C 197.749 211.490,197.220 211.225,197.000 211.225 C 196.780 211.225,196.949 211.490,197.376 211.813 M201.800 213.485 C 202.240 213.591,202.771 213.840,202.980 214.039 C 203.189 214.237,203.549 214.394,203.780 214.387 C 204.011 214.380,203.851 214.110,203.424 213.787 C 202.996 213.464,202.276 213.221,201.824 213.246 C 201.020 213.292,201.020 213.297,201.800 213.485 M206.624 215.787 C 207.051 216.110,207.760 216.373,208.200 216.372 C 208.754 216.370,208.586 216.189,207.654 215.784 C 205.947 215.043,205.641 215.044,206.624 215.787 M211.743 217.800 C 212.073 218.130,212.570 218.400,212.848 218.400 C 213.131 218.400,213.012 218.142,212.576 217.813 C 211.558 217.042,210.976 217.033,211.743 217.800 M285.292 218.971 C 285.786 219.726,286.243 220.290,286.308 220.226 C 286.507 220.027,285.019 217.605,284.696 217.603 C 284.529 217.601,284.797 218.217,285.292 218.971 M216.200 219.485 C 216.640 219.591,217.171 219.840,217.380 220.039 C 218.014 220.642,218.533 220.442,218.000 219.800 C 217.726 219.470,217.029 219.221,216.451 219.246 C 215.623 219.283,215.570 219.334,216.200 219.485 M287.469 222.062 C 287.928 222.980,288.252 223.296,288.339 222.912 C 288.415 222.575,288.087 221.918,287.608 221.450 L 286.739 220.600 287.469 222.062 M220.923 221.841 C 221.541 222.176,222.351 222.369,222.723 222.271 C 223.218 222.141,223.164 222.080,222.524 222.046 C 222.042 222.021,221.536 221.820,221.400 221.600 C 221.264 221.380,220.848 221.207,220.476 221.216 C 220.024 221.227,220.172 221.434,220.923 221.841 M225.824 223.787 C 226.251 224.110,226.780 224.375,227.000 224.375 C 227.220 224.375,227.051 224.110,226.624 223.787 C 226.196 223.464,225.667 223.200,225.447 223.200 C 225.227 223.200,225.396 223.464,225.824 223.787 M289.292 225.371 C 289.786 226.126,290.243 226.690,290.308 226.626 C 290.507 226.427,289.019 224.005,288.696 224.003 C 288.529 224.001,288.797 224.617,289.292 225.371 M228.000 224.800 C 228.000 225.020,228.405 225.197,228.900 225.194 C 229.628 225.189,229.685 225.114,229.200 224.800 C 228.424 224.299,228.000 224.299,228.000 224.800 M230.800 225.800 C 232.115 226.552,232.764 226.560,231.776 225.813 C 231.349 225.490,230.730 225.226,230.400 225.227 C 230.052 225.228,230.220 225.468,230.800 225.800 M233.800 227.600 C 234.460 228.037,235.270 228.388,235.600 228.381 C 235.930 228.373,235.570 228.022,234.800 227.600 C 232.955 226.590,232.275 226.590,233.800 227.600 M237.000 229.161 C 237.439 229.668,238.519 230.507,239.400 231.026 C 240.280 231.545,241.448 232.516,241.996 233.185 C 242.543 233.853,243.214 234.400,243.487 234.400 C 244.113 234.400,241.282 231.838,238.400 229.797 C 236.992 228.800,236.488 228.571,237.000 229.161 M291.246 229.254 C 291.221 229.614,291.469 230.424,291.798 231.054 C 292.126 231.684,292.396 231.921,292.398 231.580 C 292.399 231.239,292.237 230.789,292.039 230.580 C 291.840 230.371,291.591 229.840,291.485 229.400 C 291.350 228.837,291.279 228.793,291.246 229.254 M293.222 234.000 C 293.216 234.330,293.471 235.320,293.788 236.200 C 294.161 237.235,294.371 237.498,294.382 236.946 C 294.392 236.476,294.137 235.486,293.816 234.746 C 293.494 234.006,293.227 233.670,293.222 234.000 M244.800 235.777 C 244.800 235.960,245.430 236.648,246.200 237.306 C 246.970 237.964,247.600 238.727,247.600 239.002 C 247.600 239.277,247.865 239.722,248.189 239.991 C 248.707 240.421,248.710 240.342,248.208 239.337 C 247.610 238.137,244.800 235.202,244.800 235.777 M249.588 241.923 C 250.082 242.651,250.576 243.157,250.684 243.049 C 250.792 242.941,250.388 242.346,249.784 241.726 L 248.688 240.600 249.588 241.923 M295.252 241.200 C 295.230 241.530,295.471 242.520,295.788 243.400 C 296.264 244.720,296.368 244.822,296.382 243.980 C 296.392 243.419,296.237 242.789,296.039 242.580 C 295.840 242.371,295.591 241.840,295.485 241.400 C 295.379 240.958,295.275 240.869,295.252 241.200 M251.600 246.302 C 251.600 246.522,251.870 246.926,252.200 247.200 C 252.535 247.478,252.800 247.521,252.800 247.298 C 252.800 247.078,252.530 246.674,252.200 246.400 C 251.865 246.122,251.600 246.079,251.600 246.302 M296.406 246.676 C 296.409 247.074,296.587 247.670,296.800 248.000 C 297.103 248.469,297.189 248.366,297.194 247.524 C 297.197 246.932,297.020 246.336,296.800 246.200 C 296.580 246.064,296.403 246.278,296.406 246.676 M297.289 251.800 C 297.267 253.120,297.501 255.370,297.808 256.800 L 298.367 259.400 298.174 257.200 C 298.068 255.990,297.834 253.740,297.655 252.200 L 297.329 249.400 297.289 251.800 M253.798 252.302 C 253.889 253.459,254.163 254.719,254.407 255.102 C 254.764 255.664,254.795 255.566,254.565 254.600 C 254.408 253.940,254.134 252.680,253.956 251.800 C 253.662 250.345,253.648 250.390,253.798 252.302 M254.834 259.200 C 254.822 259.970,254.987 260.870,255.200 261.200 C 255.703 261.979,255.703 259.771,255.200 258.600 C 254.919 257.946,254.852 258.056,254.834 259.200 M298.440 264.076 C 298.516 266.598,299.116 267.636,299.160 265.324 C 299.182 264.182,299.020 263.136,298.800 263.000 C 298.562 262.853,298.416 263.287,298.440 264.076 M299.324 275.000 C 299.326 276.320,299.401 276.812,299.490 276.093 C 299.579 275.374,299.577 274.294,299.486 273.693 C 299.395 273.092,299.322 273.680,299.324 275.000 M255.092 278.242 C 254.931 278.402,254.816 279.178,254.836 279.967 L 254.872 281.400 255.257 280.063 C 255.663 278.652,255.582 277.752,255.092 278.242 M298.700 282.133 C 298.224 283.294,298.318 285.042,298.829 284.531 C 299.065 284.295,299.200 283.494,299.129 282.751 C 299.029 281.704,298.932 281.565,298.700 282.133 M254.014 284.374 C 253.786 284.799,253.621 285.744,253.646 286.474 L 253.692 287.800 253.992 286.400 C 254.157 285.630,254.426 284.685,254.589 284.300 C 254.992 283.350,254.530 283.409,254.014 284.374 M297.837 288.700 C 297.699 289.525,297.513 291.280,297.424 292.600 L 297.263 295.000 297.619 292.800 C 298.346 288.322,298.479 287.200,298.286 287.200 C 298.177 287.200,297.975 287.875,297.837 288.700 M252.000 290.200 C 251.717 290.541,251.576 290.909,251.686 291.019 C 251.796 291.129,252.117 290.941,252.400 290.600 C 252.683 290.259,252.824 289.891,252.714 289.781 C 252.604 289.671,252.283 289.859,252.000 290.200 M248.800 295.131 C 245.955 298.158,245.247 299.164,247.344 297.200 C 249.023 295.627,251.092 293.186,250.727 293.208 C 250.657 293.212,249.790 294.078,248.800 295.131 M296.688 296.133 C 296.242 297.266,296.315 297.845,296.838 297.322 C 297.078 297.082,297.208 296.551,297.126 296.142 C 296.982 295.426,296.966 295.426,296.688 296.133 M243.901 299.537 C 243.296 299.901,242.801 300.347,242.801 300.527 C 242.800 300.707,243.340 300.470,244.000 300.000 C 245.777 298.734,245.715 298.442,243.901 299.537 M295.700 299.893 C 294.988 301.411,295.084 302.033,295.813 300.633 C 296.148 299.991,296.372 299.322,296.311 299.146 C 296.250 298.970,295.975 299.306,295.700 299.893 M241.600 301.181 C 241.270 301.364,240.482 301.721,239.848 301.972 C 239.215 302.224,238.813 302.546,238.955 302.688 C 239.097 302.830,239.426 302.734,239.687 302.473 C 239.947 302.213,240.462 302.000,240.831 302.000 C 241.200 302.000,241.726 301.730,242.000 301.400 C 242.554 300.732,242.480 300.691,241.600 301.181 M236.011 303.820 C 235.247 304.359,234.742 304.800,234.888 304.800 C 235.239 304.800,238.000 303.168,238.000 302.960 C 238.000 302.600,237.325 302.892,236.011 303.820 M293.920 304.800 C 293.780 305.350,293.543 306.250,293.395 306.800 C 293.157 307.686,293.200 307.666,293.780 306.621 C 294.140 305.972,294.377 305.072,294.305 304.621 C 294.190 303.891,294.148 303.910,293.920 304.800 M230.600 305.200 C 230.308 305.673,230.699 305.673,231.800 305.200 C 232.571 304.869,232.569 304.855,231.724 304.828 C 231.242 304.813,230.736 304.980,230.600 305.200 M226.500 306.012 C 226.005 306.211,225.600 306.489,225.600 306.630 C 225.600 306.771,225.915 306.752,226.300 306.589 C 226.685 306.426,227.630 306.157,228.400 305.992 C 229.767 305.699,229.772 305.692,228.600 305.671 C 227.940 305.660,226.995 305.813,226.500 306.012 M219.800 307.200 C 219.504 307.680,220.684 307.680,221.800 307.200 C 222.474 306.910,222.400 306.852,221.324 306.828 C 220.622 306.813,219.936 306.980,219.800 307.200 M111.949 308.277 C 111.475 308.861,111.482 308.903,112.000 308.584 C 112.330 308.381,113.500 308.101,114.600 307.963 L 116.600 307.713 114.549 307.656 C 113.056 307.615,112.349 307.784,111.949 308.277 M291.680 309.280 C 291.416 309.544,291.221 310.129,291.246 310.580 C 291.292 311.383,291.297 311.384,291.489 310.600 C 291.598 310.160,291.869 309.575,292.092 309.300 C 292.610 308.662,292.312 308.648,291.680 309.280 M109.414 310.635 C 109.041 311.204,108.826 311.759,108.936 311.869 C 109.045 311.979,109.357 311.648,109.627 311.134 C 109.898 310.620,110.318 310.068,110.560 309.906 C 110.876 309.695,110.872 309.611,110.546 309.606 C 110.296 309.603,109.787 310.066,109.414 310.635 M288.000 316.168 C 288.000 316.480,287.370 317.329,286.600 318.056 C 285.830 318.782,285.200 319.539,285.200 319.737 C 285.200 319.936,285.920 319.334,286.800 318.400 C 288.184 316.931,288.849 315.600,288.200 315.600 C 288.090 315.600,288.000 315.855,288.000 316.168 M281.800 323.329 C 279.152 326.044,277.639 327.364,274.679 329.540 C 273.975 330.057,273.709 330.417,274.087 330.340 C 274.464 330.263,275.454 329.612,276.287 328.894 C 277.119 328.175,278.700 326.825,279.800 325.894 C 282.132 323.919,285.461 320.387,284.951 320.429 C 284.758 320.444,283.340 321.749,281.800 323.329 M271.000 331.834 C 269.900 332.563,268.707 333.168,268.349 333.180 C 267.991 333.191,267.451 333.499,267.149 333.864 C 266.658 334.458,266.685 334.484,267.400 334.112 C 267.840 333.883,269.010 333.313,270.000 332.845 C 271.957 331.921,273.442 330.897,273.171 330.658 C 273.077 330.576,272.100 331.105,271.000 331.834 M263.780 335.561 C 263.571 335.760,263.040 336.009,262.600 336.115 C 261.948 336.272,261.985 336.313,262.800 336.341 C 263.350 336.359,264.149 336.110,264.576 335.787 C 265.158 335.347,265.203 335.200,264.756 335.200 C 264.428 335.200,263.989 335.363,263.780 335.561 M259.102 337.304 C 258.279 337.763,257.663 338.196,257.733 338.266 C 257.901 338.434,261.200 336.839,261.200 336.591 C 261.200 336.258,260.642 336.448,259.102 337.304 M255.200 338.800 C 254.667 339.145,254.667 339.188,255.200 339.188 C 255.530 339.188,256.070 339.013,256.400 338.800 C 256.933 338.455,256.933 338.412,256.400 338.412 C 256.070 338.412,255.530 338.587,255.200 338.800 M250.600 339.814 C 249.642 340.253,249.565 340.368,250.220 340.382 C 250.671 340.392,251.211 340.233,251.420 340.029 C 251.629 339.824,252.430 339.583,253.200 339.493 L 254.600 339.328 253.200 339.297 C 252.430 339.279,251.260 339.512,250.600 339.814 M109.606 340.611 C 109.598 341.143,111.065 342.400,111.694 342.400 C 111.960 342.400,111.733 342.095,111.189 341.723 C 110.645 341.351,110.068 340.856,109.906 340.623 C 109.712 340.344,109.610 340.340,109.606 340.611 M244.141 341.451 C 243.888 341.555,242.538 341.788,241.141 341.969 L 238.600 342.299 240.600 342.332 C 241.700 342.350,243.500 342.115,244.600 341.809 C 245.752 341.489,246.176 341.256,245.600 341.259 C 245.050 341.261,244.393 341.348,244.141 341.451 M231.600 342.800 C 230.702 343.088,230.750 343.124,232.076 343.160 C 232.888 343.182,233.664 343.020,233.800 342.800 C 234.086 342.337,233.045 342.337,231.600 342.800 M142.669 343.500 C 158.546 343.558,184.646 343.558,200.669 343.500 C 216.691 343.442,203.700 343.395,171.800 343.395 C 139.900 343.395,126.791 343.442,142.669 343.500 M395.700 389.688 C 394.731 390.155,394.644 390.551,395.234 391.800 C 395.550 392.468,395.578 392.420,395.402 391.515 C 395.231 390.631,395.398 390.318,396.296 389.831 C 397.556 389.148,397.065 389.030,395.700 389.688 M6.000 392.292 C 6.330 392.417,6.732 392.718,6.894 392.960 C 7.075 393.231,7.190 393.132,7.194 392.700 C 7.198 392.230,6.905 392.010,6.300 392.032 C 5.699 392.053,5.599 392.139,6.000 392.292 M389.664 395.819 C 389.002 397.272,389.119 397.608,389.831 396.296 C 390.318 395.398,390.631 395.231,391.515 395.402 C 392.420 395.578,392.468 395.550,391.800 395.234 C 390.527 394.633,390.159 394.734,389.664 395.819 M14.075 398.271 C 14.447 398.369,14.831 398.753,14.929 399.125 C 15.055 399.603,15.121 399.538,15.154 398.900 C 15.189 398.207,14.993 398.011,14.300 398.046 C 13.662 398.079,13.597 398.145,14.075 398.271 " stroke="none" fill="#b44038" fill-rule="evenodd"></path><path id="path4" d="M14.400 0.918 L 13.400 1.339 14.334 1.502 C 15.350 1.679,15.764 1.464,15.542 0.874 C 15.456 0.645,15.008 0.662,14.400 0.918 M384.400 1.000 C 384.400 1.413,384.805 1.596,385.700 1.587 C 386.930 1.575,386.958 1.543,386.224 0.987 C 385.224 0.231,384.400 0.237,384.400 1.000 M6.267 6.467 C 5.863 6.907,5.637 7.371,5.764 7.498 C 6.034 7.767,7.600 6.436,7.600 5.938 C 7.600 5.392,7.054 5.608,6.267 6.467 M395.600 9.029 C 395.600 9.154,395.870 9.527,396.200 9.857 C 396.851 10.508,396.933 10.411,396.557 9.433 C 396.329 8.838,395.600 8.530,395.600 9.029 M398.413 13.700 C 398.404 14.417,398.609 14.800,399.000 14.800 C 399.757 14.800,399.761 14.366,399.013 13.376 C 398.450 12.633,398.425 12.646,398.413 13.700 M0.918 14.400 C 0.662 15.008,0.645 15.456,0.874 15.542 C 1.464 15.764,1.679 15.350,1.502 14.334 L 1.339 13.400 0.918 14.400 M174.288 55.204 C 170.377 55.361,167.107 55.560,167.022 55.645 C 166.936 55.730,191.286 55.741,221.133 55.668 C 286.485 55.509,280.740 55.127,282.996 59.787 C 283.624 61.083,283.976 61.504,283.985 60.969 C 284.009 59.603,281.601 56.365,280.029 55.650 C 278.473 54.942,190.065 54.569,174.288 55.204 M161.800 56.400 C 161.360 56.589,160.550 56.765,160.000 56.790 C 159.450 56.815,158.460 57.099,157.800 57.420 L 156.600 58.003 157.800 57.780 C 158.460 57.657,159.810 57.375,160.800 57.153 C 161.790 56.931,163.500 56.606,164.600 56.431 L 166.600 56.113 164.600 56.084 C 163.500 56.069,162.240 56.211,161.800 56.400 M152.600 58.400 C 152.160 58.589,151.400 58.756,150.911 58.772 C 150.422 58.787,149.072 59.231,147.911 59.758 C 146.750 60.286,144.836 61.016,143.657 61.381 C 142.478 61.746,140.817 62.484,139.965 63.022 C 139.113 63.560,138.253 64.000,138.054 64.000 C 137.245 64.000,130.543 68.255,129.651 69.335 C 129.349 69.701,128.910 70.000,128.675 70.000 C 127.954 70.000,118.968 79.437,118.252 80.947 C 117.882 81.727,117.393 82.481,117.166 82.621 C 116.938 82.762,116.132 84.151,115.374 85.710 C 114.615 87.268,113.758 88.825,113.469 89.171 C 113.179 89.517,112.714 90.610,112.436 91.600 C 112.158 92.590,111.701 93.940,111.421 94.600 C 110.287 97.273,110.078 97.885,109.617 99.880 C 109.353 101.023,108.982 102.913,108.793 104.080 C 108.604 105.246,108.146 107.550,107.777 109.200 C 106.814 113.494,106.531 133.207,107.386 136.400 L 107.975 138.600 107.713 136.600 C 107.104 131.962,107.390 113.535,108.125 110.000 C 108.826 106.633,109.059 105.441,110.005 100.400 C 110.274 98.970,110.652 97.629,110.847 97.420 C 111.041 97.211,111.200 96.626,111.200 96.120 C 111.200 95.614,111.343 95.200,111.517 95.200 C 111.692 95.200,112.164 94.165,112.566 92.900 C 113.437 90.161,114.463 88.000,114.891 88.000 C 115.061 88.000,115.200 87.758,115.200 87.461 C 115.200 87.165,115.506 86.310,115.879 85.561 C 116.513 84.291,117.143 83.372,120.496 78.835 C 122.268 76.437,127.460 71.311,129.300 70.142 C 130.125 69.619,130.800 69.047,130.800 68.872 C 130.800 68.697,131.520 68.236,132.400 67.848 C 133.280 67.460,134.000 67.019,134.000 66.868 C 134.000 66.494,142.617 62.207,144.600 61.595 C 145.480 61.323,147.117 60.674,148.239 60.151 C 149.360 59.628,150.710 59.192,151.239 59.183 C 153.225 59.148,156.846 58.069,155.000 58.062 C 154.120 58.059,153.040 58.211,152.600 58.400 M282.849 86.190 C 282.151 87.506,281.414 88.190,279.861 88.963 C 278.728 89.528,278.117 89.992,278.505 89.995 C 280.046 90.006,282.555 88.037,283.478 86.092 C 284.420 84.107,283.912 84.186,282.849 86.190 M182.200 90.400 C 181.760 90.589,180.320 90.760,179.000 90.780 C 177.680 90.799,175.700 91.081,174.600 91.406 L 172.600 91.997 174.800 91.752 C 176.010 91.618,178.170 91.327,179.600 91.106 C 181.152 90.867,201.468 90.601,230.000 90.446 L 277.800 90.186 230.400 90.121 C 204.330 90.085,182.640 90.211,182.200 90.400 M170.800 92.377 C 170.470 92.559,169.688 92.948,169.063 93.241 C 168.437 93.535,168.084 93.828,168.278 93.893 C 168.472 93.957,169.523 93.567,170.615 93.026 C 171.707 92.485,172.330 92.043,172.000 92.045 C 171.670 92.046,171.130 92.196,170.800 92.377 M165.800 94.400 C 165.664 94.620,165.216 94.800,164.805 94.800 C 164.394 94.800,163.704 95.250,163.271 95.800 C 162.839 96.350,162.221 96.800,161.899 96.800 C 161.247 96.800,158.873 98.778,155.935 101.771 C 152.769 104.995,153.740 104.587,157.135 101.266 C 158.859 99.580,160.794 97.939,161.435 97.619 C 162.076 97.300,163.050 96.646,163.600 96.167 C 164.150 95.688,165.275 95.081,166.100 94.817 C 166.925 94.554,167.600 94.262,167.600 94.169 C 167.600 93.817,166.036 94.018,165.800 94.400 M152.915 105.702 C 151.832 106.886,150.800 108.962,150.800 109.957 C 150.800 110.394,150.620 110.864,150.400 111.000 C 150.180 111.136,150.012 111.552,150.026 111.924 C 150.040 112.296,150.331 111.970,150.674 111.200 C 151.016 110.430,151.454 109.487,151.648 109.105 C 151.842 108.723,152.000 108.193,152.000 107.927 C 152.000 107.661,152.482 106.941,153.071 106.326 C 153.660 105.711,154.051 105.117,153.939 105.006 C 153.828 104.894,153.367 105.207,152.915 105.702 M149.265 113.817 C 148.491 115.515,148.633 132.007,149.434 133.454 L 150.067 134.600 149.783 133.400 C 149.224 131.043,149.106 116.297,149.633 114.699 C 150.210 112.951,149.947 112.321,149.265 113.817 M150.021 135.476 C 150.009 135.958,150.180 136.464,150.400 136.600 C 150.620 136.736,150.800 137.272,150.800 137.790 C 150.800 139.023,152.079 141.944,153.152 143.161 C 153.619 143.690,154.000 143.943,154.000 143.723 C 154.000 143.504,153.651 143.008,153.225 142.622 C 152.798 142.237,152.149 140.904,151.782 139.660 C 150.709 136.027,150.045 134.450,150.021 135.476 M108.157 140.000 C 108.730 145.535,111.340 154.480,111.907 152.854 C 112.012 152.553,111.930 152.193,111.726 152.054 C 111.522 151.914,111.136 151.258,110.868 150.595 C 110.417 149.478,110.155 148.283,109.202 143.000 C 109.004 141.900,108.655 140.460,108.427 139.800 L 108.012 138.600 108.157 140.000 M154.000 144.596 C 154.000 145.647,161.145 153.273,163.426 154.656 C 164.100 155.065,165.180 155.821,165.826 156.335 C 167.329 157.533,173.662 161.200,174.228 161.200 C 174.464 161.200,175.635 161.725,176.829 162.366 C 178.023 163.007,179.798 163.743,180.773 164.001 C 181.748 164.259,183.185 164.904,183.966 165.435 C 184.747 165.966,185.693 166.400,186.069 166.400 C 186.445 166.400,186.864 166.580,187.000 166.800 C 187.136 167.020,187.625 167.200,188.086 167.200 C 188.547 167.200,189.481 167.609,190.162 168.109 C 191.462 169.063,194.330 170.203,194.643 169.891 C 194.743 169.790,194.235 169.488,193.513 169.220 C 192.791 168.953,191.840 168.536,191.400 168.296 C 190.605 167.861,188.836 166.969,187.505 166.332 C 187.123 166.150,186.546 166.000,186.223 166.000 C 185.900 166.000,185.018 165.581,184.264 165.069 C 183.510 164.557,181.837 163.808,180.546 163.403 C 179.256 162.998,177.660 162.342,177.000 161.945 C 175.474 161.028,173.215 160.000,172.724 160.000 C 172.517 160.000,171.774 159.571,171.073 159.046 C 170.373 158.521,169.080 157.701,168.200 157.224 C 164.041 154.971,159.520 151.134,156.368 147.185 C 153.858 144.040,154.000 144.195,154.000 144.596 M112.027 154.000 C 112.008 154.765,112.900 157.338,113.431 158.054 C 113.654 158.354,114.349 159.590,114.974 160.800 C 115.600 162.010,116.500 163.450,116.975 164.000 C 117.450 164.550,118.062 165.450,118.335 166.000 C 119.448 168.243,125.831 174.819,129.999 178.019 C 130.989 178.779,132.506 179.985,133.371 180.700 C 134.236 181.415,135.150 182.000,135.402 182.000 C 135.654 182.000,136.283 182.450,136.800 183.000 C 137.317 183.550,137.910 184.000,138.119 184.000 C 138.802 184.000,137.440 182.693,135.383 181.374 C 134.273 180.663,133.126 179.793,132.834 179.441 C 132.541 179.088,132.124 178.800,131.905 178.800 C 130.733 178.800,122.459 170.786,119.722 167.000 C 118.768 165.680,117.641 164.144,117.218 163.588 C 116.795 163.031,115.930 161.591,115.295 160.388 C 114.660 159.184,113.942 157.840,113.700 157.400 C 113.458 156.960,112.985 155.880,112.650 155.000 C 112.315 154.120,112.035 153.670,112.027 154.000 M195.600 170.420 C 196.890 171.297,201.206 173.200,201.903 173.200 C 202.308 173.200,202.811 173.358,203.020 173.551 C 203.721 174.197,207.222 176.000,207.777 176.000 C 208.079 176.000,209.709 176.720,211.400 177.600 C 213.091 178.480,214.731 179.200,215.045 179.200 C 215.359 179.200,216.329 179.650,217.200 180.200 C 218.071 180.750,219.047 181.200,219.368 181.200 C 219.690 181.200,220.064 181.380,220.200 181.600 C 220.336 181.820,220.754 182.000,221.130 182.000 C 221.505 182.000,222.440 182.362,223.206 182.805 C 225.361 184.048,228.000 185.200,228.695 185.200 C 229.041 185.200,229.914 185.650,230.636 186.200 C 231.357 186.750,232.193 187.200,232.493 187.200 C 232.794 187.200,233.237 187.397,233.478 187.638 C 233.718 187.878,234.249 188.004,234.658 187.917 C 235.175 187.807,234.915 187.597,233.800 187.224 C 232.920 186.930,231.719 186.352,231.132 185.940 C 230.544 185.528,229.104 184.893,227.932 184.529 C 226.759 184.165,225.260 183.488,224.600 183.025 C 223.940 182.561,222.680 181.941,221.800 181.645 C 220.920 181.349,218.733 180.408,216.939 179.554 C 215.146 178.699,213.477 178.000,213.231 178.000 C 212.985 178.000,212.113 177.576,211.292 177.058 C 210.471 176.541,209.350 175.983,208.800 175.820 C 207.906 175.555,202.900 173.307,201.105 172.365 C 200.723 172.164,200.135 172.000,199.797 172.000 C 199.460 172.000,198.471 171.550,197.600 171.000 C 196.082 170.042,194.270 169.516,195.600 170.420 M139.376 184.613 C 139.804 184.936,140.357 185.200,140.607 185.200 C 140.856 185.200,141.483 185.650,142.000 186.200 C 142.517 186.750,143.099 187.200,143.295 187.200 C 143.856 187.200,148.000 189.301,148.000 189.586 C 148.000 189.727,148.945 190.179,150.100 190.590 C 151.255 191.002,152.830 191.744,153.600 192.241 C 154.370 192.737,155.990 193.454,157.200 193.835 C 158.410 194.216,159.878 194.859,160.462 195.264 C 161.046 195.669,161.762 196.000,162.055 196.000 C 163.508 196.000,158.175 193.322,155.900 192.909 C 155.295 192.799,154.800 192.571,154.800 192.401 C 154.800 192.232,154.485 191.988,154.100 191.858 C 153.715 191.729,153.130 191.466,152.800 191.274 C 151.380 190.447,150.380 190.000,149.949 190.000 C 149.694 190.000,148.346 189.280,146.953 188.400 C 145.560 187.520,144.177 186.800,143.880 186.800 C 143.582 186.800,142.917 186.350,142.400 185.800 C 141.883 185.250,141.143 184.800,140.754 184.800 C 140.365 184.800,139.936 184.620,139.800 184.400 C 139.664 184.180,139.338 184.006,139.076 184.013 C 138.814 184.020,138.949 184.290,139.376 184.613 M236.000 188.433 C 237.202 189.277,241.418 191.199,242.067 191.200 C 242.433 191.200,242.793 191.335,242.867 191.500 C 243.037 191.883,247.397 194.000,248.014 194.000 C 248.270 194.000,249.973 194.720,251.800 195.600 C 253.627 196.480,255.477 197.200,255.912 197.200 C 256.346 197.200,256.935 197.481,257.220 197.824 C 257.505 198.167,258.382 198.767,259.169 199.157 C 261.660 200.390,265.361 202.466,266.462 203.247 C 267.046 203.661,267.651 204.000,267.807 204.000 C 267.963 204.000,268.655 204.460,269.345 205.021 C 270.035 205.583,271.732 206.863,273.115 207.866 C 275.826 209.833,279.836 213.419,281.833 215.664 C 283.219 217.222,286.649 222.109,287.404 223.600 C 287.793 224.370,288.222 225.090,288.356 225.200 C 288.778 225.547,290.000 228.042,290.000 228.558 C 290.000 228.829,290.450 229.983,291.000 231.123 C 291.550 232.263,292.000 233.377,292.000 233.598 C 292.000 233.819,292.139 234.000,292.309 234.000 C 292.479 234.000,292.832 235.125,293.094 236.500 C 293.677 239.561,295.916 246.507,295.963 245.400 C 295.981 244.960,295.551 243.340,295.007 241.800 C 294.462 240.260,294.013 238.653,294.008 238.228 C 293.997 237.224,293.300 235.096,292.164 232.600 C 291.664 231.500,291.054 229.970,290.810 229.200 C 290.565 228.430,289.931 227.080,289.400 226.200 C 288.869 225.320,288.089 223.880,287.667 223.000 C 287.245 222.120,286.517 221.003,286.050 220.517 C 285.582 220.031,285.200 219.524,285.200 219.390 C 285.200 218.480,278.473 211.365,275.190 208.804 C 274.205 208.036,273.051 207.091,272.625 206.704 C 272.198 206.317,271.641 206.000,271.387 206.000 C 271.132 206.000,270.581 205.621,270.162 205.157 C 269.743 204.694,268.680 203.950,267.800 203.504 C 266.920 203.058,266.110 202.582,266.000 202.446 C 265.782 202.178,265.265 201.855,262.106 200.018 C 260.954 199.348,259.817 198.800,259.579 198.800 C 259.341 198.800,258.574 198.380,257.873 197.867 C 257.173 197.353,255.641 196.635,254.468 196.271 C 253.296 195.907,251.856 195.281,251.268 194.879 C 250.681 194.478,249.390 193.897,248.400 193.589 C 247.410 193.280,245.227 192.347,243.550 191.514 C 241.872 190.681,240.293 190.000,240.042 190.000 C 239.790 190.000,238.871 189.550,238.000 189.000 C 236.456 188.025,234.717 187.533,236.000 188.433 M163.600 196.478 C 164.595 196.900,167.334 198.145,171.675 200.150 C 172.927 200.727,174.066 201.200,174.206 201.200 C 174.347 201.200,175.772 201.830,177.373 202.600 C 178.974 203.370,180.500 204.000,180.765 204.000 C 181.030 204.000,182.052 204.450,183.037 205.000 C 184.991 206.091,185.376 206.209,185.001 205.601 C 184.705 205.123,180.872 203.333,179.311 202.944 C 178.700 202.792,177.445 202.247,176.523 201.734 C 175.601 201.220,174.638 200.800,174.385 200.800 C 174.131 200.800,173.446 200.464,172.862 200.052 C 172.278 199.641,171.350 199.180,170.800 199.028 C 169.884 198.775,166.381 197.243,164.705 196.364 C 164.323 196.164,163.693 196.012,163.305 196.027 C 162.795 196.047,162.876 196.171,163.600 196.478 M187.000 206.636 C 187.880 206.955,189.873 207.842,191.430 208.608 C 192.986 209.374,194.539 210.000,194.879 210.000 C 195.220 210.000,196.341 210.471,197.370 211.046 C 198.400 211.621,199.331 212.002,199.440 211.893 C 199.704 211.630,193.880 208.800,193.074 208.800 C 192.728 208.800,191.762 208.395,190.926 207.900 C 189.198 206.877,186.888 206.001,186.000 206.034 C 185.670 206.046,186.120 206.317,187.000 206.636 M200.400 212.400 C 200.730 212.613,201.229 212.791,201.508 212.794 C 201.787 212.797,203.517 213.520,205.353 214.400 C 207.188 215.280,208.915 216.000,209.190 216.000 C 209.466 216.000,210.572 216.479,211.648 217.065 C 212.724 217.650,213.708 218.025,213.835 217.898 C 214.103 217.630,208.292 214.800,207.473 214.800 C 206.871 214.800,204.320 213.623,204.000 213.197 C 203.727 212.834,201.229 211.999,200.440 212.006 C 199.881 212.011,199.876 212.061,200.400 212.400 M215.400 218.614 C 216.060 218.917,216.835 219.172,217.121 219.182 C 217.408 219.192,218.305 219.650,219.114 220.200 C 219.923 220.750,220.893 221.200,221.269 221.200 C 221.645 221.200,222.064 221.380,222.200 221.600 C 222.336 221.820,222.770 222.000,223.164 222.000 C 223.558 222.000,224.674 222.421,225.642 222.937 C 226.611 223.452,228.123 224.103,229.002 224.384 C 229.881 224.665,231.410 225.374,232.400 225.959 C 233.390 226.544,234.702 227.241,235.315 227.509 C 235.928 227.777,237.384 228.717,238.551 229.598 C 239.718 230.479,240.836 231.200,241.036 231.200 C 241.236 231.200,241.903 231.830,242.517 232.600 C 243.131 233.370,243.884 234.000,244.190 234.000 C 244.496 234.000,244.858 234.352,244.994 234.782 C 245.131 235.213,245.728 235.978,246.322 236.482 C 246.916 236.987,248.028 238.390,248.793 239.600 C 249.559 240.810,250.324 241.860,250.493 241.933 C 250.662 242.007,250.800 242.235,250.800 242.441 C 250.800 242.647,251.501 244.297,252.357 246.108 C 253.214 247.919,254.022 250.030,254.152 250.800 C 254.283 251.570,254.569 253.280,254.789 254.600 C 255.008 255.920,255.361 257.810,255.573 258.800 L 255.958 260.600 255.793 258.600 C 255.305 252.685,254.593 249.575,253.044 246.600 C 252.472 245.500,252.003 244.371,252.002 244.091 C 252.000 243.533,250.209 240.653,249.100 239.425 C 248.715 238.998,248.400 238.446,248.400 238.198 C 248.400 236.681,236.549 226.800,234.729 226.800 C 234.328 226.800,234.000 226.633,234.000 226.429 C 234.000 226.046,229.978 224.000,229.225 224.000 C 228.992 224.000,227.316 223.280,225.502 222.400 C 223.688 221.520,221.884 220.800,221.494 220.800 C 221.103 220.800,220.071 220.350,219.200 219.800 C 218.329 219.250,217.353 218.800,217.032 218.800 C 216.710 218.800,216.336 218.620,216.200 218.400 C 216.064 218.180,215.558 218.015,215.076 218.032 C 214.314 218.061,214.357 218.137,215.400 218.614 M296.199 248.800 C 296.463 252.970,297.169 258.883,297.584 260.400 C 297.936 261.688,297.953 261.641,297.793 259.800 C 297.025 250.996,295.804 242.570,296.199 248.800 M256.172 269.800 C 256.172 274.860,256.229 276.875,256.299 274.277 C 256.369 271.680,256.368 267.540,256.298 265.077 C 256.228 262.615,256.171 264.740,256.172 269.800 M298.153 273.800 C 298.161 282.502,298.221 283.685,298.458 279.889 C 298.620 277.297,298.616 272.437,298.448 269.089 C 298.168 263.486,298.144 263.862,298.153 273.800 M255.453 280.941 C 255.286 281.788,255.241 282.575,255.355 282.688 C 255.658 282.991,256.097 280.985,255.914 280.132 C 255.820 279.690,255.637 280.011,255.453 280.941 M254.864 284.040 C 254.829 284.612,254.635 285.602,254.433 286.240 C 254.231 286.878,253.968 287.854,253.849 288.408 C 253.729 288.962,253.309 289.772,252.915 290.208 C 252.522 290.644,251.929 291.592,251.597 292.315 C 250.669 294.341,246.816 298.529,244.700 299.813 C 243.655 300.447,242.800 301.096,242.800 301.256 C 242.800 301.415,242.395 301.670,241.900 301.821 C 241.405 301.973,239.740 302.698,238.200 303.432 C 236.660 304.166,234.410 305.028,233.200 305.347 C 231.948 305.677,231.419 305.943,231.972 305.964 C 233.155 306.008,235.026 305.413,238.200 303.981 C 239.520 303.386,240.903 302.797,241.273 302.673 C 243.964 301.766,250.700 295.444,252.028 292.578 C 252.373 291.832,252.935 290.902,253.277 290.511 C 254.211 289.441,255.275 285.808,255.091 284.317 C 254.960 283.258,254.915 283.204,254.864 284.040 M297.268 287.632 C 297.011 288.748,296.800 290.250,296.800 290.971 C 296.800 291.691,296.608 292.833,296.372 293.508 C 296.137 294.183,296.006 295.335,296.081 296.067 C 296.185 297.080,296.336 296.681,296.713 294.400 C 296.985 292.750,297.415 290.184,297.669 288.698 C 298.216 285.487,297.936 284.741,297.268 287.632 M295.210 299.246 C 294.905 300.211,294.532 301.180,294.381 301.400 C 294.230 301.620,293.802 302.790,293.432 304.000 C 292.715 306.339,292.703 306.366,291.064 309.314 C 290.479 310.367,290.000 311.466,290.000 311.756 C 290.000 312.046,289.550 312.769,288.999 313.363 C 288.449 313.957,287.709 315.018,287.355 315.722 C 286.580 317.260,286.376 317.498,281.356 322.696 C 279.180 324.949,277.203 326.794,276.962 326.796 C 276.721 326.798,276.191 327.168,275.783 327.619 C 275.375 328.069,274.358 328.822,273.521 329.292 C 272.684 329.763,272.000 330.294,272.000 330.474 C 272.000 330.653,271.789 330.800,271.531 330.800 C 271.274 330.800,270.779 331.040,270.431 331.334 C 270.084 331.628,269.170 332.112,268.400 332.410 C 267.630 332.707,266.443 333.367,265.762 333.875 C 265.081 334.384,264.248 334.800,263.911 334.800 C 262.808 334.800,256.582 337.515,256.917 337.850 C 257.120 338.053,257.397 337.941,259.862 336.657 C 260.556 336.296,261.456 335.994,261.862 335.987 C 262.268 335.981,263.410 335.557,264.400 335.046 C 265.390 334.535,267.010 333.713,268.000 333.219 C 270.731 331.857,274.367 329.530,275.684 328.300 C 276.332 327.695,277.006 327.200,277.182 327.200 C 278.027 327.200,286.537 318.112,288.163 315.471 C 288.623 314.724,289.409 313.502,289.908 312.756 C 290.408 312.010,290.931 310.950,291.072 310.400 C 291.212 309.850,291.717 308.860,292.195 308.200 C 292.672 307.540,293.293 306.190,293.574 305.200 C 294.113 303.306,295.025 300.786,295.694 299.339 C 295.914 298.866,296.019 298.257,295.928 297.985 C 295.838 297.714,295.515 298.281,295.210 299.246 M227.800 306.379 C 224.458 307.738,222.837 307.782,167.800 307.992 C 106.508 308.226,111.534 307.946,109.919 311.220 C 109.199 312.681,108.824 337.589,109.506 338.662 C 109.668 338.916,109.800 333.034,109.800 325.591 C 109.800 312.491,109.827 312.023,110.636 310.929 C 112.470 308.452,108.625 308.619,168.880 308.400 C 212.195 308.243,224.067 308.093,224.460 307.700 C 224.735 307.425,225.509 307.197,226.180 307.194 C 226.851 307.191,228.210 306.933,229.200 306.621 C 230.776 306.124,230.851 306.054,229.800 306.054 C 229.140 306.054,228.240 306.201,227.800 306.379 M253.200 338.400 C 252.870 338.613,252.060 338.797,251.400 338.808 C 250.740 338.819,249.750 339.102,249.200 339.436 L 248.200 340.044 249.200 339.845 C 251.907 339.308,255.774 338.359,255.943 338.190 C 256.310 337.824,253.794 338.016,253.200 338.400 M110.000 340.194 C 110.000 340.500,111.132 341.307,112.515 341.988 L 115.030 343.226 172.415 343.065 C 210.161 342.959,230.484 342.761,231.800 342.486 C 233.761 342.076,233.746 342.072,231.000 342.269 C 225.825 342.640,115.112 342.824,114.651 342.463 C 114.403 342.269,113.736 342.000,113.169 341.865 C 112.602 341.730,111.657 341.174,111.069 340.629 C 110.365 339.977,110.000 339.828,110.000 340.194 M245.800 340.400 C 245.664 340.620,244.618 340.814,243.476 340.830 C 240.336 340.877,234.725 341.898,237.293 341.957 C 239.566 342.009,244.388 341.296,246.600 340.580 C 247.980 340.134,248.052 340.059,247.124 340.032 C 246.532 340.014,245.936 340.180,245.800 340.400 M0.400 384.924 C 0.400 385.211,0.664 385.796,0.987 386.224 C 1.543 386.958,1.575 386.930,1.587 385.700 C 1.596 384.805,1.413 384.400,1.000 384.400 C 0.670 384.400,0.400 384.636,0.400 384.924 M398.400 386.200 C 398.400 386.750,398.561 387.200,398.757 387.200 C 399.224 387.200,399.667 386.032,399.378 385.564 C 398.942 384.859,398.400 385.212,398.400 386.200 M395.689 391.371 C 395.734 391.905,395.912 392.255,396.085 392.148 C 396.540 391.866,396.473 390.400,396.004 390.400 C 395.787 390.400,395.645 390.837,395.689 391.371 M5.600 392.776 C 5.600 393.447,6.309 393.613,6.546 392.998 C 6.685 392.635,6.544 392.400,6.187 392.400 C 5.864 392.400,5.600 392.569,5.600 392.776 M8.800 395.957 C 8.800 396.154,9.085 396.424,9.433 396.557 C 10.411 396.933,10.508 396.851,9.857 396.200 C 9.177 395.520,8.800 395.433,8.800 395.957 M390.400 396.004 C 390.400 396.473,391.866 396.540,392.148 396.085 C 392.255 395.912,391.905 395.734,391.371 395.689 C 390.837 395.645,390.400 395.787,390.400 396.004 M13.376 399.013 C 14.366 399.761,14.800 399.757,14.800 399.000 C 14.800 398.609,14.417 398.404,13.700 398.413 C 12.646 398.425,12.633 398.450,13.376 399.013 M385.200 398.776 C 385.200 399.351,385.855 399.631,386.564 399.359 C 387.541 398.984,387.319 398.400,386.200 398.400 C 385.650 398.400,385.200 398.569,385.200 398.776 " stroke="none" fill="#d48c94" fill-rule="evenodd"></path></g></svg>