<svg id="svg" version="1.1" viewBox="0 0 400 69.6969696969697" xmlns="http://www.w3.org/2000/svg" xmlns:xlink="http://www.w3.org/1999/xlink" ><g id="svgg"><path id="path0" d="M177.130 62.421 L 177.176 67.507 176.796 67.675 C 176.425 67.839,176.425 67.841,176.833 67.756 C 177.063 67.709,227.012 67.668,287.833 67.666 C 348.654 67.664,398.585 67.617,398.792 67.562 L 399.167 67.461 399.167 63.159 C 399.167 59.801,399.215 58.808,399.388 58.635 C 399.510 58.513,399.579 58.321,399.541 58.207 C 399.498 58.076,399.569 58.037,399.736 58.101 C 400.106 58.243,400.080 57.741,399.708 57.559 C 399.547 57.481,349.559 57.398,288.250 57.376 L 177.083 57.335 177.130 62.421 " stroke="none" fill="#042c44" fill-rule="evenodd"></path><path id="path1" d="M175.250 57.678 C 175.067 57.751,135.917 57.815,88.250 57.821 L 1.583 57.833 1.628 62.292 C 1.653 64.744,1.707 66.844,1.748 66.958 C 1.808 67.125,19.322 67.167,88.564 67.167 C 157.809 67.167,175.320 67.209,175.376 67.375 C 175.430 67.537,175.507 67.533,175.723 67.355 C 175.969 67.151,176.000 66.604,176.000 62.414 C 176.000 57.448,175.990 57.385,175.250 57.678 " stroke="none" fill="#0474b4" fill-rule="evenodd"></path><path id="path2" d="M0.375 57.451 C 0.015 57.520,-0.217 58.500,0.127 58.500 C 0.635 58.500,0.751 59.310,0.833 63.417 L 0.917 67.583 88.417 67.629 C 136.542 67.654,176.087 67.633,176.294 67.583 L 176.672 67.492 176.627 62.455 L 176.583 57.417 88.667 57.398 C 40.313 57.387,0.581 57.411,0.375 57.451 M176.000 62.414 C 176.000 66.604,175.969 67.151,175.723 67.355 C 175.507 67.533,175.430 67.537,175.376 67.375 C 175.320 67.209,157.809 67.167,88.564 67.167 C 19.322 67.167,1.808 67.125,1.748 66.958 C 1.707 66.844,1.653 64.744,1.628 62.292 L 1.583 57.833 88.250 57.821 C 135.917 57.815,175.067 57.751,175.250 57.678 C 175.990 57.385,176.000 57.448,176.000 62.414 " stroke="none" fill="#046cb3" fill-rule="evenodd"></path><path id="path3" d="M188.167 0.167 C 188.167 0.258,187.829 0.333,187.417 0.333 C 186.861 0.333,186.667 0.398,186.667 0.583 C 186.667 0.750,186.500 0.833,186.167 0.833 C 185.833 0.833,185.667 0.917,185.667 1.083 C 185.667 1.250,185.500 1.333,185.167 1.333 C 184.833 1.333,184.667 1.417,184.667 1.583 C 184.667 1.750,184.500 1.833,184.167 1.833 C 183.833 1.833,183.667 1.917,183.667 2.083 C 183.667 2.221,183.554 2.333,183.417 2.333 C 183.279 2.333,183.167 2.446,183.167 2.583 C 183.167 2.721,183.054 2.833,182.917 2.833 C 182.779 2.833,182.667 2.946,182.667 3.083 C 182.667 3.221,182.554 3.333,182.417 3.333 C 182.279 3.333,182.167 3.446,182.167 3.583 C 182.167 3.721,182.054 3.833,181.917 3.833 C 181.779 3.833,181.667 3.946,181.667 4.083 C 181.667 4.221,181.554 4.333,181.417 4.333 C 181.250 4.333,181.167 4.500,181.167 4.833 C 181.167 5.167,181.083 5.333,180.917 5.333 C 180.752 5.333,180.667 5.498,180.667 5.814 C 180.667 6.154,180.569 6.320,180.333 6.382 C 180.070 6.450,180.000 6.609,180.000 7.133 C 180.000 7.584,179.916 7.830,179.737 7.898 C 179.393 8.031,179.444 12.677,179.792 12.792 C 179.916 12.833,180.000 13.156,180.000 13.597 C 180.000 14.222,180.050 14.333,180.333 14.333 C 180.593 14.333,180.667 14.444,180.667 14.833 C 180.667 15.167,180.750 15.333,180.917 15.333 C 181.083 15.333,181.167 15.500,181.167 15.833 C 181.167 16.167,181.250 16.333,181.417 16.333 C 181.554 16.333,181.667 16.446,181.667 16.583 C 181.667 16.721,181.779 16.833,181.917 16.833 C 182.054 16.833,182.167 16.946,182.167 17.083 C 182.167 17.221,182.279 17.333,182.417 17.333 C 182.556 17.333,182.667 17.481,182.667 17.667 C 182.667 17.850,182.745 18.000,182.841 18.000 C 182.937 18.000,183.185 18.182,183.391 18.405 C 183.598 18.628,183.964 18.860,184.205 18.920 C 184.446 18.981,184.683 19.136,184.733 19.265 C 184.782 19.394,185.013 19.500,185.245 19.500 C 185.509 19.500,185.667 19.594,185.667 19.750 C 185.667 19.915,185.831 20.000,186.149 20.000 C 186.424 20.000,186.672 20.107,186.727 20.250 C 186.780 20.388,187.005 20.500,187.227 20.500 C 187.449 20.500,187.674 20.612,187.727 20.750 C 187.790 20.915,188.051 21.000,188.495 21.000 C 188.981 21.000,189.167 21.069,189.167 21.250 C 189.167 21.435,189.361 21.500,189.917 21.500 C 190.472 21.500,190.667 21.565,190.667 21.750 C 190.667 21.914,190.831 22.000,191.146 22.000 C 191.410 22.000,191.719 22.113,191.833 22.250 C 191.947 22.388,192.286 22.500,192.586 22.500 C 192.917 22.500,193.169 22.598,193.227 22.750 C 193.290 22.913,193.549 23.000,193.977 23.000 C 194.405 23.000,194.664 23.087,194.727 23.250 C 194.780 23.387,195.005 23.500,195.227 23.500 C 195.449 23.500,195.674 23.613,195.727 23.750 C 195.780 23.887,196.013 24.000,196.245 24.000 C 196.509 24.000,196.667 24.094,196.667 24.250 C 196.667 24.389,196.815 24.500,197.000 24.500 C 197.185 24.500,197.333 24.611,197.333 24.750 C 197.333 24.917,197.500 25.000,197.833 25.000 C 198.167 25.000,198.333 25.083,198.333 25.250 C 198.333 25.387,198.446 25.500,198.583 25.500 C 198.721 25.500,198.833 25.613,198.833 25.750 C 198.833 25.887,198.946 26.000,199.083 26.000 C 199.221 26.000,199.333 26.113,199.333 26.250 C 199.333 26.387,199.446 26.500,199.583 26.500 C 199.750 26.500,199.833 26.667,199.833 27.000 C 199.833 27.333,199.917 27.500,200.083 27.500 C 200.250 27.500,200.333 27.667,200.333 28.000 C 200.333 28.333,200.417 28.500,200.583 28.500 C 200.788 28.500,200.833 28.787,200.833 30.083 C 200.833 31.380,200.788 31.667,200.583 31.667 C 200.398 31.667,200.333 31.861,200.333 32.417 C 200.333 32.972,200.269 33.167,200.083 33.167 C 199.917 33.167,199.833 33.333,199.833 33.667 C 199.833 34.000,199.750 34.167,199.583 34.167 C 199.446 34.167,199.333 34.279,199.333 34.417 C 199.333 34.554,199.221 34.667,199.083 34.667 C 198.946 34.667,198.833 34.779,198.833 34.917 C 198.833 35.054,198.721 35.167,198.583 35.167 C 198.446 35.167,198.333 35.279,198.333 35.417 C 198.333 35.554,198.221 35.667,198.083 35.667 C 197.946 35.667,197.833 35.779,197.833 35.917 C 197.833 36.084,197.666 36.167,197.328 36.167 C 197.033 36.167,196.783 36.271,196.727 36.417 C 196.674 36.554,196.449 36.667,196.227 36.667 C 196.005 36.667,195.780 36.779,195.727 36.917 C 195.664 37.080,195.405 37.167,194.977 37.167 C 194.549 37.167,194.290 37.253,194.227 37.417 C 194.082 37.794,184.667 37.794,184.667 37.417 C 184.667 37.220,184.435 37.167,183.583 37.167 C 182.731 37.167,182.500 37.113,182.500 36.917 C 182.500 36.731,182.306 36.667,181.750 36.667 C 181.194 36.667,181.000 36.602,181.000 36.417 C 181.000 36.222,180.778 36.167,180.000 36.167 L 179.000 36.167 179.003 37.792 C 179.006 39.734,179.276 40.167,180.482 40.167 C 180.979 40.167,181.167 40.235,181.167 40.417 C 181.167 40.611,181.389 40.667,182.167 40.667 C 182.944 40.667,183.167 40.722,183.167 40.917 C 183.167 41.295,195.961 41.295,196.106 40.917 C 196.172 40.747,196.437 40.667,196.934 40.667 C 197.474 40.667,197.667 40.601,197.667 40.417 C 197.667 40.250,197.833 40.167,198.167 40.167 C 198.500 40.167,198.667 40.083,198.667 39.917 C 198.667 39.750,198.833 39.667,199.167 39.667 C 199.500 39.667,199.667 39.583,199.667 39.417 C 199.667 39.260,199.825 39.167,200.089 39.167 C 200.321 39.167,200.554 39.054,200.606 38.917 C 200.659 38.779,200.777 38.667,200.869 38.667 C 201.087 38.667,202.833 36.920,202.833 36.703 C 202.833 36.611,202.946 36.492,203.083 36.440 C 203.221 36.387,203.333 36.189,203.333 36.000 C 203.333 35.811,203.446 35.613,203.583 35.560 C 203.723 35.507,203.833 35.259,203.833 35.000 C 203.833 34.741,203.944 34.493,204.083 34.440 C 204.264 34.370,204.333 34.088,204.333 33.422 C 204.333 32.714,204.391 32.500,204.583 32.500 C 204.794 32.500,204.833 32.132,204.833 30.187 C 204.833 28.334,204.784 27.833,204.583 27.667 C 204.431 27.540,204.333 27.175,204.333 26.730 C 204.333 26.192,204.267 26.000,204.083 26.000 C 203.917 26.000,203.833 25.833,203.833 25.500 C 203.833 25.167,203.750 25.000,203.583 25.000 C 203.440 25.000,203.333 24.850,203.333 24.649 C 203.333 24.285,201.687 22.500,201.351 22.500 C 201.250 22.500,201.167 22.387,201.167 22.250 C 201.167 22.094,201.009 22.000,200.750 22.000 C 200.491 22.000,200.333 21.906,200.333 21.750 C 200.333 21.611,200.185 21.500,200.000 21.500 C 199.815 21.500,199.667 21.389,199.667 21.250 C 199.667 21.083,199.500 21.000,199.167 21.000 C 198.833 21.000,198.667 20.917,198.667 20.750 C 198.667 20.583,198.500 20.500,198.167 20.500 C 197.833 20.500,197.667 20.417,197.667 20.250 C 197.667 20.065,197.472 20.000,196.917 20.000 C 196.361 20.000,196.167 19.935,196.167 19.750 C 196.167 19.583,196.000 19.500,195.667 19.500 C 195.333 19.500,195.167 19.417,195.167 19.250 C 195.167 19.065,194.972 19.000,194.417 19.000 C 193.861 19.000,193.667 18.935,193.667 18.750 C 193.667 18.565,193.472 18.500,192.917 18.500 C 192.361 18.500,192.167 18.435,192.167 18.250 C 192.167 18.083,192.000 18.000,191.667 18.000 C 191.333 18.000,191.167 17.917,191.167 17.750 C 191.167 17.565,190.972 17.500,190.417 17.500 C 189.861 17.500,189.667 17.435,189.667 17.250 C 189.667 17.083,189.500 17.000,189.167 17.000 C 188.833 17.000,188.667 16.917,188.667 16.750 C 188.667 16.583,188.500 16.500,188.167 16.500 C 187.833 16.500,187.667 16.417,187.667 16.250 C 187.667 16.083,187.500 16.000,187.167 16.000 C 186.833 16.000,186.667 15.917,186.667 15.750 C 186.667 15.612,186.554 15.500,186.417 15.500 C 186.279 15.500,186.167 15.387,186.167 15.250 C 186.167 15.112,186.054 15.000,185.917 15.000 C 185.779 15.000,185.667 14.887,185.667 14.750 C 185.667 14.612,185.554 14.500,185.417 14.500 C 185.279 14.500,185.167 14.403,185.167 14.284 C 185.167 14.165,184.945 13.884,184.674 13.659 C 184.325 13.369,184.179 13.098,184.174 12.729 C 184.170 12.442,184.054 12.114,183.917 12.000 C 183.724 11.840,183.667 11.399,183.667 10.081 C 183.667 8.713,183.717 8.350,183.917 8.273 C 184.054 8.220,184.167 7.995,184.167 7.773 C 184.167 7.551,184.279 7.326,184.417 7.273 C 184.554 7.220,184.667 7.027,184.667 6.844 C 184.667 6.508,185.708 5.333,186.006 5.333 C 186.094 5.333,186.167 5.221,186.167 5.083 C 186.167 4.927,186.325 4.833,186.589 4.833 C 186.821 4.833,187.054 4.721,187.106 4.583 C 187.159 4.446,187.384 4.333,187.606 4.333 C 187.829 4.333,188.054 4.221,188.106 4.083 C 188.169 3.920,188.429 3.833,188.856 3.833 C 189.284 3.833,189.544 3.747,189.606 3.583 C 189.750 3.210,196.084 3.210,196.227 3.583 C 196.298 3.767,196.588 3.833,197.328 3.833 C 198.111 3.833,198.333 3.889,198.333 4.083 C 198.333 4.269,198.528 4.333,199.083 4.333 C 199.639 4.333,199.833 4.398,199.833 4.583 C 199.833 4.769,200.028 4.833,200.583 4.833 C 201.151 4.833,201.333 4.896,201.333 5.093 C 201.333 5.589,202.737 5.342,202.808 4.833 C 202.839 4.604,202.971 4.357,203.099 4.283 C 203.228 4.210,203.333 3.937,203.333 3.676 C 203.333 3.409,203.442 3.161,203.583 3.106 C 204.112 2.904,203.902 1.833,203.333 1.833 C 203.000 1.833,202.833 1.750,202.833 1.583 C 202.833 1.409,202.657 1.333,202.250 1.333 C 201.843 1.333,201.667 1.258,201.667 1.083 C 201.667 0.889,201.444 0.833,200.667 0.833 C 199.889 0.833,199.667 0.778,199.667 0.583 C 199.667 0.389,199.444 0.333,198.667 0.333 C 198.111 0.333,197.667 0.259,197.667 0.167 C 197.667 0.059,195.972 0.000,192.917 0.000 C 189.861 0.000,188.167 0.059,188.167 0.167 M224.000 0.167 C 224.000 0.259,223.556 0.333,223.000 0.333 C 222.222 0.333,222.000 0.389,222.000 0.583 C 222.000 0.769,221.806 0.833,221.250 0.833 C 220.694 0.833,220.500 0.898,220.500 1.083 C 220.500 1.250,220.333 1.333,220.000 1.333 C 219.667 1.333,219.500 1.417,219.500 1.583 C 219.500 1.750,219.333 1.833,219.000 1.833 C 218.667 1.833,218.500 1.917,218.500 2.083 C 218.500 2.250,218.333 2.333,218.000 2.333 C 217.667 2.333,217.500 2.417,217.500 2.583 C 217.500 2.721,217.387 2.833,217.250 2.833 C 217.112 2.833,217.000 2.946,217.000 3.083 C 217.000 3.221,216.887 3.333,216.750 3.333 C 216.612 3.333,216.500 3.446,216.500 3.583 C 216.500 3.750,216.333 3.833,216.000 3.833 C 215.725 3.833,215.500 3.908,215.500 4.000 C 215.500 4.216,214.883 4.833,214.667 4.833 C 214.575 4.833,214.500 4.946,214.500 5.083 C 214.500 5.221,214.387 5.333,214.250 5.333 C 214.083 5.333,214.000 5.500,214.000 5.833 C 214.000 6.222,213.926 6.333,213.667 6.333 C 213.483 6.333,213.333 6.412,213.333 6.508 C 213.333 6.604,213.151 6.852,212.928 7.058 C 212.705 7.265,212.474 7.631,212.413 7.871 C 212.353 8.112,212.198 8.350,212.068 8.399 C 211.939 8.449,211.833 8.671,211.833 8.894 C 211.833 9.116,211.721 9.341,211.583 9.394 C 211.446 9.446,211.333 9.647,211.333 9.840 C 211.333 10.033,211.221 10.303,211.083 10.440 C 210.946 10.578,210.833 10.940,210.833 11.244 C 210.833 11.582,210.736 11.835,210.583 11.894 C 210.418 11.957,210.333 12.219,210.333 12.667 C 210.333 13.115,210.249 13.376,210.083 13.440 C 209.887 13.515,209.833 13.854,209.833 15.018 C 209.833 16.224,209.787 16.500,209.583 16.500 C 209.368 16.500,209.333 17.083,209.333 20.750 C 209.333 24.417,209.368 25.000,209.583 25.000 C 209.786 25.000,209.833 25.269,209.833 26.422 C 209.833 27.532,209.888 27.865,210.083 27.940 C 210.253 28.005,210.333 28.271,210.333 28.768 C 210.333 29.308,210.399 29.500,210.583 29.500 C 210.764 29.500,210.833 29.686,210.833 30.172 C 210.833 30.615,210.918 30.876,211.083 30.940 C 211.226 30.994,211.333 31.243,211.333 31.518 C 211.333 31.835,211.419 32.000,211.583 32.000 C 211.750 32.000,211.833 32.167,211.833 32.500 C 211.833 32.833,211.917 33.000,212.083 33.000 C 212.240 33.000,212.333 33.158,212.333 33.422 C 212.333 33.654,212.446 33.887,212.583 33.940 C 212.721 33.992,212.833 34.140,212.833 34.268 C 212.833 34.396,212.946 34.500,213.083 34.500 C 213.221 34.500,213.333 34.644,213.333 34.819 C 213.333 34.994,213.596 35.408,213.917 35.739 C 214.237 36.069,214.500 36.413,214.500 36.503 C 214.500 36.593,214.571 36.667,214.657 36.667 C 214.743 36.667,215.156 37.004,215.574 37.417 C 215.993 37.829,216.485 38.167,216.668 38.167 C 216.852 38.167,217.000 38.278,217.000 38.417 C 217.000 38.554,217.112 38.667,217.250 38.667 C 217.387 38.667,217.500 38.779,217.500 38.917 C 217.500 39.083,217.667 39.167,218.000 39.167 C 218.333 39.167,218.500 39.250,218.500 39.417 C 218.500 39.583,218.667 39.667,219.000 39.667 C 219.333 39.667,219.500 39.750,219.500 39.917 C 219.500 40.102,219.694 40.167,220.250 40.167 C 220.806 40.167,221.000 40.231,221.000 40.417 C 221.000 40.601,221.192 40.667,221.732 40.667 C 222.229 40.667,222.495 40.747,222.560 40.917 C 222.705 41.294,234.462 41.294,234.606 40.917 C 234.678 40.731,234.973 40.667,235.756 40.667 C 236.470 40.667,236.890 40.586,237.060 40.417 C 237.197 40.279,237.502 40.167,237.738 40.167 L 238.167 40.167 238.167 38.417 L 238.167 36.667 237.167 36.667 C 236.389 36.667,236.167 36.722,236.167 36.917 C 236.167 37.111,235.944 37.167,235.167 37.167 C 234.389 37.167,234.167 37.222,234.167 37.417 C 234.167 37.633,233.519 37.667,229.333 37.667 C 225.148 37.667,224.500 37.633,224.500 37.417 C 224.500 37.232,224.308 37.167,223.768 37.167 C 223.271 37.167,223.005 37.086,222.940 36.917 C 222.876 36.752,222.615 36.667,222.172 36.667 C 221.686 36.667,221.500 36.598,221.500 36.417 C 221.500 36.250,221.333 36.167,221.000 36.167 C 220.667 36.167,220.500 36.083,220.500 35.917 C 220.500 35.779,220.396 35.667,220.268 35.667 C 220.140 35.667,219.992 35.554,219.940 35.417 C 219.887 35.279,219.654 35.167,219.422 35.167 C 219.158 35.167,219.000 35.073,219.000 34.917 C 219.000 34.779,218.887 34.667,218.750 34.667 C 218.612 34.667,218.500 34.554,218.500 34.417 C 218.500 34.279,218.387 34.167,218.250 34.167 C 218.112 34.167,218.000 34.054,218.000 33.917 C 218.000 33.779,217.887 33.667,217.750 33.667 C 217.612 33.667,217.500 33.554,217.500 33.417 C 217.500 33.279,217.397 33.167,217.271 33.167 C 217.145 33.167,216.997 32.942,216.942 32.667 C 216.883 32.373,216.737 32.167,216.588 32.167 C 216.448 32.167,216.333 32.054,216.333 31.917 C 216.333 31.779,216.221 31.667,216.083 31.667 C 215.916 31.667,215.833 31.499,215.833 31.161 C 215.833 30.866,215.729 30.616,215.583 30.560 C 215.446 30.508,215.333 30.283,215.333 30.060 C 215.333 29.838,215.221 29.613,215.083 29.560 C 214.941 29.506,214.833 29.257,214.833 28.982 C 214.833 28.665,214.748 28.500,214.583 28.500 C 214.391 28.500,214.333 28.286,214.333 27.578 C 214.333 26.912,214.264 26.630,214.083 26.560 C 213.892 26.487,213.833 26.174,213.833 25.232 C 213.833 24.248,213.783 24.000,213.583 24.000 C 213.369 24.000,213.333 23.519,213.333 20.667 C 213.333 17.815,213.369 17.333,213.583 17.333 C 213.787 17.333,213.833 17.056,213.833 15.833 C 213.833 14.611,213.880 14.333,214.083 14.333 C 214.269 14.333,214.333 14.139,214.333 13.583 C 214.333 13.028,214.398 12.833,214.583 12.833 C 214.750 12.833,214.833 12.667,214.833 12.333 C 214.833 12.000,214.917 11.833,215.083 11.833 C 215.250 11.833,215.333 11.667,215.333 11.333 C 215.333 11.000,215.417 10.833,215.583 10.833 C 215.750 10.833,215.833 10.667,215.833 10.333 C 215.833 10.000,215.917 9.833,216.083 9.833 C 216.221 9.833,216.333 9.721,216.333 9.583 C 216.333 9.446,216.440 9.333,216.570 9.333 C 216.700 9.333,216.856 9.108,216.917 8.833 C 216.977 8.558,217.133 8.333,217.263 8.333 C 217.393 8.333,217.500 8.221,217.500 8.083 C 217.500 7.946,217.612 7.833,217.750 7.833 C 217.887 7.833,218.000 7.721,218.000 7.583 C 218.000 7.446,218.112 7.333,218.250 7.333 C 218.387 7.333,218.500 7.221,218.500 7.083 C 218.500 6.946,218.612 6.833,218.750 6.833 C 218.887 6.833,219.000 6.721,219.000 6.583 C 219.000 6.446,219.147 6.333,219.328 6.333 C 219.508 6.333,219.885 6.108,220.167 5.833 C 220.448 5.558,220.779 5.333,220.902 5.333 C 221.025 5.333,221.219 5.221,221.333 5.083 C 221.447 4.946,221.711 4.833,221.919 4.833 C 222.127 4.833,222.341 4.721,222.394 4.583 C 222.450 4.437,222.699 4.333,222.995 4.333 C 223.333 4.333,223.500 4.251,223.500 4.083 C 223.500 3.891,223.714 3.833,224.422 3.833 C 225.088 3.833,225.370 3.764,225.440 3.583 C 225.521 3.373,226.056 3.333,228.833 3.333 C 231.611 3.333,232.146 3.373,232.227 3.583 C 232.296 3.763,232.577 3.833,233.227 3.833 C 233.877 3.833,234.158 3.904,234.227 4.083 C 234.290 4.247,234.549 4.333,234.977 4.333 C 235.405 4.333,235.664 4.420,235.727 4.583 C 235.790 4.748,236.051 4.833,236.495 4.833 C 236.981 4.833,237.167 4.902,237.167 5.083 C 237.167 5.269,237.361 5.333,237.917 5.333 C 238.639 5.333,238.667 5.315,238.667 4.833 C 238.667 4.500,238.750 4.333,238.917 4.333 C 239.081 4.333,239.167 4.169,239.167 3.851 C 239.167 3.576,239.274 3.328,239.417 3.273 C 239.752 3.144,239.768 1.833,239.434 1.833 C 239.307 1.833,239.159 1.721,239.106 1.583 C 239.043 1.418,238.782 1.333,238.339 1.333 C 237.852 1.333,237.667 1.264,237.667 1.083 C 237.667 0.899,237.474 0.833,236.934 0.833 C 236.437 0.833,236.172 0.753,236.106 0.583 C 236.037 0.403,235.754 0.333,235.089 0.333 C 234.582 0.333,234.167 0.258,234.167 0.167 C 234.167 0.059,232.361 0.000,229.083 0.000 C 225.806 0.000,224.000 0.059,224.000 0.167 M257.333 0.167 C 257.333 0.258,256.918 0.333,256.411 0.333 C 255.746 0.333,255.463 0.403,255.394 0.583 C 255.339 0.726,255.090 0.833,254.816 0.833 C 254.498 0.833,254.333 0.919,254.333 1.083 C 254.333 1.250,254.167 1.333,253.833 1.333 C 253.500 1.333,253.333 1.417,253.333 1.583 C 253.333 1.750,253.167 1.833,252.833 1.833 C 252.500 1.833,252.333 1.917,252.333 2.083 C 252.333 2.250,252.167 2.333,251.833 2.333 C 251.500 2.333,251.333 2.417,251.333 2.583 C 251.333 2.721,251.221 2.833,251.083 2.833 C 250.946 2.833,250.833 2.946,250.833 3.083 C 250.833 3.221,250.721 3.333,250.583 3.333 C 250.446 3.333,250.333 3.446,250.333 3.583 C 250.333 3.721,250.221 3.833,250.083 3.833 C 249.946 3.833,249.833 3.946,249.833 4.083 C 249.833 4.221,249.721 4.333,249.583 4.333 C 249.446 4.333,249.333 4.446,249.333 4.583 C 249.333 4.721,249.221 4.833,249.083 4.833 C 248.946 4.833,248.833 4.946,248.833 5.083 C 248.833 5.221,248.721 5.333,248.583 5.333 C 248.446 5.333,248.333 5.446,248.333 5.583 C 248.333 5.721,248.221 5.833,248.083 5.833 C 247.946 5.833,247.833 5.946,247.833 6.083 C 247.833 6.221,247.721 6.333,247.583 6.333 C 247.419 6.333,247.333 6.498,247.333 6.814 C 247.333 7.154,247.236 7.320,247.000 7.382 C 246.779 7.439,246.667 7.609,246.667 7.883 C 246.667 8.111,246.554 8.341,246.417 8.394 C 246.279 8.446,246.167 8.671,246.167 8.894 C 246.167 9.116,246.054 9.341,245.917 9.394 C 245.779 9.446,245.667 9.647,245.667 9.840 C 245.667 10.033,245.554 10.303,245.417 10.440 C 245.279 10.578,245.167 10.940,245.167 11.244 C 245.167 11.582,245.069 11.835,244.917 11.894 C 244.737 11.963,244.667 12.244,244.667 12.894 C 244.667 13.543,244.596 13.825,244.417 13.894 C 244.214 13.972,244.167 14.366,244.167 15.995 C 244.167 17.666,244.125 18.000,243.917 18.000 C 243.706 18.000,243.667 18.389,243.667 20.500 C 243.667 22.611,243.706 23.000,243.917 23.000 C 244.124 23.000,244.167 23.325,244.167 24.922 C 244.167 26.477,244.214 26.862,244.417 26.940 C 244.596 27.009,244.667 27.290,244.667 27.940 C 244.667 28.590,244.737 28.871,244.917 28.940 C 245.080 29.002,245.167 29.262,245.167 29.690 C 245.167 30.117,245.253 30.377,245.417 30.440 C 245.559 30.494,245.667 30.743,245.667 31.018 C 245.667 31.335,245.752 31.500,245.917 31.500 C 246.090 31.500,246.167 31.675,246.167 32.071 C 246.167 32.386,246.279 32.755,246.417 32.893 C 246.554 33.030,246.667 33.223,246.667 33.321 C 246.667 33.420,246.817 33.500,247.000 33.500 C 247.259 33.500,247.333 33.611,247.333 34.000 C 247.333 34.333,247.417 34.500,247.583 34.500 C 247.722 34.500,247.833 34.648,247.833 34.833 C 247.833 35.019,247.944 35.167,248.083 35.167 C 248.221 35.167,248.333 35.279,248.333 35.417 C 248.333 35.554,248.446 35.667,248.583 35.667 C 248.721 35.667,248.833 35.814,248.833 35.994 C 248.833 36.410,249.874 37.462,250.420 37.599 C 250.647 37.656,250.833 37.807,250.833 37.935 C 250.833 38.062,250.946 38.167,251.083 38.167 C 251.221 38.167,251.333 38.279,251.333 38.417 C 251.333 38.554,251.438 38.667,251.566 38.667 C 251.693 38.667,251.841 38.779,251.894 38.917 C 251.946 39.054,252.179 39.167,252.411 39.167 C 252.675 39.167,252.833 39.260,252.833 39.417 C 252.833 39.583,253.000 39.667,253.333 39.667 C 253.667 39.667,253.833 39.750,253.833 39.917 C 253.833 40.102,254.028 40.167,254.583 40.167 C 255.139 40.167,255.333 40.231,255.333 40.417 C 255.333 40.601,255.526 40.667,256.066 40.667 C 256.563 40.667,256.828 40.747,256.894 40.917 C 257.038 41.293,267.129 41.293,267.273 40.917 C 267.338 40.747,267.605 40.667,268.106 40.667 C 268.608 40.667,268.874 40.587,268.940 40.417 C 268.998 40.265,269.250 40.167,269.581 40.167 C 269.881 40.167,270.219 40.054,270.333 39.917 C 270.447 39.779,270.672 39.667,270.833 39.667 C 270.994 39.667,271.219 39.554,271.333 39.417 C 271.447 39.279,271.644 39.167,271.770 39.167 C 271.897 39.167,272.000 39.054,272.000 38.917 C 272.000 38.760,272.158 38.667,272.422 38.667 C 272.654 38.667,272.887 38.554,272.940 38.417 C 272.992 38.279,273.140 38.167,273.268 38.167 C 273.396 38.167,273.500 38.054,273.500 37.917 C 273.500 37.779,273.612 37.667,273.750 37.667 C 273.887 37.667,274.000 37.554,274.000 37.417 C 274.000 37.279,274.112 37.167,274.250 37.167 C 274.387 37.167,274.500 37.054,274.500 36.917 C 274.500 36.779,274.612 36.667,274.750 36.667 C 274.887 36.667,275.000 36.554,275.000 36.417 C 275.000 36.279,275.112 36.167,275.250 36.167 C 275.387 36.167,275.500 36.054,275.500 35.917 C 275.500 35.779,275.612 35.667,275.750 35.667 C 275.887 35.667,276.000 35.562,276.000 35.434 C 276.000 35.307,276.112 35.159,276.250 35.106 C 276.387 35.054,276.500 34.896,276.500 34.755 C 276.500 34.615,276.612 34.500,276.750 34.500 C 276.917 34.500,277.000 34.333,277.000 34.000 C 277.000 33.667,277.083 33.500,277.250 33.500 C 277.417 33.500,277.500 33.333,277.500 33.000 C 277.500 32.667,277.583 32.500,277.750 32.500 C 277.917 32.500,278.000 32.333,278.000 32.000 C 278.000 31.667,278.083 31.500,278.250 31.500 C 278.417 31.500,278.500 31.333,278.500 31.000 C 278.500 30.667,278.583 30.500,278.750 30.500 C 278.935 30.500,279.000 30.306,279.000 29.750 C 279.000 29.194,279.065 29.000,279.250 29.000 C 279.444 29.000,279.500 28.780,279.500 28.018 C 279.500 27.299,279.567 27.010,279.750 26.940 C 279.958 26.860,280.000 26.393,280.000 24.172 C 280.000 21.908,280.038 21.500,280.250 21.500 C 280.444 21.500,280.500 21.278,280.500 20.500 C 280.500 19.722,280.444 19.500,280.250 19.500 C 280.039 19.500,280.000 19.111,280.000 17.000 C 280.000 14.889,279.961 14.500,279.750 14.500 C 279.550 14.500,279.500 14.250,279.500 13.250 C 279.500 12.250,279.450 12.000,279.250 12.000 C 279.065 12.000,279.000 11.805,279.000 11.245 C 279.000 10.727,278.921 10.459,278.750 10.394 C 278.607 10.339,278.500 10.090,278.500 9.816 C 278.500 9.498,278.415 9.333,278.250 9.333 C 278.083 9.333,278.000 9.167,278.000 8.833 C 278.000 8.500,277.917 8.333,277.750 8.333 C 277.583 8.333,277.500 8.167,277.500 7.833 C 277.500 7.500,277.417 7.333,277.250 7.333 C 277.112 7.333,277.000 7.221,277.000 7.083 C 277.000 6.946,276.887 6.833,276.750 6.833 C 276.583 6.833,276.500 6.667,276.500 6.333 C 276.500 6.000,276.417 5.833,276.250 5.833 C 276.112 5.833,276.000 5.721,276.000 5.583 C 276.000 5.446,275.887 5.333,275.750 5.333 C 275.612 5.333,275.500 5.221,275.500 5.083 C 275.500 4.946,275.387 4.833,275.250 4.833 C 275.112 4.833,275.000 4.721,275.000 4.583 C 275.000 4.446,274.887 4.333,274.750 4.333 C 274.612 4.333,274.500 4.221,274.500 4.083 C 274.500 3.946,274.387 3.833,274.250 3.833 C 274.112 3.833,274.000 3.721,274.000 3.583 C 274.000 3.446,273.887 3.333,273.750 3.333 C 273.612 3.333,273.500 3.221,273.500 3.083 C 273.500 2.946,273.396 2.833,273.268 2.833 C 273.140 2.833,272.992 2.721,272.940 2.583 C 272.887 2.446,272.654 2.333,272.422 2.333 C 272.158 2.333,272.000 2.240,272.000 2.083 C 272.000 1.917,271.833 1.833,271.500 1.833 C 271.167 1.833,271.000 1.750,271.000 1.583 C 271.000 1.417,270.833 1.333,270.500 1.333 C 270.167 1.333,270.000 1.250,270.000 1.083 C 270.000 0.909,269.824 0.833,269.417 0.833 C 269.009 0.833,268.833 0.758,268.833 0.583 C 268.833 0.391,268.620 0.333,267.917 0.333 C 267.412 0.333,267.000 0.258,267.000 0.167 C 267.000 0.059,265.278 0.000,262.167 0.000 C 259.056 0.000,257.333 0.059,257.333 0.167 M382.667 0.167 C 382.667 0.258,382.329 0.333,381.917 0.333 C 381.361 0.333,381.167 0.398,381.167 0.583 C 381.167 0.769,380.972 0.833,380.411 0.833 C 379.894 0.833,379.626 0.912,379.560 1.083 C 379.508 1.221,379.285 1.333,379.066 1.333 C 378.822 1.333,378.667 1.431,378.667 1.583 C 378.667 1.722,378.519 1.833,378.333 1.833 C 378.148 1.833,378.000 1.944,378.000 2.083 C 378.000 2.227,377.850 2.333,377.649 2.333 C 377.186 2.333,375.500 4.019,375.500 4.482 C 375.500 4.683,375.393 4.833,375.250 4.833 C 375.083 4.833,375.000 5.000,375.000 5.333 C 375.000 5.667,374.917 5.833,374.750 5.833 C 374.585 5.833,374.500 5.998,374.500 6.316 C 374.500 6.590,374.393 6.839,374.250 6.894 C 374.039 6.974,374.000 7.515,374.000 10.333 C 374.000 13.152,374.039 13.692,374.250 13.773 C 374.393 13.828,374.500 14.076,374.500 14.351 C 374.500 14.669,374.585 14.833,374.750 14.833 C 374.917 14.833,375.000 15.000,375.000 15.333 C 375.000 15.667,375.083 15.833,375.250 15.833 C 375.395 15.833,375.500 15.985,375.500 16.195 C 375.500 16.573,376.842 17.994,377.211 18.007 C 377.324 18.011,377.601 18.236,377.826 18.507 C 378.051 18.779,378.398 19.000,378.599 19.000 C 378.800 19.000,379.008 19.112,379.060 19.250 C 379.113 19.387,379.338 19.500,379.560 19.500 C 379.783 19.500,380.008 19.612,380.060 19.750 C 380.116 19.896,380.366 20.000,380.661 20.000 C 380.999 20.000,381.167 20.083,381.167 20.250 C 381.167 20.417,381.333 20.500,381.667 20.500 C 382.000 20.500,382.167 20.583,382.167 20.750 C 382.167 20.915,382.331 21.000,382.649 21.000 C 382.924 21.000,383.172 21.107,383.227 21.250 C 383.290 21.415,383.551 21.500,383.995 21.500 C 384.481 21.500,384.667 21.569,384.667 21.750 C 384.667 21.935,384.861 22.000,385.417 22.000 C 385.972 22.000,386.167 22.065,386.167 22.250 C 386.167 22.435,386.361 22.500,386.917 22.500 C 387.472 22.500,387.667 22.565,387.667 22.750 C 387.667 22.915,387.831 23.000,388.149 23.000 C 388.424 23.000,388.672 23.107,388.727 23.250 C 388.780 23.387,389.005 23.500,389.227 23.500 C 389.449 23.500,389.674 23.613,389.727 23.750 C 389.780 23.887,390.005 24.000,390.227 24.000 C 390.449 24.000,390.674 24.113,390.727 24.250 C 390.780 24.387,391.013 24.500,391.245 24.500 C 391.509 24.500,391.667 24.594,391.667 24.750 C 391.667 24.887,391.738 25.000,391.824 25.000 C 392.112 25.000,394.163 27.176,394.267 27.591 C 394.323 27.816,394.436 28.000,394.518 28.000 C 394.799 28.000,394.700 32.618,394.417 32.727 C 394.279 32.780,394.167 33.013,394.167 33.245 C 394.167 33.509,394.073 33.667,393.917 33.667 C 393.779 33.667,393.667 33.771,393.667 33.899 C 393.667 34.027,393.554 34.174,393.417 34.227 C 393.279 34.280,393.167 34.513,393.167 34.745 C 393.167 35.009,393.073 35.167,392.917 35.167 C 392.779 35.167,392.667 35.279,392.667 35.417 C 392.667 35.583,392.500 35.667,392.167 35.667 C 391.833 35.667,391.667 35.750,391.667 35.917 C 391.667 36.054,391.554 36.167,391.417 36.167 C 391.279 36.167,391.167 36.279,391.167 36.417 C 391.167 36.583,391.000 36.667,390.667 36.667 C 390.333 36.667,390.167 36.750,390.167 36.917 C 390.167 37.102,389.972 37.167,389.417 37.167 C 388.861 37.167,388.667 37.231,388.667 37.417 C 388.667 37.633,388.019 37.667,383.833 37.667 C 379.648 37.667,379.000 37.633,379.000 37.417 C 379.000 37.217,378.750 37.167,377.750 37.167 C 376.750 37.167,376.500 37.117,376.500 36.917 C 376.500 36.731,376.306 36.667,375.750 36.667 C 375.194 36.667,375.000 36.602,375.000 36.417 C 375.000 36.231,374.805 36.167,374.245 36.167 L 373.489 36.167 373.536 38.125 L 373.583 40.083 374.250 40.137 C 374.617 40.167,374.977 40.298,375.050 40.429 C 375.145 40.599,375.510 40.667,376.324 40.667 C 377.184 40.667,377.488 40.728,377.560 40.917 C 377.643 41.133,378.505 41.167,383.911 41.167 C 389.361 41.167,390.167 41.134,390.167 40.917 C 390.167 40.731,390.361 40.667,390.917 40.667 C 391.472 40.667,391.667 40.602,391.667 40.417 C 391.667 40.236,391.852 40.167,392.339 40.167 C 392.782 40.167,393.043 40.082,393.106 39.917 C 393.159 39.779,393.384 39.667,393.606 39.667 C 393.829 39.667,394.054 39.554,394.106 39.417 C 394.159 39.279,394.307 39.167,394.434 39.167 C 394.562 39.167,394.667 39.054,394.667 38.917 C 394.667 38.779,394.779 38.667,394.917 38.667 C 395.054 38.667,395.167 38.560,395.167 38.430 C 395.167 38.300,395.392 38.144,395.667 38.083 C 395.942 38.023,396.167 37.867,396.167 37.737 C 396.167 37.607,396.279 37.500,396.417 37.500 C 396.572 37.500,396.667 37.343,396.667 37.083 C 396.667 36.824,396.761 36.667,396.917 36.667 C 397.054 36.667,397.167 36.562,397.167 36.434 C 397.167 36.307,397.279 36.159,397.417 36.106 C 397.554 36.054,397.667 35.821,397.667 35.589 C 397.667 35.325,397.760 35.167,397.917 35.167 C 398.106 35.167,398.167 34.963,398.167 34.333 C 398.167 33.704,398.228 33.500,398.417 33.500 C 398.631 33.500,398.667 33.000,398.667 30.000 C 398.667 27.000,398.631 26.500,398.417 26.500 C 398.250 26.500,398.167 26.333,398.167 26.000 C 398.167 25.667,398.083 25.500,397.917 25.500 C 397.750 25.500,397.667 25.333,397.667 25.000 C 397.667 24.667,397.583 24.500,397.417 24.500 C 397.279 24.500,397.167 24.387,397.167 24.250 C 397.167 24.113,397.059 24.000,396.928 24.000 C 396.791 24.000,396.666 23.804,396.636 23.542 C 396.595 23.182,396.485 23.072,396.125 23.031 C 395.863 23.000,395.667 22.876,395.667 22.739 C 395.667 22.608,395.554 22.500,395.417 22.500 C 395.279 22.500,395.167 22.387,395.167 22.250 C 395.167 22.113,395.054 22.000,394.917 22.000 C 394.779 22.000,394.667 21.887,394.667 21.750 C 394.667 21.583,394.500 21.500,394.167 21.500 C 393.833 21.500,393.667 21.417,393.667 21.250 C 393.667 21.083,393.500 21.000,393.167 21.000 C 392.833 21.000,392.667 20.917,392.667 20.750 C 392.667 20.583,392.500 20.500,392.167 20.500 C 391.833 20.500,391.667 20.417,391.667 20.250 C 391.667 20.083,391.500 20.000,391.167 20.000 C 390.833 20.000,390.667 19.917,390.667 19.750 C 390.667 19.585,390.502 19.500,390.184 19.500 C 389.910 19.500,389.661 19.393,389.606 19.250 C 389.543 19.085,389.282 19.000,388.839 19.000 C 388.352 19.000,388.167 18.931,388.167 18.750 C 388.167 18.565,387.972 18.500,387.417 18.500 C 386.861 18.500,386.667 18.435,386.667 18.250 C 386.667 18.065,386.472 18.000,385.917 18.000 C 385.361 18.000,385.167 17.935,385.167 17.750 C 385.167 17.585,385.002 17.500,384.684 17.500 C 384.410 17.500,384.161 17.393,384.106 17.250 C 384.050 17.104,383.801 17.000,383.505 17.000 C 383.167 17.000,383.000 16.917,383.000 16.750 C 383.000 16.583,382.833 16.500,382.500 16.500 C 382.167 16.500,382.000 16.417,382.000 16.250 C 382.000 16.083,381.833 16.000,381.500 16.000 C 381.167 16.000,381.000 15.917,381.000 15.750 C 381.000 15.583,380.833 15.500,380.500 15.500 C 380.167 15.500,380.000 15.417,380.000 15.250 C 380.000 15.112,379.887 15.000,379.750 15.000 C 379.613 15.000,379.500 14.887,379.500 14.750 C 379.500 14.612,379.387 14.500,379.250 14.500 C 379.083 14.500,379.000 14.333,379.000 14.000 C 379.000 13.667,378.917 13.500,378.750 13.500 C 378.583 13.500,378.500 13.333,378.500 13.000 C 378.500 12.667,378.417 12.500,378.250 12.500 C 378.040 12.500,378.000 12.130,378.000 10.167 C 378.000 8.204,378.040 7.833,378.250 7.833 C 378.417 7.833,378.500 7.667,378.500 7.333 C 378.500 7.000,378.583 6.833,378.750 6.833 C 378.887 6.833,379.000 6.721,379.000 6.583 C 379.000 6.446,379.113 6.333,379.250 6.333 C 379.387 6.333,379.500 6.221,379.500 6.083 C 379.500 5.946,379.613 5.833,379.750 5.833 C 379.887 5.833,380.000 5.721,380.000 5.583 C 380.000 5.446,380.113 5.333,380.250 5.333 C 380.387 5.333,380.500 5.221,380.500 5.083 C 380.500 4.927,380.658 4.833,380.922 4.833 C 381.154 4.833,381.387 4.721,381.440 4.583 C 381.492 4.446,381.717 4.333,381.940 4.333 C 382.162 4.333,382.387 4.221,382.440 4.083 C 382.502 3.920,382.762 3.833,383.190 3.833 C 383.617 3.833,383.877 3.747,383.940 3.583 C 384.083 3.210,390.084 3.210,390.227 3.583 C 390.300 3.773,390.607 3.833,391.495 3.833 C 392.425 3.833,392.667 3.885,392.667 4.083 C 392.667 4.268,392.859 4.333,393.399 4.333 C 393.896 4.333,394.162 4.414,394.227 4.583 C 394.282 4.727,394.531 4.833,394.810 4.833 C 395.090 4.833,395.339 4.940,395.394 5.083 C 395.454 5.240,395.709 5.333,396.078 5.333 C 396.490 5.333,396.667 5.258,396.667 5.083 C 396.667 4.946,396.779 4.833,396.917 4.833 C 397.083 4.833,397.167 4.667,397.167 4.333 C 397.167 4.000,397.250 3.833,397.417 3.833 C 397.611 3.833,397.667 3.611,397.667 2.833 C 397.667 2.056,397.611 1.833,397.417 1.833 C 397.279 1.833,397.167 1.721,397.167 1.583 C 397.167 1.398,396.972 1.333,396.417 1.333 C 395.861 1.333,395.667 1.269,395.667 1.083 C 395.667 0.898,395.472 0.833,394.917 0.833 C 394.361 0.833,394.167 0.769,394.167 0.583 C 394.167 0.383,393.917 0.333,392.917 0.333 C 392.194 0.333,391.667 0.263,391.667 0.167 C 391.667 0.060,390.056 0.000,387.167 0.000 C 384.278 0.000,382.667 0.060,382.667 0.167 M0.833 15.667 C 0.833 29.185,0.863 31.000,1.083 31.000 C 1.269 31.000,1.333 31.194,1.333 31.750 C 1.333 32.306,1.398 32.500,1.583 32.500 C 1.769 32.500,1.833 32.694,1.833 33.250 C 1.833 33.806,1.898 34.000,2.083 34.000 C 2.251 34.000,2.333 34.167,2.333 34.505 C 2.333 34.801,2.437 35.050,2.583 35.106 C 2.721 35.159,2.833 35.307,2.833 35.434 C 2.833 35.562,2.946 35.667,3.083 35.667 C 3.233 35.667,3.333 35.820,3.333 36.049 C 3.333 36.270,3.542 36.605,3.826 36.841 C 4.097 37.066,4.322 37.344,4.326 37.458 C 4.330 37.573,4.408 37.667,4.500 37.667 C 4.716 37.667,5.333 38.284,5.333 38.500 C 5.333 38.592,5.438 38.667,5.566 38.667 C 5.693 38.667,5.841 38.779,5.894 38.917 C 5.946 39.054,6.179 39.167,6.411 39.167 C 6.675 39.167,6.833 39.260,6.833 39.417 C 6.833 39.583,7.000 39.667,7.333 39.667 C 7.667 39.667,7.833 39.750,7.833 39.917 C 7.833 40.081,7.998 40.167,8.316 40.167 C 8.590 40.167,8.839 40.274,8.894 40.417 C 8.963 40.596,9.244 40.667,9.894 40.667 C 10.543 40.667,10.825 40.737,10.894 40.917 C 11.038 41.293,20.795 41.293,20.940 40.917 C 21.005 40.747,21.271 40.667,21.768 40.667 C 22.308 40.667,22.500 40.601,22.500 40.417 C 22.500 40.236,22.686 40.167,23.172 40.167 C 23.615 40.167,23.876 40.082,23.940 39.917 C 23.992 39.779,24.217 39.667,24.440 39.667 C 24.662 39.667,24.887 39.554,24.940 39.417 C 24.992 39.279,25.140 39.167,25.268 39.167 C 25.396 39.167,25.500 39.054,25.500 38.917 C 25.500 38.773,25.650 38.667,25.851 38.667 C 26.215 38.667,28.000 37.020,28.000 36.685 C 28.000 36.583,28.113 36.500,28.250 36.500 C 28.406 36.500,28.500 36.343,28.500 36.083 C 28.500 35.824,28.594 35.667,28.750 35.667 C 28.889 35.667,29.000 35.519,29.000 35.333 C 29.000 35.148,29.111 35.000,29.250 35.000 C 29.417 35.000,29.500 34.833,29.500 34.500 C 29.500 34.167,29.583 34.000,29.750 34.000 C 29.935 34.000,30.000 33.806,30.000 33.250 C 30.000 32.694,30.065 32.500,30.250 32.500 C 30.435 32.500,30.500 32.306,30.500 31.750 C 30.500 31.194,30.565 31.000,30.750 31.000 C 30.970 31.000,31.000 29.185,31.000 15.667 L 31.000 0.333 29.250 0.333 L 27.500 0.333 27.500 14.399 C 27.500 26.748,27.469 28.476,27.250 28.560 C 27.069 28.630,27.000 28.913,27.000 29.583 C 27.000 30.254,26.931 30.537,26.750 30.606 C 26.580 30.672,26.500 30.937,26.500 31.434 C 26.500 31.974,26.434 32.167,26.250 32.167 C 26.083 32.167,26.000 32.333,26.000 32.667 C 26.000 33.000,25.917 33.167,25.750 33.167 C 25.613 33.167,25.500 33.279,25.500 33.417 C 25.500 33.554,25.387 33.667,25.250 33.667 C 25.113 33.667,25.000 33.738,25.000 33.825 C 25.000 34.032,23.366 35.667,23.159 35.667 C 23.071 35.667,23.000 35.779,23.000 35.917 C 23.000 36.073,22.842 36.167,22.578 36.167 C 22.346 36.167,22.113 36.279,22.060 36.417 C 22.008 36.554,21.783 36.667,21.560 36.667 C 21.338 36.667,21.113 36.779,21.060 36.917 C 20.995 37.086,20.729 37.167,20.232 37.167 C 19.692 37.167,19.500 37.232,19.500 37.417 C 19.500 37.631,18.991 37.667,15.917 37.667 C 12.843 37.667,12.333 37.631,12.333 37.417 C 12.333 37.231,12.139 37.167,11.583 37.167 C 11.028 37.167,10.833 37.102,10.833 36.917 C 10.833 36.750,10.667 36.667,10.333 36.667 C 10.000 36.667,9.833 36.583,9.833 36.417 C 9.833 36.250,9.667 36.167,9.333 36.167 C 9.000 36.167,8.833 36.083,8.833 35.917 C 8.833 35.779,8.721 35.667,8.583 35.667 C 8.446 35.667,8.333 35.554,8.333 35.417 C 8.333 35.279,8.221 35.167,8.083 35.167 C 7.946 35.167,7.833 35.054,7.833 34.917 C 7.833 34.779,7.721 34.667,7.583 34.667 C 7.446 34.667,7.333 34.554,7.333 34.417 C 7.333 34.279,7.221 34.167,7.083 34.167 C 6.946 34.167,6.833 34.054,6.833 33.917 C 6.833 33.779,6.721 33.667,6.583 33.667 C 6.427 33.667,6.333 33.509,6.333 33.245 C 6.333 33.013,6.221 32.780,6.083 32.727 C 5.946 32.674,5.833 32.449,5.833 32.227 C 5.833 32.005,5.721 31.780,5.583 31.727 C 5.440 31.672,5.333 31.423,5.333 31.144 C 5.333 30.864,5.227 30.615,5.083 30.560 C 4.894 30.488,4.833 30.182,4.833 29.310 C 4.833 28.438,4.772 28.133,4.583 28.060 C 4.364 27.976,4.333 26.276,4.333 14.149 L 4.333 0.333 2.583 0.333 L 0.833 0.333 0.833 15.667 M41.167 20.500 L 41.167 40.667 42.917 40.667 L 44.667 40.667 44.667 24.172 C 44.667 9.578,44.695 7.688,44.917 7.773 C 45.054 7.826,45.167 7.973,45.167 8.101 C 45.167 8.229,45.279 8.333,45.417 8.333 C 45.573 8.333,45.667 8.491,45.667 8.755 C 45.667 8.987,45.779 9.220,45.917 9.273 C 46.054 9.326,46.167 9.473,46.167 9.601 C 46.167 9.729,46.279 9.833,46.417 9.833 C 46.575 9.833,46.667 9.992,46.667 10.266 C 46.667 10.558,46.775 10.726,47.000 10.785 C 47.183 10.833,47.333 10.976,47.333 11.103 C 47.333 11.230,47.446 11.333,47.583 11.333 C 47.750 11.333,47.833 11.500,47.833 11.833 C 47.833 12.167,47.917 12.333,48.083 12.333 C 48.221 12.333,48.333 12.446,48.333 12.583 C 48.333 12.721,48.446 12.833,48.583 12.833 C 48.750 12.833,48.833 13.000,48.833 13.333 C 48.833 13.667,48.917 13.833,49.083 13.833 C 49.221 13.833,49.333 13.946,49.333 14.083 C 49.333 14.221,49.446 14.333,49.583 14.333 C 49.750 14.333,49.833 14.500,49.833 14.833 C 49.833 15.167,49.917 15.333,50.083 15.333 C 50.221 15.333,50.333 15.446,50.333 15.583 C 50.333 15.721,50.446 15.833,50.583 15.833 C 50.750 15.833,50.833 16.000,50.833 16.333 C 50.833 16.667,50.917 16.833,51.083 16.833 C 51.221 16.833,51.333 16.946,51.333 17.083 C 51.333 17.221,51.446 17.333,51.583 17.333 C 51.751 17.333,51.833 17.501,51.833 17.839 C 51.833 18.134,51.937 18.384,52.083 18.440 C 52.221 18.492,52.333 18.640,52.333 18.768 C 52.333 18.896,52.446 19.000,52.583 19.000 C 52.740 19.000,52.833 19.158,52.833 19.422 C 52.833 19.654,52.946 19.887,53.083 19.940 C 53.221 19.992,53.333 20.140,53.333 20.268 C 53.333 20.396,53.446 20.500,53.583 20.500 C 53.750 20.500,53.833 20.667,53.833 21.000 C 53.833 21.333,53.917 21.500,54.083 21.500 C 54.221 21.500,54.333 21.613,54.333 21.750 C 54.333 21.887,54.446 22.000,54.583 22.000 C 54.750 22.000,54.833 22.167,54.833 22.500 C 54.833 22.833,54.917 23.000,55.083 23.000 C 55.221 23.000,55.333 23.113,55.333 23.250 C 55.333 23.387,55.446 23.500,55.583 23.500 C 55.750 23.500,55.833 23.667,55.833 24.000 C 55.833 24.333,55.917 24.500,56.083 24.500 C 56.221 24.500,56.333 24.613,56.333 24.750 C 56.333 24.887,56.446 25.000,56.583 25.000 C 56.750 25.000,56.833 25.167,56.833 25.500 C 56.833 25.833,56.917 26.000,57.083 26.000 C 57.221 26.000,57.333 26.113,57.333 26.250 C 57.333 26.387,57.446 26.500,57.583 26.500 C 57.750 26.500,57.833 26.667,57.833 27.000 C 57.833 27.333,57.917 27.500,58.083 27.500 C 58.221 27.500,58.333 27.613,58.333 27.750 C 58.333 27.887,58.446 28.000,58.583 28.000 C 58.750 28.000,58.833 28.167,58.833 28.500 C 58.833 28.833,58.917 29.000,59.083 29.000 C 59.221 29.000,59.333 29.113,59.333 29.250 C 59.333 29.387,59.446 29.500,59.583 29.500 C 59.750 29.500,59.833 29.667,59.833 30.000 C 59.833 30.333,59.917 30.500,60.083 30.500 C 60.221 30.500,60.333 30.613,60.333 30.750 C 60.333 30.887,60.446 31.000,60.583 31.000 C 60.740 31.000,60.833 31.158,60.833 31.422 C 60.833 31.654,60.946 31.887,61.083 31.940 C 61.221 31.992,61.333 32.140,61.333 32.268 C 61.333 32.396,61.446 32.500,61.583 32.500 C 61.740 32.500,61.833 32.658,61.833 32.922 C 61.833 33.154,61.946 33.387,62.083 33.440 C 62.221 33.492,62.333 33.640,62.333 33.768 C 62.333 33.896,62.446 34.000,62.583 34.000 C 62.744 34.000,62.834 34.163,62.836 34.458 C 62.839 34.913,63.450 35.667,63.815 35.667 C 63.917 35.667,64.000 35.892,64.000 36.167 C 64.000 36.500,64.083 36.667,64.250 36.667 C 64.387 36.667,64.500 36.779,64.500 36.917 C 64.500 37.054,64.612 37.167,64.750 37.167 C 64.906 37.167,65.000 37.325,65.000 37.589 C 65.000 37.821,65.112 38.054,65.250 38.106 C 65.387 38.159,65.500 38.307,65.500 38.434 C 65.500 38.562,65.612 38.667,65.750 38.667 C 65.917 38.667,66.000 38.833,66.000 39.167 C 66.000 39.500,66.083 39.667,66.250 39.667 C 66.387 39.667,66.500 39.779,66.500 39.917 C 66.500 40.054,66.612 40.167,66.750 40.167 C 66.887 40.167,67.000 40.279,67.000 40.417 C 67.000 40.625,67.333 40.667,69.000 40.667 L 71.000 40.667 71.000 20.500 L 71.000 0.333 69.000 0.333 L 67.000 0.333 67.000 15.167 C 67.000 28.241,67.030 30.000,67.250 30.000 C 67.458 30.000,67.500 30.335,67.500 32.012 C 67.500 33.800,67.472 33.996,67.250 33.774 C 67.112 33.636,67.000 33.443,67.000 33.345 C 67.000 33.247,66.850 33.167,66.667 33.167 C 66.407 33.167,66.333 33.056,66.333 32.667 C 66.333 32.333,66.250 32.167,66.083 32.167 C 65.946 32.167,65.833 32.054,65.833 31.917 C 65.833 31.779,65.721 31.667,65.583 31.667 C 65.419 31.667,65.333 31.502,65.333 31.184 C 65.333 30.910,65.226 30.661,65.083 30.606 C 64.946 30.554,64.833 30.396,64.833 30.255 C 64.833 30.115,64.721 30.000,64.583 30.000 C 64.431 30.000,64.333 29.845,64.333 29.601 C 64.333 29.382,64.221 29.159,64.083 29.106 C 63.946 29.054,63.833 28.896,63.833 28.755 C 63.833 28.615,63.721 28.500,63.583 28.500 C 63.427 28.500,63.333 28.342,63.333 28.078 C 63.333 27.846,63.221 27.613,63.083 27.560 C 62.946 27.508,62.833 27.360,62.833 27.232 C 62.833 27.104,62.721 27.000,62.583 27.000 C 62.427 27.000,62.333 26.842,62.333 26.578 C 62.333 26.346,62.221 26.113,62.083 26.060 C 61.946 26.008,61.833 25.860,61.833 25.732 C 61.833 25.604,61.721 25.500,61.583 25.500 C 61.427 25.500,61.333 25.342,61.333 25.078 C 61.333 24.846,61.221 24.613,61.083 24.560 C 60.946 24.508,60.833 24.360,60.833 24.232 C 60.833 24.104,60.721 24.000,60.583 24.000 C 60.427 24.000,60.333 23.842,60.333 23.578 C 60.333 23.346,60.221 23.113,60.083 23.060 C 59.946 23.008,59.833 22.860,59.833 22.732 C 59.833 22.604,59.721 22.500,59.583 22.500 C 59.427 22.500,59.333 22.342,59.333 22.078 C 59.333 21.846,59.221 21.613,59.083 21.560 C 58.946 21.508,58.833 21.360,58.833 21.232 C 58.833 21.104,58.721 21.000,58.583 21.000 C 58.427 21.000,58.333 20.842,58.333 20.578 C 58.333 20.346,58.221 20.113,58.083 20.060 C 57.946 20.008,57.833 19.860,57.833 19.732 C 57.833 19.604,57.721 19.500,57.583 19.500 C 57.427 19.500,57.333 19.342,57.333 19.078 C 57.333 18.846,57.221 18.613,57.083 18.560 C 56.946 18.508,56.833 18.360,56.833 18.232 C 56.833 18.104,56.721 18.000,56.583 18.000 C 56.427 18.000,56.333 17.842,56.333 17.578 C 56.333 17.346,56.221 17.113,56.083 17.060 C 55.946 17.008,55.833 16.860,55.833 16.732 C 55.833 16.604,55.721 16.500,55.583 16.500 C 55.427 16.500,55.333 16.342,55.333 16.078 C 55.333 15.846,55.221 15.613,55.083 15.560 C 54.946 15.508,54.833 15.360,54.833 15.232 C 54.833 15.104,54.721 15.000,54.583 15.000 C 54.427 15.000,54.333 14.842,54.333 14.578 C 54.333 14.346,54.221 14.113,54.083 14.060 C 53.946 14.008,53.833 13.858,53.833 13.727 C 53.833 13.596,53.721 13.446,53.583 13.394 C 53.446 13.341,53.333 13.153,53.333 12.977 C 53.333 12.801,53.221 12.613,53.083 12.560 C 52.946 12.508,52.833 12.358,52.833 12.227 C 52.833 12.096,52.728 11.949,52.598 11.899 C 52.469 11.850,52.318 11.627,52.262 11.405 C 52.206 11.182,52.087 11.000,51.997 11.000 C 51.907 11.000,51.833 10.885,51.833 10.745 C 51.833 10.604,51.728 10.449,51.598 10.399 C 51.469 10.350,51.321 10.140,51.269 9.933 C 51.217 9.727,51.004 9.373,50.796 9.147 C 50.587 8.922,50.325 8.534,50.212 8.285 C 50.099 8.037,49.931 7.833,49.837 7.833 C 49.743 7.833,49.667 7.721,49.667 7.583 C 49.667 7.446,49.554 7.333,49.417 7.333 C 49.250 7.333,49.167 7.167,49.167 6.833 C 49.167 6.500,49.083 6.333,48.917 6.333 C 48.779 6.333,48.667 6.221,48.667 6.083 C 48.667 5.946,48.554 5.833,48.417 5.833 C 48.260 5.833,48.167 5.675,48.167 5.411 C 48.167 5.179,48.054 4.946,47.917 4.894 C 47.779 4.841,47.667 4.693,47.667 4.566 C 47.667 4.438,47.554 4.333,47.417 4.333 C 47.250 4.333,47.167 4.167,47.167 3.833 C 47.167 3.500,47.083 3.333,46.917 3.333 C 46.779 3.333,46.667 3.221,46.667 3.083 C 46.667 2.946,46.554 2.833,46.417 2.833 C 46.250 2.833,46.167 2.667,46.167 2.333 C 46.167 2.000,46.083 1.833,45.917 1.833 C 45.779 1.833,45.667 1.721,45.667 1.583 C 45.667 1.446,45.554 1.333,45.417 1.333 C 45.250 1.333,45.167 1.167,45.167 0.833 L 45.167 0.333 43.167 0.333 L 41.167 0.333 41.167 20.500 M81.167 20.500 L 81.167 40.667 89.339 40.667 C 96.449 40.667,97.523 40.634,97.606 40.417 C 97.677 40.234,97.965 40.167,98.684 40.167 C 99.446 40.167,99.667 40.111,99.667 39.917 C 99.667 39.732,99.859 39.667,100.399 39.667 C 100.896 39.667,101.162 39.586,101.227 39.417 C 101.280 39.279,101.515 39.167,101.750 39.167 C 101.985 39.167,102.220 39.054,102.273 38.917 C 102.328 38.774,102.576 38.667,102.851 38.667 C 103.169 38.667,103.333 38.581,103.333 38.417 C 103.333 38.260,103.491 38.167,103.755 38.167 C 103.987 38.167,104.218 38.061,104.267 37.932 C 104.317 37.802,104.533 37.653,104.748 37.599 C 104.963 37.545,105.451 37.200,105.833 36.834 C 106.215 36.467,106.596 36.167,106.680 36.167 C 106.764 36.167,106.833 36.054,106.833 35.917 C 106.833 35.779,106.946 35.667,107.083 35.667 C 107.221 35.667,107.333 35.554,107.333 35.417 C 107.333 35.279,107.446 35.167,107.583 35.167 C 107.722 35.167,107.833 35.019,107.833 34.833 C 107.833 34.648,107.944 34.500,108.083 34.500 C 108.221 34.500,108.333 34.387,108.333 34.250 C 108.333 34.112,108.446 34.000,108.583 34.000 C 108.750 34.000,108.833 33.833,108.833 33.500 C 108.833 33.167,108.917 33.000,109.083 33.000 C 109.221 33.000,109.333 32.887,109.333 32.750 C 109.333 32.612,109.446 32.500,109.583 32.500 C 109.750 32.500,109.833 32.333,109.833 32.000 C 109.833 31.667,109.917 31.500,110.083 31.500 C 110.250 31.500,110.333 31.333,110.333 31.000 C 110.333 30.667,110.417 30.500,110.583 30.500 C 110.769 30.500,110.833 30.306,110.833 29.750 C 110.833 29.194,110.898 29.000,111.083 29.000 C 111.278 29.000,111.333 28.778,111.333 28.000 C 111.333 27.222,111.389 27.000,111.583 27.000 C 111.787 27.000,111.833 26.724,111.833 25.518 C 111.833 24.354,111.887 24.015,112.083 23.940 C 112.294 23.859,112.333 23.310,112.333 20.422 C 112.333 17.491,112.297 17.000,112.083 17.000 C 111.877 17.000,111.833 16.694,111.833 15.245 C 111.833 13.838,111.784 13.470,111.583 13.394 C 111.404 13.325,111.333 13.044,111.333 12.399 C 111.333 11.711,111.275 11.500,111.083 11.500 C 110.909 11.500,110.833 11.324,110.833 10.917 C 110.833 10.509,110.758 10.333,110.583 10.333 C 110.417 10.333,110.333 10.167,110.333 9.833 C 110.333 9.500,110.250 9.333,110.083 9.333 C 109.917 9.333,109.833 9.167,109.833 8.833 C 109.833 8.500,109.750 8.333,109.583 8.333 C 109.417 8.333,109.333 8.167,109.333 7.833 C 109.333 7.500,109.250 7.333,109.083 7.333 C 108.946 7.333,108.833 7.221,108.833 7.083 C 108.833 6.946,108.721 6.833,108.583 6.833 C 108.446 6.833,108.333 6.721,108.333 6.583 C 108.333 6.446,108.221 6.333,108.083 6.333 C 107.940 6.333,107.833 6.183,107.833 5.980 C 107.833 5.523,106.644 4.333,106.186 4.333 C 105.984 4.333,105.833 4.227,105.833 4.083 C 105.833 3.946,105.721 3.833,105.583 3.833 C 105.446 3.833,105.333 3.721,105.333 3.583 C 105.333 3.417,105.167 3.333,104.833 3.333 C 104.500 3.333,104.333 3.250,104.333 3.083 C 104.333 2.946,104.229 2.833,104.101 2.833 C 103.973 2.833,103.826 2.721,103.773 2.583 C 103.717 2.437,103.467 2.333,103.172 2.333 C 102.834 2.333,102.667 2.251,102.667 2.083 C 102.667 1.904,102.483 1.833,102.018 1.833 C 101.595 1.833,101.336 1.746,101.273 1.583 C 101.207 1.412,100.939 1.333,100.422 1.333 C 99.862 1.333,99.667 1.269,99.667 1.083 C 99.667 0.880,99.389 0.833,98.167 0.833 C 96.944 0.833,96.667 0.787,96.667 0.583 C 96.667 0.365,95.694 0.333,88.917 0.333 L 81.167 0.333 81.167 20.500 M118.000 20.500 L 118.000 40.667 129.333 40.667 L 140.667 40.667 140.667 39.167 L 140.667 37.667 131.333 37.667 L 122.000 37.667 122.000 29.585 L 122.000 21.503 130.792 21.460 L 139.583 21.417 139.631 19.708 L 139.678 18.000 130.839 18.000 L 122.000 18.000 122.000 10.917 L 122.000 3.833 131.333 3.833 L 140.667 3.833 140.667 2.083 L 140.667 0.333 129.333 0.333 L 118.000 0.333 118.000 20.500 M148.833 20.500 L 148.833 40.667 150.583 40.667 L 152.333 40.667 152.333 32.083 L 152.333 23.500 156.750 23.500 C 161.551 23.500,161.833 23.556,161.833 24.505 C 161.833 24.691,161.941 24.885,162.073 24.936 C 162.205 24.986,162.361 25.247,162.420 25.514 C 162.478 25.781,162.596 26.000,162.680 26.000 C 162.764 26.000,162.833 26.113,162.833 26.250 C 162.833 26.387,162.946 26.500,163.083 26.500 C 163.241 26.500,163.333 26.659,163.333 26.932 C 163.333 27.224,163.441 27.393,163.667 27.452 C 163.903 27.513,164.000 27.679,164.000 28.019 C 164.000 28.335,164.086 28.500,164.250 28.500 C 164.387 28.500,164.500 28.613,164.500 28.750 C 164.500 28.887,164.612 29.000,164.750 29.000 C 164.917 29.000,165.000 29.167,165.000 29.500 C 165.000 29.833,165.083 30.000,165.250 30.000 C 165.417 30.000,165.500 30.167,165.500 30.500 C 165.500 30.833,165.583 31.000,165.750 31.000 C 165.887 31.000,166.000 31.113,166.000 31.250 C 166.000 31.387,166.112 31.500,166.250 31.500 C 166.417 31.500,166.500 31.667,166.500 32.000 C 166.500 32.333,166.583 32.500,166.750 32.500 C 166.917 32.500,167.000 32.667,167.000 33.000 C 167.000 33.333,167.083 33.500,167.250 33.500 C 167.417 33.500,167.500 33.667,167.500 34.000 C 167.500 34.333,167.583 34.500,167.750 34.500 C 167.889 34.500,168.000 34.648,168.000 34.833 C 168.000 35.019,168.111 35.167,168.250 35.167 C 168.406 35.167,168.500 35.325,168.500 35.589 C 168.500 35.821,168.612 36.054,168.750 36.106 C 168.887 36.159,169.000 36.382,169.000 36.601 C 169.000 36.845,169.097 37.000,169.250 37.000 C 169.389 37.000,169.500 37.148,169.500 37.333 C 169.500 37.519,169.611 37.667,169.750 37.667 C 169.917 37.667,170.000 37.833,170.000 38.167 C 170.000 38.500,170.083 38.667,170.250 38.667 C 170.406 38.667,170.500 38.825,170.500 39.089 C 170.500 39.321,170.612 39.554,170.750 39.606 C 170.887 39.659,171.000 39.807,171.000 39.934 C 171.000 40.062,171.112 40.167,171.250 40.167 C 171.387 40.167,171.500 40.281,171.500 40.422 C 171.500 40.640,171.818 40.670,173.708 40.630 L 175.917 40.583 175.969 40.125 C 176.007 39.798,175.948 39.667,175.761 39.667 C 175.593 39.667,175.500 39.517,175.500 39.245 C 175.500 39.013,175.387 38.780,175.250 38.727 C 175.112 38.674,175.000 38.527,175.000 38.399 C 175.000 38.271,174.887 38.167,174.750 38.167 C 174.583 38.167,174.500 38.000,174.500 37.667 C 174.500 37.333,174.417 37.167,174.250 37.167 C 174.094 37.167,174.000 37.009,174.000 36.745 C 174.000 36.513,173.887 36.280,173.750 36.227 C 173.612 36.174,173.500 36.027,173.500 35.899 C 173.500 35.771,173.387 35.667,173.250 35.667 C 173.083 35.667,173.000 35.500,173.000 35.167 C 173.000 34.833,172.917 34.667,172.750 34.667 C 172.594 34.667,172.500 34.509,172.500 34.245 C 172.500 34.013,172.387 33.780,172.250 33.727 C 172.112 33.674,172.000 33.527,172.000 33.399 C 172.000 33.271,171.887 33.167,171.750 33.167 C 171.583 33.167,171.500 33.000,171.500 32.667 C 171.500 32.333,171.417 32.167,171.250 32.167 C 171.094 32.167,171.000 32.009,171.000 31.745 C 171.000 31.513,170.887 31.280,170.750 31.227 C 170.612 31.174,170.500 31.024,170.500 30.894 C 170.500 30.763,170.387 30.613,170.250 30.560 C 170.112 30.508,170.000 30.283,170.000 30.060 C 170.000 29.838,169.894 29.616,169.765 29.566 C 169.636 29.516,169.484 29.294,169.429 29.071 C 169.373 28.849,169.253 28.667,169.163 28.667 C 169.074 28.667,169.000 28.552,169.000 28.411 C 169.000 28.271,168.887 28.113,168.750 28.060 C 168.612 28.008,168.500 27.783,168.500 27.560 C 168.500 27.338,168.387 27.113,168.250 27.060 C 168.112 27.008,168.000 26.825,168.000 26.655 C 168.000 26.484,167.775 26.115,167.500 25.833 C 167.225 25.552,167.000 25.167,167.000 24.979 C 167.000 24.776,166.864 24.600,166.667 24.548 C 166.431 24.487,166.333 24.321,166.333 23.981 C 166.333 23.665,166.248 23.500,166.083 23.500 C 165.946 23.500,165.833 23.387,165.833 23.250 C 165.833 23.113,165.721 23.000,165.583 23.000 C 165.446 23.000,165.333 22.887,165.333 22.750 C 165.333 22.566,165.526 22.500,166.066 22.500 C 166.563 22.500,166.828 22.420,166.894 22.250 C 166.946 22.113,167.182 22.000,167.417 22.000 C 167.652 22.000,167.887 21.887,167.940 21.750 C 167.992 21.613,168.200 21.500,168.401 21.500 C 168.602 21.500,168.949 21.279,169.174 21.007 C 169.399 20.736,169.676 20.511,169.789 20.507 C 170.098 20.496,171.500 19.095,171.500 18.796 C 171.500 18.653,171.612 18.492,171.750 18.440 C 171.887 18.387,172.000 18.237,172.000 18.106 C 172.000 17.976,172.112 17.826,172.250 17.773 C 172.387 17.720,172.500 17.495,172.500 17.273 C 172.500 17.051,172.612 16.826,172.750 16.773 C 172.913 16.710,173.000 16.451,173.000 16.023 C 173.000 15.595,173.087 15.336,173.250 15.273 C 173.462 15.192,173.500 14.624,173.500 11.583 C 173.500 8.543,173.462 7.975,173.250 7.894 C 173.087 7.831,173.000 7.571,173.000 7.144 C 173.000 6.716,172.913 6.456,172.750 6.394 C 172.612 6.341,172.500 6.116,172.500 5.894 C 172.500 5.671,172.387 5.446,172.250 5.394 C 172.112 5.341,172.000 5.193,172.000 5.066 C 172.000 4.938,171.887 4.833,171.750 4.833 C 171.612 4.833,171.500 4.721,171.500 4.583 C 171.500 4.446,171.392 4.333,171.261 4.333 C 171.124 4.333,171.000 4.137,170.969 3.875 C 170.928 3.515,170.818 3.405,170.458 3.364 C 170.196 3.334,170.000 3.209,170.000 3.072 C 170.000 2.941,169.896 2.833,169.768 2.833 C 169.640 2.833,169.492 2.721,169.440 2.583 C 169.387 2.446,169.154 2.333,168.922 2.333 C 168.658 2.333,168.500 2.240,168.500 2.083 C 168.500 1.919,168.335 1.833,168.018 1.833 C 167.743 1.833,167.494 1.726,167.440 1.583 C 167.374 1.412,167.106 1.333,166.589 1.333 C 166.028 1.333,165.833 1.269,165.833 1.083 C 165.833 0.883,165.583 0.833,164.583 0.833 C 163.583 0.833,163.333 0.783,163.333 0.583 C 163.333 0.365,162.417 0.333,156.083 0.333 L 148.833 0.333 148.833 20.500 M286.667 20.500 L 286.667 40.667 288.667 40.667 L 290.667 40.667 290.667 32.083 L 290.667 23.500 294.917 23.500 C 299.364 23.500,299.833 23.580,299.833 24.333 C 299.833 24.425,299.946 24.500,300.083 24.500 C 300.250 24.500,300.333 24.667,300.333 25.000 C 300.333 25.333,300.417 25.500,300.583 25.500 C 300.750 25.500,300.833 25.667,300.833 26.000 C 300.833 26.333,300.917 26.500,301.083 26.500 C 301.221 26.500,301.333 26.613,301.333 26.750 C 301.333 26.887,301.446 27.000,301.583 27.000 C 301.750 27.000,301.833 27.167,301.833 27.500 C 301.833 27.833,301.917 28.000,302.083 28.000 C 302.250 28.000,302.333 28.167,302.333 28.500 C 302.333 28.833,302.417 29.000,302.583 29.000 C 302.750 29.000,302.833 29.167,302.833 29.500 C 302.833 29.833,302.917 30.000,303.083 30.000 C 303.221 30.000,303.333 30.113,303.333 30.250 C 303.333 30.387,303.446 30.500,303.583 30.500 C 303.750 30.500,303.833 30.667,303.833 31.000 C 303.833 31.333,303.917 31.500,304.083 31.500 C 304.240 31.500,304.333 31.658,304.333 31.922 C 304.333 32.154,304.446 32.387,304.583 32.440 C 304.721 32.492,304.833 32.640,304.833 32.768 C 304.833 32.896,304.946 33.000,305.083 33.000 C 305.250 33.000,305.333 33.167,305.333 33.500 C 305.333 33.833,305.417 34.000,305.583 34.000 C 305.751 34.000,305.833 34.167,305.833 34.505 C 305.833 34.801,305.937 35.050,306.083 35.106 C 306.221 35.159,306.333 35.307,306.333 35.434 C 306.333 35.562,306.446 35.667,306.583 35.667 C 306.740 35.667,306.833 35.825,306.833 36.089 C 306.833 36.321,306.946 36.554,307.083 36.606 C 307.221 36.659,307.333 36.884,307.333 37.106 C 307.333 37.329,307.446 37.554,307.583 37.606 C 307.721 37.659,307.833 37.839,307.833 38.006 C 307.833 38.173,307.946 38.422,308.083 38.560 C 308.221 38.697,308.333 38.890,308.333 38.988 C 308.333 39.086,308.446 39.167,308.583 39.167 C 308.740 39.167,308.833 39.325,308.833 39.589 C 308.833 39.821,308.946 40.054,309.083 40.106 C 309.221 40.159,309.333 40.307,309.333 40.434 C 309.333 40.621,309.771 40.667,311.583 40.667 L 313.833 40.667 313.833 40.167 C 313.833 39.833,313.750 39.667,313.583 39.667 C 313.417 39.667,313.333 39.500,313.333 39.167 C 313.333 38.833,313.250 38.667,313.083 38.667 C 312.917 38.667,312.833 38.500,312.833 38.167 C 312.833 37.833,312.750 37.667,312.583 37.667 C 312.446 37.667,312.333 37.554,312.333 37.417 C 312.333 37.279,312.221 37.167,312.083 37.167 C 311.917 37.167,311.833 37.000,311.833 36.667 C 311.833 36.333,311.750 36.167,311.583 36.167 C 311.417 36.167,311.333 36.000,311.333 35.667 C 311.333 35.333,311.250 35.167,311.083 35.167 C 310.946 35.167,310.833 35.054,310.833 34.917 C 310.833 34.779,310.721 34.667,310.583 34.667 C 310.417 34.667,310.333 34.500,310.333 34.167 C 310.333 33.833,310.250 33.667,310.083 33.667 C 309.917 33.667,309.833 33.500,309.833 33.167 C 309.833 32.833,309.750 32.667,309.583 32.667 C 309.446 32.667,309.333 32.554,309.333 32.417 C 309.333 32.279,309.221 32.167,309.083 32.167 C 308.916 32.167,308.833 31.999,308.833 31.661 C 308.833 31.366,308.729 31.116,308.583 31.060 C 308.446 31.008,308.333 30.783,308.333 30.560 C 308.333 30.338,308.221 30.113,308.083 30.060 C 307.946 30.008,307.833 29.785,307.833 29.566 C 307.833 29.322,307.736 29.167,307.583 29.167 C 307.446 29.167,307.333 29.052,307.333 28.911 C 307.333 28.771,307.221 28.613,307.083 28.560 C 306.946 28.508,306.833 28.283,306.833 28.060 C 306.833 27.838,306.721 27.613,306.583 27.560 C 306.446 27.508,306.333 27.328,306.333 27.161 C 306.333 26.994,306.221 26.745,306.083 26.607 C 305.946 26.470,305.833 26.277,305.833 26.179 C 305.833 26.080,305.721 26.000,305.583 26.000 C 305.427 26.000,305.333 25.842,305.333 25.578 C 305.333 25.346,305.221 25.113,305.083 25.060 C 304.946 25.008,304.833 24.783,304.833 24.560 C 304.833 24.338,304.721 24.113,304.583 24.060 C 304.446 24.008,304.333 23.860,304.333 23.732 C 304.333 23.604,304.221 23.500,304.083 23.500 C 303.917 23.500,303.833 23.333,303.833 23.000 C 303.833 22.556,303.889 22.500,304.333 22.500 C 304.667 22.500,304.833 22.417,304.833 22.250 C 304.833 22.083,305.000 22.000,305.333 22.000 C 305.667 22.000,305.833 21.917,305.833 21.750 C 305.833 21.583,306.000 21.500,306.333 21.500 C 306.667 21.500,306.833 21.417,306.833 21.250 C 306.833 21.107,306.983 21.000,307.185 21.000 C 307.549 21.000,309.333 19.354,309.333 19.018 C 309.333 18.916,309.446 18.833,309.583 18.833 C 309.739 18.833,309.833 18.676,309.833 18.417 C 309.833 18.157,309.928 18.000,310.083 18.000 C 310.258 18.000,310.333 17.824,310.333 17.417 C 310.333 17.009,310.409 16.833,310.583 16.833 C 310.750 16.833,310.833 16.667,310.833 16.333 C 310.833 16.000,310.917 15.833,311.083 15.833 C 311.299 15.833,311.333 15.259,311.333 11.661 C 311.333 8.107,311.296 7.475,311.083 7.394 C 310.941 7.339,310.833 7.090,310.833 6.816 C 310.833 6.498,310.748 6.333,310.583 6.333 C 310.417 6.333,310.333 6.167,310.333 5.833 C 310.333 5.500,310.250 5.333,310.083 5.333 C 309.927 5.333,309.833 5.175,309.833 4.911 C 309.833 4.679,309.721 4.446,309.583 4.394 C 309.446 4.341,309.333 4.193,309.333 4.066 C 309.333 3.938,309.221 3.833,309.083 3.833 C 308.946 3.833,308.833 3.721,308.833 3.583 C 308.833 3.446,308.729 3.333,308.601 3.333 C 308.473 3.333,308.326 3.221,308.273 3.083 C 308.220 2.946,307.987 2.833,307.755 2.833 C 307.491 2.833,307.333 2.740,307.333 2.583 C 307.333 2.446,307.229 2.333,307.101 2.333 C 306.973 2.333,306.826 2.221,306.773 2.083 C 306.710 1.918,306.449 1.833,306.005 1.833 C 305.519 1.833,305.333 1.764,305.333 1.583 C 305.333 1.398,305.139 1.333,304.583 1.333 C 304.028 1.333,303.833 1.269,303.833 1.083 C 303.833 0.884,303.585 0.833,302.601 0.833 C 301.660 0.833,301.346 0.774,301.273 0.583 C 301.190 0.366,300.217 0.333,293.922 0.333 L 286.667 0.333 286.667 20.500 M319.500 20.500 L 319.500 40.667 330.833 40.667 L 342.167 40.667 342.167 39.167 L 342.167 37.667 332.583 37.667 L 323.000 37.667 323.000 29.583 L 323.000 21.500 331.833 21.500 L 340.667 21.500 340.667 19.750 L 340.667 18.000 331.833 18.000 L 323.000 18.000 323.000 10.918 L 323.000 3.836 332.542 3.793 L 342.083 3.750 342.131 2.042 L 342.178 0.333 330.839 0.333 L 319.500 0.333 319.500 20.500 M362.333 21.232 C 362.333 39.655,362.304 42.142,362.083 42.227 C 361.904 42.296,361.833 42.577,361.833 43.227 C 361.833 43.877,361.763 44.158,361.583 44.227 C 361.446 44.280,361.333 44.513,361.333 44.745 C 361.333 45.009,361.240 45.167,361.083 45.167 C 360.946 45.167,360.833 45.242,360.833 45.333 C 360.833 45.710,359.690 46.472,358.708 46.750 C 358.502 46.808,358.333 46.926,358.333 47.011 C 358.333 47.299,353.384 47.206,353.273 46.917 C 353.210 46.752,352.949 46.667,352.505 46.667 L 351.833 46.667 351.833 48.417 L 351.833 50.167 352.333 50.167 C 352.667 50.167,352.833 50.250,352.833 50.417 C 352.833 50.631,353.333 50.667,356.333 50.667 C 359.333 50.667,359.833 50.631,359.833 50.417 C 359.833 50.231,360.028 50.167,360.583 50.167 C 361.139 50.167,361.333 50.102,361.333 49.917 C 361.333 49.750,361.500 49.667,361.833 49.667 C 362.167 49.667,362.333 49.583,362.333 49.417 C 362.333 49.279,362.446 49.167,362.583 49.167 C 362.721 49.167,362.833 49.054,362.833 48.917 C 362.833 48.750,363.000 48.667,363.333 48.667 C 363.778 48.667,363.833 48.611,363.833 48.167 C 363.833 47.833,363.917 47.667,364.083 47.667 C 364.221 47.667,364.333 47.554,364.333 47.417 C 364.333 47.279,364.446 47.167,364.583 47.167 C 364.750 47.167,364.833 47.000,364.833 46.667 C 364.833 46.333,364.917 46.167,365.083 46.167 C 365.269 46.167,365.333 45.972,365.333 45.417 C 365.333 44.861,365.398 44.667,365.583 44.667 C 365.804 44.667,365.833 42.093,365.833 22.500 L 365.833 0.333 364.083 0.333 L 362.333 0.333 362.333 21.232 M265.000 3.583 C 265.000 3.778,265.222 3.833,266.000 3.833 C 266.778 3.833,267.000 3.889,267.000 4.083 C 267.000 4.248,267.165 4.333,267.482 4.333 C 267.757 4.333,268.006 4.441,268.060 4.583 C 268.113 4.721,268.338 4.833,268.560 4.833 C 268.783 4.833,269.008 4.946,269.060 5.083 C 269.113 5.221,269.346 5.333,269.578 5.333 C 269.842 5.333,270.000 5.427,270.000 5.583 C 270.000 5.721,270.104 5.833,270.232 5.833 C 270.360 5.833,270.508 5.946,270.560 6.083 C 270.613 6.221,270.846 6.333,271.078 6.333 C 271.342 6.333,271.500 6.427,271.500 6.583 C 271.500 6.721,271.612 6.833,271.750 6.833 C 271.887 6.833,272.000 6.946,272.000 7.083 C 272.000 7.221,272.112 7.333,272.250 7.333 C 272.406 7.333,272.500 7.491,272.500 7.755 C 272.500 7.987,272.612 8.220,272.750 8.273 C 272.887 8.326,273.000 8.473,273.000 8.601 C 273.000 8.729,273.112 8.833,273.250 8.833 C 273.406 8.833,273.500 8.991,273.500 9.255 C 273.500 9.487,273.612 9.720,273.750 9.773 C 273.887 9.826,274.000 9.973,274.000 10.101 C 274.000 10.229,274.112 10.333,274.250 10.333 C 274.431 10.333,274.500 10.519,274.500 11.005 C 274.500 11.449,274.585 11.710,274.750 11.773 C 274.893 11.828,275.000 12.076,275.000 12.351 C 275.000 12.669,275.085 12.833,275.250 12.833 C 275.444 12.833,275.500 13.056,275.500 13.833 C 275.500 14.611,275.556 14.833,275.750 14.833 C 275.960 14.833,276.000 15.195,276.000 17.089 C 276.000 18.939,276.045 19.361,276.250 19.440 C 276.433 19.510,276.500 19.799,276.500 20.518 C 276.500 21.280,276.444 21.500,276.250 21.500 C 276.040 21.500,276.000 21.861,276.000 23.750 C 276.000 25.639,275.960 26.000,275.750 26.000 C 275.556 26.000,275.500 26.222,275.500 27.000 C 275.500 27.778,275.444 28.000,275.250 28.000 C 275.077 28.000,275.000 28.174,275.000 28.566 C 275.000 28.914,274.904 29.168,274.750 29.227 C 274.595 29.286,274.500 29.540,274.500 29.894 C 274.500 30.247,274.405 30.501,274.250 30.560 C 274.104 30.616,274.000 30.866,274.000 31.161 C 274.000 31.499,273.917 31.667,273.750 31.667 C 273.612 31.667,273.500 31.779,273.500 31.917 C 273.500 32.054,273.387 32.167,273.250 32.167 C 273.083 32.167,273.000 32.333,273.000 32.667 C 273.000 33.000,272.917 33.167,272.750 33.167 C 272.612 33.167,272.500 33.279,272.500 33.417 C 272.500 33.554,272.387 33.667,272.250 33.667 C 272.112 33.667,272.000 33.779,272.000 33.917 C 272.000 34.054,271.887 34.167,271.750 34.167 C 271.612 34.167,271.500 34.279,271.500 34.417 C 271.500 34.554,271.387 34.667,271.250 34.667 C 271.112 34.667,271.000 34.779,271.000 34.917 C 271.000 35.083,270.833 35.167,270.500 35.167 C 270.167 35.167,270.000 35.250,270.000 35.417 C 270.000 35.554,269.887 35.667,269.750 35.667 C 269.612 35.667,269.500 35.779,269.500 35.917 C 269.500 36.083,269.333 36.167,269.000 36.167 C 268.667 36.167,268.500 36.250,268.500 36.417 C 268.500 36.583,268.333 36.667,268.000 36.667 C 267.667 36.667,267.500 36.750,267.500 36.917 C 267.500 37.111,267.278 37.167,266.500 37.167 C 265.722 37.167,265.500 37.222,265.500 37.417 C 265.500 37.631,265.019 37.667,262.167 37.667 C 259.315 37.667,258.833 37.631,258.833 37.417 C 258.833 37.222,258.611 37.167,257.833 37.167 C 257.056 37.167,256.833 37.111,256.833 36.917 C 256.833 36.750,256.667 36.667,256.333 36.667 C 256.000 36.667,255.833 36.583,255.833 36.417 C 255.833 36.250,255.667 36.167,255.333 36.167 C 255.000 36.167,254.833 36.083,254.833 35.917 C 254.833 35.779,254.729 35.667,254.601 35.667 C 254.473 35.667,254.326 35.554,254.273 35.417 C 254.220 35.279,253.987 35.167,253.755 35.167 C 253.491 35.167,253.333 35.073,253.333 34.917 C 253.333 34.779,253.221 34.667,253.083 34.667 C 252.946 34.667,252.833 34.554,252.833 34.417 C 252.833 34.279,252.721 34.167,252.583 34.167 C 252.446 34.167,252.333 34.054,252.333 33.917 C 252.333 33.779,252.221 33.667,252.083 33.667 C 251.946 33.667,251.833 33.554,251.833 33.417 C 251.833 33.279,251.721 33.167,251.583 33.167 C 251.446 33.167,251.333 33.022,251.333 32.845 C 251.333 32.668,251.221 32.411,251.083 32.274 C 250.946 32.136,250.833 31.943,250.833 31.845 C 250.833 31.747,250.721 31.667,250.583 31.667 C 250.415 31.667,250.333 31.498,250.333 31.151 C 250.333 30.776,250.243 30.612,250.000 30.548 C 249.764 30.487,249.667 30.321,249.667 29.981 C 249.667 29.665,249.581 29.500,249.417 29.500 C 249.231 29.500,249.167 29.306,249.167 28.750 C 249.167 28.194,249.102 28.000,248.917 28.000 C 248.722 28.000,248.667 27.778,248.667 27.000 C 248.667 26.222,248.611 26.000,248.417 26.000 C 248.210 26.000,248.167 25.694,248.167 24.250 C 248.167 22.806,248.123 22.500,247.917 22.500 C 247.708 22.500,247.667 22.169,247.667 20.518 C 247.667 18.910,247.714 18.518,247.917 18.440 C 248.117 18.363,248.167 17.995,248.167 16.589 C 248.167 15.139,248.210 14.833,248.417 14.833 C 248.611 14.833,248.667 14.611,248.667 13.833 C 248.667 13.056,248.722 12.833,248.917 12.833 C 249.083 12.833,249.167 12.667,249.167 12.333 C 249.167 12.000,249.250 11.833,249.417 11.833 C 249.602 11.833,249.667 11.639,249.667 11.083 C 249.667 10.444,249.716 10.333,250.000 10.333 C 250.185 10.333,250.333 10.222,250.333 10.083 C 250.333 9.946,250.400 9.833,250.482 9.833 C 250.564 9.833,250.679 9.639,250.739 9.402 C 250.798 9.165,251.026 8.805,251.245 8.602 C 251.464 8.399,251.694 8.031,251.757 7.783 C 251.819 7.536,251.974 7.333,252.101 7.333 C 252.229 7.333,252.333 7.221,252.333 7.083 C 252.333 6.946,252.446 6.833,252.583 6.833 C 252.721 6.833,252.833 6.721,252.833 6.583 C 252.833 6.446,252.981 6.333,253.161 6.333 C 253.341 6.333,253.719 6.108,254.000 5.833 C 254.281 5.558,254.612 5.333,254.735 5.333 C 254.858 5.333,255.053 5.221,255.167 5.083 C 255.281 4.946,255.544 4.833,255.753 4.833 C 255.961 4.833,256.174 4.721,256.227 4.583 C 256.283 4.437,256.533 4.333,256.828 4.333 C 257.166 4.333,257.333 4.251,257.333 4.083 C 257.333 3.889,257.556 3.833,258.333 3.833 C 259.111 3.833,259.333 3.778,259.333 3.583 C 259.333 3.371,259.759 3.333,262.167 3.333 C 264.574 3.333,265.000 3.371,265.000 3.583 M95.227 4.083 C 95.300 4.275,95.616 4.333,96.578 4.333 C 97.583 4.333,97.833 4.383,97.833 4.583 C 97.833 4.769,98.028 4.833,98.583 4.833 C 99.139 4.833,99.333 4.898,99.333 5.083 C 99.333 5.250,99.500 5.333,99.833 5.333 C 100.167 5.333,100.333 5.417,100.333 5.583 C 100.333 5.750,100.500 5.833,100.833 5.833 C 101.167 5.833,101.333 5.917,101.333 6.083 C 101.333 6.250,101.500 6.333,101.833 6.333 C 102.167 6.333,102.333 6.417,102.333 6.583 C 102.333 6.721,102.446 6.833,102.583 6.833 C 102.721 6.833,102.833 6.946,102.833 7.083 C 102.833 7.221,102.946 7.333,103.083 7.333 C 103.221 7.333,103.333 7.446,103.333 7.583 C 103.333 7.721,103.408 7.833,103.500 7.833 C 103.716 7.833,104.333 8.451,104.333 8.667 C 104.333 8.758,104.446 8.833,104.583 8.833 C 104.721 8.833,104.833 8.946,104.833 9.083 C 104.833 9.221,104.946 9.333,105.083 9.333 C 105.221 9.333,105.333 9.446,105.333 9.583 C 105.333 9.721,105.446 9.833,105.583 9.833 C 105.750 9.833,105.833 10.000,105.833 10.333 C 105.833 10.667,105.917 10.833,106.083 10.833 C 106.250 10.833,106.333 11.000,106.333 11.333 C 106.333 11.667,106.417 11.833,106.583 11.833 C 106.764 11.833,106.833 12.019,106.833 12.505 C 106.833 12.949,106.918 13.210,107.083 13.273 C 107.253 13.338,107.333 13.604,107.333 14.101 C 107.333 14.641,107.399 14.833,107.583 14.833 C 107.786 14.833,107.833 15.102,107.833 16.255 C 107.833 17.365,107.888 17.698,108.083 17.773 C 108.291 17.853,108.333 18.308,108.333 20.434 C 108.333 22.604,108.295 23.000,108.083 23.000 C 107.880 23.000,107.833 23.276,107.833 24.482 C 107.833 25.646,107.780 25.985,107.583 26.060 C 107.420 26.123,107.333 26.383,107.333 26.810 C 107.333 27.238,107.247 27.498,107.083 27.560 C 106.920 27.623,106.833 27.883,106.833 28.310 C 106.833 28.738,106.747 28.998,106.583 29.060 C 106.446 29.113,106.333 29.338,106.333 29.560 C 106.333 29.783,106.221 30.008,106.083 30.060 C 105.946 30.113,105.833 30.271,105.833 30.411 C 105.833 30.552,105.721 30.667,105.583 30.667 C 105.417 30.667,105.333 30.833,105.333 31.167 C 105.333 31.500,105.250 31.667,105.083 31.667 C 104.946 31.667,104.833 31.779,104.833 31.917 C 104.833 32.054,104.721 32.167,104.583 32.167 C 104.446 32.167,104.333 32.279,104.333 32.417 C 104.333 32.554,104.221 32.667,104.083 32.667 C 103.946 32.667,103.833 32.779,103.833 32.917 C 103.833 33.054,103.721 33.167,103.583 33.167 C 103.446 33.167,103.333 33.279,103.333 33.417 C 103.333 33.554,103.221 33.667,103.083 33.667 C 102.946 33.667,102.833 33.779,102.833 33.917 C 102.833 34.054,102.721 34.167,102.583 34.167 C 102.446 34.167,102.333 34.279,102.333 34.417 C 102.333 34.583,102.167 34.667,101.833 34.667 C 101.500 34.667,101.333 34.750,101.333 34.917 C 101.333 35.083,101.167 35.167,100.833 35.167 C 100.500 35.167,100.333 35.250,100.333 35.417 C 100.333 35.583,100.167 35.667,99.833 35.667 C 99.500 35.667,99.333 35.750,99.333 35.917 C 99.333 36.102,99.139 36.167,98.583 36.167 C 98.028 36.167,97.833 36.231,97.833 36.417 C 97.833 36.606,97.630 36.667,97.000 36.667 C 96.370 36.667,96.167 36.728,96.167 36.917 C 96.167 37.129,95.750 37.167,93.417 37.167 C 91.083 37.167,90.667 37.205,90.667 37.417 C 90.667 37.629,90.250 37.667,87.917 37.667 L 85.167 37.667 85.167 20.750 L 85.167 3.833 90.149 3.833 C 94.424 3.833,95.145 3.869,95.227 4.083 M161.940 4.083 C 162.013 4.274,162.326 4.333,163.268 4.333 C 164.252 4.333,164.500 4.384,164.500 4.583 C 164.500 4.748,164.665 4.833,164.982 4.833 C 165.257 4.833,165.506 4.941,165.560 5.083 C 165.613 5.221,165.846 5.333,166.078 5.333 C 166.342 5.333,166.500 5.427,166.500 5.583 C 166.500 5.721,166.604 5.833,166.732 5.833 C 166.860 5.833,167.008 5.946,167.060 6.083 C 167.113 6.221,167.346 6.333,167.578 6.333 C 167.918 6.333,168.000 6.415,168.000 6.755 C 168.000 6.987,168.112 7.220,168.250 7.273 C 168.387 7.326,168.500 7.473,168.500 7.601 C 168.500 7.729,168.612 7.833,168.750 7.833 C 168.935 7.833,169.000 8.028,169.000 8.583 C 169.000 9.139,169.065 9.333,169.250 9.333 C 169.461 9.333,169.500 9.731,169.500 11.917 C 169.500 14.102,169.461 14.500,169.250 14.500 C 169.065 14.500,169.000 14.694,169.000 15.250 C 169.000 15.806,168.935 16.000,168.750 16.000 C 168.612 16.000,168.500 16.112,168.500 16.250 C 168.500 16.387,168.387 16.500,168.250 16.500 C 168.112 16.500,168.000 16.612,168.000 16.750 C 168.000 16.887,167.887 17.000,167.750 17.000 C 167.612 17.000,167.500 17.112,167.500 17.250 C 167.500 17.387,167.387 17.500,167.250 17.500 C 167.112 17.500,167.000 17.612,167.000 17.750 C 167.000 17.887,166.887 18.000,166.750 18.000 C 166.612 18.000,166.500 18.112,166.500 18.250 C 166.500 18.387,166.387 18.500,166.250 18.500 C 166.112 18.500,166.000 18.612,166.000 18.750 C 166.000 18.917,165.833 19.000,165.500 19.000 C 165.167 19.000,165.000 19.083,165.000 19.250 C 165.000 19.435,164.805 19.500,164.245 19.500 C 163.727 19.500,163.459 19.579,163.394 19.750 C 163.315 19.954,162.905 20.000,161.144 20.000 C 159.383 20.000,158.972 20.046,158.894 20.250 C 158.813 20.460,158.285 20.500,155.566 20.500 L 152.333 20.500 152.333 12.167 L 152.333 3.833 157.089 3.833 C 161.162 3.833,161.858 3.869,161.940 4.083 M299.894 4.083 C 299.966 4.273,300.273 4.333,301.161 4.333 C 302.092 4.333,302.333 4.385,302.333 4.583 C 302.333 4.769,302.528 4.833,303.083 4.833 C 303.639 4.833,303.833 4.898,303.833 5.083 C 303.833 5.221,303.938 5.333,304.066 5.333 C 304.193 5.333,304.341 5.446,304.394 5.583 C 304.446 5.721,304.679 5.833,304.911 5.833 C 305.175 5.833,305.333 5.927,305.333 6.083 C 305.333 6.221,305.446 6.333,305.583 6.333 C 305.721 6.333,305.833 6.446,305.833 6.583 C 305.833 6.721,305.946 6.833,306.083 6.833 C 306.250 6.833,306.333 7.000,306.333 7.333 C 306.333 7.667,306.417 7.833,306.583 7.833 C 306.750 7.833,306.833 8.000,306.833 8.333 C 306.833 8.667,306.917 8.833,307.083 8.833 C 307.283 8.833,307.333 9.083,307.333 10.083 C 307.333 11.083,307.383 11.333,307.583 11.333 C 307.748 11.333,307.833 11.498,307.833 11.816 C 307.833 12.090,307.726 12.339,307.583 12.394 C 307.392 12.467,307.333 12.783,307.333 13.745 C 307.333 14.749,307.283 15.000,307.083 15.000 C 306.917 15.000,306.833 15.167,306.833 15.500 C 306.833 15.833,306.750 16.000,306.583 16.000 C 306.417 16.000,306.333 16.167,306.333 16.500 C 306.333 16.833,306.250 17.000,306.083 17.000 C 305.946 17.000,305.833 17.112,305.833 17.250 C 305.833 17.387,305.721 17.500,305.583 17.500 C 305.446 17.500,305.333 17.612,305.333 17.750 C 305.333 17.887,305.221 18.000,305.083 18.000 C 304.946 18.000,304.833 18.112,304.833 18.250 C 304.833 18.417,304.667 18.500,304.333 18.500 C 304.000 18.500,303.833 18.583,303.833 18.750 C 303.833 18.917,303.667 19.000,303.333 19.000 C 303.000 19.000,302.833 19.083,302.833 19.250 C 302.833 19.435,302.639 19.500,302.083 19.500 C 301.528 19.500,301.333 19.565,301.333 19.750 C 301.333 19.958,301.000 20.000,299.333 20.000 C 297.667 20.000,297.333 20.042,297.333 20.250 C 297.333 20.464,296.852 20.500,294.000 20.500 L 290.667 20.500 290.667 12.167 L 290.667 3.833 295.232 3.833 C 299.137 3.833,299.812 3.870,299.894 4.083 M349.833 35.417 C 349.833 35.554,349.721 35.667,349.583 35.667 C 349.446 35.667,349.333 35.779,349.333 35.917 C 349.333 36.054,349.221 36.167,349.083 36.167 C 348.875 36.167,348.833 36.500,348.833 38.167 C 348.833 39.833,348.875 40.167,349.083 40.167 C 349.250 40.167,349.333 40.333,349.333 40.667 L 349.333 41.167 351.333 41.167 C 353.000 41.167,353.333 41.125,353.333 40.917 C 353.333 40.779,353.446 40.667,353.583 40.667 C 353.748 40.667,353.833 40.502,353.833 40.187 C 353.833 39.923,353.946 39.614,354.083 39.500 C 354.433 39.210,354.441 37.167,354.093 37.167 C 353.929 37.167,353.836 36.941,353.801 36.458 C 353.755 35.825,353.702 35.744,353.292 35.697 C 353.029 35.667,352.833 35.542,352.833 35.406 C 352.833 35.216,352.525 35.167,351.333 35.167 C 350.111 35.167,349.833 35.213,349.833 35.417 M1.042 56.957 C -4.608 57.278,8.357 57.333,88.792 57.334 C 278.339 57.335,399.429 57.423,399.708 57.559 C 399.935 57.671,400.000 57.630,400.000 57.376 C 400.000 57.084,399.841 57.039,398.474 56.942 C 396.933 56.832,2.971 56.847,1.042 56.957 M399.541 58.207 C 399.579 58.321,399.510 58.513,399.388 58.635 C 399.215 58.808,399.167 59.801,399.167 63.159 L 399.167 67.461 398.792 67.562 C 398.418 67.662,257.301 67.748,88.625 67.749 L -0.000 67.750 -0.000 68.708 L 0.000 69.667 200.000 69.667 L 400.000 69.667 400.000 63.934 C 400.000 58.859,399.970 58.191,399.736 58.101 C 399.569 58.037,399.498 58.076,399.541 58.207 " stroke="none" fill="#041424" fill-rule="evenodd"></path><path id="path4" d="M176.630 62.408 L 176.676 67.491 176.296 67.583 C 176.088 67.633,136.542 67.654,88.417 67.629 L 0.917 67.583 0.833 63.417 C 0.751 59.310,0.635 58.500,0.127 58.500 C 0.057 58.500,0.000 60.553,0.000 63.062 L 0.000 67.623 0.625 67.726 C 1.713 67.906,176.267 67.850,176.742 67.670 L 177.172 67.506 177.127 62.464 C 177.090 58.138,177.048 57.414,176.833 57.373 C 176.615 57.331,176.589 57.963,176.630 62.408 " stroke="none" fill="#043c5c" fill-rule="evenodd"></path></g></svg>