<svg version="1.1" viewBox="0 0 400 388.6666666666667" xmlns="http://www.w3.org/2000/svg" xmlns:xlink="http://www.w3.org/1999/xlink" ><g><path d="M192.420 90.177 C 192.420 90.395,192.570 90.573,192.753 90.573 C 192.937 90.573,213.500 110.952,238.450 135.860 L 283.813 181.147 290.400 181.147 L 296.987 181.147 296.974 150.146 C 296.962 124.003,296.873 118.992,296.404 118.173 C 295.953 117.384,295.846 114.698,295.835 103.897 L 295.821 90.593 282.313 90.386 C 252.057 89.922,192.420 89.784,192.420 90.177 M26.433 129.462 C 26.433 129.876,27.006 130.669,27.910 131.505 C 28.187 131.763,28.625 132.204,28.882 132.486 C 29.139 132.768,29.768 133.380,30.279 133.846 C 30.791 134.312,31.403 134.921,31.640 135.198 C 31.876 135.476,32.297 135.913,32.574 136.170 C 32.852 136.427,33.289 136.868,33.546 137.150 C 33.803 137.432,34.427 138.045,34.933 138.511 C 35.439 138.977,36.488 140.027,37.265 140.845 C 38.043 141.662,39.100 142.711,39.616 143.177 C 40.132 143.642,40.919 144.445,41.365 144.960 C 41.812 145.475,42.854 146.524,43.681 147.292 C 44.509 148.060,45.558 149.104,46.014 149.613 C 46.469 150.122,47.492 151.172,48.288 151.946 C 49.901 153.515,49.775 153.391,52.458 156.074 C 53.527 157.143,54.576 158.192,54.790 158.406 C 55.972 159.588,58.822 162.438,59.562 163.178 C 59.717 163.333,60.767 164.383,61.895 165.511 C 63.023 166.639,64.121 167.737,64.334 167.950 C 64.548 168.164,65.598 169.214,66.667 170.283 C 67.736 171.352,68.785 172.401,68.999 172.615 C 69.213 172.829,70.262 173.878,71.331 174.947 C 72.400 176.016,73.450 177.066,73.664 177.280 C 73.878 177.494,74.879 178.495,75.889 179.505 C 76.899 180.515,77.900 181.516,78.114 181.730 C 78.328 181.944,79.425 183.042,80.553 184.170 C 81.682 185.298,82.731 186.347,82.886 186.502 C 83.041 186.657,84.042 187.658,85.111 188.727 C 86.180 189.796,87.229 190.845,87.443 191.059 C 87.657 191.273,88.731 192.347,89.829 193.445 C 90.928 194.544,92.001 195.618,92.215 195.831 C 92.429 196.045,93.479 197.095,94.548 198.164 C 95.617 199.233,96.666 200.282,96.880 200.496 C 97.094 200.710,98.143 201.759,99.212 202.828 C 101.960 205.576,101.949 205.566,102.897 206.522 C 103.367 206.997,103.980 207.596,104.257 207.853 C 104.535 208.110,104.976 208.547,105.237 208.825 C 105.498 209.102,105.936 209.553,106.209 209.826 C 106.482 210.099,107.091 210.711,107.561 211.187 C 108.032 211.662,108.644 212.261,108.922 212.518 C 109.200 212.775,109.640 213.212,109.902 213.490 C 110.163 213.767,110.600 214.218,110.874 214.491 C 111.147 214.764,111.755 215.376,112.226 215.851 C 112.697 216.326,113.309 216.926,113.587 217.183 C 113.864 217.440,114.305 217.877,114.566 218.154 C 114.828 218.432,115.265 218.882,115.538 219.155 C 115.811 219.428,116.420 220.041,116.891 220.516 C 117.362 220.991,117.974 221.590,118.251 221.847 C 118.529 222.104,118.970 222.542,119.231 222.819 C 119.493 223.097,119.881 223.499,120.095 223.712 C 120.309 223.926,120.918 224.538,121.448 225.073 C 121.978 225.607,122.639 226.255,122.916 226.512 C 123.194 226.769,123.635 227.206,123.896 227.484 C 124.157 227.761,124.555 228.163,124.780 228.377 C 125.005 228.591,125.491 229.136,125.860 229.588 C 127.821 231.992,128.371 232.070,143.337 232.070 L 157.046 232.070 157.046 180.822 L 157.046 129.573 136.346 129.316 C 102.465 128.894,26.433 128.996,26.433 129.462 M190.476 258.892 C 190.476 259.106,190.695 259.289,190.962 259.299 C 191.229 259.308,217.600 285.368,249.563 317.209 L 307.677 375.101 307.776 335.950 L 307.875 296.800 289.312 278.209 C 279.102 267.985,270.276 259.368,269.699 259.061 C 268.402 258.372,190.476 258.206,190.476 258.892 " stroke="none" fill="#fce28e" fill-rule="evenodd"></path><path id="path1" d="M311.370 133.844 C 311.370 133.911,311.939 134.479,312.634 135.107 L 313.897 136.249 312.755 134.985 C 311.691 133.808,311.370 133.543,311.370 133.844 M316.035 138.508 C 316.035 138.575,316.603 139.144,317.298 139.772 L 318.562 140.914 317.420 139.650 C 316.356 138.473,316.035 138.208,316.035 138.508 M320.700 143.173 C 320.700 143.240,321.268 143.809,321.963 144.437 L 323.226 145.578 322.085 144.315 C 321.020 143.137,320.700 142.873,320.700 143.173 M325.364 147.838 C 325.364 147.905,325.933 148.473,326.628 149.101 L 327.891 150.243 326.749 148.980 C 325.685 147.802,325.364 147.538,325.364 147.838 M330.029 152.503 C 330.029 152.569,330.598 153.138,331.293 153.766 L 332.556 154.908 331.414 153.644 C 330.350 152.467,330.029 152.202,330.029 152.503 M334.694 157.167 C 334.694 157.234,335.262 157.803,335.957 158.431 L 337.221 159.572 336.079 158.309 C 335.015 157.131,334.694 156.867,334.694 157.167 M339.359 161.832 C 339.359 161.899,339.927 162.467,340.622 163.095 L 341.885 164.237 340.744 162.974 C 339.679 161.796,339.359 161.532,339.359 161.832 M295.988 181.524 C 295.781 181.731,293.190 181.950,290.230 182.010 L 284.849 182.119 302.610 199.891 C 312.379 209.667,320.260 217.844,320.124 218.064 C 319.956 218.335,305.285 218.465,274.807 218.465 C 243.803 218.465,229.738 218.591,229.738 218.870 C 229.738 219.274,230.278 220.031,231.196 220.913 C 231.464 221.170,232.514 222.207,233.529 223.218 C 234.544 224.229,235.549 225.227,235.763 225.436 C 235.977 225.646,237.026 226.689,238.095 227.755 C 239.164 228.821,240.270 229.922,240.553 230.202 C 241.726 231.359,244.982 234.625,245.322 234.985 C 251.483 241.510,268.983 258.406,270.097 258.905 C 271.471 259.520,294.950 282.772,314.848 303.223 C 318.792 307.276,322.247 310.593,322.525 310.593 C 322.940 310.593,323.032 298.801,323.032 245.870 L 323.032 181.147 309.699 181.147 C 301.600 181.147,296.217 181.295,295.988 181.524 M32.781 231.195 C 50.276 231.251,78.789 231.251,96.143 231.195 C 113.498 231.139,99.184 231.094,64.334 231.094 C 29.485 231.094,15.286 231.139,32.781 231.195 M190.476 324.198 L 190.476 388.727 255.491 388.726 L 320.505 388.725 255.971 324.197 C 220.476 288.707,191.220 259.670,190.956 259.670 C 190.577 259.670,190.476 273.275,190.476 324.198 " stroke="none" fill="#fca443" fill-rule="evenodd"></path><path id="path2" d="M0.389 0.256 C 0.389 0.397,29.413 29.522,64.888 64.979 L 129.387 129.446 143.216 129.446 L 157.046 129.446 157.046 116.035 C 157.046 103.527,157.000 102.623,156.365 102.609 C 155.991 102.600,132.595 79.512,104.373 51.301 L 53.061 0.009 26.725 0.004 C 12.240 0.002,0.389 0.115,0.389 0.256 M156.274 27.891 C 156.278 45.227,156.423 56.003,156.657 56.365 C 156.902 56.745,157.036 47.001,157.040 28.474 C 157.044 9.747,156.913 0.000,156.657 0.000 C 156.401 0.000,156.270 9.552,156.274 27.891 M268.610 90.185 C 269.145 90.356,275.486 90.513,282.702 90.535 L 295.821 90.573 295.827 103.887 C 295.831 111.812,295.986 117.437,296.210 117.784 C 296.625 118.427,296.776 91.487,296.363 90.411 C 296.153 89.865,294.536 89.800,281.883 89.835 C 274.048 89.856,268.076 90.013,268.610 90.185 M192.420 154.697 L 192.420 218.820 256.074 218.593 C 291.084 218.468,319.890 218.217,320.089 218.035 C 320.443 217.710,193.429 90.573,192.751 90.573 C 192.569 90.573,192.420 119.429,192.420 154.697 M-0.000 231.895 C -0.000 232.692,155.638 388.338,156.435 388.338 C 156.988 388.338,157.046 380.964,157.046 310.213 L 157.046 232.089 142.760 231.879 C 101.328 231.269,0.000 231.280,-0.000 231.895 M308.145 297.232 C 307.995 297.383,307.872 315.190,307.872 336.804 L 307.872 376.102 314.193 382.415 L 320.514 388.727 360.257 388.727 C 385.244 388.727,400.000 388.589,400.000 388.356 C 400.000 387.941,322.746 310.593,322.331 310.593 C 322.187 310.593,318.997 307.525,315.243 303.776 C 311.490 300.027,308.295 297.082,308.145 297.232 " stroke="none" fill="#fcc83b" fill-rule="evenodd"></path><path id="path3" d="M53.644 0.309 C 53.644 0.926,155.800 102.624,156.420 102.624 C 157.006 102.624,157.042 100.756,156.856 79.397 C 156.745 66.623,156.565 43.533,156.456 28.086 L 156.258 0.000 104.951 0.000 C 76.732 0.000,53.644 0.139,53.644 0.309 M284.354 181.535 C 284.496 181.765,286.877 181.924,290.185 181.924 C 293.492 181.924,295.873 181.765,296.016 181.535 C 296.172 181.283,294.133 181.147,290.185 181.147 C 286.236 181.147,284.197 181.283,284.354 181.535 M269.971 259.242 C 270.612 259.646,279.490 268.352,289.699 278.589 C 299.908 288.825,308.260 296.970,308.260 296.687 C 308.260 296.071,272.916 260.707,271.003 259.409 C 270.269 258.911,269.474 258.504,269.236 258.505 C 268.999 258.506,269.329 258.837,269.971 259.242 M191.448 260.023 C 192.089 260.429,218.496 286.660,250.130 318.314 C 281.764 349.967,307.736 375.776,307.845 375.666 C 308.161 375.351,191.515 259.318,190.865 259.300 C 190.544 259.291,190.807 259.616,191.448 260.023 " stroke="none" fill="#fcbc74" fill-rule="evenodd"></path><path id="path4" d="M157.046 28.566 L 157.046 57.150 195.724 57.049 C 216.997 56.994,234.402 57.080,234.402 57.240 C 234.402 57.400,234.675 57.532,235.008 57.532 C 235.342 57.532,235.552 57.663,235.475 57.823 C 235.295 58.202,237.405 60.230,237.687 59.949 C 237.804 59.831,237.901 59.938,237.901 60.188 C 237.901 60.754,239.313 62.196,239.867 62.196 C 240.094 62.196,240.217 62.328,240.140 62.488 C 239.960 62.866,242.070 64.895,242.351 64.613 C 242.469 64.495,242.566 64.603,242.566 64.853 C 242.566 65.419,243.978 66.861,244.532 66.861 C 244.759 66.861,244.881 66.992,244.805 67.153 C 244.624 67.531,246.735 69.559,247.016 69.278 C 247.134 69.160,247.230 69.268,247.230 69.517 C 247.230 70.105,248.651 71.526,249.239 71.526 C 249.488 71.526,249.599 71.619,249.485 71.733 C 249.240 71.978,255.874 78.837,256.199 78.674 C 256.492 78.527,257.726 79.979,257.726 80.471 C 257.726 80.682,257.864 80.811,258.032 80.758 C 258.442 80.628,260.447 82.649,260.447 83.193 C 260.447 83.429,260.591 83.533,260.766 83.425 C 261.144 83.191,262.391 84.554,262.391 85.200 C 262.391 85.447,262.486 85.554,262.603 85.438 C 262.719 85.321,263.795 86.254,264.994 87.511 L 267.174 89.796 281.692 89.796 C 289.677 89.796,296.246 89.840,296.291 89.893 C 296.336 89.947,296.467 96.565,296.583 104.601 L 296.793 119.213 303.302 125.593 C 306.882 129.102,310.030 132.180,310.299 132.434 C 310.567 132.688,311.617 133.737,312.632 134.766 C 313.646 135.796,314.696 136.845,314.964 137.099 C 315.232 137.352,316.285 138.402,317.304 139.431 C 319.608 141.759,317.887 140.033,333.114 155.293 C 340.262 162.457,346.342 168.319,346.623 168.319 C 347.045 168.319,347.118 156.850,347.037 103.110 L 346.939 37.901 292.598 37.802 L 238.258 37.704 231.491 30.947 C 227.770 27.230,224.629 24.286,224.510 24.404 C 224.392 24.523,224.295 24.401,224.295 24.134 C 224.295 23.541,214.032 13.217,213.443 13.217 C 213.212 13.217,213.066 12.998,213.120 12.731 C 213.173 12.464,212.998 12.289,212.731 12.342 C 212.464 12.396,212.245 12.256,212.245 12.033 C 212.245 11.506,210.230 9.494,209.830 9.621 C 209.662 9.674,209.524 9.456,209.524 9.135 C 209.524 8.814,209.261 8.552,208.941 8.552 C 208.620 8.552,208.401 8.333,208.455 8.066 C 208.508 7.799,208.333 7.624,208.066 7.677 C 207.799 7.731,207.580 7.592,207.580 7.368 C 207.580 6.841,205.566 4.829,205.165 4.956 C 204.997 5.010,204.859 4.791,204.859 4.470 C 204.859 4.150,204.597 3.887,204.276 3.887 C 203.955 3.887,203.737 3.669,203.790 3.401 C 203.844 3.134,203.669 2.959,203.401 3.013 C 203.134 3.066,202.915 2.927,202.915 2.703 C 202.915 2.480,202.442 1.824,201.864 1.246 L 200.813 0.194 178.929 0.088 L 157.046 -0.019 157.046 28.566 M48.202 48.548 C 48.202 48.917,50.102 50.728,50.253 50.504 C 50.314 50.414,49.878 49.870,49.283 49.296 C 48.689 48.722,48.202 48.385,48.202 48.548 M52.867 53.213 C 52.867 53.581,54.766 55.392,54.918 55.168 C 54.979 55.078,54.543 54.535,53.948 53.961 C 53.353 53.386,52.867 53.050,52.867 53.213 M57.532 57.877 C 57.532 58.246,59.431 60.057,59.583 59.833 C 59.644 59.743,59.207 59.200,58.613 58.625 C 58.018 58.051,57.532 57.714,57.532 57.877 M62.196 62.533 C 62.196 62.924,64.091 64.715,64.276 64.498 C 64.353 64.408,63.916 63.860,63.306 63.281 C 62.696 62.701,62.196 62.365,62.196 62.533 M66.861 67.158 C 66.861 67.584,68.744 69.388,68.953 69.163 C 69.036 69.073,68.600 68.507,67.983 67.906 C 67.366 67.304,66.861 66.968,66.861 67.158 M71.526 71.822 C 71.526 72.249,73.409 74.053,73.618 73.827 C 73.701 73.737,73.264 73.172,72.647 72.570 C 72.031 71.969,71.526 71.632,71.526 71.822 M14.972 247.728 C 15.347 248.323,15.752 248.712,15.872 248.592 C 15.991 248.473,15.684 247.986,15.189 247.511 L 14.289 246.647 14.972 247.728 M19.637 252.393 C 20.012 252.988,20.417 253.376,20.536 253.257 C 20.656 253.137,20.349 252.651,19.854 252.176 L 18.954 251.312 19.637 252.393 M24.301 257.058 C 24.677 257.652,25.082 258.041,25.201 257.922 C 25.321 257.802,25.013 257.316,24.519 256.841 L 23.619 255.977 24.301 257.058 M28.377 260.986 C 28.377 261.135,28.727 261.633,29.155 262.091 C 29.582 262.550,29.932 262.745,29.932 262.524 C 29.932 262.303,29.582 261.806,29.155 261.419 C 28.727 261.032,28.377 260.837,28.377 260.986 M33.042 265.747 C 33.042 266.059,34.940 267.833,35.273 267.833 C 35.408 267.833,35.017 267.308,34.402 266.667 C 33.251 265.465,33.042 265.324,33.042 265.747 M37.707 270.316 C 37.707 270.465,38.056 270.962,38.484 271.421 C 38.912 271.880,39.261 272.075,39.261 271.854 C 39.261 271.633,38.912 271.135,38.484 270.748 C 38.056 270.361,37.707 270.167,37.707 270.316 M42.811 275.775 C 43.311 276.295,43.795 276.646,43.886 276.555 C 44.118 276.323,42.719 274.830,42.270 274.830 C 42.067 274.830,42.310 275.255,42.811 275.775 M47.475 280.440 C 47.976 280.960,48.459 281.311,48.550 281.220 C 48.782 280.988,47.384 279.495,46.935 279.495 C 46.732 279.495,46.975 279.920,47.475 280.440 M52.140 285.105 C 52.640 285.624,53.124 285.975,53.215 285.884 C 53.447 285.652,52.049 284.159,51.600 284.159 C 51.397 284.159,51.640 284.585,52.140 285.105 M56.805 289.769 C 57.305 290.289,57.789 290.640,57.880 290.549 C 58.112 290.317,56.713 288.824,56.264 288.824 C 56.061 288.824,56.304 289.249,56.805 289.769 M71.132 304.116 C 71.870 304.899,72.546 305.539,72.633 305.539 C 72.990 305.539,70.834 303.041,70.333 302.874 C 70.034 302.775,70.394 303.333,71.132 304.116 M73.942 306.848 C 74.430 307.354,74.902 307.705,74.990 307.628 C 75.216 307.429,73.808 305.928,73.395 305.928 C 73.207 305.928,73.453 306.342,73.942 306.848 M76.348 309.370 C 76.755 309.829,77.247 310.204,77.440 310.204 C 77.987 310.204,77.405 309.479,76.460 308.983 C 75.613 308.539,75.613 308.542,76.348 309.370 M81.013 314.035 C 81.420 314.493,81.911 314.869,82.105 314.869 C 82.652 314.869,82.070 314.144,81.125 313.648 C 80.278 313.204,80.277 313.207,81.013 314.035 M85.716 318.758 C 86.105 319.187,86.506 319.454,86.610 319.351 C 86.871 319.090,85.901 317.979,85.412 317.979 C 85.191 317.979,85.328 318.330,85.716 318.758 M335.083 323.226 C 335.951 324.151,336.249 324.365,336.249 324.063 C 336.249 323.764,334.776 322.255,334.483 322.255 C 334.311 322.255,334.580 322.692,335.083 323.226 M90.381 323.423 C 90.769 323.852,91.171 324.119,91.274 324.016 C 91.535 323.754,90.566 322.643,90.077 322.643 C 89.856 322.643,89.993 322.994,90.381 323.423 M339.747 327.891 C 340.616 328.816,340.914 329.029,340.914 328.728 C 340.914 328.429,339.440 326.919,339.148 326.919 C 338.976 326.919,339.245 327.357,339.747 327.891 M344.412 332.556 C 345.281 333.480,345.578 333.694,345.578 333.393 C 345.578 333.093,344.105 331.584,343.813 331.584 C 343.640 331.584,343.910 332.021,344.412 332.556 M349.077 337.221 C 349.945 338.145,350.243 338.359,350.243 338.058 C 350.243 337.758,348.770 336.249,348.478 336.249 C 348.305 336.249,348.575 336.686,349.077 337.221 M352.575 340.646 C 352.575 340.713,353.100 341.271,353.741 341.885 C 355.156 343.240,355.313 342.909,353.918 341.514 C 353.015 340.611,352.575 340.327,352.575 340.646 M358.214 346.358 C 358.602 346.787,359.000 347.058,359.098 346.960 C 359.309 346.749,358.200 345.578,357.791 345.578 C 357.635 345.578,357.826 345.929,358.214 346.358 M362.879 351.023 C 363.267 351.452,363.665 351.722,363.763 351.624 C 363.973 351.414,362.865 350.243,362.455 350.243 C 362.300 350.243,362.491 350.594,362.879 351.023 M118.562 351.378 C 118.562 351.776,120.076 353.134,120.285 352.925 C 120.376 352.835,120.025 352.382,119.506 351.920 C 118.986 351.458,118.562 351.214,118.562 351.378 M122.449 355.067 C 122.449 355.471,124.718 357.824,124.906 357.615 C 124.995 357.516,124.478 356.840,123.758 356.114 C 123.038 355.389,122.449 354.917,122.449 355.067 M367.543 355.688 C 367.932 356.116,368.329 356.387,368.427 356.289 C 368.638 356.079,367.530 354.908,367.120 354.908 C 366.965 354.908,367.155 355.259,367.543 355.688 M127.114 359.731 C 127.114 360.136,129.383 362.489,129.571 362.279 C 129.659 362.180,129.143 361.505,128.423 360.779 C 127.703 360.053,127.114 359.582,127.114 359.731 M372.208 360.352 C 372.596 360.781,372.994 361.052,373.092 360.954 C 373.303 360.743,372.195 359.572,371.785 359.572 C 371.630 359.572,371.820 359.923,372.208 360.352 M131.778 364.453 C 131.778 364.571,132.325 365.227,132.993 365.910 L 134.208 367.153 133.141 365.695 C 132.118 364.297,131.778 363.987,131.778 364.453 M376.873 365.017 C 377.261 365.446,377.659 365.717,377.757 365.619 C 377.967 365.408,376.859 364.237,376.450 364.237 C 376.294 364.237,376.485 364.588,376.873 365.017 M152.463 385.395 C 153.161 386.128,153.809 386.651,153.903 386.557 C 154.123 386.337,151.951 384.062,151.521 384.062 C 151.341 384.062,151.766 384.662,152.463 385.395 M154.325 386.961 C 154.325 387.491,155.962 388.729,156.619 388.696 C 157.145 388.670,157.151 388.633,156.657 388.452 C 156.336 388.335,155.680 387.881,155.199 387.444 C 154.718 387.006,154.325 386.789,154.325 386.961 " stroke="none" fill="#fccc1c" fill-rule="evenodd"></path></g></svg>