<svg id="svg" version="1.1" viewBox="0 0 400 400" xmlns="http://www.w3.org/2000/svg" xmlns:xlink="http://www.w3.org/1999/xlink" ><g id="svgg"><path id="path0" d="M338.800 25.973 C 338.800 26.208,338.440 26.400,338.000 26.400 C 337.560 26.400,337.200 26.580,337.200 26.800 C 337.200 27.020,336.840 27.200,336.400 27.200 C 335.960 27.200,335.600 27.377,335.600 27.592 C 335.600 27.808,335.105 28.106,334.500 28.254 C 333.895 28.402,333.308 28.661,333.196 28.830 C 333.084 28.998,332.731 29.195,332.412 29.268 C 332.093 29.341,331.475 29.715,331.040 30.100 C 330.606 30.485,329.744 31.024,329.125 31.297 C 328.506 31.571,328.000 31.896,328.000 32.019 C 328.000 32.142,327.103 32.683,326.006 33.221 C 324.910 33.760,324.010 34.335,324.006 34.500 C 324.003 34.665,323.640 34.800,323.200 34.800 C 322.760 34.800,322.400 34.936,322.400 35.102 C 322.400 35.465,319.940 36.621,319.470 36.479 C 319.289 36.425,319.255 36.565,319.394 36.790 C 319.533 37.016,319.367 37.200,319.024 37.200 C 318.681 37.200,318.399 37.335,318.397 37.500 C 318.395 37.665,317.990 38.003,317.497 38.251 C 317.004 38.500,315.846 39.083,314.925 39.548 C 314.004 40.014,313.139 40.575,313.002 40.797 C 312.865 41.019,312.373 41.200,311.910 41.200 C 311.446 41.200,311.184 41.317,311.327 41.461 C 311.471 41.604,311.096 41.989,310.494 42.317 C 307.880 43.740,306.587 44.316,306.344 44.166 C 306.201 44.077,305.976 44.285,305.845 44.628 C 305.713 44.970,305.424 45.139,305.203 45.002 C 304.981 44.865,304.800 44.913,304.800 45.109 C 304.800 45.305,304.305 45.718,303.700 46.028 C 303.095 46.338,301.737 47.089,300.682 47.696 C 299.628 48.303,298.518 48.800,298.216 48.800 C 297.914 48.800,297.607 48.945,297.533 49.123 C 297.341 49.591,293.735 52.000,293.228 52.000 C 292.993 52.000,292.800 52.180,292.800 52.400 C 292.800 52.620,292.455 52.800,292.033 52.800 C 291.612 52.800,291.207 52.935,291.133 53.100 C 290.966 53.476,288.836 54.775,287.900 55.071 C 287.515 55.193,287.200 55.452,287.200 55.647 C 287.200 55.841,286.840 56.000,286.400 56.000 C 285.960 56.000,285.600 56.146,285.600 56.325 C 285.600 56.504,284.970 56.898,284.200 57.200 C 283.430 57.502,282.800 57.896,282.800 58.075 C 282.800 58.254,282.530 58.400,282.200 58.400 C 281.870 58.400,281.600 58.580,281.600 58.800 C 281.600 59.020,281.330 59.200,281.000 59.200 C 280.670 59.200,280.400 59.372,280.400 59.582 C 280.400 59.792,279.770 60.082,279.000 60.226 C 278.230 60.371,277.600 60.646,277.600 60.838 C 277.600 61.309,273.763 63.229,273.449 62.915 C 273.312 62.779,273.200 62.877,273.200 63.133 C 273.200 63.390,272.930 63.600,272.600 63.600 C 272.270 63.600,272.000 63.780,272.000 64.000 C 272.000 64.220,271.730 64.400,271.400 64.400 C 271.070 64.400,270.800 64.536,270.800 64.702 C 270.800 65.096,268.320 66.215,267.800 66.056 C 267.580 65.989,267.532 66.066,267.694 66.227 C 268.075 66.608,266.805 67.571,265.900 67.587 C 265.515 67.594,265.200 67.780,265.200 68.000 C 265.200 68.220,264.930 68.400,264.600 68.400 C 264.270 68.400,264.000 68.580,264.000 68.800 C 264.000 69.020,263.730 69.200,263.400 69.200 C 263.070 69.200,262.800 69.380,262.800 69.600 C 262.800 69.820,262.530 70.000,262.200 70.000 C 261.870 70.000,261.600 70.180,261.600 70.400 C 261.600 70.620,261.255 70.800,260.833 70.800 C 260.412 70.800,260.007 70.935,259.933 71.100 C 259.766 71.476,257.636 72.775,256.700 73.071 C 256.315 73.193,256.000 73.452,256.000 73.647 C 256.000 73.841,255.640 74.000,255.200 74.000 C 254.760 74.000,254.400 74.159,254.400 74.353 C 254.400 74.548,254.085 74.807,253.700 74.929 C 253.015 75.146,250.796 76.404,250.400 76.800 C 250.022 77.178,247.000 78.544,246.700 78.472 C 246.535 78.432,246.400 78.580,246.400 78.800 C 246.400 79.020,246.130 79.200,245.800 79.200 C 245.470 79.200,245.199 79.335,245.197 79.500 C 245.195 79.665,244.790 80.003,244.297 80.251 C 243.804 80.500,242.590 81.108,241.600 81.604 C 240.610 82.100,239.710 82.621,239.600 82.762 C 239.490 82.904,238.545 83.465,237.500 84.009 C 236.455 84.553,235.600 85.134,235.600 85.299 C 235.600 85.465,235.240 85.600,234.800 85.600 C 234.360 85.600,234.000 85.736,234.000 85.902 C 234.000 86.069,233.415 86.464,232.700 86.780 C 231.985 87.097,231.051 87.680,230.625 88.078 C 230.198 88.475,229.512 88.800,229.101 88.800 C 228.689 88.800,228.464 88.980,228.600 89.200 C 228.736 89.420,228.477 89.600,228.024 89.600 C 227.571 89.600,227.200 89.758,227.200 89.951 C 227.200 90.145,226.660 90.527,226.000 90.800 C 225.340 91.073,224.800 91.455,224.800 91.649 C 224.800 91.842,224.455 92.000,224.033 92.000 C 223.612 92.000,223.207 92.135,223.133 92.300 C 222.980 92.646,220.150 94.213,216.400 96.029 C 214.970 96.721,213.740 97.448,213.667 97.644 C 213.593 97.840,213.278 98.000,212.967 98.000 C 212.655 98.000,212.400 98.136,212.400 98.302 C 212.400 98.665,209.940 99.821,209.470 99.679 C 209.289 99.625,209.255 99.765,209.394 99.990 C 209.533 100.216,209.382 100.400,209.057 100.400 C 208.732 100.400,208.407 100.535,208.333 100.700 C 208.260 100.865,207.345 101.433,206.300 101.963 C 205.255 102.492,204.400 103.077,204.400 103.263 C 204.400 103.448,204.040 103.600,203.600 103.600 C 203.160 103.600,202.800 103.736,202.800 103.902 C 202.800 104.069,202.260 104.444,201.600 104.736 C 200.105 105.398,200.069 106.172,201.500 106.905 C 202.707 107.524,204.440 108.514,207.200 110.161 C 208.190 110.752,209.315 111.338,209.700 111.464 C 210.085 111.590,210.400 111.852,210.400 112.047 C 210.400 112.241,210.574 112.400,210.786 112.400 C 210.998 112.400,212.933 113.423,215.086 114.673 C 217.239 115.923,220.170 117.602,221.600 118.405 C 223.030 119.208,224.875 120.255,225.700 120.733 C 226.525 121.210,227.830 121.960,228.600 122.400 C 229.370 122.840,230.585 123.535,231.300 123.943 C 232.015 124.352,233.410 125.170,234.400 125.761 C 235.390 126.352,236.515 126.938,236.900 127.064 C 237.285 127.190,237.600 127.452,237.600 127.647 C 237.600 127.841,237.783 128.000,238.007 128.000 C 238.231 128.000,239.536 128.678,240.907 129.506 C 242.278 130.335,244.418 131.542,245.662 132.189 L 247.923 133.365 249.862 132.388 C 250.928 131.851,251.890 131.318,252.000 131.205 C 252.471 130.722,254.039 130.000,254.618 130.000 C 254.964 130.000,255.136 129.820,255.000 129.600 C 254.864 129.380,254.999 129.200,255.301 129.200 C 255.602 129.200,256.236 128.840,256.708 128.400 C 257.180 127.960,257.844 127.600,258.183 127.600 C 258.522 127.600,258.800 127.454,258.800 127.275 C 258.800 127.096,259.430 126.702,260.200 126.400 C 260.970 126.098,261.600 125.724,261.600 125.569 C 261.600 125.269,263.437 124.712,263.826 124.893 C 263.953 124.952,264.235 124.681,264.453 124.292 C 264.671 123.902,265.019 123.688,265.227 123.817 C 265.435 123.946,265.714 123.769,265.846 123.425 C 265.978 123.081,266.291 122.799,266.543 122.798 C 266.794 122.797,267.798 122.267,268.773 121.620 C 269.749 120.973,270.661 120.514,270.801 120.600 C 270.940 120.687,271.307 120.407,271.615 119.979 C 271.924 119.550,272.482 119.200,272.855 119.200 C 273.228 119.200,273.593 119.065,273.667 118.900 C 273.834 118.524,275.964 117.225,276.900 116.929 C 277.285 116.807,277.600 116.548,277.600 116.353 C 277.600 116.159,277.960 116.000,278.400 116.000 C 278.840 116.000,279.201 115.865,279.203 115.700 C 279.207 115.320,281.158 114.402,281.980 114.394 C 282.526 114.388,282.529 114.342,282.000 114.000 C 281.511 113.684,281.560 113.611,282.267 113.606 C 282.743 113.603,283.193 113.458,283.267 113.285 C 283.340 113.112,284.416 112.478,285.659 111.876 C 286.901 111.274,288.138 110.516,288.408 110.191 C 288.677 109.866,289.146 109.600,289.449 109.600 C 289.752 109.600,290.000 109.441,290.000 109.247 C 290.000 108.925,291.073 108.475,291.629 108.564 C 291.754 108.584,292.204 108.253,292.629 107.829 C 293.390 107.067,293.401 107.383,293.503 133.456 L 293.606 159.855 295.103 160.666 C 295.926 161.112,297.230 161.843,298.000 162.291 C 298.770 162.739,303.630 165.523,308.800 168.476 C 320.729 175.292,320.165 174.965,320.400 175.200 C 320.772 175.572,322.991 176.820,324.500 177.506 C 325.325 177.882,326.000 178.326,326.000 178.494 C 326.000 178.662,326.163 178.800,326.363 178.800 C 326.562 178.800,328.947 180.078,331.663 181.640 C 339.337 186.053,339.989 186.400,340.615 186.400 C 341.129 186.400,341.189 176.453,341.101 106.100 L 341.000 25.800 339.900 25.673 C 339.295 25.604,338.800 25.739,338.800 25.973 M198.000 108.000 C 197.450 108.430,196.775 108.786,196.500 108.791 C 196.225 108.796,196.000 108.946,196.000 109.125 C 196.000 109.304,195.370 109.698,194.600 110.000 C 193.830 110.302,193.200 110.696,193.200 110.875 C 193.200 111.054,193.028 111.200,192.818 111.200 C 192.607 111.200,191.482 111.765,190.318 112.456 C 188.128 113.754,186.549 114.665,183.800 116.215 C 182.920 116.711,180.580 118.060,178.600 119.213 C 176.620 120.365,174.010 121.850,172.800 122.512 C 171.590 123.174,170.420 123.850,170.200 124.015 C 169.980 124.180,169.125 124.694,168.300 125.157 C 166.888 125.951,165.793 126.574,162.700 128.344 C 161.985 128.753,160.447 129.653,159.282 130.344 C 158.118 131.035,157.079 131.600,156.974 131.600 C 156.869 131.600,156.081 132.065,155.222 132.633 C 154.364 133.201,153.243 133.624,152.731 133.573 C 151.723 133.473,150.342 133.931,149.964 134.491 C 149.834 134.683,149.352 134.868,148.892 134.903 C 148.432 134.938,148.144 135.109,148.251 135.283 C 148.359 135.457,148.167 135.600,147.824 135.600 C 147.481 135.600,147.200 135.791,147.200 136.024 C 147.200 136.257,147.035 136.345,146.832 136.220 C 146.630 136.095,146.203 136.254,145.884 136.573 C 145.191 137.266,142.089 139.141,141.100 139.464 C 140.715 139.590,140.400 139.852,140.400 140.047 C 140.400 140.241,140.040 140.400,139.600 140.400 C 139.160 140.400,138.800 140.580,138.800 140.800 C 138.800 141.020,138.564 141.200,138.275 141.200 C 137.987 141.200,137.364 141.560,136.892 142.000 C 136.420 142.440,135.756 142.800,135.417 142.800 C 135.078 142.800,134.800 142.941,134.800 143.112 C 134.800 143.441,132.416 144.542,131.900 144.452 C 131.735 144.423,131.600 144.567,131.600 144.771 C 131.600 144.975,130.610 145.610,129.400 146.183 C 128.190 146.755,127.200 147.398,127.200 147.612 C 127.200 147.825,126.840 148.000,126.400 148.000 C 125.960 148.000,125.600 148.158,125.600 148.351 C 125.600 148.545,125.015 148.940,124.300 149.229 C 123.585 149.518,122.894 149.909,122.764 150.097 C 122.634 150.286,122.152 150.468,121.692 150.503 C 121.232 150.538,120.944 150.709,121.051 150.883 C 121.159 151.057,120.967 151.200,120.624 151.200 C 120.281 151.200,120.000 151.346,120.000 151.525 C 120.000 151.704,119.370 152.098,118.600 152.400 C 117.830 152.702,117.200 153.062,117.200 153.200 C 117.200 153.338,116.570 153.698,115.800 154.000 C 115.030 154.302,114.400 154.696,114.400 154.875 C 114.400 155.054,114.145 155.200,113.833 155.200 C 113.522 155.200,113.207 155.335,113.133 155.500 C 113.060 155.665,112.145 156.230,111.100 156.756 C 110.055 157.281,109.200 157.866,109.200 158.056 C 109.200 158.245,108.917 158.400,108.571 158.400 C 107.843 158.400,107.125 159.045,106.449 160.308 C 106.187 160.799,105.708 161.200,105.386 161.200 C 105.064 161.200,104.800 161.359,104.800 161.553 C 104.800 161.748,104.485 162.010,104.100 162.136 C 103.715 162.262,102.590 162.848,101.600 163.439 C 100.610 164.030,99.260 164.823,98.600 165.202 C 97.940 165.581,96.290 166.545,94.933 167.345 C 93.576 168.145,92.379 168.800,92.274 168.800 C 92.168 168.800,90.869 169.537,89.388 170.437 C 87.906 171.337,86.087 172.417,85.347 172.837 C 84.606 173.257,83.370 173.960,82.600 174.400 C 81.830 174.840,80.570 175.560,79.800 176.000 C 76.393 177.947,75.706 178.341,74.153 179.243 C 73.248 179.770,69.513 181.901,65.853 183.981 L 59.200 187.762 59.200 281.057 C 59.200 340.941,59.339 374.439,59.588 374.593 C 59.802 374.725,60.522 374.551,61.188 374.206 C 61.855 373.861,62.400 373.708,62.400 373.866 C 62.400 374.024,62.664 373.804,62.987 373.376 C 63.310 372.949,63.580 372.766,63.587 372.970 C 63.594 373.173,64.005 372.993,64.500 372.570 C 64.995 372.146,65.830 371.558,66.355 371.262 C 66.880 370.967,67.920 370.382,68.667 369.962 C 69.414 369.543,70.244 369.193,70.512 369.184 C 70.780 369.175,71.623 368.635,72.385 367.984 C 73.147 367.333,74.002 366.800,74.285 366.800 C 74.568 366.800,74.800 366.620,74.800 366.400 C 74.800 366.180,75.070 366.000,75.400 366.000 C 75.730 366.000,76.000 365.820,76.000 365.600 C 76.000 365.380,76.360 365.200,76.800 365.200 C 77.240 365.200,77.600 365.020,77.600 364.800 C 77.600 364.580,77.878 364.400,78.217 364.400 C 78.556 364.400,79.220 364.040,79.692 363.600 C 80.164 363.160,80.787 362.800,81.075 362.800 C 81.364 362.800,81.600 362.620,81.600 362.400 C 81.600 362.180,81.960 362.000,82.400 362.000 C 82.840 362.000,83.200 361.820,83.200 361.600 C 83.200 361.380,83.436 361.200,83.725 361.200 C 84.013 361.200,84.636 360.840,85.108 360.400 C 85.580 359.960,86.244 359.600,86.583 359.600 C 86.922 359.600,87.200 359.462,87.200 359.294 C 87.200 358.973,90.120 357.600,90.803 357.600 C 91.021 357.600,91.200 357.423,91.200 357.207 C 91.200 356.705,95.019 354.753,95.351 355.085 C 95.488 355.221,95.600 355.123,95.600 354.867 C 95.600 354.610,95.870 354.400,96.200 354.400 C 96.530 354.400,96.800 354.220,96.800 354.000 C 96.800 353.780,97.070 353.600,97.400 353.600 C 97.730 353.600,98.000 353.420,98.000 353.200 C 98.000 352.980,98.193 352.800,98.428 352.800 C 98.663 352.800,99.641 352.260,100.600 351.600 C 101.559 350.940,102.627 350.400,102.972 350.400 C 103.317 350.400,103.600 350.220,103.600 350.000 C 103.600 349.780,103.870 349.600,104.200 349.600 C 104.530 349.600,104.800 349.420,104.800 349.200 C 104.800 348.980,105.070 348.800,105.400 348.800 C 105.730 348.800,106.000 348.620,106.000 348.400 C 106.000 348.180,106.270 348.000,106.600 348.000 C 106.930 348.000,107.200 347.820,107.200 347.600 C 107.200 347.380,107.560 347.200,108.000 347.200 C 108.440 347.200,108.800 347.041,108.800 346.847 C 108.800 346.652,109.115 346.393,109.500 346.271 C 110.436 345.975,112.566 344.676,112.733 344.300 C 112.807 344.135,113.212 344.000,113.633 344.000 C 114.055 344.000,114.400 343.841,114.400 343.647 C 114.400 343.452,114.715 343.188,115.100 343.059 C 115.485 342.931,116.700 342.317,117.800 341.695 C 118.900 341.073,120.610 340.123,121.600 339.582 C 122.590 339.042,123.490 338.510,123.600 338.400 C 123.903 338.097,125.612 337.140,127.400 336.272 C 128.280 335.844,129.090 335.383,129.200 335.247 C 129.375 335.031,130.222 334.549,133.800 332.629 C 134.240 332.393,134.690 332.110,134.800 332.000 C 135.433 331.367,137.537 330.465,137.808 330.711 C 137.984 330.870,138.015 330.801,137.876 330.557 C 137.729 330.299,138.411 329.715,139.512 329.157 C 140.550 328.631,141.749 327.886,142.175 327.501 C 142.602 327.115,143.187 326.800,143.475 326.800 C 143.764 326.800,144.000 326.620,144.000 326.400 C 144.000 326.180,144.345 326.000,144.767 326.000 C 145.188 326.000,145.593 325.865,145.667 325.700 C 145.740 325.535,146.610 324.992,147.600 324.493 C 150.774 322.892,156.054 319.952,156.400 319.592 C 156.510 319.477,157.126 319.117,157.769 318.792 C 160.016 317.654,160.400 317.408,160.400 317.105 C 160.400 316.937,160.760 316.800,161.200 316.800 C 161.640 316.800,162.000 316.664,162.000 316.498 C 162.000 316.135,164.460 314.979,164.930 315.121 C 165.111 315.175,165.145 315.035,165.006 314.810 C 164.867 314.584,165.033 314.400,165.376 314.400 C 165.719 314.400,166.003 314.265,166.006 314.100 C 166.010 313.935,166.954 313.350,168.106 312.800 C 169.257 312.250,170.548 311.485,170.975 311.100 C 171.402 310.715,172.088 310.400,172.499 310.400 C 172.911 310.400,173.136 310.220,173.000 310.000 C 172.864 309.780,173.033 309.600,173.376 309.600 C 173.719 309.600,174.000 309.456,174.000 309.280 C 174.000 309.105,174.585 308.748,175.300 308.489 C 176.015 308.230,178.273 307.023,180.317 305.809 C 182.361 304.594,184.206 303.600,184.417 303.600 C 184.628 303.600,184.801 303.465,184.803 303.300 C 184.805 303.135,185.210 302.799,185.703 302.554 C 189.115 300.859,191.600 299.417,191.600 299.133 C 191.600 298.950,191.945 298.800,192.367 298.800 C 192.788 298.800,193.193 298.665,193.267 298.500 C 193.434 298.124,195.564 296.825,196.500 296.529 C 196.885 296.407,197.200 296.148,197.200 295.953 C 197.200 295.759,197.494 295.600,197.853 295.600 C 200.043 295.600,200.000 296.164,200.000 267.339 C 200.000 238.025,200.148 239.607,197.600 241.600 C 197.050 242.030,196.375 242.386,196.100 242.391 C 195.825 242.396,195.599 242.535,195.597 242.700 C 195.595 242.865,195.190 243.199,194.697 243.441 C 192.883 244.334,189.006 246.463,188.609 246.784 C 188.384 246.966,187.570 247.471,186.800 247.907 C 186.030 248.343,183.622 249.712,181.449 250.950 C 179.276 252.187,177.449 253.200,177.390 253.200 C 177.330 253.200,176.097 253.920,174.648 254.800 C 173.200 255.680,171.831 256.400,171.607 256.400 C 171.383 256.400,171.200 256.559,171.200 256.753 C 171.200 256.948,170.885 257.210,170.500 257.336 C 170.115 257.462,168.990 258.048,168.000 258.639 C 167.010 259.230,165.615 260.048,164.900 260.457 C 164.185 260.865,162.970 261.560,162.200 262.000 C 158.735 263.980,158.076 264.362,156.082 265.544 C 154.918 266.235,153.469 266.800,152.862 266.800 C 151.661 266.800,149.608 267.619,149.603 268.100 C 149.601 268.265,149.240 268.400,148.800 268.400 C 148.360 268.400,148.000 268.580,148.000 268.800 C 148.000 269.020,147.730 269.200,147.400 269.200 C 147.070 269.200,146.800 269.380,146.800 269.600 C 146.800 269.820,146.513 270.000,146.162 270.000 C 145.508 270.000,143.106 271.520,142.867 272.086 C 142.793 272.258,142.403 272.400,142.000 272.400 C 141.597 272.400,141.207 272.535,141.133 272.700 C 140.966 273.076,138.836 274.375,137.900 274.671 C 137.515 274.793,137.200 275.052,137.200 275.247 C 137.200 275.441,136.922 275.600,136.583 275.600 C 136.244 275.600,135.580 275.960,135.108 276.400 C 134.636 276.840,134.013 277.200,133.725 277.200 C 133.436 277.200,133.200 277.380,133.200 277.600 C 133.200 277.820,132.876 278.000,132.480 278.000 C 132.084 278.000,131.544 278.216,131.280 278.480 C 131.016 278.744,130.800 278.827,130.800 278.664 C 130.800 278.502,130.406 278.736,129.925 279.184 C 129.443 279.633,128.813 280.000,128.525 280.000 C 128.236 280.000,127.999 280.135,127.997 280.300 C 127.995 280.465,127.590 280.803,127.097 281.051 C 126.604 281.300,125.390 281.908,124.400 282.404 C 123.410 282.900,122.510 283.417,122.400 283.553 C 122.225 283.769,121.378 284.251,117.800 286.171 C 117.360 286.407,116.910 286.690,116.800 286.800 C 116.314 287.286,114.756 288.000,114.182 288.000 C 113.836 288.000,113.651 288.159,113.771 288.354 C 113.891 288.548,113.452 288.930,112.795 289.202 C 112.138 289.474,111.600 289.855,111.600 290.049 C 111.600 290.242,111.240 290.400,110.800 290.400 C 110.360 290.400,110.000 290.580,110.000 290.800 C 110.000 291.020,109.640 291.200,109.200 291.200 C 108.760 291.200,108.400 291.380,108.400 291.600 C 108.400 291.820,108.130 292.000,107.800 292.000 C 107.470 292.000,107.158 292.225,107.106 292.500 C 107.054 292.775,106.876 281.210,106.710 266.800 C 106.544 252.390,106.311 234.631,106.193 227.335 L 105.979 214.069 107.151 213.235 C 107.796 212.776,108.412 212.400,108.521 212.400 C 108.629 212.400,109.903 211.680,111.352 210.800 C 112.800 209.920,114.169 209.200,114.393 209.200 C 114.617 209.200,114.800 209.064,114.800 208.898 C 114.800 208.731,115.385 208.342,116.100 208.032 C 116.815 207.723,118.152 206.959,119.072 206.335 C 119.992 205.711,120.850 205.200,120.979 205.200 C 121.109 205.200,122.400 204.480,123.848 203.600 C 125.297 202.720,126.557 202.000,126.649 202.000 C 126.742 202.000,127.488 201.562,128.309 201.027 C 129.129 200.492,130.520 199.934,131.400 199.788 C 133.292 199.474,135.200 198.728,135.200 198.302 C 135.200 198.136,135.393 198.000,135.628 198.000 C 135.863 198.000,136.841 197.460,137.800 196.800 C 138.759 196.140,139.737 195.600,139.972 195.600 C 140.207 195.600,140.400 195.420,140.400 195.200 C 140.400 194.980,140.670 194.800,141.000 194.800 C 141.330 194.800,141.600 194.620,141.600 194.400 C 141.600 194.180,141.960 194.000,142.400 194.000 C 142.840 194.000,143.200 193.820,143.200 193.600 C 143.200 193.380,143.560 193.200,144.000 193.200 C 144.440 193.200,144.800 193.020,144.800 192.800 C 144.800 192.580,145.055 192.400,145.367 192.400 C 145.678 192.400,145.993 192.265,146.067 192.100 C 146.250 191.687,149.281 190.177,149.678 190.300 C 149.855 190.355,150.000 190.220,150.000 190.000 C 150.000 189.780,150.278 189.600,150.617 189.600 C 150.956 189.600,151.589 189.269,152.023 188.864 C 152.458 188.459,153.305 187.881,153.907 187.578 C 154.508 187.276,155.478 186.707,156.062 186.314 C 156.646 185.921,157.411 185.600,157.762 185.600 C 158.113 185.600,158.400 185.453,158.400 185.274 C 158.400 184.910,161.443 183.200,162.091 183.200 C 162.319 183.200,162.797 182.882,163.153 182.493 C 163.904 181.672,167.597 179.748,168.111 179.910 C 168.303 179.970,168.345 179.835,168.206 179.610 C 168.067 179.384,168.233 179.200,168.576 179.200 C 168.919 179.200,169.200 179.020,169.200 178.800 C 169.200 178.580,169.470 178.400,169.800 178.400 C 170.130 178.400,170.400 178.220,170.400 178.000 C 170.400 177.780,170.670 177.600,171.000 177.600 C 171.330 177.600,171.600 177.420,171.600 177.200 C 171.600 176.980,171.870 176.800,172.200 176.800 C 172.530 176.800,172.800 176.620,172.800 176.400 C 172.800 176.180,173.160 176.000,173.600 176.000 C 174.040 176.000,174.400 175.820,174.400 175.600 C 174.400 175.380,174.661 175.200,174.980 175.200 C 175.299 175.200,176.389 174.640,177.403 173.956 C 178.416 173.272,179.345 172.811,179.465 172.932 C 179.586 173.053,180.060 172.803,180.518 172.376 C 180.976 171.949,181.707 171.600,182.142 171.600 C 182.577 171.600,182.818 171.485,182.677 171.344 C 182.398 171.065,183.976 170.065,186.800 168.731 C 187.790 168.263,189.140 167.493,189.800 167.020 C 190.460 166.547,191.495 165.913,192.100 165.612 C 192.705 165.311,193.200 164.915,193.200 164.732 C 193.200 164.550,193.545 164.400,193.967 164.400 C 194.388 164.400,194.793 164.265,194.867 164.100 C 194.940 163.935,196.080 163.233,197.400 162.539 L 199.800 161.278 199.903 134.239 C 200.013 105.214,200.096 106.360,198.000 108.000 M266.768 200.719 C 266.016 201.075,265.310 201.464,265.200 201.583 C 264.744 202.078,263.164 202.800,262.539 202.800 C 262.169 202.800,261.982 202.915,262.123 203.056 C 262.379 203.313,260.411 204.616,259.100 205.058 C 258.715 205.187,258.400 205.452,258.400 205.647 C 258.400 205.841,258.055 206.000,257.633 206.000 C 257.212 206.000,256.807 206.135,256.733 206.300 C 256.660 206.465,255.790 207.037,254.800 207.570 C 253.810 208.104,252.910 208.654,252.800 208.792 C 252.579 209.071,248.664 210.932,248.492 210.841 C 248.433 210.809,248.019 211.124,247.572 211.540 C 247.126 211.956,246.049 212.617,245.180 213.009 C 244.311 213.401,243.600 213.874,243.600 214.061 C 243.600 214.247,243.240 214.400,242.800 214.400 C 242.360 214.400,242.000 214.537,242.000 214.704 C 242.000 214.872,240.785 215.635,239.300 216.401 C 237.815 217.167,236.510 217.900,236.400 218.029 C 236.290 218.158,235.615 218.519,234.900 218.830 C 234.185 219.141,233.600 219.531,233.600 219.698 C 233.600 219.864,233.345 220.000,233.033 220.000 C 232.722 220.000,232.407 220.135,232.333 220.300 C 232.166 220.676,230.036 221.975,229.100 222.271 C 228.715 222.393,228.400 222.652,228.400 222.847 C 228.400 223.041,228.130 223.200,227.800 223.200 C 227.470 223.200,227.200 223.380,227.200 223.600 C 227.200 223.820,226.840 224.000,226.400 224.000 C 225.960 224.000,225.600 224.180,225.600 224.400 C 225.600 224.620,225.240 224.800,224.800 224.800 C 224.360 224.800,224.000 224.980,224.000 225.200 C 224.000 225.420,223.730 225.600,223.400 225.600 C 223.070 225.600,222.800 225.780,222.800 226.000 C 222.800 226.220,222.530 226.400,222.200 226.400 C 221.870 226.400,221.600 226.560,221.600 226.757 C 221.600 227.105,219.697 227.796,219.100 227.666 C 218.935 227.630,218.800 227.780,218.800 228.000 C 218.800 228.220,218.530 228.400,218.200 228.400 C 217.870 228.400,217.600 228.558,217.600 228.751 C 217.600 229.133,215.189 230.250,214.700 230.095 C 214.535 230.043,214.400 230.175,214.400 230.390 C 214.400 230.930,212.173 232.033,211.787 231.684 C 211.613 231.528,211.601 231.625,211.759 231.900 C 211.934 232.204,211.816 232.400,211.457 232.400 C 211.132 232.400,210.807 232.535,210.733 232.700 C 210.660 232.865,209.745 233.433,208.700 233.963 C 207.655 234.492,206.800 235.077,206.800 235.263 C 206.800 235.448,206.455 235.600,206.033 235.600 C 205.612 235.600,205.207 235.735,205.133 235.900 C 204.929 236.359,200.947 238.413,200.713 238.180 C 200.600 238.067,200.529 238.366,200.554 238.844 C 200.579 239.322,200.960 239.913,201.400 240.157 C 201.840 240.401,202.290 240.690,202.400 240.800 C 202.510 240.910,203.320 241.374,204.200 241.830 C 206.269 242.904,207.748 243.748,208.000 244.000 C 208.110 244.110,208.630 244.442,209.155 244.738 C 209.680 245.033,210.760 245.644,211.555 246.094 C 212.350 246.545,213.810 247.361,214.800 247.909 C 215.790 248.457,218.220 249.845,220.200 250.995 C 222.180 252.145,224.610 253.538,225.600 254.091 C 226.590 254.644,228.989 256.020,230.932 257.148 C 232.874 258.277,234.629 259.200,234.832 259.200 C 235.034 259.200,235.200 259.359,235.200 259.553 C 235.200 259.748,235.515 260.010,235.900 260.136 C 236.285 260.262,237.410 260.849,238.400 261.442 C 239.390 262.034,241.190 263.059,242.400 263.720 C 243.610 264.381,245.050 265.228,245.600 265.603 C 246.777 266.404,248.800 266.960,248.800 266.482 C 248.800 266.299,249.430 265.902,250.200 265.600 C 250.970 265.298,251.600 264.948,251.600 264.823 C 251.600 264.698,252.185 264.341,252.900 264.030 C 253.615 263.719,254.290 263.357,254.400 263.227 C 254.510 263.096,255.447 262.562,256.482 262.041 C 257.518 261.519,258.725 260.757,259.166 260.346 C 259.606 259.936,260.244 259.600,260.583 259.600 C 260.922 259.600,261.200 259.460,261.200 259.288 C 261.200 259.116,262.100 258.627,263.200 258.200 C 264.300 257.773,265.200 257.312,265.200 257.176 C 265.200 256.915,266.851 256.076,267.209 256.154 C 267.325 256.179,267.853 255.795,268.385 255.300 C 268.916 254.805,269.594 254.400,269.892 254.400 C 270.190 254.400,270.820 254.040,271.292 253.600 C 271.764 253.160,272.488 252.800,272.899 252.800 C 273.311 252.800,273.536 252.620,273.400 252.400 C 273.264 252.180,273.433 252.000,273.776 252.000 C 274.119 252.000,274.400 251.864,274.400 251.697 C 274.400 251.530,275.385 250.945,276.589 250.397 C 277.793 249.849,278.783 249.265,278.789 249.100 C 278.795 248.935,279.070 248.800,279.400 248.800 C 279.730 248.800,280.000 248.620,280.000 248.400 C 280.000 248.180,280.360 248.000,280.800 248.000 C 281.240 248.000,281.600 247.820,281.600 247.600 C 281.600 247.380,281.836 247.200,282.125 247.200 C 282.413 247.200,283.036 246.840,283.508 246.400 C 283.980 245.960,284.644 245.600,284.983 245.600 C 285.322 245.600,285.600 245.420,285.600 245.200 C 285.600 244.980,285.870 244.800,286.200 244.800 C 286.530 244.800,286.800 244.620,286.800 244.400 C 286.800 244.180,287.261 244.000,287.824 244.000 C 288.404 244.000,288.740 243.827,288.600 243.600 C 288.464 243.380,288.633 243.200,288.976 243.200 C 289.319 243.200,289.600 243.020,289.600 242.800 C 289.600 242.580,289.870 242.400,290.200 242.400 C 290.530 242.400,290.800 242.257,290.800 242.083 C 290.800 241.908,291.385 241.593,292.100 241.383 L 293.400 241.000 293.400 227.634 L 293.400 214.269 292.200 213.591 C 291.540 213.218,290.325 212.528,289.500 212.057 C 288.675 211.586,287.325 210.821,286.500 210.357 C 285.675 209.894,284.820 209.373,284.600 209.200 C 284.181 208.870,282.483 207.897,278.800 205.874 C 277.590 205.210,276.540 204.516,276.467 204.333 C 276.393 204.150,276.193 204.000,276.022 204.000 C 275.851 204.000,274.381 203.263,272.755 202.363 C 268.550 200.033,268.339 199.976,266.768 200.719 " stroke="none" fill="#0473b3" fill-rule="evenodd"></path><path id="path1" d="M59.200 106.000 C 59.200 186.133,59.203 186.400,60.000 186.400 C 60.440 186.400,60.800 186.241,60.800 186.047 C 60.800 185.852,61.115 185.590,61.500 185.464 C 61.885 185.338,63.010 184.756,64.000 184.170 C 69.292 181.038,73.305 178.800,73.632 178.800 C 73.834 178.800,74.000 178.662,74.000 178.494 C 74.000 178.326,74.675 177.882,75.500 177.506 C 77.009 176.820,79.228 175.572,79.600 175.200 C 79.710 175.090,80.230 174.758,80.755 174.462 C 82.211 173.642,84.237 172.493,85.900 171.543 C 86.725 171.072,88.210 170.241,89.200 169.697 C 90.190 169.153,91.810 168.208,92.800 167.598 C 93.790 166.988,96.580 165.368,99.000 163.999 C 101.420 162.629,104.030 161.149,104.800 160.708 C 105.570 160.268,106.332 159.703,106.494 159.454 C 106.656 159.204,106.791 147.435,106.794 133.300 C 106.797 119.165,106.903 107.600,107.029 107.600 C 107.154 107.600,107.527 107.870,107.857 108.200 C 108.187 108.530,108.804 108.800,109.229 108.800 C 109.653 108.800,110.000 108.980,110.000 109.200 C 110.000 109.420,110.270 109.600,110.600 109.600 C 110.930 109.600,111.200 109.780,111.200 110.000 C 111.200 110.220,111.470 110.400,111.800 110.400 C 112.130 110.400,112.400 110.580,112.400 110.800 C 112.400 111.020,112.670 111.200,113.000 111.200 C 113.330 111.200,113.600 111.380,113.600 111.600 C 113.600 111.820,113.960 112.000,114.400 112.000 C 114.840 112.000,115.200 112.180,115.200 112.400 C 115.200 112.620,115.520 112.800,115.912 112.800 C 116.303 112.800,116.883 113.160,117.200 113.600 C 117.517 114.040,118.097 114.400,118.488 114.400 C 118.880 114.400,119.200 114.580,119.200 114.800 C 119.200 115.020,119.560 115.200,120.000 115.200 C 120.440 115.200,120.800 115.380,120.800 115.600 C 120.800 115.820,121.120 116.000,121.512 116.000 C 121.903 116.000,122.483 116.360,122.800 116.800 C 123.117 117.240,123.697 117.600,124.088 117.600 C 124.480 117.600,124.800 117.780,124.800 118.000 C 124.800 118.220,125.160 118.400,125.600 118.400 C 126.040 118.400,126.400 118.580,126.400 118.800 C 126.400 119.020,126.670 119.200,127.000 119.200 C 127.330 119.200,127.600 119.380,127.600 119.600 C 127.600 119.820,127.870 120.000,128.200 120.000 C 128.530 120.000,128.800 120.146,128.800 120.325 C 128.800 120.504,129.430 120.898,130.200 121.200 C 130.970 121.502,131.600 121.896,131.600 122.075 C 131.600 122.254,131.960 122.400,132.400 122.400 C 132.840 122.400,133.200 122.542,133.200 122.716 C 133.200 123.113,137.277 125.200,138.052 125.200 C 138.366 125.200,138.883 125.560,139.200 126.000 C 139.517 126.440,140.097 126.800,140.488 126.800 C 140.880 126.800,141.200 126.980,141.200 127.200 C 141.200 127.420,141.560 127.600,142.000 127.600 C 142.440 127.600,142.800 127.780,142.800 128.000 C 142.800 128.220,142.988 128.400,143.217 128.400 C 143.446 128.400,144.020 128.760,144.492 129.200 C 144.964 129.640,145.587 130.000,145.875 130.000 C 146.164 130.000,146.400 130.180,146.400 130.400 C 146.400 130.620,146.678 130.800,147.017 130.800 C 147.356 130.800,148.020 131.160,148.492 131.600 C 148.964 132.040,149.587 132.400,149.875 132.400 C 150.164 132.400,150.400 132.580,150.400 132.800 C 150.400 134.062,153.439 132.882,159.518 129.262 C 160.682 128.568,161.807 128.000,162.018 128.000 C 162.228 128.000,162.400 127.820,162.400 127.600 C 162.400 127.380,162.760 127.200,163.200 127.200 C 163.640 127.200,164.000 127.020,164.000 126.800 C 164.000 126.580,164.270 126.400,164.600 126.400 C 164.930 126.400,165.200 126.254,165.200 126.075 C 165.200 125.896,165.830 125.502,166.600 125.200 C 167.370 124.898,168.000 124.525,168.000 124.372 C 168.000 124.219,168.315 123.990,168.700 123.864 C 169.085 123.738,170.210 123.152,171.200 122.561 C 177.356 118.887,188.870 112.400,189.234 112.400 C 189.435 112.400,189.601 112.265,189.603 112.100 C 189.605 111.935,190.010 111.613,190.503 111.383 C 191.765 110.797,194.960 109.040,195.200 108.800 C 195.310 108.690,195.805 108.375,196.300 108.100 C 198.548 106.851,199.001 106.570,199.485 106.129 C 200.164 105.507,200.136 105.200,199.400 105.200 C 199.070 105.200,198.800 105.020,198.800 104.800 C 198.800 104.580,198.480 104.400,198.088 104.400 C 197.697 104.400,197.117 104.040,196.800 103.600 C 196.483 103.160,195.903 102.800,195.512 102.800 C 195.120 102.800,194.800 102.620,194.800 102.400 C 194.800 102.180,194.440 102.000,194.000 102.000 C 193.560 102.000,193.200 101.820,193.200 101.600 C 193.200 101.380,192.906 101.200,192.547 101.200 C 192.188 101.200,191.603 100.871,191.247 100.470 C 190.891 100.068,190.015 99.484,189.300 99.172 C 188.585 98.860,188.000 98.469,188.000 98.302 C 188.000 98.136,187.640 98.000,187.200 98.000 C 186.760 98.000,186.400 97.848,186.400 97.663 C 186.400 97.477,185.545 96.892,184.500 96.363 C 183.455 95.833,182.540 95.265,182.467 95.100 C 182.393 94.935,182.065 94.800,181.738 94.800 C 181.411 94.800,180.873 94.530,180.543 94.200 C 180.213 93.870,179.596 93.600,179.171 93.600 C 178.747 93.600,178.400 93.420,178.400 93.200 C 178.400 92.980,178.040 92.800,177.600 92.800 C 177.160 92.800,176.800 92.620,176.800 92.400 C 176.800 92.180,176.483 92.000,176.096 92.000 C 175.709 92.000,175.168 91.640,174.893 91.200 C 174.618 90.760,174.125 90.400,173.797 90.400 C 173.468 90.400,173.200 90.220,173.200 90.000 C 173.200 89.780,172.880 89.600,172.488 89.600 C 172.097 89.600,171.517 89.240,171.200 88.800 C 170.883 88.360,170.303 88.000,169.912 88.000 C 169.520 88.000,169.200 87.820,169.200 87.600 C 169.200 87.380,168.840 87.200,168.400 87.200 C 167.960 87.200,167.600 87.020,167.600 86.800 C 167.600 86.580,167.280 86.400,166.888 86.400 C 166.497 86.400,165.917 86.040,165.600 85.600 C 165.283 85.160,164.703 84.800,164.312 84.800 C 163.920 84.800,163.600 84.620,163.600 84.400 C 163.600 84.180,163.240 84.000,162.800 84.000 C 162.360 84.000,162.000 83.820,162.000 83.600 C 162.000 83.380,161.706 83.200,161.347 83.200 C 160.988 83.200,160.403 82.882,160.047 82.493 C 159.691 82.104,158.500 81.342,157.400 80.799 C 156.300 80.255,155.310 79.699,155.200 79.562 C 154.807 79.072,150.995 77.200,150.391 77.200 C 150.053 77.200,149.517 76.840,149.200 76.400 C 148.883 75.960,148.303 75.600,147.912 75.600 C 147.520 75.600,147.200 75.420,147.200 75.200 C 147.200 74.980,146.840 74.800,146.400 74.800 C 145.960 74.800,145.600 74.620,145.600 74.400 C 145.600 74.180,145.280 74.000,144.888 74.000 C 144.497 74.000,143.917 73.640,143.600 73.200 C 143.283 72.760,142.703 72.400,142.312 72.400 C 141.920 72.400,141.600 72.220,141.600 72.000 C 141.600 71.780,141.330 71.600,141.000 71.600 C 140.670 71.600,140.400 71.420,140.400 71.200 C 140.400 70.980,140.080 70.800,139.688 70.800 C 139.297 70.800,138.717 70.440,138.400 70.000 C 138.083 69.560,137.503 69.200,137.112 69.200 C 136.720 69.200,136.400 69.020,136.400 68.800 C 136.400 68.580,136.080 68.400,135.688 68.400 C 135.297 68.400,134.717 68.040,134.400 67.600 C 134.083 67.160,133.503 66.800,133.112 66.800 C 132.720 66.800,132.400 66.620,132.400 66.400 C 132.400 66.180,132.040 66.000,131.600 66.000 C 131.160 66.000,130.800 65.820,130.800 65.600 C 130.800 65.380,130.522 65.200,130.183 65.200 C 129.844 65.200,129.180 64.840,128.708 64.400 C 128.236 63.960,127.613 63.600,127.325 63.600 C 127.036 63.600,126.800 63.420,126.800 63.200 C 126.800 62.980,126.440 62.800,126.000 62.800 C 125.560 62.800,125.200 62.620,125.200 62.400 C 125.200 62.180,125.010 62.000,124.779 62.000 C 124.547 62.000,123.695 61.550,122.886 61.000 C 122.077 60.450,121.096 60.000,120.707 60.000 C 120.318 60.000,120.000 59.820,120.000 59.600 C 120.000 59.380,119.680 59.200,119.288 59.200 C 118.897 59.200,118.317 58.840,118.000 58.400 C 117.683 57.960,117.103 57.600,116.712 57.600 C 116.320 57.600,116.000 57.420,116.000 57.200 C 116.000 56.980,115.640 56.800,115.200 56.800 C 114.760 56.800,114.400 56.620,114.400 56.400 C 114.400 56.180,114.080 56.000,113.688 56.000 C 113.297 56.000,112.717 55.640,112.400 55.200 C 112.083 54.760,111.503 54.400,111.112 54.400 C 110.720 54.400,110.400 54.220,110.400 54.000 C 110.400 53.780,110.040 53.600,109.600 53.600 C 109.160 53.600,108.800 53.420,108.800 53.200 C 108.800 52.980,108.530 52.800,108.200 52.800 C 107.870 52.800,107.600 52.620,107.600 52.400 C 107.600 52.180,107.330 52.000,107.000 52.000 C 106.670 52.000,106.400 51.820,106.400 51.600 C 106.400 51.380,106.130 51.200,105.800 51.200 C 105.470 51.200,105.200 51.020,105.200 50.800 C 105.200 50.580,104.922 50.400,104.583 50.400 C 104.244 50.400,103.580 50.040,103.108 49.600 C 102.636 49.160,102.013 48.800,101.725 48.800 C 101.436 48.800,101.200 48.620,101.200 48.400 C 101.200 48.180,100.840 48.000,100.400 48.000 C 99.960 48.000,99.600 47.820,99.600 47.600 C 99.600 47.380,99.240 47.200,98.800 47.200 C 98.360 47.200,98.000 47.055,98.000 46.879 C 98.000 46.702,97.103 46.117,96.006 45.579 C 94.910 45.040,94.010 44.465,94.006 44.300 C 94.003 44.135,93.653 44.000,93.229 44.000 C 92.804 44.000,92.187 43.730,91.857 43.400 C 91.527 43.070,91.064 42.800,90.829 42.800 C 90.593 42.800,90.400 42.620,90.400 42.400 C 90.400 42.180,90.040 42.000,89.600 42.000 C 89.160 42.000,88.800 41.820,88.800 41.600 C 88.800 41.380,88.480 41.200,88.088 41.200 C 87.697 41.200,87.117 40.840,86.800 40.400 C 86.483 39.960,85.903 39.600,85.512 39.600 C 85.120 39.600,84.800 39.420,84.800 39.200 C 84.800 38.980,84.440 38.800,84.000 38.800 C 83.560 38.800,83.200 38.620,83.200 38.400 C 83.200 38.180,82.880 38.000,82.488 38.000 C 82.097 38.000,81.517 37.640,81.200 37.200 C 80.883 36.760,80.303 36.400,79.912 36.400 C 79.520 36.400,79.200 36.220,79.200 36.000 C 79.200 35.780,78.840 35.600,78.400 35.600 C 77.960 35.600,77.600 35.420,77.600 35.200 C 77.600 34.980,77.306 34.800,76.947 34.800 C 76.588 34.800,76.003 34.471,75.647 34.070 C 75.291 33.668,74.415 33.084,73.700 32.772 C 72.985 32.460,72.400 32.069,72.400 31.902 C 72.400 31.736,72.122 31.600,71.783 31.600 C 71.444 31.600,70.780 31.240,70.308 30.800 C 69.836 30.360,69.213 30.000,68.925 30.000 C 68.636 30.000,68.400 29.820,68.400 29.600 C 68.400 29.380,68.040 29.200,67.600 29.200 C 67.160 29.200,66.800 29.053,66.800 28.874 C 66.800 28.476,64.199 27.200,63.386 27.200 C 63.064 27.200,62.800 27.020,62.800 26.800 C 62.800 26.580,62.440 26.400,62.000 26.400 C 61.560 26.400,61.200 26.220,61.200 26.000 C 61.200 25.780,60.750 25.600,60.200 25.600 L 59.200 25.600 59.200 106.000 M200.708 134.316 L 200.600 161.000 201.482 161.900 C 201.967 162.395,202.642 162.800,202.982 162.800 C 203.322 162.800,203.600 162.980,203.600 163.200 C 203.600 163.420,203.960 163.600,204.400 163.600 C 204.840 163.600,205.200 163.780,205.200 164.000 C 205.200 164.220,205.520 164.400,205.912 164.400 C 206.303 164.400,206.883 164.760,207.200 165.200 C 207.517 165.640,208.097 166.000,208.488 166.000 C 208.880 166.000,209.200 166.180,209.200 166.400 C 209.200 166.620,209.470 166.800,209.800 166.800 C 210.130 166.800,210.400 166.980,210.400 167.200 C 210.400 167.420,210.678 167.600,211.017 167.600 C 211.356 167.600,212.020 167.960,212.492 168.400 C 212.964 168.840,213.587 169.200,213.875 169.200 C 214.164 169.200,214.400 169.380,214.400 169.600 C 214.400 169.820,214.678 170.000,215.017 170.000 C 215.356 170.000,216.020 170.360,216.492 170.800 C 216.964 171.240,217.587 171.600,217.875 171.600 C 218.164 171.600,218.400 171.780,218.400 172.000 C 218.400 172.220,218.760 172.400,219.200 172.400 C 219.640 172.400,220.000 172.580,220.000 172.800 C 220.000 173.020,220.360 173.200,220.800 173.200 C 221.240 173.200,221.600 173.347,221.600 173.526 C 221.600 173.924,224.201 175.200,225.014 175.200 C 225.336 175.200,225.600 175.380,225.600 175.600 C 225.600 175.820,225.917 176.000,226.304 176.000 C 226.691 176.000,227.232 176.360,227.507 176.800 C 227.782 177.240,228.275 177.600,228.603 177.600 C 228.932 177.600,229.200 177.780,229.200 178.000 C 229.200 178.220,229.560 178.400,230.000 178.400 C 230.440 178.400,230.800 178.580,230.800 178.800 C 230.800 179.020,231.120 179.200,231.512 179.200 C 231.903 179.200,232.483 179.560,232.800 180.000 C 233.117 180.440,233.697 180.800,234.088 180.800 C 234.480 180.800,234.800 180.980,234.800 181.200 C 234.800 181.420,235.160 181.600,235.600 181.600 C 236.040 181.600,236.400 181.780,236.400 182.000 C 236.400 182.220,236.720 182.400,237.112 182.400 C 237.503 182.400,238.083 182.760,238.400 183.200 C 238.717 183.640,239.297 184.000,239.688 184.000 C 240.080 184.000,240.400 184.180,240.400 184.400 C 240.400 184.620,240.760 184.800,241.200 184.800 C 241.640 184.800,242.000 184.980,242.000 185.200 C 242.000 185.420,242.294 185.600,242.653 185.600 C 243.012 185.600,243.597 185.929,243.953 186.330 C 244.309 186.732,245.185 187.316,245.900 187.628 C 246.615 187.940,247.200 188.331,247.200 188.498 C 247.200 188.664,247.478 188.800,247.817 188.800 C 248.156 188.800,248.820 189.160,249.292 189.600 C 249.764 190.040,250.387 190.400,250.675 190.400 C 250.964 190.400,251.200 190.580,251.200 190.800 C 251.200 191.020,251.547 191.200,251.971 191.200 C 252.396 191.200,253.013 191.470,253.343 191.800 C 253.673 192.130,254.226 192.400,254.571 192.400 C 254.917 192.400,255.200 192.580,255.200 192.800 C 255.200 193.020,255.560 193.200,256.000 193.200 C 256.440 193.200,256.800 193.380,256.800 193.600 C 256.800 193.820,257.094 194.000,257.453 194.000 C 257.812 194.000,258.397 194.329,258.753 194.730 C 259.109 195.132,259.985 195.716,260.700 196.028 C 261.415 196.340,262.000 196.731,262.000 196.898 C 262.000 197.064,262.278 197.200,262.617 197.200 C 262.956 197.200,263.620 197.560,264.092 198.000 C 264.564 198.440,265.187 198.800,265.475 198.800 C 265.764 198.800,266.000 198.980,266.000 199.200 C 266.000 199.420,266.740 199.600,267.644 199.600 C 269.171 199.600,273.974 201.680,274.333 202.497 C 274.407 202.663,274.624 202.800,274.816 202.800 C 275.008 202.800,276.118 203.365,277.282 204.056 C 279.276 205.238,279.935 205.620,283.400 207.600 C 284.170 208.040,285.430 208.760,286.200 209.200 C 286.970 209.640,288.230 210.360,289.000 210.800 C 289.770 211.240,291.075 211.979,291.900 212.443 C 292.725 212.906,293.625 213.468,293.900 213.692 C 294.543 214.214,294.626 238.830,293.989 240.021 C 293.719 240.524,293.571 249.810,293.560 266.895 C 293.551 281.253,293.451 292.775,293.338 292.500 C 293.225 292.225,292.788 292.000,292.367 292.000 C 291.945 292.000,291.600 291.820,291.600 291.600 C 291.600 291.380,291.330 291.200,291.000 291.200 C 290.670 291.200,290.400 291.020,290.400 290.800 C 290.400 290.580,290.122 290.400,289.783 290.400 C 289.444 290.400,288.780 290.040,288.308 289.600 C 287.836 289.160,287.213 288.800,286.925 288.800 C 286.636 288.800,286.400 288.620,286.400 288.400 C 286.400 288.180,286.040 288.000,285.600 288.000 C 285.160 288.000,284.800 287.820,284.800 287.600 C 284.800 287.380,284.480 287.200,284.088 287.200 C 283.697 287.200,283.117 286.840,282.800 286.400 C 282.483 285.960,281.903 285.600,281.512 285.600 C 281.120 285.600,280.800 285.420,280.800 285.200 C 280.800 284.980,280.440 284.800,280.000 284.800 C 279.560 284.800,279.200 284.620,279.200 284.400 C 279.200 284.180,278.880 284.000,278.488 284.000 C 278.097 284.000,277.517 283.640,277.200 283.200 C 276.883 282.760,276.303 282.400,275.912 282.400 C 275.520 282.400,275.200 282.254,275.200 282.075 C 275.200 281.896,274.570 281.502,273.800 281.200 C 273.030 280.898,272.400 280.533,272.400 280.388 C 272.400 280.244,271.545 279.694,270.500 279.165 C 269.455 278.637,268.362 277.979,268.071 277.702 C 267.781 277.426,267.196 277.200,266.771 277.200 C 266.347 277.200,266.000 277.020,266.000 276.800 C 266.000 276.580,265.640 276.400,265.200 276.400 C 264.760 276.400,264.400 276.220,264.400 276.000 C 264.400 275.780,264.080 275.600,263.688 275.600 C 263.297 275.600,262.717 275.240,262.400 274.800 C 262.083 274.360,261.503 274.000,261.112 274.000 C 260.720 274.000,260.400 273.820,260.400 273.600 C 260.400 273.380,260.040 273.200,259.600 273.200 C 259.160 273.200,258.800 273.020,258.800 272.800 C 258.800 272.580,258.530 272.400,258.200 272.400 C 257.870 272.400,257.600 272.220,257.600 272.000 C 257.600 271.780,257.330 271.600,257.000 271.600 C 256.670 271.600,256.400 271.420,256.400 271.200 C 256.400 270.980,256.130 270.800,255.800 270.800 C 255.470 270.800,255.200 270.620,255.200 270.400 C 255.200 270.180,254.840 270.000,254.400 270.000 C 253.960 270.000,253.600 269.820,253.600 269.600 C 253.600 269.380,253.280 269.200,252.888 269.200 C 252.497 269.200,251.917 268.840,251.600 268.400 C 251.283 267.960,250.703 267.600,250.312 267.600 C 249.920 267.600,249.600 267.420,249.600 267.200 C 249.600 266.980,248.795 266.800,247.812 266.800 C 246.795 266.800,245.439 266.471,244.667 266.038 C 243.920 265.618,242.880 265.033,242.355 264.738 C 241.830 264.442,241.310 264.110,241.200 264.000 C 241.090 263.890,240.570 263.558,240.045 263.262 C 238.575 262.435,236.544 261.282,235.000 260.400 C 233.456 259.518,231.425 258.365,229.955 257.538 C 229.430 257.242,228.910 256.910,228.800 256.800 C 228.690 256.690,227.880 256.223,227.000 255.762 C 226.120 255.300,224.770 254.558,224.000 254.112 C 223.230 253.666,220.800 252.268,218.600 251.005 C 216.400 249.742,214.040 248.387,213.355 247.992 C 212.670 247.598,211.680 247.033,211.155 246.738 C 210.630 246.442,210.110 246.110,210.000 246.000 C 209.890 245.890,209.080 245.426,208.200 244.970 C 206.131 243.896,204.652 243.052,204.400 242.800 C 204.290 242.690,203.440 242.207,202.511 241.726 L 200.822 240.852 200.711 267.726 C 200.597 295.247,200.615 295.600,202.083 295.600 C 202.380 295.600,202.883 295.960,203.200 296.400 C 203.517 296.840,204.097 297.200,204.488 297.200 C 204.880 297.200,205.200 297.380,205.200 297.600 C 205.200 297.820,205.560 298.000,206.000 298.000 C 206.440 298.000,206.800 298.180,206.800 298.400 C 206.800 298.620,207.094 298.800,207.453 298.800 C 207.812 298.800,208.397 299.129,208.753 299.530 C 209.109 299.932,209.985 300.516,210.700 300.828 C 211.415 301.140,212.000 301.531,212.000 301.698 C 212.000 301.864,212.360 302.000,212.800 302.000 C 213.240 302.000,213.600 302.152,213.600 302.337 C 213.600 302.523,214.455 303.108,215.500 303.637 C 216.545 304.167,217.460 304.735,217.533 304.900 C 217.607 305.065,218.012 305.200,218.433 305.200 C 218.855 305.200,219.200 305.345,219.200 305.521 C 219.200 305.698,220.097 306.283,221.194 306.821 C 222.290 307.360,223.190 307.935,223.194 308.100 C 223.197 308.265,223.547 308.400,223.971 308.400 C 224.396 308.400,225.013 308.670,225.343 309.000 C 225.673 309.330,226.226 309.600,226.571 309.600 C 226.917 309.600,227.200 309.780,227.200 310.000 C 227.200 310.220,227.470 310.400,227.800 310.400 C 228.130 310.400,228.400 310.580,228.400 310.800 C 228.400 311.020,228.720 311.200,229.112 311.200 C 229.503 311.200,230.083 311.560,230.400 312.000 C 230.717 312.440,231.297 312.800,231.688 312.800 C 232.080 312.800,232.400 312.980,232.400 313.200 C 232.400 313.420,232.720 313.600,233.112 313.600 C 233.503 313.600,234.083 313.960,234.400 314.400 C 234.717 314.840,235.297 315.200,235.688 315.200 C 236.080 315.200,236.400 315.380,236.400 315.600 C 236.400 315.820,236.760 316.000,237.200 316.000 C 237.640 316.000,238.000 316.180,238.000 316.400 C 238.000 316.620,238.320 316.800,238.712 316.800 C 239.103 316.800,239.683 317.160,240.000 317.600 C 240.317 318.040,240.897 318.400,241.288 318.400 C 241.680 318.400,242.000 318.580,242.000 318.800 C 242.000 319.020,242.360 319.200,242.800 319.200 C 243.240 319.200,243.600 319.380,243.600 319.600 C 243.600 319.820,243.870 320.000,244.200 320.000 C 244.530 320.000,244.800 320.180,244.800 320.400 C 244.800 320.620,245.055 320.800,245.367 320.800 C 245.678 320.800,245.993 320.935,246.067 321.100 C 246.140 321.265,247.100 321.848,248.200 322.395 C 249.300 322.942,250.290 323.502,250.400 323.639 C 250.768 324.099,253.153 325.200,253.780 325.200 C 254.121 325.200,254.400 325.380,254.400 325.600 C 254.400 325.820,254.720 326.000,255.112 326.000 C 255.503 326.000,256.083 326.360,256.400 326.800 C 256.717 327.240,257.297 327.600,257.688 327.600 C 258.080 327.600,258.400 327.780,258.400 328.000 C 258.400 328.220,258.760 328.400,259.200 328.400 C 259.640 328.400,260.000 328.580,260.000 328.800 C 260.000 329.020,260.270 329.200,260.600 329.200 C 260.930 329.200,261.200 329.380,261.200 329.600 C 261.200 329.820,261.470 330.000,261.800 330.000 C 262.130 330.000,262.400 330.180,262.400 330.400 C 262.400 330.620,262.670 330.800,263.000 330.800 C 263.330 330.800,263.600 330.980,263.600 331.200 C 263.600 331.420,263.878 331.600,264.217 331.600 C 264.556 331.600,265.220 331.960,265.692 332.400 C 266.164 332.840,266.787 333.200,267.075 333.200 C 267.364 333.200,267.600 333.380,267.600 333.600 C 267.600 333.820,267.960 334.000,268.400 334.000 C 268.840 334.000,269.200 334.180,269.200 334.400 C 269.200 334.620,269.520 334.800,269.912 334.800 C 270.303 334.800,270.883 335.160,271.200 335.600 C 271.517 336.040,272.097 336.400,272.488 336.400 C 272.880 336.400,273.200 336.580,273.200 336.800 C 273.200 337.020,273.560 337.200,274.000 337.200 C 274.440 337.200,274.800 337.380,274.800 337.600 C 274.800 337.820,275.094 338.000,275.453 338.000 C 275.812 338.000,276.397 338.328,276.753 338.728 C 277.109 339.129,278.525 339.983,279.900 340.628 C 281.275 341.272,282.400 341.934,282.400 342.099 C 282.400 342.265,282.760 342.400,283.200 342.400 C 283.640 342.400,284.000 342.580,284.000 342.800 C 284.000 343.020,284.360 343.200,284.800 343.200 C 285.240 343.200,285.600 343.380,285.600 343.600 C 285.600 343.820,285.920 344.000,286.312 344.000 C 286.703 344.000,287.283 344.360,287.600 344.800 C 287.917 345.240,288.497 345.600,288.888 345.600 C 289.280 345.600,289.600 345.780,289.600 346.000 C 289.600 346.220,289.960 346.400,290.400 346.400 C 290.840 346.400,291.200 346.580,291.200 346.800 C 291.200 347.020,291.520 347.200,291.912 347.200 C 292.303 347.200,292.883 347.560,293.200 348.000 C 293.517 348.440,294.007 348.800,294.288 348.800 C 294.570 348.800,294.800 348.980,294.800 349.200 C 294.800 349.420,295.078 349.600,295.417 349.600 C 295.756 349.600,296.420 349.960,296.892 350.400 C 297.364 350.840,297.987 351.200,298.275 351.200 C 298.564 351.200,298.800 351.380,298.800 351.600 C 298.800 351.820,299.160 352.000,299.600 352.000 C 300.040 352.000,300.400 352.180,300.400 352.400 C 300.400 352.620,300.678 352.800,301.017 352.800 C 301.356 352.800,302.020 353.160,302.492 353.600 C 302.964 354.040,303.587 354.400,303.875 354.400 C 304.164 354.400,304.400 354.580,304.400 354.800 C 304.400 355.020,304.760 355.200,305.200 355.200 C 305.640 355.200,306.000 355.380,306.000 355.600 C 306.000 355.820,306.278 356.000,306.617 356.000 C 306.956 356.000,307.620 356.360,308.092 356.800 C 308.564 357.240,309.187 357.600,309.475 357.600 C 309.764 357.600,310.000 357.766,310.000 357.968 C 310.000 358.171,310.585 358.465,311.300 358.622 C 312.014 358.779,312.891 359.243,313.247 359.654 C 313.603 360.064,314.188 360.400,314.547 360.400 C 314.906 360.400,315.200 360.580,315.200 360.800 C 315.200 361.020,315.560 361.200,316.000 361.200 C 316.440 361.200,316.800 361.380,316.800 361.600 C 316.800 361.820,317.120 362.000,317.512 362.000 C 317.903 362.000,318.483 362.360,318.800 362.800 C 319.117 363.240,319.697 363.600,320.088 363.600 C 320.480 363.600,320.800 363.780,320.800 364.000 C 320.800 364.220,321.160 364.400,321.600 364.400 C 322.040 364.400,322.400 364.580,322.400 364.800 C 322.400 365.020,322.720 365.200,323.112 365.200 C 323.503 365.200,324.083 365.560,324.400 366.000 C 324.717 366.440,325.297 366.800,325.688 366.800 C 326.080 366.800,326.400 366.980,326.400 367.200 C 326.400 367.420,326.670 367.600,327.000 367.600 C 327.330 367.600,327.600 367.780,327.600 368.000 C 327.600 368.220,327.870 368.400,328.200 368.400 C 328.530 368.400,328.800 368.546,328.800 368.725 C 328.800 368.904,329.430 369.298,330.200 369.600 C 330.970 369.902,331.600 370.296,331.600 370.475 C 331.600 370.654,331.960 370.800,332.400 370.800 C 332.840 370.800,333.200 370.952,333.200 371.137 C 333.200 371.323,334.055 371.908,335.100 372.437 C 336.145 372.967,337.060 373.535,337.133 373.700 C 337.207 373.865,337.612 374.000,338.033 374.000 C 338.455 374.000,338.800 374.192,338.800 374.427 C 338.800 374.661,339.295 374.796,339.900 374.727 L 341.000 374.600 341.101 280.876 C 341.162 224.473,341.056 187.242,340.837 187.377 C 340.527 187.569,337.887 186.179,331.300 182.355 C 329.351 181.223,326.309 179.488,323.555 177.938 C 323.030 177.642,322.510 177.310,322.400 177.199 C 322.290 177.089,321.660 176.729,321.000 176.400 C 320.340 176.071,319.710 175.711,319.600 175.600 C 319.490 175.489,318.860 175.129,318.200 174.800 C 317.540 174.471,316.910 174.102,316.800 173.980 C 316.690 173.858,315.970 173.448,315.200 173.070 C 314.430 172.691,312.630 171.670,311.200 170.801 C 309.770 169.931,308.150 168.994,307.600 168.719 C 306.660 168.247,303.288 166.310,300.600 164.698 C 299.940 164.302,299.085 163.872,298.700 163.742 C 298.315 163.613,298.000 163.381,298.000 163.228 C 298.000 163.075,297.370 162.702,296.600 162.400 C 295.830 162.098,295.200 161.725,295.200 161.572 C 295.200 161.419,294.840 161.199,294.400 161.084 C 293.921 160.959,293.600 160.538,293.600 160.037 C 293.600 159.560,293.342 159.200,293.000 159.200 C 292.670 159.200,292.400 159.020,292.400 158.800 C 292.400 158.580,292.130 158.400,291.800 158.400 C 291.470 158.400,291.200 158.220,291.200 158.000 C 291.200 157.780,290.930 157.600,290.600 157.600 C 290.270 157.600,290.000 157.420,290.000 157.200 C 290.000 156.980,289.730 156.800,289.400 156.800 C 289.070 156.800,288.800 156.620,288.800 156.400 C 288.800 156.180,288.440 156.000,288.000 156.000 C 287.560 156.000,287.200 155.820,287.200 155.600 C 287.200 155.380,286.880 155.200,286.488 155.200 C 286.097 155.200,285.517 154.840,285.200 154.400 C 284.883 153.960,284.303 153.600,283.912 153.600 C 283.520 153.600,283.200 153.420,283.200 153.200 C 283.200 152.980,282.880 152.800,282.488 152.800 C 282.097 152.800,281.517 152.440,281.200 152.000 C 280.883 151.560,280.303 151.200,279.912 151.200 C 279.520 151.200,279.200 151.020,279.200 150.800 C 279.200 150.580,278.840 150.400,278.400 150.400 C 277.960 150.400,277.600 150.220,277.600 150.000 C 277.600 149.780,277.306 149.600,276.947 149.600 C 276.588 149.600,276.003 149.271,275.647 148.870 C 275.291 148.468,274.415 147.884,273.700 147.572 C 272.985 147.260,272.400 146.869,272.400 146.702 C 272.400 146.536,272.040 146.400,271.600 146.400 C 271.160 146.400,270.800 146.258,270.800 146.084 C 270.800 145.687,266.723 143.600,265.948 143.600 C 265.634 143.600,265.117 143.240,264.800 142.800 C 264.483 142.360,263.903 142.000,263.512 142.000 C 263.120 142.000,262.800 141.820,262.800 141.600 C 262.800 141.380,262.440 141.200,262.000 141.200 C 261.560 141.200,261.200 141.020,261.200 140.800 C 261.200 140.580,260.906 140.400,260.547 140.400 C 260.188 140.400,259.603 140.071,259.247 139.670 C 258.891 139.268,258.015 138.684,257.300 138.372 C 256.585 138.060,256.000 137.669,256.000 137.502 C 256.000 137.336,255.722 137.200,255.383 137.200 C 255.044 137.200,254.380 136.840,253.908 136.400 C 253.436 135.960,252.813 135.600,252.525 135.600 C 252.236 135.600,252.000 135.420,252.000 135.200 C 252.000 134.980,251.640 134.800,251.200 134.800 C 250.760 134.800,250.400 134.620,250.400 134.400 C 250.400 134.180,250.040 134.000,249.600 134.000 C 249.160 134.000,248.800 133.825,248.800 133.610 C 248.800 133.392,248.281 133.324,247.621 133.456 C 246.777 133.625,246.011 133.423,244.921 132.746 C 242.577 131.288,239.476 129.589,238.700 129.335 C 238.315 129.209,238.000 128.969,238.000 128.800 C 238.000 128.631,237.685 128.390,237.300 128.264 C 236.915 128.138,235.700 127.479,234.600 126.800 C 233.500 126.121,232.285 125.462,231.900 125.336 C 231.515 125.210,231.200 124.948,231.200 124.753 C 231.200 124.559,231.017 124.400,230.793 124.400 C 230.569 124.400,229.200 123.680,227.752 122.800 C 226.303 121.920,225.061 121.200,224.991 121.200 C 224.921 121.200,223.274 120.281,221.332 119.159 C 219.389 118.036,217.080 116.711,216.200 116.215 C 213.371 114.620,211.840 113.737,210.000 112.639 C 209.010 112.048,207.885 111.462,207.500 111.336 C 207.115 111.210,206.800 110.981,206.800 110.828 C 206.800 110.675,206.170 110.302,205.400 110.000 C 204.630 109.698,204.000 109.325,204.000 109.172 C 204.000 109.019,203.685 108.785,203.300 108.653 C 202.915 108.521,202.199 108.237,201.708 108.023 L 200.817 107.632 200.708 134.316 M126.400 203.064 C 123.870 204.515,121.170 206.066,120.400 206.512 C 119.630 206.958,118.280 207.700,117.400 208.162 C 116.520 208.623,115.710 209.090,115.600 209.201 C 115.490 209.311,114.860 209.671,114.200 210.000 C 113.540 210.329,112.910 210.689,112.800 210.799 C 112.690 210.910,112.170 211.242,111.645 211.538 C 111.120 211.833,110.110 212.401,109.400 212.800 C 106.062 214.675,106.399 213.075,106.405 226.996 C 106.412 240.774,106.446 241.098,107.948 241.468 C 108.527 241.611,109.270 242.028,109.600 242.394 C 109.930 242.761,110.785 243.316,111.500 243.628 C 112.215 243.940,112.800 244.331,112.800 244.498 C 112.800 244.664,113.120 244.800,113.512 244.800 C 113.903 244.800,114.483 245.160,114.800 245.600 C 115.117 246.040,115.697 246.400,116.088 246.400 C 116.480 246.400,116.800 246.580,116.800 246.800 C 116.800 247.020,117.160 247.200,117.600 247.200 C 118.040 247.200,118.400 247.380,118.400 247.600 C 118.400 247.820,118.720 248.000,119.112 248.000 C 119.503 248.000,120.083 248.360,120.400 248.800 C 120.717 249.240,121.297 249.600,121.688 249.600 C 122.080 249.600,122.400 249.780,122.400 250.000 C 122.400 250.220,122.760 250.400,123.200 250.400 C 123.640 250.400,124.000 250.580,124.000 250.800 C 124.000 251.020,124.294 251.200,124.653 251.200 C 125.012 251.200,125.597 251.529,125.953 251.930 C 126.309 252.332,127.185 252.916,127.900 253.228 C 128.615 253.540,129.200 253.931,129.200 254.098 C 129.200 254.264,129.560 254.400,130.000 254.400 C 130.440 254.400,130.800 254.552,130.800 254.737 C 130.800 254.923,131.655 255.505,132.700 256.032 C 133.745 256.558,134.690 257.102,134.800 257.239 C 135.168 257.699,137.553 258.800,138.180 258.800 C 138.521 258.800,138.800 258.980,138.800 259.200 C 138.800 259.420,139.120 259.600,139.512 259.600 C 139.903 259.600,140.483 259.960,140.800 260.400 C 141.117 260.840,141.697 261.200,142.088 261.200 C 142.480 261.200,142.800 261.380,142.800 261.600 C 142.800 261.820,143.070 262.000,143.400 262.000 C 143.730 262.000,144.000 262.180,144.000 262.400 C 144.000 262.620,144.278 262.800,144.617 262.800 C 144.956 262.800,145.620 263.160,146.092 263.600 C 146.564 264.040,147.187 264.400,147.475 264.400 C 147.764 264.400,148.000 264.580,148.000 264.800 C 148.000 265.020,148.360 265.200,148.800 265.200 C 149.240 265.200,149.600 265.380,149.600 265.600 C 149.600 265.820,149.945 266.000,150.367 266.000 C 150.788 266.000,151.202 266.205,151.285 266.455 C 151.503 267.110,154.772 265.514,161.918 261.260 C 163.082 260.567,164.207 260.000,164.418 260.000 C 164.628 260.000,164.800 259.854,164.800 259.675 C 164.800 259.496,165.430 259.102,166.200 258.800 C 166.970 258.498,167.600 258.125,167.600 257.972 C 167.600 257.819,167.915 257.587,168.300 257.458 C 168.685 257.328,169.540 256.898,170.200 256.502 C 174.735 253.782,176.491 252.800,176.821 252.800 C 177.030 252.800,177.200 252.620,177.200 252.400 C 177.200 252.180,177.369 252.000,177.577 252.000 C 177.784 252.000,180.958 250.290,184.631 248.200 C 188.304 246.110,191.465 244.400,191.655 244.400 C 191.845 244.400,192.001 244.265,192.003 244.100 C 192.005 243.935,192.410 243.602,192.903 243.360 C 195.311 242.178,197.413 240.970,197.533 240.700 C 197.607 240.535,197.845 240.400,198.062 240.400 C 198.671 240.400,199.600 239.330,199.600 238.629 C 199.600 238.267,199.261 238.000,198.800 238.000 C 198.360 238.000,198.000 237.820,198.000 237.600 C 198.000 237.380,197.640 237.200,197.200 237.200 C 196.760 237.200,196.400 237.020,196.400 236.800 C 196.400 236.580,196.080 236.400,195.688 236.400 C 195.297 236.400,194.717 236.040,194.400 235.600 C 194.083 235.160,193.503 234.800,193.112 234.800 C 192.720 234.800,192.400 234.620,192.400 234.400 C 192.400 234.180,192.130 234.000,191.800 234.000 C 191.470 234.000,191.200 233.820,191.200 233.600 C 191.200 233.380,190.840 233.200,190.400 233.200 C 189.960 233.200,189.600 233.048,189.600 232.863 C 189.600 232.677,188.745 232.092,187.700 231.563 C 186.655 231.033,185.740 230.465,185.667 230.300 C 185.593 230.135,185.188 230.000,184.767 230.000 C 184.345 230.000,184.000 229.858,184.000 229.684 C 184.000 229.287,179.923 227.200,179.148 227.200 C 178.834 227.200,178.317 226.840,178.000 226.400 C 177.683 225.960,177.103 225.600,176.712 225.600 C 176.320 225.600,176.000 225.420,176.000 225.200 C 176.000 224.980,175.730 224.800,175.400 224.800 C 175.070 224.800,174.800 224.620,174.800 224.400 C 174.800 224.180,174.522 224.000,174.183 224.000 C 173.844 224.000,173.180 223.640,172.708 223.200 C 172.236 222.760,171.613 222.400,171.325 222.400 C 171.036 222.400,170.800 222.220,170.800 222.000 C 170.800 221.780,170.480 221.600,170.088 221.600 C 169.697 221.600,169.117 221.240,168.800 220.800 C 168.483 220.360,167.903 220.000,167.512 220.000 C 167.120 220.000,166.800 219.820,166.800 219.600 C 166.800 219.380,166.440 219.200,166.000 219.200 C 165.560 219.200,165.200 219.020,165.200 218.800 C 165.200 218.580,164.880 218.400,164.488 218.400 C 164.097 218.400,163.517 218.040,163.200 217.600 C 162.883 217.160,162.303 216.800,161.912 216.800 C 161.520 216.800,161.200 216.620,161.200 216.400 C 161.200 216.180,160.840 216.000,160.400 216.000 C 159.960 216.000,159.600 215.820,159.600 215.600 C 159.600 215.380,159.330 215.200,159.000 215.200 C 158.670 215.200,158.400 215.020,158.400 214.800 C 158.400 214.580,158.145 214.400,157.833 214.400 C 157.522 214.400,157.207 214.265,157.133 214.100 C 157.060 213.935,156.100 213.352,155.000 212.805 C 153.900 212.258,152.910 211.698,152.800 211.561 C 152.432 211.101,150.047 210.000,149.420 210.000 C 149.079 210.000,148.800 209.820,148.800 209.600 C 148.800 209.380,148.480 209.200,148.088 209.200 C 147.697 209.200,147.117 208.840,146.800 208.400 C 146.483 207.960,145.903 207.600,145.512 207.600 C 145.120 207.600,144.800 207.420,144.800 207.200 C 144.800 206.980,144.440 206.800,144.000 206.800 C 143.560 206.800,143.200 206.620,143.200 206.400 C 143.200 206.180,142.880 206.000,142.488 206.000 C 142.097 206.000,141.517 205.640,141.200 205.200 C 140.883 204.760,140.393 204.400,140.112 204.400 C 139.830 204.400,139.600 204.220,139.600 204.000 C 139.600 203.780,139.240 203.600,138.800 203.600 C 138.360 203.600,138.000 203.420,138.000 203.200 C 138.000 202.980,137.680 202.800,137.288 202.800 C 136.897 202.800,136.317 202.440,136.000 202.000 C 135.683 201.560,135.103 201.200,134.712 201.200 C 134.320 201.200,134.000 201.020,134.000 200.800 C 134.000 199.584,130.814 200.534,126.400 203.064 " stroke="none" fill="#042c44" fill-rule="evenodd"></path><path id="path2" d="M200.497 133.700 L 200.594 160.200 200.700 133.914 C 200.798 109.632,200.856 107.647,201.468 107.882 C 201.914 108.052,202.036 107.982,201.842 107.668 C 200.455 105.424,200.398 106.534,200.497 133.700 M208.800 111.964 C 209.350 112.414,209.980 112.783,210.200 112.785 C 210.628 112.788,209.905 112.234,208.600 111.560 C 208.069 111.285,208.136 111.421,208.800 111.964 M184.600 114.800 C 183.940 115.237,183.580 115.592,183.800 115.588 C 184.201 115.582,186.376 114.023,186.000 114.012 C 185.890 114.008,185.260 114.363,184.600 114.800 M214.400 115.164 C 214.950 115.614,215.580 115.983,215.800 115.985 C 216.228 115.988,215.505 115.434,214.200 114.760 C 213.669 114.485,213.736 114.621,214.400 115.164 M178.296 118.358 C 175.860 119.787,175.319 120.344,177.400 119.280 C 178.945 118.491,180.810 117.218,180.400 117.233 C 180.290 117.237,179.343 117.743,178.296 118.358 M218.400 117.379 C 218.400 117.489,218.940 117.859,219.600 118.200 C 220.260 118.541,220.800 118.731,220.800 118.621 C 220.800 118.511,220.260 118.141,219.600 117.800 C 218.940 117.459,218.400 117.269,218.400 117.379 M239.200 129.379 C 239.200 129.489,239.740 129.859,240.400 130.200 C 241.060 130.541,241.600 130.731,241.600 130.621 C 241.600 130.511,241.060 130.141,240.400 129.800 C 239.740 129.459,239.200 129.269,239.200 129.379 M245.376 132.978 C 245.804 133.320,246.434 133.586,246.776 133.568 C 247.315 133.541,247.318 133.507,246.800 133.314 C 246.470 133.192,245.840 132.926,245.400 132.724 C 244.613 132.362,244.612 132.366,245.376 132.978 M300.000 164.364 C 300.550 164.814,301.180 165.183,301.400 165.185 C 301.828 165.188,301.105 164.634,299.800 163.960 C 299.269 163.685,299.336 163.821,300.000 164.364 M95.000 166.252 C 92.014 168.021,91.066 168.909,93.831 167.347 C 96.032 166.104,97.920 164.846,97.600 164.836 C 97.490 164.833,96.320 165.470,95.000 166.252 M302.000 165.364 C 302.000 165.597,306.719 168.400,307.110 168.400 C 307.451 168.400,306.318 167.644,303.900 166.256 C 302.855 165.657,302.000 165.255,302.000 165.364 M84.400 172.436 C 83.736 172.979,83.669 173.115,84.200 172.840 C 85.505 172.166,86.228 171.612,85.800 171.615 C 85.580 171.617,84.950 171.986,84.400 172.436 M70.700 180.229 C 70.095 180.557,69.600 180.910,69.600 181.013 C 69.600 181.399,70.232 181.157,71.200 180.400 C 72.389 179.470,72.211 179.409,70.700 180.229 M330.000 181.564 C 330.550 182.014,331.180 182.383,331.400 182.385 C 331.828 182.388,331.105 181.834,329.800 181.160 C 329.269 180.885,329.336 181.021,330.000 181.564 M67.900 181.829 C 66.405 182.640,66.496 182.978,68.000 182.200 C 68.660 181.859,69.200 181.494,69.200 181.390 C 69.200 181.132,69.157 181.147,67.900 181.829 M332.600 182.996 C 333.494 183.739,336.028 185.109,335.400 184.510 C 335.180 184.300,334.280 183.724,333.400 183.230 C 332.520 182.735,332.160 182.630,332.600 182.996 M62.800 184.836 C 62.136 185.379,62.069 185.515,62.600 185.240 C 63.905 184.566,64.628 184.012,64.200 184.015 C 63.980 184.017,63.350 184.386,62.800 184.836 M129.300 201.026 C 128.365 201.587,127.600 202.140,127.600 202.255 C 127.600 202.371,128.233 202.074,129.006 201.597 C 129.779 201.119,130.904 200.580,131.506 200.398 C 132.322 200.153,132.397 200.061,131.800 200.038 C 131.360 200.021,130.235 200.466,129.300 201.026 M125.600 203.236 C 124.936 203.779,124.869 203.915,125.400 203.640 C 126.705 202.966,127.428 202.412,127.000 202.415 C 126.780 202.417,126.150 202.786,125.600 203.236 M275.200 203.222 C 276.233 203.926,278.800 205.225,278.800 205.042 C 278.800 204.833,275.205 202.797,274.850 202.806 C 274.712 202.809,274.870 202.996,275.200 203.222 M293.494 213.634 C 293.857 214.100,294.018 217.655,294.100 227.034 L 294.212 239.800 294.306 226.949 C 294.393 215.119,294.344 214.054,293.700 213.549 C 293.081 213.064,293.057 213.074,293.494 213.634 M200.589 267.000 C 200.589 281.520,200.639 287.402,200.700 280.071 C 200.761 272.740,200.761 260.860,200.700 253.671 C 200.639 246.482,200.589 252.480,200.589 267.000 M214.769 248.691 C 215.303 249.081,216.653 249.899,217.769 250.509 C 218.886 251.120,219.364 251.300,218.831 250.909 C 218.297 250.519,216.947 249.701,215.831 249.091 C 214.714 248.480,214.236 248.300,214.769 248.691 M174.711 253.760 C 172.616 255.005,172.284 255.463,174.200 254.465 C 176.205 253.420,177.119 252.803,176.600 252.844 C 176.380 252.861,175.530 253.274,174.711 253.760 M243.200 265.164 C 243.750 265.614,244.380 265.983,244.600 265.985 C 245.028 265.988,244.305 265.434,243.000 264.760 C 242.469 264.485,242.536 264.621,243.200 265.164 " stroke="none" fill="#043c5c" fill-rule="evenodd"></path><path id="path3" d="M200.184 107.300 C 200.079 107.575,200.039 119.680,200.096 134.200 L 200.200 160.600 200.400 133.700 C 200.510 118.905,200.549 106.800,200.487 106.800 C 200.426 106.800,200.289 107.025,200.184 107.300 M200.097 267.300 L 200.194 294.200 200.300 267.622 C 200.382 246.972,200.517 240.973,200.903 240.728 C 201.255 240.504,201.196 240.410,200.700 240.406 C 200.039 240.400,200.005 241.909,200.097 267.300 " stroke="none" fill="#044872" fill-rule="evenodd"></path><path id="path4" d="M293.778 227.000 C 293.779 234.040,293.833 236.864,293.899 233.275 C 293.966 229.686,293.966 223.926,293.899 220.475 C 293.833 217.024,293.778 219.960,293.778 227.000 M199.168 240.300 C 198.729 240.880,198.729 240.920,199.168 240.531 C 199.459 240.273,199.975 240.169,200.314 240.299 C 200.719 240.455,200.832 240.375,200.642 240.068 C 200.237 239.413,199.786 239.484,199.168 240.300 " stroke="none" fill="#045484" fill-rule="evenodd"></path><path id="path5" d="M214.800 114.764 C 215.350 115.214,215.980 115.583,216.200 115.585 C 216.628 115.588,215.905 115.034,214.600 114.360 C 214.069 114.085,214.136 114.221,214.800 114.764 M185.000 115.200 C 184.340 115.637,183.980 115.992,184.200 115.988 C 184.601 115.982,186.776 114.423,186.400 114.412 C 186.290 114.408,185.660 114.763,185.000 115.200 M223.000 119.407 C 223.440 119.766,224.160 120.235,224.600 120.451 L 225.400 120.844 224.600 120.193 C 224.160 119.834,223.440 119.365,223.000 119.149 L 222.200 118.756 223.000 119.407 M154.687 132.646 C 154.551 132.782,153.846 133.033,153.120 133.205 C 151.972 133.477,151.933 133.523,152.824 133.559 C 153.386 133.582,154.196 133.336,154.624 133.013 C 155.051 132.690,155.295 132.420,155.167 132.413 C 155.038 132.406,154.822 132.511,154.687 132.646 M102.200 162.800 C 101.540 163.237,101.180 163.592,101.400 163.588 C 101.801 163.582,103.976 162.023,103.600 162.012 C 103.490 162.008,102.860 162.363,102.200 162.800 M96.500 166.046 C 95.137 166.919,94.695 167.506,95.900 166.843 C 96.818 166.339,98.256 165.227,98.000 165.219 C 97.890 165.216,97.215 165.588,96.500 166.046 M93.200 168.036 C 92.536 168.579,92.469 168.715,93.000 168.440 C 94.305 167.766,95.028 167.212,94.600 167.215 C 94.380 167.217,93.750 167.586,93.200 168.036 M128.500 200.846 C 127.137 201.719,126.695 202.306,127.900 201.643 C 128.818 201.139,130.256 200.027,130.000 200.019 C 129.890 200.016,129.215 200.388,128.500 200.846 M270.400 200.979 C 270.400 201.089,270.940 201.459,271.600 201.800 C 272.260 202.141,272.800 202.331,272.800 202.221 C 272.800 202.111,272.260 201.741,271.600 201.400 C 270.940 201.059,270.400 200.869,270.400 200.979 M119.600 206.036 C 118.936 206.579,118.869 206.715,119.400 206.440 C 120.705 205.766,121.428 205.212,121.000 205.215 C 120.780 205.217,120.150 205.586,119.600 206.036 M290.800 212.764 C 291.350 213.214,291.980 213.583,292.200 213.585 C 292.628 213.588,291.905 213.034,290.600 212.360 C 290.069 212.085,290.136 212.221,290.800 212.764 M106.443 213.748 C 106.119 214.138,106.021 218.015,106.100 227.248 L 106.211 240.200 106.306 227.180 C 106.374 217.696,106.530 214.030,106.880 213.680 C 107.144 213.416,107.256 213.200,107.129 213.200 C 107.002 213.200,106.693 213.446,106.443 213.748 M200.383 238.620 C 199.956 239.135,199.995 239.355,200.612 239.920 C 201.315 240.562,201.327 240.561,200.829 239.900 C 200.407 239.340,200.402 239.080,200.800 238.600 C 201.074 238.270,201.208 238.000,201.098 238.000 C 200.988 238.000,200.666 238.279,200.383 238.620 M193.000 244.000 C 192.340 244.437,191.980 244.792,192.200 244.788 C 192.601 244.782,194.776 243.223,194.400 243.212 C 194.290 243.208,193.660 243.563,193.000 244.000 M187.400 247.200 C 186.740 247.637,186.380 247.992,186.600 247.988 C 187.001 247.982,189.176 246.423,188.800 246.412 C 188.690 246.408,188.060 246.763,187.400 247.200 M184.500 248.846 C 183.137 249.719,182.695 250.306,183.900 249.643 C 184.818 249.139,186.256 248.027,186.000 248.019 C 185.890 248.016,185.215 248.388,184.500 248.846 M218.400 250.179 C 218.400 250.289,218.940 250.659,219.600 251.000 C 220.260 251.341,220.800 251.531,220.800 251.421 C 220.800 251.311,220.260 250.941,219.600 250.600 C 218.940 250.259,218.400 250.069,218.400 250.179 M226.400 254.820 C 227.787 255.761,228.578 256.035,227.600 255.236 C 227.050 254.786,226.420 254.417,226.200 254.415 C 225.980 254.413,226.070 254.596,226.400 254.820 M160.200 262.800 C 159.540 263.237,159.180 263.592,159.400 263.588 C 159.801 263.582,161.976 262.023,161.600 262.012 C 161.490 262.008,160.860 262.363,160.200 262.800 M242.800 264.179 C 242.800 264.289,243.340 264.659,244.000 265.000 C 244.660 265.341,245.200 265.531,245.200 265.421 C 245.200 265.311,244.660 264.941,244.000 264.600 C 243.340 264.259,242.800 264.069,242.800 264.179 " stroke="none" fill="#04548c" fill-rule="evenodd"></path></g></svg>