<svg height="64" preserveAspectRatio="xMidYMid" viewBox="0 0 32 32" width="64" xmlns="http://www.w3.org/2000/svg"><g fill="#8cc84b" transform="matrix(.11356022 0 0 .11356022 1.425953 .020353)"><path d="m116.50415 3.5803774c6.96151-3.9849057 16.03019-4.00301891 22.98566 0 34.99472 19.7735846 70.00151 39.5169806 104.99019 59.3026416 6.58113 3.70717 10.98264 11.030943 10.91623 18.61434v118.967551c.0483 7.89735-4.78793 15.39622-11.73132 19.01886-34.88 19.66491-69.74189 39.35397-104.61585 59.01887-7.10642 4.0634-16.35623 3.74943-23.23925-.64604-10.45736-6.06188-20.932829-12.09358-31.390187-18.14943-2.137359-1.27396-4.546415-2.2883-6.055849-4.35925 1.334339-1.79924 3.719245-2.02264 5.657358-2.80754 4.365283-1.38868 8.37434-3.61661 12.383396-5.77812 1.01434-.69434 2.252076-.42868 3.224151.19321 8.941891 5.12604 17.805281 10.40302 26.777361 15.48076 1.91396 1.1049 3.85207-.36227 5.4883-1.27397 34.22792-19.3449 68.49811-38.61735 102.72-57.9683 1.26792-.60981 1.9683-1.95622 1.86566-3.3449.0242-39.24529.006-78.49661.0121-117.74189.14491-1.575849-.76679-3.024906-2.19169-3.670944-34.75928-19.574339-69.50041-39.178867-104.25362-58.759245-1.24377-.845283-2.84981-.851321-4.09358-.006-34.75321 19.586378-69.488304 39.209019-104.241512 58.783359-1.418868.646037-2.37283 2.070943-2.203773 3.65283.006 39.24528 0 78.4966 0 117.74792-.120755 1.38868.627924 2.70491 1.889811 3.30265 9.273962 5.25886 18.56 10.4815 27.84 15.72226 5.228679 2.81359 11.646792 4.48604 17.406792 2.33057 5.083774-1.8234 8.646038-7.00982 8.549434-12.40755.0483-39.01585-.02415-78.03774.03623-117.047548-.126793-1.73283 1.515471-3.163774 3.2-3.000755 4.455849-.03019 8.917736-.06038 13.373585.01207 1.859622-.04226 3.139622 1.823397 2.910188 3.568302-.01811 39.263391.0483 78.526791-.03019 117.790181.01207 10.4634-4.286793 21.85057-13.965283 26.97057-11.924529 6.1766-26.662642 4.86641-38.442265-1.05661-10.197736-5.0898-19.930567-11.09734-29.94717-16.54942-6.9615098-3.60453-11.7735853-11.13358-11.72528342-19.0249v-118.967551c-.07245283-7.740378 4.50415092-15.196982 11.29056642-18.849812 34.873962-19.683019 69.741886-39.378113 104.60981-59.0671696z"/><path d="m146.9283 85.989434c15.20906-.978113 31.49283-.579623 45.18038 6.913208 10.59623 5.741886 16.47094 17.793208 16.65811 29.566788-.29585 1.58793-1.95622 2.4634-3.4717 2.35472-4.41358-.006-8.82717.0604-13.24075-.0302-1.8717.0725-2.95849-1.65434-3.19396-3.30868-1.26793-5.6332-4.34114-11.21207-9.64227-13.92905-8.13887-4.07547-17.57585-3.87019-26.45132-3.78566-6.47849.34415-13.44604.90566-18.93434 4.71547-4.21434 2.88603-5.49434 8.71245-3.99094 13.40377 1.41887 3.36906 5.30717 4.45585 8.48906 5.45812 18.33056 4.79396 37.75396 4.31698 55.73434 10.62641 7.44452 2.57207 14.72603 7.57132 17.27396 15.36604 3.33283 10.44528 1.8717 22.93132-5.56076 31.31773-6.02566 6.90113-14.80452 10.65661-23.55924 12.69736-11.6468 2.59623-23.73434 2.66264-35.56227 1.50944-11.12151-1.26793-22.69584-4.19019-31.28151-11.76755-7.34188-6.37585-10.9283-16.30793-10.57207-25.89585.0845-1.61811 1.6966-2.74717 3.2483-2.61434 4.44377-.0362 8.88755-.0483 13.33132.006 1.7751-.1268 3.09132 1.40679 3.18189 3.07924.82113 5.36755 2.83773 11.00076 7.51698 14.18264 9.03245 5.82642 20.36528 5.42793 30.70792 5.59095 8.56755-.38038 18.18566-.4951 25.17736-6.15849 3.68906-3.23019 4.78189-8.63397 3.78566-13.28302-1.08075-3.92453-5.18641-5.75396-8.71245-6.94944-18.09509-5.72377-37.73585-3.64679-55.65585-10.11924-7.27547-2.57208-14.30943-7.43245-17.1049-14.90717-3.90038-10.57811-2.11321-23.66189 6.09811-31.764529 8.00604-8.060377 19.56226-11.163774 30.55094-12.274717z"/></g></svg>