<svg id="svg" version="1.1" viewBox="0 0 400 400" xmlns="http://www.w3.org/2000/svg" xmlns:xlink="http://www.w3.org/1999/xlink" ><g id="svgg"><path id="path0" d="M194.800 12.041 C 184.452 12.849,180.354 13.292,178.737 13.775 C 177.782 14.061,175.380 14.521,173.400 14.797 C 171.420 15.073,169.350 15.525,168.800 15.803 C 168.250 16.080,166.720 16.537,165.400 16.818 C 164.080 17.100,162.643 17.510,162.207 17.729 C 161.771 17.948,160.241 18.442,158.807 18.826 C 157.373 19.211,154.670 20.186,152.800 20.993 C 150.930 21.800,148.696 22.719,147.835 23.035 C 146.974 23.352,146.074 23.762,145.835 23.947 C 145.596 24.132,144.848 24.469,144.173 24.696 C 141.538 25.580,127.823 33.629,123.208 37.000 C 122.605 37.440,121.592 38.152,120.956 38.583 C 119.887 39.307,118.066 40.669,116.920 41.603 C 115.719 42.582,107.274 49.813,106.200 50.783 C 104.088 52.689,95.338 62.128,93.009 65.012 C 87.699 71.587,83.798 76.945,80.605 82.047 C 80.382 82.403,79.856 83.213,79.436 83.847 C 77.391 86.932,76.732 88.023,75.230 90.800 C 74.337 92.450,72.790 95.420,71.791 97.400 C 70.791 99.380,69.814 101.270,69.618 101.600 C 68.883 102.842,66.800 107.567,66.800 107.995 C 66.800 108.239,66.494 109.016,66.120 109.720 C 65.746 110.424,65.137 111.810,64.767 112.800 C 64.396 113.790,63.518 116.040,62.815 117.800 C 62.112 119.560,61.207 122.170,60.804 123.600 C 60.401 125.030,59.785 127.055,59.435 128.100 C 59.086 129.145,58.516 130.855,58.170 131.900 C 57.823 132.945,57.202 135.468,56.789 137.507 C 56.376 139.546,55.931 141.388,55.800 141.599 C 55.670 141.811,55.294 143.563,54.965 145.492 C 54.636 147.421,54.124 149.810,53.827 150.800 C 53.530 151.790,53.076 154.850,52.818 157.600 C 52.560 160.350,52.101 163.770,51.798 165.200 C 51.442 166.880,51.096 173.250,50.818 183.200 C 50.114 208.497,50.070 209.639,49.640 213.800 C 49.413 216.000,49.038 220.717,48.808 224.283 C 48.578 227.848,48.137 232.168,47.828 233.883 C 47.519 235.597,47.147 238.350,47.003 240.000 C 46.858 241.650,46.476 244.440,46.155 246.200 C 45.833 247.960,45.304 251.110,44.979 253.200 C 44.653 255.290,44.120 257.797,43.794 258.771 C 43.467 259.745,43.200 261.022,43.200 261.607 C 43.200 262.193,42.822 264.096,42.359 265.836 C 41.897 267.576,41.196 270.440,40.802 272.200 C 40.408 273.960,39.515 277.200,38.819 279.400 C 38.122 281.600,37.282 284.468,36.951 285.773 C 36.621 287.077,36.172 288.479,35.954 288.887 C 35.735 289.295,35.227 290.837,34.825 292.314 C 34.422 293.791,33.523 296.530,32.827 298.400 C 32.131 300.270,31.240 302.790,30.847 304.000 C 30.454 305.210,29.934 306.560,29.691 307.000 C 29.448 307.440,28.977 308.610,28.645 309.600 C 28.069 311.315,27.271 313.452,24.950 319.498 C 22.624 325.555,21.517 328.712,20.987 330.800 C 20.680 332.010,20.159 333.630,19.830 334.400 C 17.492 339.865,16.673 350.117,18.400 352.295 C 19.980 354.287,29.487 354.980,34.040 353.434 C 35.014 353.103,37.518 352.539,39.605 352.180 C 41.692 351.820,43.580 351.379,43.800 351.199 C 44.020 351.019,45.602 350.582,47.316 350.229 C 49.030 349.875,50.740 349.411,51.116 349.197 C 51.492 348.984,53.240 348.440,55.000 347.990 C 58.013 347.219,62.190 346.067,67.187 344.629 C 68.390 344.283,69.755 344.000,70.220 344.000 C 70.685 344.000,72.221 343.641,73.633 343.203 C 79.518 341.377,91.027 341.053,96.000 342.573 C 98.942 343.472,102.057 344.731,102.751 345.301 C 103.108 345.595,103.940 346.097,104.600 346.417 C 106.478 347.329,113.708 354.719,115.541 357.600 C 116.451 359.030,117.484 360.596,117.838 361.079 C 118.514 362.004,119.403 363.540,120.801 366.200 C 121.264 367.080,122.167 368.610,122.808 369.600 C 123.449 370.590,124.328 372.046,124.761 372.835 C 127.392 377.623,133.699 383.145,137.800 384.251 C 141.351 385.209,152.588 384.500,154.195 383.217 C 154.418 383.039,155.914 382.598,157.521 382.237 C 159.127 381.876,160.747 381.402,161.121 381.183 C 161.494 380.963,162.790 380.451,164.000 380.043 C 165.210 379.636,167.460 378.808,169.000 378.203 C 170.540 377.598,172.790 376.748,174.000 376.315 C 175.210 375.881,176.380 375.387,176.600 375.216 C 176.820 375.045,177.990 374.544,179.200 374.102 C 182.300 372.970,189.496 370.076,191.400 369.195 C 192.280 368.788,193.540 368.334,194.200 368.186 C 194.860 368.038,196.480 367.506,197.800 367.005 C 199.120 366.503,200.920 365.966,201.800 365.811 C 202.680 365.655,203.580 365.388,203.800 365.217 C 206.243 363.312,218.394 363.787,224.736 366.035 C 226.641 366.710,229.119 367.591,230.243 367.992 C 232.039 368.633,235.983 370.632,242.056 373.977 C 243.077 374.540,244.697 375.429,245.656 375.954 C 246.615 376.478,247.490 377.038,247.600 377.198 C 247.710 377.358,248.430 377.809,249.200 378.200 C 249.970 378.591,250.690 379.042,250.800 379.202 C 250.910 379.362,251.720 379.881,252.600 380.356 C 253.480 380.831,254.920 381.666,255.800 382.212 C 256.680 382.759,258.210 383.656,259.200 384.206 C 260.190 384.757,261.270 385.375,261.600 385.581 C 270.366 391.047,279.524 392.358,285.760 389.042 C 286.837 388.469,287.917 387.999,288.160 387.997 C 290.732 387.981,299.763 379.408,302.447 374.433 C 302.971 373.462,303.883 371.842,304.474 370.833 C 305.064 369.825,305.676 368.730,305.833 368.400 C 305.990 368.070,306.515 367.260,307.000 366.600 C 307.485 365.940,308.171 364.860,308.526 364.200 C 310.510 360.504,321.037 352.009,323.649 351.998 C 323.952 351.996,324.688 351.740,325.285 351.429 C 326.654 350.715,329.711 350.128,333.723 349.810 C 335.441 349.674,337.291 349.394,337.834 349.187 C 338.377 348.981,345.611 348.726,353.910 348.621 C 383.858 348.244,386.694 347.225,386.770 336.821 C 386.800 332.624,386.266 327.181,385.532 324.200 C 383.830 317.291,382.169 311.950,380.776 308.904 C 380.349 307.972,380.000 306.977,380.000 306.693 C 380.000 306.410,379.752 305.823,379.449 305.389 C 379.146 304.955,378.613 303.790,378.266 302.800 C 377.505 300.635,375.761 296.260,374.997 294.600 C 374.693 293.940,373.874 292.050,373.177 290.400 C 372.480 288.750,371.480 286.466,370.955 285.325 C 370.430 284.184,370.000 283.042,370.000 282.787 C 370.000 282.532,369.728 281.846,369.395 281.262 C 369.062 280.678,368.445 279.210,368.024 278.000 C 366.245 272.886,365.527 270.932,365.010 269.800 C 364.708 269.140,364.332 268.060,364.174 267.400 C 364.016 266.740,363.573 265.570,363.190 264.800 C 362.806 264.030,362.280 262.368,362.019 261.107 C 361.759 259.846,361.409 258.729,361.241 258.626 C 361.074 258.522,360.705 257.394,360.421 256.119 C 360.138 254.843,359.574 252.785,359.169 251.544 C 358.763 250.304,358.256 248.198,358.042 246.866 C 357.827 245.534,357.479 244.119,357.267 243.722 C 357.056 243.325,356.668 241.560,356.405 239.800 C 356.142 238.040,355.744 235.880,355.522 235.000 C 355.150 233.532,354.911 231.997,353.589 222.600 C 352.572 215.374,352.405 213.176,351.791 199.000 C 351.439 190.860,350.993 180.780,350.800 176.600 C 350.433 168.651,349.728 160.130,349.391 159.586 C 349.283 159.411,348.838 156.635,348.402 153.417 C 347.967 150.199,347.451 147.259,347.258 146.883 C 347.064 146.507,346.683 144.940,346.411 143.400 C 346.139 141.860,345.683 139.790,345.398 138.800 C 345.113 137.810,344.581 135.655,344.215 134.011 C 343.849 132.367,343.403 130.837,343.224 130.611 C 343.045 130.385,342.588 128.940,342.209 127.400 C 341.830 125.860,341.386 124.420,341.222 124.200 C 341.058 123.980,340.702 122.900,340.432 121.800 C 340.161 120.700,339.520 118.810,339.007 117.600 C 338.494 116.390,337.608 114.297,337.038 112.950 C 336.467 111.602,336.000 110.340,336.000 110.144 C 336.000 109.948,335.666 109.161,335.259 108.394 C 334.851 107.627,334.311 106.370,334.059 105.600 C 333.229 103.070,326.270 89.838,323.555 85.631 C 321.350 82.211,321.312 82.152,319.511 79.384 C 318.790 78.275,318.020 77.085,317.800 76.740 C 316.745 75.085,315.665 73.614,314.008 71.577 C 313.014 70.354,311.750 68.749,311.200 68.008 C 305.883 60.853,296.907 51.628,287.837 43.998 C 283.240 40.131,272.339 32.448,269.000 30.723 C 267.562 29.980,265.084 28.604,261.721 26.683 C 260.358 25.905,258.828 25.139,258.321 24.982 C 257.815 24.825,256.591 24.270,255.603 23.748 C 254.615 23.227,253.535 22.799,253.203 22.799 C 252.871 22.798,252.056 22.465,251.390 22.059 C 250.725 21.654,249.465 21.087,248.590 20.800 C 247.716 20.513,246.640 20.054,246.200 19.779 C 245.760 19.504,244.770 19.158,244.000 19.010 C 242.567 18.736,237.618 17.260,234.400 16.148 C 233.410 15.806,230.670 15.198,228.312 14.798 C 225.953 14.397,223.433 13.884,222.712 13.657 C 221.990 13.431,219.060 13.055,216.200 12.824 C 204.761 11.896,200.564 11.597,199.800 11.654 C 199.360 11.686,197.110 11.861,194.800 12.041 M159.800 95.185 C 163.216 96.286,170.098 99.639,171.978 101.117 C 176.396 104.591,181.281 110.067,183.559 114.100 C 185.043 116.725,185.679 116.946,186.437 115.100 C 187.768 111.861,194.287 104.083,197.418 102.000 C 197.914 101.670,199.283 100.742,200.460 99.937 C 216.365 89.067,240.138 94.156,251.041 110.766 C 253.050 113.827,253.953 115.357,254.598 116.800 C 254.943 117.570,255.499 118.693,255.833 119.296 C 256.946 121.303,258.836 127.762,259.199 130.800 C 259.397 132.450,259.745 135.060,259.974 136.600 C 260.461 139.889,259.659 147.584,258.347 152.200 C 257.909 153.740,257.375 155.701,257.160 156.558 C 256.713 158.345,252.605 166.400,251.836 167.000 C 251.554 167.220,251.013 167.999,250.635 168.732 C 249.335 171.248,240.770 179.200,239.360 179.200 C 239.106 179.200,238.689 179.452,238.433 179.761 C 237.037 181.442,229.114 184.258,224.127 184.845 C 209.613 186.552,194.291 178.394,186.991 165.072 C 185.329 162.040,185.342 162.039,183.400 165.161 C 180.899 169.182,179.978 170.371,177.130 173.257 C 164.082 186.478,145.841 188.941,131.364 179.436 C 130.724 179.016,129.503 178.211,128.652 177.648 C 126.882 176.478,120.400 170.154,120.400 169.597 C 120.400 169.394,119.861 168.614,119.202 167.863 C 111.677 159.293,108.466 141.057,111.972 126.800 C 112.879 123.115,112.841 123.215,114.958 118.770 C 115.751 117.104,116.400 115.625,116.400 115.484 C 116.400 115.344,116.947 114.457,117.615 113.514 C 118.282 112.571,119.302 111.080,119.880 110.200 C 121.687 107.447,128.081 101.394,130.481 100.164 C 131.207 99.792,131.892 99.347,132.005 99.174 C 132.345 98.653,138.122 96.000,138.915 96.000 C 139.321 96.000,140.046 95.782,140.526 95.516 C 143.610 93.808,154.928 93.614,159.800 95.185 M146.800 99.650 C 145.810 99.873,143.920 100.304,142.600 100.607 C 137.990 101.667,132.897 104.490,128.876 108.212 C 126.041 110.837,121.528 116.701,120.997 118.450 C 120.839 118.972,120.370 119.960,119.957 120.644 C 114.825 129.127,114.903 148.127,120.113 158.800 C 121.228 161.086,122.050 162.451,124.872 166.709 C 127.740 171.038,135.510 176.467,141.317 178.201 C 147.572 180.068,151.223 180.177,157.577 178.686 C 160.959 177.893,162.563 177.214,167.659 174.424 C 172.443 171.805,180.799 160.921,182.120 155.589 C 183.234 151.093,187.477 152.014,188.865 157.053 C 189.099 157.904,189.630 159.078,190.045 159.662 C 190.460 160.246,190.803 160.876,190.807 161.062 C 190.814 161.386,192.377 163.894,193.884 166.000 C 195.272 167.940,201.310 173.640,202.901 174.515 C 209.746 178.274,214.166 179.640,219.600 179.672 C 222.902 179.692,230.542 178.195,231.722 177.298 C 231.985 177.098,232.830 176.684,233.600 176.379 C 240.669 173.578,250.818 161.444,252.179 154.167 C 252.340 153.305,252.859 151.520,253.331 150.200 C 254.461 147.044,254.621 132.001,253.551 129.600 C 253.207 128.830,252.705 127.210,252.435 126.000 C 251.993 124.017,250.531 120.363,249.555 118.800 C 249.349 118.470,248.822 117.449,248.385 116.532 C 247.948 115.614,247.458 114.804,247.295 114.732 C 247.133 114.659,246.243 113.583,245.318 112.341 C 240.129 105.372,232.751 101.177,222.896 99.593 C 213.847 98.138,202.058 103.212,195.267 111.484 C 192.363 115.021,189.500 119.827,188.811 122.321 C 187.039 128.728,183.662 127.619,180.394 119.556 C 179.841 118.192,179.646 117.864,177.210 114.200 C 170.649 104.331,156.367 97.498,146.800 99.650 M162.845 130.406 C 170.682 131.883,176.541 138.896,176.543 146.800 C 176.545 161.927,158.817 169.121,148.096 158.344 C 146.943 157.185,146.000 156.086,146.000 155.902 C 146.000 155.718,145.643 155.080,145.206 154.484 C 144.769 153.888,144.137 151.941,143.801 150.158 C 141.634 138.642,151.615 128.290,162.845 130.406 M214.076 130.411 C 223.392 132.133,229.548 141.705,227.251 150.897 C 223.438 166.154,203.110 167.988,196.123 153.706 C 194.521 150.432,193.887 143.851,195.031 142.361 C 195.268 142.053,195.789 140.916,196.189 139.834 C 198.483 133.634,207.061 129.114,214.076 130.411 M188.572 319.645 C 188.421 319.889,188.546 320.247,188.849 320.439 C 189.293 320.720,189.272 320.789,188.743 320.794 C 187.948 320.801,187.451 319.731,188.122 319.457 C 188.851 319.161,188.867 319.168,188.572 319.645 M99.508 320.325 C 99.595 320.586,99.382 320.800,99.033 320.800 C 98.685 320.800,98.400 320.515,98.400 320.167 C 98.400 319.460,99.261 319.583,99.508 320.325 M99.600 324.047 C 99.600 324.617,98.505 324.451,98.273 323.845 C 98.123 323.456,98.290 323.351,98.830 323.492 C 99.253 323.603,99.600 323.852,99.600 324.047 M99.600 327.000 C 99.600 327.330,99.330 327.600,99.000 327.600 C 98.670 327.600,98.400 327.330,98.400 327.000 C 98.400 326.670,98.670 326.400,99.000 326.400 C 99.330 326.400,99.600 326.670,99.600 327.000 M82.800 329.642 C 82.800 330.027,81.726 330.393,81.439 330.106 C 80.958 329.624,81.220 329.251,82.000 329.310 C 82.440 329.343,82.800 329.493,82.800 329.642 M154.740 334.700 C 154.707 337.505,154.605 339.305,154.513 338.700 C 154.422 338.095,154.179 337.600,153.973 337.600 C 153.767 337.600,153.600 335.810,153.600 333.600 C 153.600 330.311,153.707 329.600,154.200 329.600 C 154.705 329.600,154.791 330.407,154.740 334.700 M98.210 332.770 C 97.877 333.818,93.600 334.049,93.600 333.018 C 93.600 332.476,94.331 332.247,97.200 331.892 C 98.479 331.734,98.526 331.774,98.210 332.770 M161.600 332.600 C 161.600 333.222,161.373 333.600,161.000 333.600 C 160.280 333.600,160.213 332.747,160.880 332.080 C 161.542 331.418,161.600 331.460,161.600 332.600 M86.724 332.700 C 86.632 333.175,86.216 333.400,85.428 333.400 C 84.017 333.400,83.588 332.532,84.877 332.285 C 86.640 331.948,86.859 331.998,86.724 332.700 M83.600 333.000 C 83.600 333.373,83.222 333.600,82.600 333.600 C 81.978 333.600,81.600 333.373,81.600 333.000 C 81.600 332.627,81.978 332.400,82.600 332.400 C 83.222 332.400,83.600 332.627,83.600 333.000 M315.698 333.800 C 315.858 334.638,315.736 334.800,314.945 334.800 C 313.673 334.800,314.099 333.136,315.453 332.813 C 315.483 332.806,315.593 333.250,315.698 333.800 M75.600 334.000 C 75.999 334.746,75.904 334.800,74.190 334.800 C 73.067 334.800,72.449 334.644,72.600 334.400 C 72.736 334.180,73.387 334.000,74.047 334.000 C 74.745 334.000,75.144 333.833,75.000 333.600 C 74.864 333.380,74.847 333.200,74.962 333.200 C 75.078 333.200,75.365 333.560,75.600 334.000 M72.150 335.015 C 72.280 335.353,72.165 335.686,71.893 335.754 C 71.622 335.823,70.834 336.063,70.143 336.288 C 69.135 336.617,68.902 336.589,68.967 336.145 C 69.102 335.222,69.800 334.781,71.657 334.446 C 71.799 334.421,72.021 334.677,72.150 335.015 M285.423 335.637 C 285.570 335.875,285.508 336.252,285.285 336.475 C 284.768 336.992,282.400 336.494,282.401 335.868 C 282.402 335.268,285.068 335.064,285.423 335.637 M162.400 336.551 C 162.400 337.074,162.670 337.726,163.000 338.000 C 164.216 339.009,163.699 339.600,161.600 339.600 C 160.089 339.600,159.600 339.453,159.600 339.000 C 159.600 338.670,159.780 338.400,160.000 338.400 C 160.220 338.400,160.400 337.770,160.400 337.000 C 160.400 335.773,160.524 335.600,161.400 335.600 C 162.186 335.600,162.400 335.803,162.400 336.551 M197.600 343.449 C 197.600 344.028,197.365 344.400,197.000 344.400 C 196.577 344.400,196.400 343.972,196.400 342.951 C 196.400 341.708,196.485 341.573,197.000 342.000 C 197.330 342.274,197.600 342.926,197.600 343.449 M315.600 343.400 C 315.600 344.519,314.631 344.778,314.241 343.764 C 313.938 342.973,314.266 342.400,315.024 342.400 C 315.372 342.400,315.600 342.796,315.600 343.400 M164.400 345.024 C 164.400 345.341,164.220 345.600,164.000 345.600 C 163.780 345.600,163.600 345.229,163.600 344.776 C 163.600 344.323,163.780 344.064,164.000 344.200 C 164.220 344.336,164.400 344.707,164.400 345.024 M164.400 348.600 C 164.400 349.150,164.220 349.600,164.000 349.600 C 163.780 349.600,163.600 349.150,163.600 348.600 C 163.600 348.050,163.780 347.600,164.000 347.600 C 164.220 347.600,164.400 348.050,164.400 348.600 M290.400 348.200 C 290.400 348.530,290.580 348.800,290.800 348.800 C 291.020 348.800,291.200 348.980,291.200 349.200 C 291.200 349.420,290.570 349.600,289.800 349.600 C 288.573 349.600,288.400 349.476,288.400 348.600 C 288.400 347.800,288.600 347.600,289.400 347.600 C 290.022 347.600,290.400 347.827,290.400 348.200 M292.400 351.024 C 292.400 351.341,292.220 351.600,292.000 351.600 C 291.780 351.600,291.600 351.229,291.600 350.776 C 291.600 350.323,291.780 350.064,292.000 350.200 C 292.220 350.336,292.400 350.707,292.400 351.024 M311.334 350.300 C 311.434 350.465,311.274 350.823,310.979 351.096 C 310.392 351.639,309.775 351.088,310.200 350.400 C 310.492 349.928,311.078 349.876,311.334 350.300 M199.600 351.200 C 199.600 352.028,198.635 352.304,198.200 351.600 C 197.865 351.058,198.317 350.400,199.024 350.400 C 199.341 350.400,199.600 350.760,199.600 351.200 M283.600 352.000 C 283.600 353.156,283.433 353.600,283.000 353.600 C 282.567 353.600,282.400 353.156,282.400 352.000 C 282.400 350.844,282.567 350.400,283.000 350.400 C 283.433 350.400,283.600 350.844,283.600 352.000 M156.800 352.367 C 156.800 353.372,156.396 354.400,156.001 354.400 C 155.583 354.400,155.112 352.466,155.411 351.982 C 155.829 351.306,156.800 351.576,156.800 352.367 M286.655 352.198 C 287.160 352.703,287.175 353.014,286.746 354.198 C 286.034 356.168,285.600 355.941,285.600 353.600 C 285.600 351.448,285.731 351.274,286.655 352.198 M309.600 352.800 C 309.600 353.244,309.333 353.600,309.000 353.600 C 308.391 353.600,308.179 352.754,308.667 352.267 C 309.174 351.760,309.600 352.003,309.600 352.800 M198.000 357.133 C 197.730 357.223,197.220 357.635,196.866 358.048 C 196.512 358.462,196.046 358.800,195.831 358.800 C 195.616 358.800,195.656 358.584,195.920 358.320 C 196.184 358.056,196.400 357.510,196.400 357.107 C 196.400 356.130,198.140 355.439,198.346 356.334 C 198.426 356.684,198.270 357.043,198.000 357.133 M293.282 356.352 C 293.571 356.766,294.167 357.195,294.604 357.306 C 295.042 357.417,294.545 357.528,293.500 357.554 C 291.728 357.597,291.600 357.533,291.600 356.600 C 291.600 355.404,292.522 355.268,293.282 356.352 M194.000 360.800 C 193.508 361.719,192.400 361.878,192.400 361.029 C 192.400 360.534,192.952 360.218,194.114 360.046 C 194.287 360.021,194.235 360.360,194.000 360.800 M284.689 362.659 C 285.261 363.892,285.053 364.400,283.976 364.400 C 283.163 364.400,283.051 363.995,283.452 362.500 C 283.767 361.326,284.089 361.368,284.689 362.659 M190.500 362.282 C 190.005 362.378,189.600 362.713,189.600 363.028 C 189.600 363.343,189.330 363.600,189.000 363.600 C 188.391 363.600,188.179 362.754,188.667 362.267 C 188.813 362.120,189.488 362.025,190.167 362.054 C 191.109 362.096,191.188 362.150,190.500 362.282 M160.560 367.133 C 160.538 367.390,160.493 367.960,160.460 368.400 C 160.354 369.810,159.600 369.254,159.600 367.767 C 159.600 366.798,159.762 366.387,160.100 366.500 C 160.375 366.592,160.582 366.877,160.560 367.133 M284.400 367.000 C 284.400 367.330,284.580 367.600,284.800 367.600 C 285.020 367.600,285.200 368.063,285.200 368.629 C 285.200 369.394,285.020 369.624,284.500 369.526 C 283.716 369.377,283.217 366.400,283.976 366.400 C 284.209 366.400,284.400 366.670,284.400 367.000 M163.471 370.640 C 163.606 370.993,163.475 371.430,163.180 371.612 C 162.500 372.033,161.200 371.359,161.200 370.586 C 161.200 369.778,163.158 369.825,163.471 370.640 M289.600 371.449 C 289.600 372.336,289.507 372.421,289.000 372.000 C 288.670 371.726,288.400 371.254,288.400 370.951 C 288.400 370.648,288.670 370.400,289.000 370.400 C 289.381 370.400,289.600 370.783,289.600 371.449 M287.725 371.900 C 287.246 373.244,286.739 373.647,286.147 373.156 C 285.265 372.424,285.516 371.666,286.700 371.487 C 287.305 371.395,287.839 371.293,287.887 371.260 C 287.936 371.227,287.863 371.515,287.725 371.900 M297.600 372.000 C 297.600 372.220,297.330 372.400,297.000 372.400 C 296.670 372.400,296.400 372.220,296.400 372.000 C 296.400 371.780,296.670 371.600,297.000 371.600 C 297.330 371.600,297.600 371.780,297.600 372.000 M293.780 376.368 C 293.905 376.570,293.721 377.022,293.371 377.371 C 292.683 378.060,292.000 377.880,292.000 377.010 C 292.000 376.204,293.373 375.709,293.780 376.368 M288.893 377.200 C 289.168 377.640,289.769 378.000,290.230 378.000 C 291.273 378.000,291.607 378.316,291.330 379.039 C 290.721 380.624,287.600 379.276,287.600 377.429 C 287.600 376.199,288.202 376.093,288.893 377.200 " stroke="none" fill="#dadae1" fill-rule="evenodd"></path><path id="path1" d="M184.357 2.013 C 181.841 2.315,181.200 2.597,181.200 3.399 C 181.200 4.241,183.984 4.500,191.342 4.342 C 198.111 4.196,198.869 4.047,198.024 3.029 C 197.249 2.095,188.861 1.472,184.357 2.013 M208.800 1.965 C 203.486 2.371,201.318 3.633,205.056 4.146 C 210.881 4.944,220.400 4.357,220.400 3.200 C 220.400 1.965,215.552 1.449,208.800 1.965 M170.100 4.412 C 168.805 4.933,168.992 5.858,170.450 6.150 C 173.291 6.718,180.133 6.205,179.884 5.443 C 179.495 4.248,172.375 3.498,170.100 4.412 M224.100 4.412 C 220.977 5.668,226.274 7.045,230.769 6.146 C 232.291 5.842,232.308 4.778,230.798 4.357 C 229.353 3.955,225.151 3.990,224.100 4.412 M196.200 5.200 C 196.050 5.442,193.082 5.605,188.676 5.613 C 182.913 5.623,181.239 5.748,180.624 6.213 C 180.196 6.536,179.431 6.800,178.924 6.800 C 178.416 6.800,178.000 6.980,178.000 7.200 C 178.000 7.438,176.477 7.600,174.232 7.600 C 170.658 7.600,168.132 8.254,167.667 9.300 C 167.593 9.465,166.468 9.600,165.167 9.600 C 163.865 9.600,162.800 9.777,162.800 9.992 C 162.800 10.208,162.350 10.498,161.800 10.636 C 161.250 10.774,160.800 11.047,160.800 11.243 C 160.800 11.440,159.832 11.600,158.649 11.600 C 157.225 11.600,156.330 11.803,156.000 12.200 C 155.726 12.530,155.164 12.800,154.751 12.800 C 154.338 12.800,154.000 12.980,154.000 13.200 C 154.000 13.856,151.314 13.674,151.055 13.000 C 150.876 12.534,151.156 12.399,152.313 12.394 C 154.323 12.386,155.139 11.847,154.559 10.911 C 153.806 9.695,151.303 9.737,150.738 10.976 C 150.341 11.847,150.011 12.000,148.523 12.000 C 147.332 12.000,146.701 12.193,146.543 12.605 C 146.157 13.611,147.184 14.400,148.878 14.400 C 150.282 14.400,150.390 14.467,149.857 15.000 C 149.527 15.330,148.575 15.600,147.741 15.600 C 146.632 15.600,146.002 15.861,145.391 16.571 C 144.254 17.894,141.582 18.154,140.990 17.000 C 140.505 16.053,138.994 15.741,138.178 16.418 C 137.156 17.267,137.551 17.942,139.300 18.334 C 140.235 18.543,140.685 18.734,140.300 18.757 C 139.915 18.781,139.600 18.980,139.600 19.200 C 139.600 19.420,139.169 19.600,138.643 19.600 C 138.116 19.600,137.582 19.870,137.455 20.200 C 137.329 20.530,136.949 20.800,136.613 20.800 C 136.276 20.800,136.000 20.980,136.000 21.200 C 136.000 21.921,133.993 21.619,132.767 20.713 C 131.834 20.022,131.415 19.921,130.883 20.255 C 129.086 21.388,130.850 23.044,132.763 22.020 C 133.371 21.694,133.600 21.693,133.600 22.014 C 133.600 23.527,130.647 24.209,130.200 22.800 C 129.851 21.699,128.334 21.775,127.155 22.952 C 126.630 23.476,125.859 23.971,125.443 24.052 C 124.307 24.274,123.645 25.521,124.400 26.017 C 124.730 26.233,125.315 26.335,125.700 26.243 C 126.549 26.039,126.587 26.270,125.829 27.029 C 125.109 27.748,124.413 27.736,123.424 26.987 C 122.374 26.193,121.722 26.248,120.907 27.200 C 120.530 27.640,119.912 28.000,119.534 28.000 C 119.155 28.000,118.578 28.382,118.251 28.849 C 117.923 29.316,117.240 29.906,116.731 30.159 C 115.414 30.816,115.336 31.847,116.580 32.159 C 117.772 32.458,117.963 33.600,116.821 33.600 C 116.392 33.600,115.556 34.050,114.962 34.600 C 113.790 35.686,112.400 35.930,112.400 35.050 C 112.400 34.748,112.954 34.389,113.630 34.254 C 114.976 33.985,115.126 33.017,113.937 32.268 C 113.294 31.863,108.000 36.500,108.000 37.468 C 108.000 37.656,107.596 37.988,107.102 38.205 C 105.913 38.728,105.728 39.860,106.777 40.193 C 107.649 40.470,107.929 41.600,107.126 41.600 C 106.865 41.600,106.227 41.201,105.708 40.713 C 104.968 40.019,104.616 39.920,104.082 40.256 C 102.897 41.002,103.050 41.870,104.413 42.143 C 105.517 42.363,105.386 43.600,104.259 43.600 C 104.151 43.600,103.545 44.095,102.913 44.700 C 102.282 45.305,100.828 46.652,99.683 47.694 C 98.537 48.735,97.600 49.783,97.600 50.022 C 97.600 50.810,96.362 51.785,96.034 51.256 C 95.381 50.198,96.041 48.450,97.142 48.323 C 98.138 48.207,98.528 46.795,97.772 46.039 C 97.406 45.673,96.206 46.654,96.056 47.443 C 95.977 47.859,95.122 48.983,94.156 49.940 C 93.190 50.896,92.400 51.841,92.400 52.040 C 92.400 52.519,93.738 52.502,94.223 52.017 C 94.446 51.794,94.841 51.778,95.168 51.980 C 95.784 52.361,94.913 53.600,94.029 53.600 C 93.793 53.600,93.600 53.793,93.600 54.029 C 93.600 55.012,92.344 55.800,91.936 55.072 C 91.730 54.703,91.299 54.400,90.980 54.400 C 90.184 54.400,90.248 55.475,91.072 55.936 C 91.682 56.277,91.686 56.371,91.120 56.937 C 90.408 57.649,90.000 57.417,90.000 56.300 C 90.000 55.424,89.255 55.534,88.645 56.500 C 88.340 56.985,88.410 57.348,88.917 57.908 C 89.293 58.323,89.600 58.874,89.600 59.131 C 89.600 59.919,88.470 59.652,88.200 58.800 C 87.914 57.898,87.195 57.765,86.480 58.480 C 85.765 59.195,85.898 59.914,86.800 60.200 C 87.240 60.340,87.600 60.712,87.600 61.027 C 87.600 61.893,86.490 61.713,86.200 60.800 C 85.914 59.898,85.195 59.765,84.480 60.480 C 83.765 61.195,83.898 61.914,84.800 62.200 C 85.861 62.537,85.808 63.157,84.600 64.562 C 84.050 65.201,83.600 65.889,83.600 66.091 C 83.600 67.342,82.382 67.611,82.143 66.413 C 81.970 65.550,81.692 65.200,81.246 65.284 C 80.384 65.448,80.198 67.334,80.980 67.983 C 81.321 68.266,81.600 68.746,81.600 69.049 C 81.600 69.899,80.486 69.701,80.200 68.800 C 79.914 67.898,79.195 67.765,78.480 68.480 C 77.765 69.195,77.898 69.914,78.800 70.200 C 79.743 70.499,79.819 71.038,79.029 71.829 C 78.264 72.593,78.210 72.565,78.141 71.374 C 78.063 70.037,77.718 69.730,76.881 70.255 C 75.889 70.877,75.843 72.134,76.782 72.984 C 77.754 73.863,77.798 74.259,77.012 75.045 C 76.395 75.662,76.279 75.447,75.913 73.013 C 75.800 72.268,75.746 72.277,74.897 73.188 C 73.885 74.274,73.688 76.000,74.576 76.000 C 75.479 76.000,75.742 76.787,75.187 77.824 C 74.618 78.887,74.000 78.757,74.000 77.576 C 74.000 76.646,72.986 76.538,72.643 77.432 C 72.343 78.215,72.760 80.000,73.243 80.000 C 73.440 80.000,73.600 80.360,73.600 80.800 C 73.600 82.078,72.410 81.752,72.140 80.400 C 71.862 79.010,71.578 78.920,70.662 79.931 C 69.768 80.919,69.828 81.891,70.800 82.200 C 71.604 82.455,71.947 84.000,71.200 84.000 C 70.980 84.000,70.800 84.259,70.800 84.576 C 70.800 84.893,70.594 85.280,70.342 85.436 C 70.024 85.632,69.958 85.421,70.127 84.748 C 70.666 82.602,69.530 81.238,68.369 82.637 C 67.924 83.174,67.980 83.536,68.721 84.937 C 69.759 86.895,69.778 87.079,69.031 87.826 C 68.539 88.318,68.427 88.233,68.200 87.202 C 67.855 85.630,67.463 85.446,66.568 86.435 C 65.848 87.231,65.851 87.295,66.716 88.926 C 67.803 90.979,67.803 91.024,66.741 92.117 C 66.064 92.812,65.935 92.850,66.130 92.296 C 66.537 91.139,65.975 89.146,65.279 89.281 C 64.151 89.500,63.786 91.575,64.756 92.254 C 65.745 92.947,65.898 94.959,65.029 95.829 C 64.241 96.616,64.210 96.586,64.126 94.957 C 64.004 92.598,62.344 92.656,62.065 95.030 C 61.990 95.662,61.495 96.614,60.965 97.144 C 59.809 98.300,59.759 98.858,60.731 99.738 C 61.843 100.744,62.000 100.573,62.000 98.357 C 62.000 96.659,62.107 96.355,62.633 96.557 C 62.981 96.691,63.341 96.800,63.433 96.800 C 64.093 96.800,63.451 99.446,62.600 100.235 C 61.955 100.833,61.600 101.594,61.600 102.381 C 61.600 103.051,61.440 103.600,61.243 103.600 C 61.047 103.600,60.774 104.050,60.636 104.600 C 60.498 105.150,60.208 105.600,59.992 105.600 C 59.777 105.600,59.600 106.238,59.600 107.017 C 59.600 107.975,59.276 108.785,58.600 109.513 C 57.941 110.224,57.600 111.056,57.600 111.950 C 57.600 112.885,57.288 113.597,56.600 114.235 C 55.816 114.962,55.600 115.554,55.600 116.981 C 55.600 117.981,55.420 118.800,55.200 118.800 C 54.980 118.800,54.800 119.166,54.800 119.613 C 54.800 120.059,54.530 120.529,54.200 120.655 C 53.761 120.824,53.600 121.516,53.600 123.243 C 53.600 124.539,53.440 125.600,53.243 125.600 C 53.047 125.600,52.774 126.050,52.636 126.600 C 52.498 127.150,52.208 127.600,51.992 127.600 C 51.777 127.600,51.600 128.485,51.600 129.567 C 51.600 130.648,51.465 131.593,51.300 131.667 C 50.349 132.089,49.600 134.660,49.600 137.498 C 49.600 140.407,48.722 143.600,47.923 143.600 C 47.745 143.600,47.600 144.849,47.600 146.376 C 47.600 147.903,47.436 149.254,47.235 149.378 C 47.034 149.503,46.748 150.322,46.600 151.200 C 46.452 152.078,46.166 152.897,45.965 153.022 C 45.764 153.146,45.600 155.637,45.600 158.557 C 45.600 161.477,45.465 164.001,45.300 164.164 C 44.270 165.186,43.878 171.737,43.744 190.200 C 43.667 200.760,43.443 209.760,43.246 210.200 C 42.552 211.753,41.879 218.280,41.722 224.982 C 41.634 228.712,41.408 231.952,41.220 232.182 C 41.032 232.412,40.750 233.818,40.592 235.306 C 40.435 236.794,40.147 238.109,39.953 238.229 C 39.759 238.349,39.600 240.406,39.600 242.800 C 39.600 245.194,39.444 247.249,39.253 247.368 C 39.061 247.486,38.789 248.306,38.648 249.191 C 38.506 250.076,38.213 250.800,37.995 250.800 C 37.766 250.800,37.600 252.227,37.600 254.200 C 37.600 256.070,37.436 257.600,37.235 257.600 C 37.034 257.600,36.749 258.320,36.600 259.200 C 36.451 260.080,36.166 260.800,35.965 260.800 C 35.764 260.800,35.600 262.315,35.600 264.167 C 35.600 266.018,35.465 267.593,35.300 267.667 C 34.601 267.977,33.600 270.588,33.600 272.098 C 33.600 273.755,32.514 276.800,31.923 276.800 C 31.745 276.800,31.600 277.762,31.600 278.939 C 31.600 280.947,30.818 283.295,29.975 283.816 C 29.769 283.943,29.600 284.729,29.600 285.562 C 29.600 287.046,28.717 289.357,27.975 289.816 C 27.769 289.943,27.600 290.849,27.600 291.829 C 27.600 293.627,27.020 295.131,26.100 295.720 C 25.823 295.897,25.600 296.833,25.600 297.820 C 25.600 298.799,25.440 299.600,25.243 299.600 C 25.047 299.600,24.774 300.050,24.636 300.600 C 24.498 301.150,24.208 301.600,23.992 301.600 C 23.777 301.600,23.600 302.202,23.600 302.939 C 23.600 304.378,22.578 306.800,21.971 306.800 C 21.767 306.800,21.600 307.618,21.600 308.617 C 21.600 310.002,21.362 310.692,20.600 311.513 C 19.902 312.266,19.600 313.046,19.600 314.096 C 19.600 314.923,19.440 315.600,19.243 315.600 C 19.047 315.600,18.774 316.050,18.636 316.600 C 18.498 317.150,18.208 317.600,17.992 317.600 C 17.777 317.600,17.600 318.434,17.600 319.454 C 17.600 320.918,17.390 321.503,16.600 322.235 C 15.893 322.890,15.600 323.580,15.600 324.589 C 15.600 325.422,15.184 326.675,14.600 327.600 C 13.845 328.795,13.600 329.726,13.600 331.392 C 13.600 332.606,13.420 333.600,13.200 333.600 C 12.980 333.600,12.800 333.848,12.800 334.151 C 12.800 334.454,12.530 334.926,12.200 335.200 C 11.766 335.560,11.600 336.514,11.600 338.649 C 11.600 340.272,11.438 341.600,11.239 341.600 C 11.041 341.600,10.750 342.725,10.593 344.100 C 10.437 345.475,10.151 346.900,9.958 347.266 C 9.622 347.906,10.385 351.265,11.237 352.895 C 11.437 353.277,11.600 353.971,11.600 354.437 C 11.600 354.903,12.050 355.639,12.600 356.071 C 13.150 356.504,13.600 357.064,13.600 357.316 C 13.600 358.069,15.653 359.600,16.662 359.600 C 17.178 359.600,17.600 359.780,17.600 360.000 C 17.600 360.220,17.915 360.427,18.300 360.460 C 18.685 360.493,18.192 360.628,17.204 360.760 C 15.996 360.921,15.367 361.212,15.285 361.646 C 15.100 362.621,17.512 363.004,18.456 362.149 C 19.075 361.589,20.147 361.504,25.739 361.570 C 31.216 361.635,32.398 361.545,32.919 361.024 C 33.269 360.674,34.222 360.400,35.091 360.400 C 35.943 360.400,36.811 360.239,37.020 360.042 C 37.229 359.845,38.649 359.609,40.175 359.518 C 41.832 359.419,43.013 359.161,43.108 358.876 C 43.195 358.614,43.702 358.400,44.233 358.400 C 44.765 358.400,45.200 358.220,45.200 358.000 C 45.200 357.780,46.177 357.600,47.371 357.600 C 48.768 357.600,49.757 357.386,50.143 357.000 C 50.473 356.670,51.080 356.400,51.491 356.400 C 51.903 356.400,52.411 356.240,52.620 356.043 C 53.578 355.145,57.787 355.326,58.812 356.310 C 59.945 357.398,62.789 357.382,63.889 356.283 C 64.948 355.224,64.089 354.800,60.876 354.798 C 57.902 354.795,57.838 354.775,58.946 354.198 C 59.576 353.869,60.977 353.600,62.058 353.600 C 63.438 353.600,64.094 353.421,64.255 353.000 C 64.382 352.670,64.790 352.400,65.163 352.400 C 65.535 352.400,66.011 352.238,66.220 352.039 C 66.429 351.841,68.027 351.611,69.770 351.528 C 71.795 351.432,73.000 351.201,73.104 350.889 C 73.193 350.620,73.702 350.400,74.233 350.400 C 74.765 350.400,75.200 350.220,75.200 350.000 C 75.200 349.770,76.441 349.600,78.124 349.600 C 80.075 349.600,81.305 349.405,81.824 349.013 C 82.940 348.168,90.215 348.158,91.057 349.000 C 91.443 349.386,92.432 349.600,93.829 349.600 C 95.023 349.600,96.000 349.780,96.000 350.000 C 96.000 350.220,96.341 350.400,96.757 350.400 C 97.174 350.400,97.618 350.670,97.745 351.000 C 97.881 351.355,98.482 351.600,99.216 351.600 C 99.899 351.600,100.727 351.870,101.057 352.200 C 101.590 352.733,101.457 352.800,99.852 352.800 C 97.830 352.800,97.360 353.203,97.996 354.392 C 98.277 354.917,98.834 355.200,99.585 355.200 C 100.343 355.200,101.013 355.545,101.529 356.200 C 101.961 356.750,102.694 357.200,103.158 357.200 C 103.716 357.200,104.000 357.454,104.000 357.954 C 104.000 358.369,104.450 359.003,105.000 359.363 C 105.550 359.724,106.000 360.256,106.000 360.547 C 106.000 361.080,107.233 362.400,107.731 362.400 C 107.879 362.400,108.000 362.055,108.000 361.633 C 108.000 361.211,108.107 360.585,108.239 360.243 C 108.567 359.389,109.600 360.398,109.600 361.571 C 109.600 362.041,109.860 362.400,110.200 362.400 C 110.530 362.400,110.800 362.670,110.800 363.000 C 110.800 363.330,110.980 363.600,111.200 363.600 C 111.858 363.600,111.637 364.931,110.800 366.000 C 109.763 367.326,109.802 367.852,111.000 368.637 C 111.572 369.011,112.000 369.674,112.000 370.184 C 112.000 370.991,113.090 372.400,113.713 372.400 C 113.851 372.400,114.083 371.765,114.228 370.990 C 114.533 369.368,115.600 369.725,115.600 371.449 C 115.600 372.028,115.835 372.400,116.200 372.400 C 116.530 372.400,116.800 372.670,116.800 373.000 C 116.800 373.330,116.980 373.600,117.200 373.600 C 117.791 373.600,117.686 374.372,117.000 375.057 C 116.279 375.778,116.217 377.257,116.880 377.920 C 117.685 378.725,118.000 378.466,118.000 377.000 C 118.000 375.459,118.175 375.318,119.029 376.171 C 119.868 377.011,119.725 378.213,118.700 378.942 L 117.800 379.581 118.860 380.491 C 119.443 380.991,119.985 381.760,120.064 382.200 C 120.269 383.337,121.855 383.487,122.200 382.401 C 122.608 381.115,123.415 381.706,123.291 383.200 C 123.197 384.326,123.267 384.442,123.780 384.017 C 124.646 383.298,125.759 384.362,124.940 385.127 C 124.643 385.405,124.400 385.804,124.400 386.016 C 124.400 386.583,125.906 386.483,126.099 385.904 C 126.218 385.547,126.460 385.603,126.961 386.104 C 127.623 386.765,127.605 386.800,126.599 386.800 C 125.810 386.800,125.575 386.976,125.675 387.495 C 125.850 388.401,127.052 388.614,128.279 387.958 C 129.096 387.520,129.310 387.530,129.615 388.018 C 129.875 388.434,129.783 388.640,129.289 388.739 C 127.734 389.052,127.849 389.639,129.812 391.402 C 132.005 393.372,133.246 393.641,134.154 392.344 C 134.722 391.533,134.958 391.503,138.677 391.769 C 140.835 391.923,142.960 392.033,143.400 392.014 C 143.840 391.994,146.360 391.847,149.000 391.689 C 153.662 391.408,153.829 391.427,154.800 392.328 C 155.949 393.394,158.802 393.369,159.889 392.283 C 160.927 391.244,160.092 390.800,157.100 390.800 C 154.506 390.800,154.317 390.747,155.024 390.213 C 155.472 389.874,156.693 389.620,157.913 389.613 C 159.413 389.604,160.092 389.426,160.255 389.000 C 160.382 388.670,160.916 388.400,161.443 388.400 C 161.969 388.400,162.400 388.220,162.400 388.000 C 162.400 387.182,166.568 387.536,167.107 388.400 C 167.772 389.465,170.023 389.479,170.977 388.425 C 172.041 387.250,171.405 386.800,168.676 386.798 C 166.235 386.795,166.216 386.787,167.346 386.198 C 167.976 385.869,169.092 385.600,169.826 385.600 C 170.560 385.600,171.304 385.375,171.480 385.100 C 172.535 383.451,176.287 382.979,177.711 384.316 C 178.871 385.406,180.054 385.445,180.977 384.425 C 181.995 383.301,181.432 382.806,179.076 382.754 C 177.934 382.728,177.315 382.625,177.700 382.524 C 178.085 382.424,178.400 382.175,178.400 381.971 C 178.400 381.767,179.036 381.600,179.813 381.600 C 180.699 381.600,181.311 381.377,181.455 381.000 C 181.582 380.670,182.026 380.400,182.443 380.400 C 182.859 380.400,183.200 380.220,183.200 380.000 C 183.200 379.780,183.808 379.600,184.551 379.600 C 185.294 379.600,186.126 379.330,186.400 379.000 C 186.674 378.670,187.236 378.400,187.649 378.400 C 188.062 378.400,188.400 378.220,188.400 378.000 C 188.400 377.780,189.036 377.600,189.813 377.600 C 190.699 377.600,191.311 377.377,191.455 377.000 C 191.582 376.670,192.026 376.400,192.443 376.400 C 192.859 376.400,193.200 376.220,193.200 376.000 C 193.200 375.780,193.757 375.600,194.438 375.600 C 195.119 375.600,196.244 375.304,196.938 374.943 C 197.632 374.581,198.513 374.131,198.895 373.943 C 199.277 373.754,200.290 373.600,201.146 373.600 C 202.041 373.600,202.913 373.345,203.200 373.000 C 203.474 372.670,204.036 372.400,204.449 372.400 C 204.862 372.400,205.200 372.220,205.200 372.000 C 205.200 371.747,208.067 371.600,213.000 371.600 C 217.933 371.600,220.800 371.747,220.800 372.000 C 220.800 372.220,221.250 372.400,221.800 372.400 C 222.422 372.400,222.800 372.627,222.800 373.000 C 222.800 373.419,223.223 373.600,224.205 373.600 C 225.583 373.600,226.830 374.104,227.913 375.100 C 228.212 375.375,229.145 375.600,229.986 375.600 C 232.510 375.600,232.444 376.731,229.911 376.880 C 226.903 377.056,227.689 379.200,230.762 379.200 C 231.203 379.200,232.025 379.661,232.588 380.225 C 233.670 381.306,234.739 381.284,236.031 380.153 C 236.855 379.432,238.573 379.445,239.180 380.176 C 239.581 380.659,239.385 380.771,237.960 380.876 C 235.947 381.023,235.562 381.694,236.963 382.613 C 237.923 383.242,238.033 383.232,239.042 382.438 C 240.287 381.459,241.102 381.400,242.176 382.213 C 242.903 382.763,242.857 382.800,241.449 382.800 C 240.137 382.800,239.961 382.910,240.072 383.659 C 240.299 385.183,241.516 385.551,242.524 384.400 C 243.472 383.317,245.600 383.179,245.600 384.200 C 245.600 384.501,245.105 384.804,244.500 384.873 C 242.932 385.054,242.998 386.445,244.600 386.985 C 245.260 387.207,245.943 387.614,246.117 387.890 C 246.867 389.074,247.982 389.267,249.172 388.420 C 250.525 387.456,251.122 387.415,252.176 388.213 C 252.903 388.763,252.857 388.800,251.449 388.800 C 250.137 388.800,249.961 388.910,250.072 389.659 C 250.299 391.183,251.516 391.551,252.524 390.400 C 253.123 389.716,253.716 389.444,254.400 389.540 C 255.989 389.763,256.174 390.570,254.689 390.800 C 252.952 391.070,252.897 392.410,254.600 392.987 C 255.260 393.210,256.035 393.710,256.323 394.097 C 256.972 394.970,258.141 395.002,258.975 394.168 C 259.882 393.261,259.394 392.800,257.527 392.800 C 256.128 392.800,255.971 392.717,256.400 392.200 C 257.115 391.339,258.385 391.461,259.265 392.475 C 259.720 392.999,260.686 393.440,261.679 393.575 C 263.919 393.879,264.203 394.800,262.057 394.800 C 261.172 394.800,260.318 395.009,260.160 395.265 C 259.774 395.888,261.446 397.200,262.626 397.200 C 263.142 397.200,264.014 397.650,264.564 398.200 C 265.683 399.320,267.249 399.505,267.996 398.605 C 268.923 397.488,268.173 396.800,266.025 396.800 C 264.412 396.800,264.070 396.684,264.255 396.200 C 264.676 395.103,267.934 395.666,268.885 397.000 C 269.042 397.220,270.932 397.539,273.085 397.710 C 278.097 398.107,277.949 398.106,282.237 397.776 C 285.395 397.533,285.908 397.582,286.125 398.148 C 286.338 398.705,286.033 398.800,284.033 398.800 C 282.734 398.800,281.181 399.066,280.546 399.398 C 279.449 399.969,279.550 399.995,282.900 399.998 C 284.825 399.999,286.400 399.843,286.400 399.651 C 286.400 399.459,287.110 399.189,287.978 399.050 C 288.846 398.911,289.791 398.465,290.078 398.060 C 290.365 397.654,291.258 397.199,292.061 397.050 C 294.686 396.562,294.559 394.800,291.900 394.800 C 290.361 394.800,290.300 394.760,291.024 394.213 C 292.036 393.447,293.770 393.441,294.400 394.200 C 295.088 395.029,296.291 394.951,296.775 394.046 C 296.997 393.631,297.614 393.183,298.145 393.049 C 299.798 392.635,299.987 390.800,298.376 390.800 C 297.949 390.800,297.600 390.530,297.600 390.200 C 297.600 389.827,297.978 389.600,298.600 389.600 C 299.150 389.600,299.600 389.420,299.600 389.200 C 299.600 388.237,302.644 385.741,303.308 386.159 C 304.192 386.717,304.679 386.139,304.103 385.216 C 303.734 384.625,303.758 384.367,304.218 383.985 C 304.703 383.583,304.800 383.682,304.800 384.584 C 304.800 385.749,305.457 385.806,306.153 384.702 C 306.445 384.239,306.401 383.750,306.000 383.000 C 305.513 382.091,305.516 381.899,306.016 381.590 C 306.429 381.335,306.677 381.457,306.884 382.016 C 307.044 382.447,307.456 382.800,307.800 382.800 C 308.728 382.800,309.046 381.569,308.265 380.998 C 307.448 380.401,307.401 378.942,308.174 378.168 C 308.674 377.669,308.765 377.765,308.874 378.897 C 308.955 379.733,309.215 380.200,309.600 380.200 C 310.378 380.200,310.621 378.161,309.985 376.971 C 309.592 376.238,309.623 375.903,310.152 375.147 C 310.793 374.232,310.800 374.240,310.800 375.911 C 310.800 377.757,311.124 377.989,312.138 376.869 C 312.955 375.966,312.977 375.187,312.213 374.176 C 311.465 373.187,311.465 372.013,312.213 371.024 C 312.760 370.300,312.800 370.361,312.800 371.900 C 312.800 373.651,313.151 374.147,314.124 373.774 C 315.135 373.386,315.291 371.879,314.398 371.136 C 313.456 370.352,313.352 368.704,314.200 368.000 C 314.711 367.576,314.800 367.684,314.800 368.727 C 314.800 370.963,316.490 370.722,316.997 368.413 C 317.144 367.745,317.576 367.195,318.053 367.070 C 318.496 366.954,318.957 366.486,319.076 366.030 C 319.232 365.434,319.616 365.200,320.437 365.200 C 321.216 365.200,321.791 364.881,322.237 364.200 C 322.682 363.521,323.257 363.200,324.032 363.200 C 324.766 363.200,325.326 362.912,325.604 362.392 C 326.226 361.231,325.777 360.800,323.948 360.800 C 322.521 360.800,322.410 360.733,322.943 360.200 C 323.273 359.870,323.874 359.600,324.279 359.600 C 324.683 359.600,325.677 359.150,326.486 358.600 C 327.708 357.769,328.430 357.600,330.750 357.600 C 332.699 357.600,333.724 357.419,334.143 357.000 C 334.540 356.603,335.537 356.400,337.091 356.400 C 338.383 356.400,339.615 356.225,339.828 356.012 C 340.066 355.774,347.604 355.580,359.175 355.512 C 373.906 355.425,378.171 355.289,378.300 354.900 C 378.392 354.625,378.981 354.400,379.610 354.400 C 380.238 354.400,380.864 354.220,381.000 354.000 C 381.332 353.464,384.528 353.488,385.071 354.031 C 385.698 354.658,387.800 354.326,387.800 353.600 C 387.800 353.191,387.227 352.924,386.000 352.760 C 385.010 352.628,384.515 352.493,384.900 352.460 C 385.285 352.427,385.600 352.220,385.600 352.000 C 385.600 351.780,385.932 351.600,386.339 351.600 C 386.745 351.600,387.452 351.285,387.910 350.900 C 388.368 350.515,389.385 349.674,390.171 349.030 C 390.957 348.387,391.600 347.554,391.600 347.179 C 391.600 345.722,392.736 345.449,392.873 346.874 C 392.955 347.729,393.213 348.200,393.600 348.200 C 394.044 348.200,394.166 347.837,394.067 346.800 C 393.994 346.030,393.814 340.825,393.667 335.233 C 393.468 327.649,393.273 325.023,392.900 324.900 C 392.625 324.808,392.400 324.154,392.400 323.447 C 392.400 322.739,392.239 321.989,392.042 321.780 C 391.646 321.360,391.227 316.000,391.590 316.000 C 392.460 316.000,393.336 313.078,392.768 312.067 C 391.589 309.966,390.800 310.448,390.798 313.271 C 390.795 315.760,390.786 315.782,390.198 314.654 C 389.869 314.024,389.600 312.912,389.600 312.183 C 389.600 311.454,389.330 310.587,389.000 310.257 C 388.670 309.927,388.400 309.464,388.400 309.229 C 388.400 308.993,388.220 308.800,388.000 308.800 C 387.324 308.800,387.511 304.920,388.200 304.655 C 388.684 304.470,388.800 304.812,388.800 306.425 C 388.800 308.680,389.684 309.520,390.658 308.189 C 391.422 307.144,391.341 306.629,390.200 305.273 C 389.620 304.584,389.200 303.581,389.200 302.887 C 389.200 299.493,386.823 299.335,386.754 302.724 C 386.728 303.976,386.625 304.685,386.524 304.300 C 386.424 303.915,386.175 303.600,385.971 303.600 C 385.767 303.600,385.600 302.984,385.600 302.231 C 385.600 301.368,385.244 300.438,384.637 299.717 C 383.287 298.113,383.135 295.546,384.316 294.289 C 385.325 293.215,385.443 292.085,384.658 291.011 C 383.663 289.651,382.800 290.522,382.798 292.887 C 382.795 294.891,382.767 294.947,382.263 293.980 C 381.640 292.786,381.126 290.006,381.525 289.987 C 382.562 289.940,383.212 287.983,382.590 286.781 C 381.691 285.043,381.033 285.502,380.800 288.031 C 380.578 290.442,379.600 289.802,379.600 287.246 C 379.600 286.583,379.375 285.896,379.100 285.720 C 377.529 284.715,377.173 282.069,378.400 280.509 C 379.397 279.242,379.419 277.959,378.465 276.781 C 377.393 275.458,376.807 276.124,376.754 278.724 C 376.728 279.976,376.625 280.685,376.524 280.300 C 376.424 279.915,376.175 279.600,375.971 279.600 C 375.767 279.600,375.600 278.893,375.600 278.029 C 375.600 277.164,375.375 276.212,375.100 275.913 C 373.666 274.353,373.002 270.817,374.025 270.185 C 374.953 269.611,375.214 267.986,374.575 266.752 C 373.657 264.977,373.018 265.522,372.878 268.200 C 372.743 270.777,371.600 269.830,371.600 267.142 C 371.600 266.474,371.344 265.876,371.000 265.745 C 370.670 265.618,370.400 265.184,370.400 264.781 C 370.400 264.377,370.220 263.936,370.000 263.800 C 369.780 263.664,369.600 262.676,369.600 261.605 C 369.600 260.407,369.369 259.426,369.000 259.057 C 368.670 258.727,368.400 258.185,368.400 257.852 C 368.400 257.519,368.220 257.136,368.000 257.000 C 367.780 256.864,367.600 256.056,367.600 255.205 C 367.600 254.354,367.375 253.412,367.100 253.113 C 365.970 251.884,365.600 250.680,365.600 248.234 C 365.600 246.477,365.409 245.466,365.000 245.057 C 364.670 244.727,364.400 244.005,364.400 243.452 C 364.400 242.899,364.220 242.336,364.000 242.200 C 363.780 242.064,363.600 240.716,363.600 239.205 C 363.600 237.443,363.408 236.265,363.064 235.922 C 362.254 235.111,361.938 233.443,361.657 228.485 C 361.503 225.781,361.216 223.856,360.940 223.685 C 360.344 223.316,360.040 220.043,359.685 210.200 C 359.527 205.800,359.218 201.930,358.999 201.600 C 358.603 201.004,358.268 193.820,357.698 173.685 C 357.495 166.511,357.254 163.079,356.942 162.885 C 356.428 162.566,356.107 160.041,355.686 153.032 C 355.491 149.788,355.240 148.212,354.900 148.099 C 354.625 148.008,354.400 147.509,354.400 146.990 C 354.400 146.472,354.220 145.936,354.000 145.800 C 353.780 145.664,353.600 144.406,353.600 143.005 C 353.600 141.274,353.408 140.265,353.000 139.857 C 352.670 139.527,352.400 138.985,352.400 138.652 C 352.400 138.319,352.220 137.936,352.000 137.800 C 351.780 137.664,351.600 136.226,351.600 134.605 C 351.600 132.518,351.425 131.482,351.000 131.057 C 350.670 130.727,350.400 130.185,350.400 129.852 C 350.400 129.519,350.220 129.136,350.000 129.000 C 349.780 128.864,349.600 128.056,349.600 127.205 C 349.600 126.354,349.330 125.387,349.000 125.057 C 348.670 124.727,348.400 124.264,348.400 124.029 C 348.400 123.793,348.220 123.600,348.000 123.600 C 347.778 123.600,347.600 122.543,347.600 121.229 C 347.600 119.654,347.398 118.656,347.000 118.257 C 346.670 117.927,346.400 117.385,346.400 117.052 C 346.400 116.719,346.220 116.336,346.000 116.200 C 345.780 116.064,345.600 115.451,345.600 114.839 C 345.600 114.226,345.150 113.201,344.600 112.562 C 343.996 111.859,343.601 110.906,343.600 110.149 C 343.600 109.461,343.330 108.674,343.000 108.400 C 342.670 108.126,342.400 107.654,342.400 107.351 C 342.400 107.048,342.220 106.800,342.000 106.800 C 341.230 106.800,341.569 103.609,342.468 102.393 C 343.212 101.388,343.269 101.069,342.864 100.181 C 342.024 98.336,341.000 99.066,341.000 101.509 C 341.000 102.660,340.865 103.601,340.700 103.601 C 340.535 103.600,340.400 103.276,340.400 102.880 C 340.400 102.484,340.235 101.989,340.034 101.780 C 339.241 100.955,339.400 99.265,340.368 98.234 C 341.425 97.109,341.350 96.758,339.491 94.148 C 339.001 93.460,338.409 92.573,338.175 92.178 C 337.545 91.112,336.800 91.829,336.800 93.500 C 336.800 94.863,336.764 94.905,336.213 94.176 C 335.890 93.749,335.620 92.995,335.613 92.500 C 335.606 92.005,335.374 91.600,335.098 91.600 C 334.127 91.600,333.416 89.210,333.978 87.834 C 334.921 85.522,334.932 84.889,334.041 84.333 C 333.578 84.044,333.200 83.516,333.200 83.159 C 333.200 82.544,331.746 80.371,330.136 78.581 C 329.731 78.131,329.216 77.231,328.990 76.581 C 328.441 74.998,327.052 74.945,326.873 76.500 C 326.663 78.331,325.600 77.553,325.600 75.567 C 325.600 75.145,325.330 74.800,325.000 74.800 C 324.670 74.800,324.400 74.545,324.400 74.233 C 324.400 73.922,324.188 73.596,323.928 73.509 C 323.389 73.330,323.770 72.000,324.361 72.000 C 324.573 72.000,324.804 72.495,324.873 73.100 C 324.964 73.888,325.225 74.200,325.795 74.200 C 327.111 74.200,326.936 72.953,325.377 71.228 C 323.668 69.336,323.306 69.240,322.967 70.588 C 322.717 71.583,321.600 71.141,321.600 70.047 C 321.600 69.821,321.150 69.186,320.600 68.636 C 319.479 67.515,319.314 66.595,320.176 66.265 C 320.574 66.112,320.789 66.375,320.876 67.119 C 321.020 68.367,322.265 68.817,322.668 67.767 C 322.838 67.323,322.652 66.847,322.147 66.438 C 321.715 66.087,321.234 65.468,321.079 65.062 C 320.923 64.656,320.437 64.230,319.998 64.115 C 319.553 63.999,319.200 63.570,319.200 63.145 C 319.200 62.726,318.784 62.194,318.277 61.962 C 317.769 61.731,317.149 60.999,316.899 60.337 C 316.319 58.802,315.058 58.907,314.873 60.505 C 314.750 61.573,313.600 61.198,313.600 60.091 C 313.600 59.889,313.150 59.201,312.600 58.562 C 312.051 57.923,311.601 57.265,311.600 57.100 C 311.600 56.935,311.330 56.800,311.000 56.800 C 310.670 56.800,310.400 56.607,310.400 56.371 C 310.400 56.136,310.108 55.651,309.751 55.294 C 309.152 54.695,309.160 54.624,309.851 54.378 C 310.437 54.169,310.644 54.338,310.804 55.155 C 310.990 56.111,311.215 56.238,312.400 56.060 C 313.056 55.962,312.854 54.884,312.074 54.323 C 311.674 54.035,311.228 53.481,311.083 53.091 C 310.937 52.701,310.499 52.262,310.109 52.115 C 309.156 51.757,307.285 49.738,307.122 48.891 C 307.050 48.516,306.641 48.142,306.214 48.060 C 305.376 47.898,303.445 46.016,303.043 44.968 C 302.907 44.614,302.454 44.234,302.035 44.125 C 301.616 44.016,301.184 43.584,301.075 43.165 C 300.966 42.746,300.575 42.289,300.208 42.148 C 299.840 42.007,298.248 40.566,296.670 38.946 C 293.583 35.779,292.256 35.258,291.274 36.830 C 290.857 37.498,290.642 37.567,290.178 37.181 C 289.305 36.457,289.482 36.000,290.633 36.000 C 291.753 36.000,291.786 35.331,290.700 34.645 C 290.215 34.340,289.852 34.410,289.292 34.917 C 288.374 35.747,287.758 35.788,287.469 35.037 C 287.330 34.674,287.610 34.384,288.253 34.222 C 289.417 33.930,289.404 32.918,288.229 32.243 C 287.804 31.999,287.073 31.371,286.603 30.846 C 285.873 30.031,285.622 29.960,284.874 30.360 C 283.249 31.230,284.382 32.842,286.144 32.166 C 286.588 31.996,286.800 32.127,286.800 32.570 C 286.800 33.353,285.517 33.950,285.291 33.272 C 285.204 33.012,284.873 32.800,284.554 32.800 C 284.236 32.800,283.871 32.530,283.745 32.200 C 283.618 31.870,283.084 31.600,282.557 31.600 C 281.144 31.600,281.339 30.432,282.800 30.140 C 284.560 29.788,284.124 28.000,282.278 28.000 C 281.858 28.000,281.161 27.550,280.729 27.000 C 280.296 26.450,279.669 26.000,279.335 26.000 C 279.001 26.000,278.394 25.595,277.985 25.100 C 277.259 24.220,277.215 24.215,275.989 24.900 C 274.319 25.832,273.718 25.785,272.164 24.600 C 271.443 24.050,270.616 23.594,270.327 23.587 C 269.764 23.574,268.400 22.657,268.400 22.293 C 268.400 22.173,268.742 22.164,269.159 22.273 C 270.452 22.612,271.686 21.707,271.191 20.783 C 270.642 19.758,268.952 19.768,268.307 20.800 C 267.721 21.739,265.795 21.884,265.461 21.015 C 265.300 20.595,265.627 20.356,266.618 20.170 C 268.845 19.752,268.155 18.000,265.763 18.000 C 264.735 18.000,264.438 17.805,264.236 17.000 C 263.911 15.706,261.701 15.584,260.600 16.800 C 259.845 17.634,257.200 17.946,257.200 17.200 C 257.200 16.980,256.952 16.800,256.649 16.800 C 256.346 16.800,255.874 16.530,255.600 16.200 C 255.326 15.870,254.603 15.600,253.993 15.600 C 253.332 15.600,252.504 15.199,251.942 14.607 C 251.267 13.896,250.572 13.612,249.492 13.607 C 248.583 13.603,247.355 13.203,246.400 12.600 C 245.314 11.914,244.247 11.600,243.008 11.600 C 242.014 11.600,241.200 11.420,241.200 11.200 C 241.200 10.980,240.952 10.800,240.649 10.800 C 240.346 10.800,239.874 10.530,239.600 10.200 C 239.282 9.817,238.397 9.600,237.151 9.600 C 236.078 9.600,235.200 9.420,235.200 9.200 C 235.200 8.980,234.795 8.799,234.300 8.798 C 233.805 8.796,232.884 8.526,232.254 8.198 C 231.503 7.806,229.951 7.600,227.749 7.600 C 225.901 7.600,224.077 7.450,223.695 7.268 C 223.313 7.085,222.400 6.635,221.668 6.268 C 220.572 5.719,219.064 5.600,213.191 5.600 C 208.860 5.600,205.950 5.443,205.800 5.200 C 205.659 4.971,203.604 4.800,201.000 4.800 C 198.396 4.800,196.341 4.971,196.200 5.200 M163.300 6.598 C 162.213 7.833,162.987 8.404,165.733 8.394 C 168.118 8.385,168.783 7.886,167.822 6.824 C 166.937 5.847,164.087 5.704,163.300 6.598 M234.404 6.595 C 233.117 8.145,235.886 9.036,238.674 7.969 L 239.800 7.538 238.856 6.769 C 237.720 5.844,235.112 5.742,234.404 6.595 M156.209 8.790 C 155.237 9.864,156.894 10.543,159.900 10.302 C 162.434 10.099,162.750 9.850,161.802 8.802 C 160.779 7.672,157.228 7.664,156.209 8.790 M240.225 8.772 C 239.234 9.868,240.921 10.574,243.754 10.249 C 246.044 9.986,246.320 9.797,245.744 8.881 C 245.066 7.799,241.175 7.723,240.225 8.772 M210.000 10.613 C 212.750 10.740,215.810 11.019,216.800 11.234 C 217.790 11.448,220.760 11.970,223.400 12.393 C 229.120 13.308,232.941 14.147,236.200 15.200 C 237.520 15.627,240.490 16.555,242.800 17.264 C 245.110 17.972,247.900 18.942,249.000 19.418 C 250.100 19.894,252.170 20.772,253.600 21.369 C 256.559 22.604,260.311 24.305,261.200 24.814 C 261.530 25.003,263.960 26.359,266.600 27.828 C 269.240 29.296,272.902 31.510,274.737 32.749 C 276.572 33.987,278.481 35.270,278.979 35.600 C 282.627 38.018,287.503 41.825,290.765 44.800 C 291.127 45.130,292.664 46.480,294.181 47.800 C 297.942 51.072,306.896 60.365,309.509 63.708 C 310.329 64.757,311.944 66.827,313.097 68.308 C 314.250 69.789,315.546 71.450,315.976 72.000 C 318.225 74.874,319.171 76.217,320.960 79.072 C 322.038 80.792,323.742 83.460,324.745 85.000 C 326.572 87.804,327.582 89.554,328.670 91.800 C 328.989 92.460,329.423 93.270,329.633 93.600 C 329.844 93.930,330.268 94.740,330.575 95.400 C 330.883 96.060,331.959 98.087,332.967 99.905 C 333.975 101.723,334.800 103.435,334.800 103.709 C 334.800 103.982,335.250 105.052,335.800 106.085 C 336.350 107.118,336.800 108.198,336.800 108.485 C 336.800 108.772,337.250 109.852,337.800 110.885 C 338.350 111.918,338.800 112.999,338.800 113.288 C 338.800 113.576,339.179 114.520,339.643 115.385 C 340.107 116.250,340.720 117.777,341.006 118.779 C 341.292 119.781,341.811 121.410,342.158 122.400 C 342.506 123.390,343.359 126.090,344.054 128.400 C 344.750 130.710,345.652 133.629,346.059 134.887 C 346.467 136.145,346.800 137.704,346.800 138.352 C 346.800 138.999,347.160 140.670,347.599 142.064 C 348.039 143.459,348.582 145.770,348.807 147.200 C 349.032 148.630,349.475 150.880,349.793 152.200 C 350.110 153.520,350.566 156.928,350.806 159.773 C 351.047 162.618,351.315 165.063,351.403 165.205 C 352.012 166.190,352.418 172.915,352.794 188.200 C 353.032 197.880,353.482 207.960,353.794 210.600 C 354.107 213.240,354.563 217.735,354.807 220.588 C 355.052 223.441,355.499 226.861,355.801 228.188 C 356.103 229.515,356.541 232.040,356.775 233.800 C 357.172 236.796,357.719 239.371,359.407 246.200 C 359.788 247.740,360.423 250.350,360.817 252.000 C 361.500 254.853,361.779 255.774,363.661 261.400 C 364.102 262.720,364.612 264.340,364.794 265.000 C 364.976 265.660,365.501 267.145,365.962 268.300 C 366.423 269.455,367.177 271.345,367.638 272.500 C 368.099 273.655,368.648 275.313,368.859 276.184 C 369.070 277.056,369.413 277.975,369.623 278.227 C 369.832 278.480,370.344 279.657,370.760 280.843 C 371.855 283.962,373.618 288.075,374.252 288.989 C 374.554 289.423,374.800 290.054,374.800 290.392 C 374.800 290.730,375.250 291.852,375.800 292.885 C 376.350 293.918,376.800 294.998,376.800 295.285 C 376.800 295.572,377.250 296.652,377.800 297.685 C 378.350 298.718,378.800 299.785,378.800 300.055 C 378.800 300.326,379.149 301.279,379.575 302.174 C 381.064 305.298,383.888 312.746,384.818 316.000 C 386.358 321.388,386.774 323.124,387.598 327.600 C 391.166 346.985,387.146 349.846,355.800 350.238 C 339.984 350.436,332.047 350.957,328.665 352.017 C 327.309 352.442,325.929 352.792,325.599 352.795 C 322.031 352.825,308.800 363.479,308.800 366.321 C 308.800 366.530,308.505 366.947,308.145 367.245 C 307.785 367.544,307.144 368.511,306.721 369.394 C 303.671 375.756,298.399 382.927,295.231 385.024 C 294.444 385.545,293.080 386.478,292.200 387.097 C 290.666 388.177,286.607 390.226,282.807 391.839 C 277.580 394.058,268.145 391.428,257.800 384.869 C 256.700 384.171,255.260 383.333,254.600 383.005 C 253.940 382.677,251.690 381.334,249.600 380.020 C 244.858 377.038,240.753 374.697,234.600 371.469 C 232.747 370.496,229.965 369.330,228.200 368.786 C 227.320 368.515,226.103 368.041,225.495 367.733 C 223.145 366.544,214.036 365.062,211.200 365.407 C 207.596 365.847,201.541 367.170,199.400 367.986 C 198.300 368.406,196.823 368.863,196.117 369.003 C 195.412 369.142,194.115 369.603,193.236 370.028 C 192.358 370.453,191.402 370.800,191.113 370.800 C 190.825 370.800,189.881 371.179,189.016 371.643 C 188.151 372.106,186.714 372.719,185.822 373.004 C 184.930 373.289,182.670 374.183,180.800 374.990 C 178.930 375.797,176.680 376.701,175.800 376.998 C 174.920 377.296,172.220 378.359,169.800 379.360 C 167.380 380.362,165.209 381.185,164.975 381.191 C 164.741 381.196,163.805 381.560,162.894 382.000 C 161.984 382.440,160.962 382.800,160.623 382.800 C 160.284 382.800,158.700 383.234,157.104 383.764 C 144.387 387.984,135.956 387.147,129.800 381.052 C 128.100 379.368,124.000 374.291,124.000 373.869 C 124.000 373.675,123.550 372.981,123.000 372.327 C 122.450 371.673,122.000 370.904,122.000 370.618 C 122.000 370.332,121.705 369.853,121.345 369.555 C 120.985 369.256,120.344 368.289,119.921 367.406 C 118.967 365.416,118.039 363.762,116.999 362.198 C 116.560 361.537,116.020 360.709,115.800 360.358 C 110.477 351.862,104.674 347.052,96.200 344.111 C 92.148 342.704,81.541 342.484,77.600 343.724 C 76.390 344.105,74.230 344.600,72.800 344.825 C 71.370 345.050,68.940 345.600,67.400 346.047 C 65.860 346.495,63.160 347.280,61.400 347.792 C 59.640 348.304,57.660 348.831,57.000 348.964 C 55.688 349.228,52.464 350.153,47.200 351.776 C 45.330 352.353,43.522 352.819,43.182 352.812 C 42.842 352.805,40.862 353.233,38.782 353.761 C 26.032 357.002,18.822 356.345,16.449 351.726 C 15.474 349.829,16.127 340.990,17.535 337.000 C 18.534 334.172,19.663 330.482,19.994 328.969 C 20.362 327.283,21.931 323.034,23.248 320.156 C 23.661 319.252,24.000 318.265,24.000 317.962 C 24.000 317.659,24.422 316.509,24.937 315.406 C 25.827 313.502,26.273 312.317,28.029 307.200 C 28.444 305.990,28.942 304.728,29.136 304.395 C 29.330 304.063,29.800 302.713,30.182 301.395 C 30.563 300.078,31.045 298.794,31.251 298.543 C 31.458 298.291,31.961 296.941,32.370 295.543 C 32.779 294.144,33.296 292.460,33.520 291.800 C 34.989 287.463,36.400 282.722,36.402 282.115 C 36.404 281.722,36.678 280.876,37.012 280.235 C 37.347 279.594,37.895 277.794,38.231 276.235 C 38.566 274.676,39.021 272.966,39.241 272.436 C 39.461 271.906,39.916 270.023,40.252 268.251 C 40.588 266.479,41.021 264.734,41.214 264.374 C 41.407 264.013,41.832 261.931,42.159 259.747 C 42.485 257.564,42.953 255.251,43.197 254.607 C 43.442 253.964,43.905 251.269,44.227 248.619 C 44.548 245.968,45.073 242.630,45.393 241.200 C 45.713 239.770,46.256 235.630,46.601 232.000 C 46.945 228.370,47.391 224.140,47.592 222.600 C 48.082 218.848,48.821 201.618,48.801 194.400 C 48.775 184.435,50.211 164.696,51.624 155.600 C 51.847 154.170,52.208 151.748,52.427 150.217 C 52.646 148.687,53.084 146.617,53.400 145.617 C 53.716 144.618,54.238 142.450,54.562 140.800 C 55.518 135.918,56.384 132.414,56.995 130.951 C 57.310 130.197,57.867 128.369,58.233 126.890 C 58.599 125.410,59.040 124.020,59.213 123.800 C 59.387 123.580,59.828 122.241,60.195 120.824 C 60.561 119.407,61.118 117.882,61.431 117.435 C 61.744 116.988,62.000 116.329,62.000 115.971 C 62.000 115.612,62.450 114.473,63.000 113.438 C 63.550 112.404,64.002 111.342,64.004 111.079 C 64.006 110.815,64.450 109.700,64.991 108.600 C 65.532 107.500,65.981 106.431,65.987 106.225 C 66.009 105.578,73.805 90.265,75.368 87.800 C 75.786 87.140,76.520 85.970,76.998 85.200 C 78.591 82.638,82.494 76.624,83.749 74.800 C 85.098 72.838,85.061 72.886,87.870 69.400 C 88.934 68.080,90.570 65.990,91.507 64.757 C 93.974 61.507,103.700 51.297,107.933 47.513 C 113.641 42.412,123.461 34.889,128.445 31.800 C 130.890 30.284,134.771 28.058,137.718 26.480 C 138.553 26.033,139.453 25.488,139.718 25.269 C 139.983 25.049,141.730 24.215,143.600 23.415 C 145.470 22.614,147.720 21.621,148.600 21.207 C 150.248 20.432,152.177 19.686,156.000 18.344 C 157.210 17.919,158.560 17.408,159.000 17.208 C 159.828 16.831,164.018 15.618,168.200 14.544 C 169.520 14.205,171.500 13.687,172.600 13.393 C 173.700 13.098,176.040 12.656,177.800 12.410 C 179.560 12.164,182.530 11.693,184.400 11.363 C 188.474 10.645,198.302 10.020,202.200 10.232 C 203.740 10.315,207.250 10.487,210.000 10.613 M247.680 10.480 C 246.478 11.682,248.047 12.776,250.200 12.236 C 251.960 11.794,251.158 10.000,249.200 10.000 C 248.628 10.000,247.944 10.216,247.680 10.480 M252.262 12.731 C 251.359 13.730,251.417 13.896,252.777 14.195 C 254.453 14.563,255.741 13.810,255.191 12.783 C 254.664 11.798,253.131 11.771,252.262 12.731 M141.680 14.480 C 140.414 15.746,143.016 16.955,144.870 15.962 L 145.752 15.490 144.832 14.745 C 143.781 13.894,142.384 13.776,141.680 14.480 M256.598 14.802 C 255.685 15.812,255.924 16.045,258.128 16.293 C 260.050 16.510,260.613 16.102,260.199 14.796 C 259.852 13.705,257.588 13.709,256.598 14.802 M134.480 18.480 C 133.363 19.597,134.655 20.754,136.400 20.200 C 137.738 19.775,137.093 18.000,135.600 18.000 C 135.248 18.000,134.744 18.216,134.480 18.480 M263.020 18.400 C 264.060 18.400,264.321 18.539,264.145 19.000 C 263.808 19.877,262.103 19.733,261.083 18.741 C 260.347 18.025,260.322 17.925,260.933 18.141 C 261.336 18.283,262.275 18.400,263.020 18.400 M272.480 22.480 C 271.363 23.597,272.655 24.754,274.400 24.200 C 275.738 23.775,275.093 22.000,273.600 22.000 C 273.248 22.000,272.744 22.216,272.480 22.480 M128.900 24.395 C 129.285 24.398,129.600 24.670,129.600 25.000 C 129.600 25.419,129.178 25.600,128.200 25.600 C 127.430 25.600,126.800 25.525,126.800 25.433 C 126.800 25.341,126.680 24.952,126.533 24.568 C 126.310 23.989,126.428 23.915,127.233 24.130 C 127.765 24.273,128.515 24.392,128.900 24.395 M278.400 26.167 C 278.400 27.463,276.999 28.039,276.080 27.120 C 275.275 26.315,275.534 26.000,277.000 26.000 C 277.770 26.000,278.400 26.075,278.400 26.167 M123.600 28.229 C 123.600 28.761,122.394 29.600,121.629 29.600 C 121.173 29.600,120.800 29.525,120.800 29.433 C 120.800 29.341,120.691 28.981,120.557 28.633 C 120.360 28.119,120.624 28.000,121.957 28.000 C 122.861 28.000,123.600 28.103,123.600 28.229 M281.194 28.328 C 281.170 29.375,280.424 29.748,279.426 29.214 C 278.046 28.475,278.136 28.214,279.802 28.128 C 280.571 28.089,281.197 28.179,281.194 28.328 M119.813 31.044 C 119.104 31.753,118.544 31.752,118.270 31.039 C 117.974 30.266,118.253 30.083,119.394 30.301 C 120.227 30.460,120.288 30.569,119.813 31.044 M111.600 37.043 C 111.600 37.769,110.549 37.766,110.270 37.039 C 110.152 36.731,110.150 36.383,110.267 36.267 C 110.634 35.899,111.600 36.462,111.600 37.043 M109.600 39.043 C 109.600 39.769,108.549 39.766,108.270 39.039 C 108.152 38.731,108.150 38.383,108.267 38.267 C 108.634 37.899,109.600 38.462,109.600 39.043 M293.853 38.395 C 294.103 38.398,294.400 38.758,294.515 39.195 C 294.629 39.633,295.165 40.159,295.707 40.364 C 296.248 40.570,296.793 41.129,296.917 41.605 C 297.090 42.267,297.339 42.410,297.972 42.209 C 298.627 42.001,298.800 42.119,298.800 42.773 C 298.800 43.228,298.575 43.594,298.300 43.587 C 297.600 43.569,296.400 42.603,296.400 42.056 C 296.400 41.805,296.212 41.600,295.983 41.600 C 295.753 41.600,295.080 41.150,294.487 40.600 C 293.893 40.050,293.258 39.600,293.076 39.600 C 292.674 39.600,291.600 38.568,291.600 38.182 C 291.600 38.031,292.005 38.015,292.500 38.148 C 292.995 38.281,293.604 38.392,293.853 38.395 M100.480 42.480 C 100.216 42.744,100.000 43.290,100.000 43.693 C 100.000 44.095,99.730 44.529,99.400 44.655 C 99.070 44.782,98.800 45.136,98.800 45.443 C 98.800 45.749,99.070 46.000,99.400 46.000 C 99.733 46.000,100.000 45.644,100.000 45.200 C 100.000 44.676,100.267 44.400,100.774 44.400 C 101.200 44.400,102.055 44.206,102.674 43.969 L 103.800 43.538 102.856 42.769 C 101.764 41.880,101.154 41.806,100.480 42.480 M300.800 45.000 C 300.800 45.330,300.549 45.600,300.243 45.600 C 299.936 45.600,299.582 45.330,299.455 45.000 C 299.299 44.592,299.477 44.400,300.013 44.400 C 300.446 44.400,300.800 44.670,300.800 45.000 M302.940 47.013 C 302.651 47.764,301.600 47.781,301.600 47.033 C 301.600 46.451,302.380 45.984,302.883 46.267 C 303.038 46.354,303.064 46.690,302.940 47.013 M304.800 48.800 C 304.800 49.717,303.796 49.887,303.465 49.026 C 303.267 48.510,303.674 48.119,304.500 48.032 C 304.665 48.014,304.800 48.360,304.800 48.800 M306.731 51.464 C 306.611 52.086,306.537 52.080,305.851 51.394 C 305.119 50.662,305.119 50.639,305.851 50.376 C 306.668 50.083,306.934 50.411,306.731 51.464 M308.800 53.000 C 308.800 54.177,308.677 54.219,307.799 53.342 C 307.267 52.810,307.243 52.619,307.670 52.348 C 308.540 51.796,308.800 51.946,308.800 53.000 M312.800 57.371 C 312.800 57.742,313.142 58.000,313.633 58.000 C 314.608 58.000,314.470 57.065,313.467 56.871 C 313.072 56.794,312.800 56.998,312.800 57.371 M316.800 62.600 C 316.800 63.222,316.573 63.600,316.200 63.600 C 315.480 63.600,315.413 62.747,316.080 62.080 C 316.742 61.418,316.800 61.460,316.800 62.600 M82.800 63.400 C 82.800 63.730,83.070 64.000,83.400 64.000 C 83.730 64.000,84.000 63.730,84.000 63.400 C 84.000 63.070,83.730 62.800,83.400 62.800 C 83.070 62.800,82.800 63.070,82.800 63.400 M318.800 65.187 C 318.800 65.723,318.608 65.901,318.200 65.745 C 317.870 65.618,317.600 65.264,317.600 64.957 C 317.600 64.651,317.870 64.400,318.200 64.400 C 318.530 64.400,318.800 64.754,318.800 65.187 M328.800 79.489 C 328.800 80.964,328.794 80.969,328.164 80.070 C 327.517 79.146,327.641 78.000,328.387 78.000 C 328.614 78.000,328.800 78.670,328.800 79.489 M330.800 82.400 C 330.800 83.656,330.140 84.031,329.745 83.000 C 329.459 82.254,329.835 81.200,330.387 81.200 C 330.614 81.200,330.800 81.740,330.800 82.400 M332.791 85.900 L 332.782 87.800 332.145 86.508 C 331.504 85.209,331.621 84.000,332.387 84.000 C 332.614 84.000,332.796 84.855,332.791 85.900 M334.972 88.571 C 334.671 89.769,335.114 91.295,335.705 91.098 C 336.620 90.793,336.970 89.691,336.487 88.631 C 335.897 87.336,335.288 87.312,334.972 88.571 M147.400 95.601 C 146.520 95.774,144.590 96.119,143.110 96.366 C 140.331 96.831,135.026 98.767,133.225 99.973 C 132.661 100.351,131.300 101.263,130.200 101.999 C 125.201 105.346,119.166 112.455,116.955 117.600 C 116.624 118.370,116.008 119.720,115.585 120.600 C 110.061 132.106,110.981 150.444,117.713 163.000 C 117.949 163.440,118.335 164.162,118.571 164.605 C 125.944 178.433,143.658 186.390,158.600 182.585 C 163.913 181.232,165.960 180.294,171.136 176.842 C 174.739 174.439,180.504 167.925,182.608 163.878 C 184.334 160.560,185.922 160.064,187.033 162.494 C 187.867 164.319,190.740 168.682,192.187 170.321 C 193.719 172.056,197.662 175.800,198.331 176.155 C 198.699 176.350,199.364 176.837,199.808 177.238 C 201.573 178.830,208.623 181.908,212.400 182.737 C 218.551 184.085,219.431 184.120,224.698 183.219 C 229.333 182.427,230.730 182.073,232.600 181.218 C 233.040 181.016,234.210 180.484,235.200 180.035 C 240.068 177.827,245.623 173.329,248.631 169.159 C 249.274 168.268,250.176 167.058,250.635 166.469 C 252.189 164.480,255.823 156.889,256.222 154.800 C 256.369 154.030,256.821 152.410,257.227 151.200 C 258.939 146.092,258.803 132.909,256.977 127.079 C 256.440 125.363,256.000 123.689,256.000 123.360 C 256.000 120.886,250.091 111.310,245.817 106.858 C 242.852 103.769,241.250 102.516,237.000 99.962 C 234.002 98.160,229.394 96.586,225.200 95.931 C 210.279 93.601,196.559 100.666,187.778 115.200 C 185.466 119.027,184.890 119.085,182.934 115.693 C 177.587 106.419,167.890 98.420,160.000 96.772 C 152.342 95.174,150.459 94.998,147.400 95.601 M338.800 97.089 C 338.800 98.932,338.784 98.956,338.162 98.067 C 337.769 97.507,337.619 96.781,337.770 96.178 C 338.181 94.539,338.800 95.086,338.800 97.089 M159.625 99.593 C 164.086 101.080,168.654 103.481,170.637 105.381 C 170.878 105.611,171.868 106.528,172.837 107.417 C 175.070 109.467,178.071 112.984,179.133 114.800 C 181.761 119.289,182.734 121.191,182.983 122.322 C 183.711 125.636,186.012 125.619,187.385 122.288 C 188.343 119.964,189.105 118.347,189.688 117.400 C 191.629 114.247,192.425 113.116,194.215 110.970 C 195.330 109.634,197.039 107.834,198.013 106.970 C 198.987 106.107,200.137 105.085,200.568 104.700 C 200.998 104.315,201.484 104.000,201.647 104.000 C 201.810 104.000,202.183 103.760,202.476 103.467 C 203.260 102.683,208.606 100.231,211.600 99.283 C 216.392 97.765,226.292 97.839,228.534 99.409 C 228.998 99.734,229.764 100.000,230.236 100.000 C 231.101 100.000,235.951 102.316,237.152 103.303 C 237.509 103.595,238.252 104.059,238.805 104.334 C 241.643 105.744,248.161 113.423,250.671 118.312 C 259.793 136.079,256.386 158.739,242.685 171.424 C 240.130 173.789,238.536 174.970,234.676 177.355 C 233.571 178.038,229.148 179.668,226.400 180.405 C 224.067 181.031,214.444 180.858,212.600 180.157 C 211.720 179.822,210.190 179.306,209.200 179.010 C 205.305 177.845,200.715 174.800,196.580 170.640 C 193.653 167.694,190.000 162.930,190.000 162.058 C 190.000 161.866,189.651 161.264,189.225 160.722 C 188.798 160.180,188.326 159.211,188.174 158.568 C 187.093 153.977,183.902 152.831,182.945 156.690 C 182.666 157.816,180.699 161.755,179.037 164.516 C 175.586 170.251,166.896 177.312,161.200 179.012 C 160.210 179.307,158.680 179.822,157.800 180.157 C 155.962 180.855,146.347 181.032,144.000 180.410 C 133.252 177.562,124.218 170.153,119.452 160.276 C 116.944 155.080,116.458 153.824,116.170 151.800 C 116.014 150.700,115.659 149.150,115.380 148.355 C 115.102 147.561,114.758 144.951,114.615 142.555 C 112.940 114.417,136.532 91.898,159.625 99.593 M58.496 101.595 C 57.593 103.040,58.129 104.800,59.472 104.800 C 60.128 104.800,60.561 103.096,60.236 101.800 C 59.934 100.597,59.175 100.508,58.496 101.595 M343.067 103.867 C 342.635 104.298,342.762 107.129,343.225 107.416 C 343.861 107.808,345.200 106.409,345.200 105.352 C 345.200 104.253,343.714 103.219,343.067 103.867 M56.480 106.080 C 55.501 107.059,56.169 109.200,57.453 109.200 C 58.123 109.200,58.489 107.894,58.173 106.634 C 57.894 105.521,57.249 105.311,56.480 106.080 M345.067 108.267 C 344.514 108.819,344.786 112.020,345.405 112.257 C 346.938 112.846,347.738 110.547,346.577 108.889 C 345.935 107.972,345.529 107.805,345.067 108.267 M54.480 110.480 C 53.763 111.197,53.901 112.986,54.731 113.738 C 55.743 114.653,55.864 114.592,56.118 113.029 C 56.522 110.539,55.700 109.260,54.480 110.480 M347.080 113.453 C 346.681 113.852,346.732 117.111,347.142 117.364 C 347.945 117.861,349.365 115.631,348.967 114.498 C 348.591 113.428,347.635 112.899,347.080 113.453 M52.480 115.680 C 51.751 116.409,51.901 118.587,52.731 119.338 C 53.760 120.268,53.929 120.185,54.226 118.603 C 54.715 115.995,53.762 114.398,52.480 115.680 M348.878 120.696 C 349.022 122.931,350.078 123.545,350.852 121.845 C 351.227 121.023,351.188 120.642,350.648 119.816 C 349.524 118.101,348.736 118.493,348.878 120.696 M50.480 121.680 C 49.384 122.776,50.321 126.400,51.700 126.400 C 52.150 126.400,52.448 124.062,52.180 122.634 C 51.904 121.161,51.324 120.836,50.480 121.680 M351.067 125.467 C 350.634 125.899,350.762 129.929,351.218 130.211 C 352.397 130.940,353.671 127.628,352.823 126.042 C 352.377 125.210,351.584 124.950,351.067 125.467 M48.480 128.080 C 47.642 128.918,47.871 131.905,48.796 132.199 C 49.945 132.563,50.401 132.129,50.395 130.676 C 50.383 127.957,49.628 126.932,48.480 128.080 M155.948 132.189 C 142.221 136.400,140.713 154.652,153.580 160.857 C 161.924 164.881,172.312 160.063,174.553 151.130 C 177.574 139.083,167.363 128.687,155.948 132.189 M207.192 132.176 C 198.614 134.809,194.491 142.152,196.592 151.059 C 199.186 162.060,213.929 166.043,221.900 157.897 C 232.897 146.657,222.015 127.627,207.192 132.176 M353.067 131.467 C 352.458 132.075,352.784 136.419,353.458 136.678 C 354.860 137.216,355.803 133.874,354.786 131.974 C 354.372 131.200,353.570 130.964,353.067 131.467 M46.191 136.124 C 45.754 139.035,46.043 140.200,47.200 140.200 C 48.124 140.200,48.209 140.040,48.320 138.112 C 48.529 134.504,46.691 132.788,46.191 136.124 M355.300 140.665 C 354.708 140.904,354.609 145.879,355.178 146.779 C 356.326 148.593,357.643 144.281,356.720 141.728 C 356.228 140.368,356.161 140.318,355.300 140.665 M44.671 144.322 C 43.674 145.423,43.757 148.856,44.802 149.802 C 45.933 150.826,46.200 150.326,46.200 147.187 C 46.200 144.084,45.712 143.171,44.671 144.322 M356.887 153.267 C 357.011 158.153,357.514 159.136,358.583 156.579 C 359.843 153.564,359.096 148.800,357.364 148.800 C 356.872 148.800,356.793 149.544,356.887 153.267 M42.392 154.300 C 41.698 156.660,42.038 163.213,42.881 163.743 C 43.896 164.382,44.160 163.842,44.334 160.770 C 44.686 154.529,43.492 150.552,42.392 154.300 M359.049 163.416 C 358.666 164.415,358.766 187.327,359.156 187.943 C 360.068 189.381,360.588 185.010,361.041 172.116 C 361.274 165.484,360.146 160.558,359.049 163.416 M40.572 171.500 C 39.487 173.918,40.034 211.907,41.183 213.953 C 42.029 215.461,42.200 212.248,42.200 194.800 C 42.200 171.162,42.001 168.314,40.572 171.500 M358.972 191.771 C 358.679 192.935,359.107 194.504,359.629 194.182 C 360.126 193.875,360.107 190.800,359.608 190.800 C 359.392 190.800,359.106 191.237,358.972 191.771 M361.049 203.416 C 360.632 204.503,360.778 218.149,361.214 218.800 C 362.916 221.340,363.736 212.937,362.537 205.232 C 362.198 203.049,361.511 202.211,361.049 203.416 M38.587 219.500 C 37.777 221.399,37.883 231.769,38.723 232.800 L 39.538 233.800 39.969 232.674 C 41.335 229.105,39.984 216.225,38.587 219.500 M363.067 223.467 C 362.641 223.893,362.771 232.138,363.214 232.800 C 363.556 233.311,363.739 233.253,364.440 232.416 C 365.303 231.385,365.301 231.492,364.571 225.300 C 364.342 223.359,363.815 222.718,363.067 223.467 M365.043 236.233 C 364.711 237.096,364.734 243.001,365.070 243.337 C 365.804 244.071,367.200 241.826,367.200 239.910 C 367.200 237.045,365.707 234.501,365.043 236.233 M36.597 237.604 C 36.142 238.341,35.903 244.975,36.280 246.399 C 36.805 248.381,37.822 248.446,38.140 246.519 C 38.959 241.565,37.907 235.486,36.597 237.604 M367.067 245.467 C 366.458 246.075,366.784 250.419,367.458 250.678 C 368.860 251.216,369.803 247.874,368.786 245.974 C 368.372 245.200,367.570 244.964,367.067 245.467 M34.390 252.226 C 33.683 254.085,33.909 256.994,34.824 257.822 C 35.908 258.802,36.385 258.111,36.394 255.550 C 36.407 251.627,35.310 249.807,34.390 252.226 M369.067 253.467 C 368.634 253.899,368.762 257.929,369.218 258.211 C 370.397 258.940,371.671 255.628,370.823 254.042 C 370.377 253.210,369.584 252.950,369.067 253.467 M371.067 259.867 C 370.665 260.268,370.746 263.520,371.164 263.778 C 372.580 264.653,373.948 261.136,372.580 260.136 C 371.757 259.534,371.453 259.480,371.067 259.867 M32.480 261.680 C 31.858 262.302,31.858 265.698,32.480 266.320 C 33.826 267.666,34.677 266.041,34.220 262.995 C 33.950 261.192,33.391 260.769,32.480 261.680 M30.671 270.322 C 29.691 271.405,29.770 274.468,30.802 275.402 C 31.919 276.413,32.200 275.927,32.200 272.987 C 32.200 270.071,31.695 269.190,30.671 270.322 M375.069 270.664 C 374.481 271.252,374.788 274.421,375.458 274.678 C 376.310 275.004,377.272 273.710,377.117 272.446 C 376.996 271.456,375.542 270.191,375.069 270.664 M28.437 277.731 C 27.778 278.961,28.027 281.211,28.881 281.746 C 29.746 282.287,29.979 282.038,30.266 280.271 C 30.735 277.381,29.524 275.699,28.437 277.731 M378.958 281.766 C 378.553 282.821,378.981 284.590,379.673 284.721 C 380.670 284.910,381.390 283.335,380.850 282.149 C 380.372 281.100,379.297 280.883,378.958 281.766 M26.662 284.331 C 25.690 285.405,25.799 287.682,26.854 288.341 C 28.203 289.183,28.871 287.200,28.148 284.500 C 27.855 283.409,27.530 283.372,26.662 284.331 M24.423 290.572 C 23.736 291.400,24.058 294.031,24.911 294.559 C 25.814 295.118,26.385 294.338,26.394 292.533 C 26.405 290.168,25.503 289.270,24.423 290.572 M384.958 295.766 C 384.553 296.821,384.981 298.590,385.673 298.721 C 386.670 298.910,387.390 297.335,386.850 296.149 C 386.372 295.100,385.297 294.883,384.958 295.766 M22.480 296.480 C 21.654 297.306,21.875 299.907,22.796 300.199 C 23.903 300.550,24.401 300.138,24.395 298.876 C 24.382 296.355,23.593 295.367,22.480 296.480 M20.480 302.080 C 19.763 302.797,19.901 304.586,20.731 305.338 C 21.727 306.239,21.896 306.182,22.189 304.851 C 22.701 302.519,21.686 300.874,20.480 302.080 M18.496 307.595 C 17.446 309.276,18.750 312.504,19.863 310.981 C 20.754 309.762,20.464 306.800,19.453 306.800 C 19.200 306.800,18.769 307.158,18.496 307.595 M16.161 312.958 C 15.398 314.945,17.026 318.336,18.005 316.800 C 18.546 315.952,18.492 313.452,17.920 312.880 C 17.275 312.235,16.424 312.273,16.161 312.958 M393.069 316.664 C 392.621 317.113,392.767 321.933,393.238 322.224 C 394.823 323.203,395.740 318.013,394.169 316.954 C 393.713 316.646,393.218 316.516,393.069 316.664 M14.480 318.080 C 13.715 318.845,13.897 320.717,14.783 321.191 C 15.810 321.741,16.563 320.453,16.195 318.777 C 15.923 317.538,15.282 317.278,14.480 318.080 M12.480 323.680 C 11.751 324.409,11.901 326.587,12.731 327.338 C 13.760 328.268,13.929 328.185,14.226 326.603 C 14.715 323.995,13.762 322.398,12.480 323.680 M395.049 325.416 C 394.455 326.965,394.777 344.016,395.405 344.257 C 396.603 344.717,397.289 343.591,397.009 341.623 C 396.708 339.504,396.711 337.662,397.025 332.334 C 397.311 327.483,396.008 322.918,395.049 325.416 M10.496 329.595 C 9.864 330.607,9.854 332.894,10.480 333.520 C 11.385 334.425,11.950 334.009,12.215 332.240 C 12.657 329.292,11.652 327.744,10.496 329.595 M8.480 335.680 C 7.636 336.524,7.870 340.958,8.802 341.802 C 9.792 342.697,10.009 342.500,10.283 340.459 C 10.759 336.906,9.799 334.361,8.480 335.680 M6.871 347.421 C 7.052 348.290,7.761 348.343,7.924 347.500 C 8.008 347.062,7.812 346.800,7.400 346.800 C 7.016 346.800,6.795 347.059,6.871 347.421 M74.100 351.065 C 72.635 351.656,75.092 353.203,77.480 353.194 C 80.182 353.183,83.096 351.885,81.988 351.184 C 81.383 350.801,74.993 350.705,74.100 351.065 M91.212 351.184 C 90.259 351.787,92.910 353.179,95.038 353.194 C 96.025 353.201,97.394 351.838,97.016 351.225 C 96.693 350.703,92.024 350.670,91.212 351.184 M388.900 351.700 C 388.992 351.975,389.307 352.200,389.600 352.200 C 389.893 352.200,390.208 351.975,390.300 351.700 C 390.399 351.403,390.116 351.200,389.600 351.200 C 389.084 351.200,388.801 351.403,388.900 351.700 M8.626 352.371 C 7.871 353.206,8.032 354.396,9.009 355.207 C 9.822 355.883,10.535 354.007,10.000 352.600 C 9.543 351.399,9.511 351.393,8.626 352.371 M66.651 353.117 C 66.221 353.812,67.628 355.200,68.763 355.200 C 70.596 355.200,72.457 354.390,72.316 353.654 C 72.178 352.928,67.067 352.444,66.651 353.117 M103.600 354.200 C 103.600 354.573,103.222 354.800,102.600 354.800 C 101.629 354.800,101.323 354.411,101.867 353.867 C 102.370 353.363,103.600 353.600,103.600 354.200 M378.800 355.236 C 378.800 356.086,380.612 357.173,382.051 357.187 C 383.619 357.201,384.632 356.383,384.257 355.405 C 383.975 354.670,378.800 354.510,378.800 355.236 M105.600 356.200 C 105.600 356.530,105.330 356.800,105.000 356.800 C 104.670 356.800,104.400 356.530,104.400 356.200 C 104.400 355.870,104.670 355.600,105.000 355.600 C 105.330 355.600,105.600 355.870,105.600 356.200 M10.871 357.421 C 11.052 358.290,11.761 358.343,11.924 357.500 C 12.008 357.062,11.812 356.800,11.400 356.800 C 11.016 356.800,10.795 357.059,10.871 357.421 M52.000 357.533 C 52.000 358.826,53.019 359.319,55.245 359.105 C 57.177 358.920,58.141 358.291,57.862 357.400 C 57.596 356.553,52.000 356.680,52.000 357.533 M340.003 357.189 C 337.886 358.528,342.075 358.873,361.286 358.943 C 377.874 359.003,379.230 358.866,378.224 357.238 C 377.877 356.677,340.889 356.629,340.003 357.189 M107.600 358.200 C 107.600 358.530,107.246 358.800,106.813 358.800 C 106.277 358.800,106.099 358.608,106.255 358.200 C 106.382 357.870,106.736 357.600,107.043 357.600 C 107.349 357.600,107.600 357.870,107.600 358.200 M44.800 359.391 C 44.800 361.067,48.763 361.690,49.994 360.207 C 50.815 359.218,50.038 358.800,47.376 358.800 C 45.371 358.800,44.800 358.931,44.800 359.391 M326.649 359.120 C 325.985 360.194,327.696 361.268,329.747 361.065 C 333.334 360.710,334.452 360.365,334.315 359.652 C 334.177 358.926,327.073 358.434,326.649 359.120 M35.784 361.225 C 34.686 363.003,40.514 364.036,42.456 362.408 C 43.262 361.732,43.312 361.557,42.800 361.214 C 41.994 360.674,36.119 360.683,35.784 361.225 M322.000 362.200 C 322.000 362.600,321.600 362.800,320.800 362.800 C 319.653 362.800,319.293 362.440,319.867 361.867 C 320.390 361.343,322.000 361.595,322.000 362.200 M108.597 362.953 C 107.945 363.429,107.910 363.610,108.364 364.157 C 109.055 364.989,109.846 364.977,110.172 364.129 C 110.588 363.046,109.540 362.263,108.597 362.953 M19.326 363.449 C 18.804 364.810,20.253 365.200,25.828 365.200 C 31.241 365.200,34.253 364.559,33.895 363.483 C 33.611 362.631,19.652 362.598,19.326 363.449 M318.800 364.200 C 318.800 364.530,318.530 364.800,318.200 364.800 C 317.870 364.800,317.600 364.530,317.600 364.200 C 317.600 363.870,317.870 363.600,318.200 363.600 C 318.530 363.600,318.800 363.870,318.800 364.200 M113.056 366.199 C 113.791 366.934,113.622 368.550,112.794 368.707 C 112.338 368.794,112.177 368.421,112.145 367.211 C 112.098 365.427,112.186 365.329,113.056 366.199 M316.800 366.200 C 316.800 366.530,316.530 366.800,316.200 366.800 C 315.870 366.800,315.600 366.530,315.600 366.200 C 315.600 365.870,315.870 365.600,316.200 365.600 C 316.530 365.600,316.800 365.870,316.800 366.200 M114.604 372.948 C 113.880 373.477,113.876 373.551,114.531 374.552 C 115.410 375.892,115.852 375.878,116.125 374.500 C 116.422 372.998,115.634 372.194,114.604 372.948 M204.626 373.158 C 204.504 373.355,204.720 373.907,205.106 374.384 C 206.662 376.305,223.426 375.184,222.224 373.238 C 221.890 372.698,204.958 372.621,204.626 373.158 M198.000 375.520 C 198.000 377.276,200.764 377.827,202.456 376.408 C 203.723 375.345,202.942 374.814,200.100 374.806 C 198.342 374.801,198.000 374.917,198.000 375.520 M222.640 375.135 C 222.220 375.815,223.642 377.200,224.761 377.200 C 225.971 377.200,227.440 375.913,227.016 375.225 C 226.706 374.724,222.942 374.647,222.640 375.135 M192.193 377.211 C 191.848 377.769,193.595 379.170,194.656 379.187 C 195.969 379.207,197.573 377.732,196.800 377.214 C 196.012 376.686,192.519 376.684,192.193 377.211 M235.200 378.200 C 235.631 378.719,235.442 378.800,233.800 378.800 C 232.158 378.800,231.969 378.719,232.400 378.200 C 232.674 377.870,233.304 377.600,233.800 377.600 C 234.296 377.600,234.926 377.870,235.200 378.200 M187.784 379.225 C 187.438 379.786,188.738 381.200,189.600 381.200 C 190.462 381.200,191.762 379.786,191.416 379.225 C 191.271 378.991,190.454 378.800,189.600 378.800 C 188.746 378.800,187.929 378.991,187.784 379.225 M121.600 380.243 C 121.600 380.549,121.240 380.800,120.800 380.800 C 119.923 380.800,119.892 380.748,120.233 379.858 C 120.510 379.136,121.600 379.443,121.600 380.243 M182.206 381.191 C 181.859 381.752,183.567 383.171,184.600 383.181 C 185.783 383.191,186.498 382.603,186.336 381.752 C 186.172 380.891,182.684 380.417,182.206 381.191 M172.640 385.135 C 172.270 385.735,173.622 387.200,174.546 387.200 C 175.828 387.200,176.984 386.255,176.678 385.458 C 176.407 384.753,173.043 384.484,172.640 385.135 M249.057 386.200 C 249.590 386.733,249.449 386.800,247.780 386.800 C 246.156 386.800,245.969 386.719,246.400 386.200 C 246.674 385.870,247.249 385.600,247.678 385.600 C 248.106 385.600,248.727 385.870,249.057 386.200 M162.000 389.520 C 162.000 390.593,162.805 391.200,164.231 391.200 C 165.640 391.200,166.615 390.337,166.257 389.405 C 165.890 388.449,162.000 388.554,162.000 389.520 M133.776 390.213 C 134.488 390.751,134.358 390.800,132.227 390.800 C 130.206 390.800,129.967 390.722,130.400 390.200 C 131.030 389.441,132.764 389.447,133.776 390.213 M296.945 392.200 C 297.123 392.666,296.848 392.800,295.711 392.800 C 294.338 392.800,294.295 392.764,295.024 392.213 C 296.026 391.454,296.657 391.450,296.945 392.200 M134.645 393.128 C 133.649 394.738,137.889 395.880,140.320 394.656 C 141.144 394.241,141.969 394.201,143.800 394.484 C 149.985 395.443,154.401 395.005,153.895 393.483 C 153.704 392.910,134.993 392.564,134.645 393.128 M290.145 396.200 C 290.331 396.686,289.981 396.800,288.311 396.800 C 286.410 396.800,286.309 396.754,287.024 396.213 C 288.038 395.445,289.852 395.438,290.145 396.200 M268.800 399.400 C 268.363 399.926,268.763 399.998,272.051 399.987 C 275.435 399.976,275.724 399.917,275.024 399.387 C 273.953 398.577,269.475 398.586,268.800 399.400 " stroke="none" fill="#121212" fill-rule="evenodd"></path></g></svg>